<?xml version="1.0" encoding="UTF-8" standalone="no"?>
<svg
   xmlns:dc="http://purl.org/dc/elements/1.1/"
   xmlns:cc="http://creativecommons.org/ns#"
   xmlns:rdf="http://www.w3.org/1999/02/22-rdf-syntax-ns#"
   xmlns:svg="http://www.w3.org/2000/svg"
   xmlns="http://www.w3.org/2000/svg"
   xmlns:sodipodi="http://sodipodi.sourceforge.net/DTD/sodipodi-0.dtd"
   xmlns:inkscape="http://www.inkscape.org/namespaces/inkscape"
   version="1.1"
   viewBox="0 0 260.15222 348.87665"
   stroke-miterlimit="10"
   id="svg2"
   inkscape:version="0.91 r13725"
   sodipodi:docname="render-base-classes-uml.svg"
   width="260.15222"
   height="348.87665"
   style="fill:none;stroke:none;stroke-linecap:square;stroke-miterlimit:10">
  <metadata
     id="metadata103">
    <rdf:RDF>
      <cc:Work
         rdf:about="">
        <dc:format>image/svg+xml</dc:format>
        <dc:type
           rdf:resource="http://purl.org/dc/dcmitype/StillImage" />
        <dc:title></dc:title>
      </cc:Work>
    </rdf:RDF>
  </metadata>
  <defs
     id="defs101" />
  <sodipodi:namedview
     pagecolor="#ffffff"
     bordercolor="#666666"
     borderopacity="1"
     objecttolerance="10"
     gridtolerance="10"
     guidetolerance="10"
     inkscape:pageopacity="0"
     inkscape:pageshadow="2"
     inkscape:window-width="1680"
     inkscape:window-height="987"
     id="namedview99"
     showgrid="false"
     fit-margin-left="0.5"
     fit-margin-top="0.5"
     fit-margin-right="0.5"
     fit-margin-bottom="0.5"
     inkscape:zoom="1.9236565"
     inkscape:cx="-20.492378"
     inkscape:cy="154.81437"
     inkscape:window-x="1272"
     inkscape:window-y="-8"
     inkscape:window-maximized="1"
     inkscape:current-layer="svg2" />
  <clipPath
     id="p.0">
    <path
       d="M 0,0 259,0 259,347 0,347 0,0 Z"
       id="path5"
       inkscape:connector-curvature="0"
       style="clip-rule:nonzero" />
  </clipPath>
  <path
     style="fill:#000000;fill-opacity:0;fill-rule:nonzero"
     inkscape:connector-curvature="0"
     id="path9"
     d="m 0.5,0.5 259.15222,0 0,347.87665 -259.15222,0 z" />
  <g
     id="g4316"
     transform="translate(-0.6430435,0.5)">
    <path
       d="m 49.506557,2 162.425193,0 0,27.023623 -162.425193,0 z"
       id="path11"
       inkscape:connector-curvature="0"
       style="fill:#ffffff;fill-rule:nonzero" />
    <path
       d="m 49.506557,2 162.425193,0 0,27.023623 -162.425193,0 z"
       id="path13"
       inkscape:connector-curvature="0"
       style="fill-rule:nonzero;stroke:#000000;stroke-width:1;stroke-linecap:butt;stroke-linejoin:round" />
    <path
       d="m 115.13091,16.704935 1.53125,-0.07813 q 0.0312,0.734375 0.26562,0.984375 0.34375,0.421875 1.29688,0.421875 0.79687,0 1.15625,-0.28125 0.35937,-0.28125 0.35937,-0.6875 0,-0.359375 -0.29687,-0.59375 -0.20313,-0.171875 -1.125,-0.5625 -0.90625,-0.40625 -1.32813,-0.671875 -0.42187,-0.265625 -0.67187,-0.6875 -0.23438,-0.4375 -0.23438,-1 0,-1 0.71875,-1.65625 0.71875,-0.65625 2.07813,-0.65625 1.39062,0 2.14062,0.65625 0.76563,0.65625 0.84375,1.734375 l -1.54687,0.0625 q -0.0625,-0.5625 -0.42188,-0.859375 -0.34375,-0.296875 -1.01562,-0.296875 -0.67188,0 -0.96875,0.234375 -0.28125,0.234375 -0.28125,0.59375 0,0.34375 0.26562,0.5625 0.26563,0.21875 1.15625,0.609375 1.35938,0.59375 1.73438,0.953125 0.54687,0.53125 0.54687,1.375 0,1.046875 -0.82812,1.796875 -0.8125,0.734375 -2.28125,0.734375 -1.01563,0 -1.76563,-0.34375 -0.73437,-0.34375 -1.04687,-0.953125 -0.3125,-0.609375 -0.28125,-1.390625 z m 6.84201,2.546875 1.65625,-7.875 2.6875,0 q 0.875,0 1.21875,0.04687 0.57812,0.09375 0.98437,0.34375 0.40625,0.234375 0.60938,0.640625 0.21875,0.390625 0.21875,0.875 0,0.65625 -0.375,1.140625 -0.35938,0.484375 -1.125,0.734375 0.60937,0.15625 0.95312,0.59375 0.34375,0.421875 0.34375,0.953125 0,0.71875 -0.40625,1.359375 -0.40625,0.625 -1.125,0.90625 -0.70312,0.28125 -1.92187,0.28125 l -3.71875,0 z m 2.60937,-4.6875 1.23438,0 q 0.82812,0 1.1875,-0.125 0.375,-0.125 0.54687,-0.390625 0.1875,-0.265625 0.1875,-0.578125 0,-0.296875 -0.17187,-0.484375 -0.17188,-0.203125 -0.48438,-0.265625 -0.1875,-0.03125 -0.85937,-0.03125 l -1.25,0 -0.39063,1.875 z m -0.71875,3.421875 1.5625,0 q 0.98438,0 1.3125,-0.125 0.34375,-0.125 0.54688,-0.40625 0.20312,-0.296875 0.20312,-0.625 0,-0.390625 -0.29687,-0.640625 -0.29688,-0.265625 -0.96875,-0.265625 l -1.9375,0 -0.42188,2.0625 z m 7.97685,-2.828125 -1.5,-0.125 q 0.26563,-0.765625 0.90625,-1.1875 0.64063,-0.4375 1.70313,-0.4375 1.09375,0 1.60937,0.453125 0.53125,0.4375 0.53125,1.078125 0,0.25 -0.0469,0.546875 -0.0312,0.296875 -0.3125,1.53125 -0.21875,1.015625 -0.21875,1.421875 0,0.359375 0.125,0.8125 l -1.5,0 q -0.0937,-0.3125 -0.10938,-0.640625 -0.34375,0.375 -0.78125,0.578125 -0.4375,0.203125 -0.89062,0.203125 -0.70313,0 -1.17188,-0.46875 -0.45312,-0.46875 -0.45312,-1.203125 0,-0.8125 0.5,-1.296875 0.51562,-0.484375 1.8125,-0.59375 1.10937,-0.09375 1.46875,-0.21875 0.10937,-0.328125 0.10937,-0.515625 0,-0.25 -0.20312,-0.40625 -0.20313,-0.171875 -0.59375,-0.171875 -0.40625,0 -0.65625,0.171875 -0.23438,0.15625 -0.32813,0.46875 z m 1.46875,1.4375 q -0.14062,0.03125 -0.35937,0.0625 -1.17188,0.140625 -1.51563,0.40625 -0.26562,0.203125 -0.26562,0.53125 0,0.265625 0.1875,0.453125 0.20312,0.1875 0.51562,0.1875 0.35938,0 0.65625,-0.171875 0.3125,-0.171875 0.46875,-0.4375 0.15625,-0.265625 0.28125,-0.828125 l 0.0312,-0.203125 z m 2.08275,1.0625 1.5,-0.234375 q 0.20313,0.46875 0.5,0.671875 0.29688,0.1875 0.79688,0.1875 0.53125,0 0.84375,-0.234375 0.21875,-0.15625 0.21875,-0.390625 0,-0.15625 -0.10938,-0.28125 -0.10937,-0.125 -0.64062,-0.296875 -1.39063,-0.453125 -1.73438,-0.71875 -0.51562,-0.421875 -0.51562,-1.09375 0,-0.6875 0.5,-1.171875 0.70312,-0.6875 2.09375,-0.6875 1.10937,0 1.67187,0.40625 0.5625,0.40625 0.70313,1.09375 l -1.42188,0.25 q -0.10937,-0.3125 -0.35937,-0.46875 -0.34375,-0.21875 -0.82813,-0.21875 -0.48437,0 -0.70312,0.171875 -0.20313,0.15625 -0.20313,0.359375 0,0.21875 0.21875,0.359375 0.125,0.09375 0.85938,0.296875 1.125,0.328125 1.51562,0.65625 0.53125,0.4375 0.53125,1.0625 0,0.8125 -0.6875,1.421875 -0.67187,0.59375 -1.92187,0.59375 -1.23438,0 -1.90625,-0.453125 -0.67188,-0.46875 -0.92188,-1.28125 z m 11.69212,-0.78125 -3.875,0 q 0,0.09375 0,0.140625 0,0.5625 0.3125,0.921875 0.32813,0.34375 0.79688,0.34375 0.76562,0 1.20312,-0.796875 l 1.375,0.234375 q -0.39062,0.828125 -1.07812,1.25 -0.67188,0.421875 -1.5,0.421875 -1.15625,0 -1.875,-0.734375 -0.71875,-0.734375 -0.71875,-1.921875 0,-1.171875 0.65625,-2.09375 0.875,-1.234375 2.51562,-1.234375 1.04688,0 1.67188,0.65625 0.625,0.640625 0.625,1.8125 0,0.5625 -0.10938,1 z m -1.3125,-0.9375 q 0.0156,-0.109375 0.0156,-0.15625 0,-0.640625 -0.29688,-0.953125 -0.28125,-0.3125 -0.75,-0.3125 -0.48437,0 -0.85937,0.359375 -0.375,0.359375 -0.51563,1.0625 l 2.40625,0 z"
       id="path15"
       inkscape:connector-curvature="0"
       style="fill:#000000;fill-rule:nonzero" />
  </g>
  <path
     style="fill:#ffffff;fill-rule:nonzero"
     inkscape:connector-curvature="0"
     id="path17"
     d="m 7.1312866,195.07349 245.8897734,0 0,62.23624 -245.8897734,0 z" />
  <path
     style="fill-rule:nonzero;stroke:#0b5394;stroke-width:1;stroke-linecap:butt;stroke-linejoin:round"
     inkscape:connector-curvature="0"
     id="path19"
     d="m 7.1312866,195.07349 245.8897734,0 0,62.23624 -245.8897734,0 z" />
  <path
     style="fill:#ffffff;fill-rule:nonzero"
     inkscape:connector-curvature="0"
     id="path29"
     d="m 7.1311598,178.95013 245.8897702,0 0,16.7559 -245.8897702,0 z" />
  <path
     style="fill-rule:nonzero;stroke:#0b5394;stroke-width:1;stroke-linecap:butt;stroke-linejoin:round"
     inkscape:connector-curvature="0"
     id="path31"
     d="m 7.1311598,178.95013 245.8897702,0 0,16.7559 -245.8897702,0 z" />
  <path
     style="fill:#ffffff;fill-rule:nonzero"
     inkscape:connector-curvature="0"
     id="path35"
     d="m 40.642878,303.2743 178.866122,0 0,41.35431 -178.866123,0 z" />
  <path
     style="fill-rule:nonzero;stroke:#0b5394;stroke-width:1;stroke-linecap:butt;stroke-linejoin:round"
     inkscape:connector-curvature="0"
     id="path37"
     d="m 40.642878,303.2743 178.866122,0 0,41.35431 -178.866123,0 z" />
  <path
     style="fill:#ffffff;fill-rule:nonzero"
     inkscape:connector-curvature="0"
     id="path43"
     d="m 40.643213,287.1509 178.866127,0 0,16.75592 -178.866128,0 z" />
  <path
     style="fill-rule:nonzero;stroke:#0b5394;stroke-width:1;stroke-linecap:butt;stroke-linejoin:round"
     inkscape:connector-curvature="0"
     id="path45"
     d="m 40.643213,287.1509 178.866127,0 0,16.75592 -178.866128,0 z" />
  <path
     style="fill:#ffffff;fill-rule:nonzero"
     inkscape:connector-curvature="0"
     id="path49"
     d="m 37.083989,122.0853 185.984251,0 0,27.02362 -185.984251,0 z" />
  <path
     style="fill-rule:nonzero;stroke:#0b5394;stroke-width:1;stroke-linecap:butt;stroke-linejoin:round"
     inkscape:connector-curvature="0"
     id="path51"
     d="m 37.083989,122.0853 185.984251,0 0,27.02362 -185.984251,0 z" />
  <path
     style="fill:#0b5394;fill-rule:nonzero"
     inkscape:connector-curvature="0"
     id="path53"
     d="m 48.927739,138.47774 0.125,0.84375 q -0.40625,0.0937 -0.71875,0.0937 -0.53125,0 -0.828125,-0.17188 -0.28125,-0.17187 -0.40625,-0.4375 -0.109375,-0.26562 -0.109375,-1.14062 l 0,-3.28125 -0.71875,0 0,-0.75 0.71875,0 0,-1.40625 0.953125,-0.59375 0,2 0.984375,0 0,0.75 -0.984375,0 0,3.34375 q 0,0.40625 0.04687,0.53125 0.0625,0.10937 0.171875,0.1875 0.125,0.0625 0.328125,0.0625 0.171875,0 0.4375,-0.0312 z m 0.835648,0.85937 0,-5.70312 0.859375,0 0,0.85937 q 0.34375,-0.60937 0.625,-0.79687 0.28125,-0.1875 0.609375,-0.1875 0.5,0 1,0.3125 l -0.328125,0.89062 q -0.359375,-0.20312 -0.71875,-0.20312 -0.3125,0 -0.5625,0.1875 -0.25,0.1875 -0.359375,0.53125 -0.15625,0.51562 -0.15625,1.125 l 0,2.98437 -0.96875,0 z m 7.282989,-0.70312 q -0.546875,0.45312 -1.046875,0.64062 -0.484375,0.1875 -1.0625,0.1875 -0.9375,0 -1.453125,-0.45312 -0.5,-0.46875 -0.5,-1.17188 0,-0.42187 0.1875,-0.76562 0.203125,-0.34375 0.5,-0.54688 0.3125,-0.21875 0.703125,-0.32812 0.28125,-0.0781 0.859375,-0.14063 1.171875,-0.14062 1.71875,-0.34375 0.01563,-0.1875 0.01563,-0.25 0,-0.59375 -0.28125,-0.82812 -0.359375,-0.32813 -1.09375,-0.32813 -0.6875,0 -1.015625,0.23438 -0.3125,0.23437 -0.46875,0.84375 l -0.953125,-0.125 q 0.125,-0.60938 0.421875,-0.98438 0.296875,-0.375 0.859375,-0.5625 0.5625,-0.20312 1.296875,-0.20312 0.734375,0 1.1875,0.17187 0.453125,0.17188 0.65625,0.4375 0.21875,0.25 0.3125,0.64063 0.04687,0.25 0.04687,0.90625 l 0,1.28125 q 0,1.34375 0.0625,1.70312 0.0625,0.35938 0.25,0.6875 l -1.015625,0 q -0.15625,-0.29687 -0.1875,-0.70312 z m -0.09375,-2.15625 q -0.515625,0.21875 -1.578125,0.35937 -0.59375,0.0937 -0.84375,0.20313 -0.234375,0.0937 -0.375,0.3125 -0.140625,0.20312 -0.140625,0.45312 0,0.39063 0.296875,0.65625 0.296875,0.25 0.859375,0.25 0.5625,0 0.984375,-0.25 0.4375,-0.25 0.65625,-0.67187 0.140625,-0.32813 0.140625,-0.96875 l 0,-0.34375 z m 2.285873,2.85937 0,-5.70312 0.875,0 0,0.8125 q 0.625,-0.9375 1.8125,-0.9375 0.515625,0 0.953125,0.1875 0.4375,0.17187 0.640625,0.48437 0.21875,0.29688 0.3125,0.70313 0.04687,0.28125 0.04687,0.95312 l 0,3.5 -0.96875,0 0,-3.46875 q 0,-0.59375 -0.109375,-0.875 -0.109375,-0.29687 -0.40625,-0.46875 -0.28125,-0.1875 -0.671875,-0.1875 -0.609375,0 -1.0625,0.39063 -0.453125,0.39062 -0.453125,1.5 l 0,3.10937 -0.96875,0 z m 5.551499,-1.70312 0.953125,-0.15625 q 0.07813,0.57812 0.4375,0.89062 0.375,0.29688 1.03125,0.29688 0.671875,0 0.984375,-0.26563 0.328125,-0.26562 0.328125,-0.64062 0,-0.32813 -0.28125,-0.51563 -0.203125,-0.125 -0.984375,-0.32812 -1.0625,-0.26563 -1.484375,-0.45313 -0.40625,-0.20312 -0.625,-0.54687 -0.203125,-0.34375 -0.203125,-0.76563 0,-0.39062 0.171875,-0.70312 0.171875,-0.32813 0.484375,-0.54688 0.21875,-0.17187 0.609375,-0.28125 0.390625,-0.10937 0.828125,-0.10937 0.671875,0 1.171875,0.1875 0.515625,0.1875 0.75,0.53125 0.25,0.32812 0.34375,0.875 l -0.9375,0.125 q -0.07813,-0.4375 -0.390625,-0.67188 -0.296875,-0.25 -0.859375,-0.25 -0.671875,0 -0.953125,0.21875 -0.28125,0.21875 -0.28125,0.51563 0,0.1875 0.109375,0.32812 0.125,0.15625 0.375,0.26563 0.140625,0.0469 0.859375,0.25 1.015625,0.26562 1.421875,0.4375 0.40625,0.17187 0.640625,0.51562 0.234375,0.32813 0.234375,0.82813 0,0.48437 -0.28125,0.90625 -0.28125,0.42187 -0.8125,0.65625 -0.53125,0.23437 -1.203125,0.23437 -1.109375,0 -1.703125,-0.45312 -0.578125,-0.46875 -0.734375,-1.375 z m 5.9375,1.70312 0,-4.95312 -0.84375,0 0,-0.75 0.84375,0 0,-0.60938 q 0,-0.57812 0.109375,-0.85937 0.140625,-0.375 0.484375,-0.60938 0.359375,-0.23437 0.984375,-0.23437 0.40625,0 0.90625,0.10937 l -0.140625,0.84375 q -0.3125,-0.0625 -0.578125,-0.0625 -0.4375,0 -0.625,0.1875 -0.171875,0.1875 -0.171875,0.70313 l 0,0.53125 1.109375,0 0,0.75 -1.109375,0 0,4.95312 -0.96875,0 z m 2.366897,-2.85937 q 0,-1.57813 0.890625,-2.34375 0.734375,-0.625 1.796875,-0.625 1.171875,0 1.90625,0.76562 0.75,0.76563 0.75,2.125 0,1.10938 -0.328125,1.75 -0.328125,0.625 -0.96875,0.96875 -0.625,0.34375 -1.359375,0.34375 -1.203125,0 -1.953125,-0.76562 -0.734375,-0.76563 -0.734375,-2.21875 z m 1,0 q 0,1.10937 0.46875,1.65625 0.484375,0.53125 1.21875,0.53125 0.71875,0 1.1875,-0.54688 0.484375,-0.54687 0.484375,-1.67187 0,-1.04688 -0.484375,-1.59375 -0.484375,-0.54688 -1.1875,-0.54688 -0.734375,0 -1.21875,0.54688 -0.46875,0.53125 -0.46875,1.625 z m 5.285874,2.85937 0,-5.70312 0.859375,0 0,0.85937 q 0.34375,-0.60937 0.625,-0.79687 0.28125,-0.1875 0.609375,-0.1875 0.5,0 1,0.3125 l -0.328125,0.89062 q -0.359375,-0.20312 -0.71875,-0.20312 -0.3125,0 -0.5625,0.1875 -0.25,0.1875 -0.359375,0.53125 -0.15625,0.51562 -0.15625,1.125 l 0,2.98437 -0.96875,0 z m 3.548614,0 0,-5.70312 0.875,0 0,0.79687 q 0.265625,-0.42187 0.703125,-0.67187 0.453125,-0.25 1.015625,-0.25 0.640625,0 1.046875,0.26562 0.40625,0.25 0.578125,0.73438 0.671875,-1 1.75,-1 0.859375,0 1.3125,0.46875 0.453125,0.46875 0.453125,1.4375 l 0,3.92187 -0.953125,0 0,-3.59375 q 0,-0.57812 -0.09375,-0.82812 -0.09375,-0.26563 -0.34375,-0.42188 -0.25,-0.15625 -0.578125,-0.15625 -0.609375,0 -1.015625,0.40625 -0.390625,0.40625 -0.390625,1.28125 l 0,3.3125 -0.96875,0 0,-3.70312 q 0,-0.64063 -0.234375,-0.96875 -0.234375,-0.32813 -0.765625,-0.32813 -0.40625,0 -0.765625,0.21875 -0.34375,0.21875 -0.5,0.64063 -0.15625,0.40625 -0.15625,1.1875 l 0,2.95312 -0.96875,0 z m 9.15799,-4.60937 0,-1.09375 1.09375,0 0,1.09375 -1.09375,0 z m 0,4.60937 0,-1.09375 1.09375,0 0,1.09375 -1.09375,0 z m 5.265045,-1.70312 0.953125,-0.15625 q 0.07813,0.57812 0.4375,0.89062 0.375,0.29688 1.03125,0.29688 0.671867,0 0.984367,-0.26563 0.32813,-0.26562 0.32813,-0.64062 0,-0.32813 -0.28125,-0.51563 -0.20313,-0.125 -0.984377,-0.32812 -1.062495,-0.26563 -1.48437,-0.45313 -0.40625,-0.20312 -0.625,-0.54687 -0.203125,-0.34375 -0.203125,-0.76563 0,-0.39062 0.171875,-0.70312 0.171875,-0.32813 0.484375,-0.54688 0.21875,-0.17187 0.609375,-0.28125 0.390625,-0.10937 0.82812,-0.10937 0.671877,0 1.171877,0.1875 0.51562,0.1875 0.75,0.53125 0.25,0.32812 0.34375,0.875 l -0.9375,0.125 q -0.0781,-0.4375 -0.39063,-0.67188 -0.29687,-0.25 -0.859367,-0.25 -0.671875,0 -0.953125,0.21875 -0.28125,0.21875 -0.28125,0.51563 0,0.1875 0.109375,0.32812 0.125,0.15625 0.375,0.26563 0.140625,0.0469 0.85937,0.25 1.015627,0.26562 1.421877,0.4375 0.40625,0.17187 0.64062,0.51562 0.23438,0.32813 0.23438,0.82813 0,0.48437 -0.28125,0.90625 -0.28125,0.42187 -0.8125,0.65625 -0.53125,0.23437 -1.203127,0.23437 -1.10937,0 -1.70312,-0.45312 -0.578125,-0.46875 -0.734375,-1.375 z m 7.828122,0.84375 0.125,0.84375 q -0.40625,0.0937 -0.71875,0.0937 -0.53125,0 -0.82813,-0.17188 -0.28125,-0.17187 -0.40625,-0.4375 -0.10937,-0.26562 -0.10937,-1.14062 l 0,-3.28125 -0.71875,0 0,-0.75 0.71875,0 0,-1.40625 0.95312,-0.59375 0,2 0.98438,0 0,0.75 -0.98438,0 0,3.34375 q 0,0.40625 0.0469,0.53125 0.0625,0.10937 0.17187,0.1875 0.125,0.0625 0.32813,0.0625 0.17187,0 0.4375,-0.0312 z m 0.83565,0.85937 0,-5.70312 0.85937,0 0,0.85937 q 0.34375,-0.60937 0.625,-0.79687 0.28125,-0.1875 0.60938,-0.1875 0.5,0 1,0.3125 l -0.32813,0.89062 q -0.35937,-0.20312 -0.71875,-0.20312 -0.3125,0 -0.5625,0.1875 -0.25,0.1875 -0.35937,0.53125 -0.15625,0.51562 -0.15625,1.125 l 0,2.98437 -0.96875,0 z m 3.56424,-6.76562 0,-1.10938 0.96875,0 0,1.10938 -0.96875,0 z m 0,6.76562 0,-5.70312 0.96875,0 0,5.70312 -0.96875,0 z m 2.35185,0 0,-5.70312 0.875,0 0,0.8125 q 0.625,-0.9375 1.8125,-0.9375 0.51562,0 0.95312,0.1875 0.4375,0.17187 0.64063,0.48437 0.21875,0.29688 0.3125,0.70313 0.0469,0.28125 0.0469,0.95312 l 0,3.5 -0.96875,0 0,-3.46875 q 0,-0.59375 -0.10937,-0.875 -0.10938,-0.29687 -0.40625,-0.46875 -0.28125,-0.1875 -0.67188,-0.1875 -0.60937,0 -1.0625,0.39063 -0.45312,0.39062 -0.45312,1.5 l 0,3.10937 -0.96875,0 z m 5.75462,0.46875 0.9375,0.14063 q 0.0625,0.4375 0.32813,0.64062 0.35937,0.26563 0.98437,0.26563 0.67188,0 1.03125,-0.26563 0.375,-0.26562 0.5,-0.75 0.0781,-0.29687 0.0781,-1.25 -0.64063,0.75 -1.59375,0.75 -1.17188,0 -1.8125,-0.84375 -0.64063,-0.85937 -0.64063,-2.04687 0,-0.8125 0.29688,-1.5 0.29687,-0.6875 0.84375,-1.0625 0.5625,-0.375 1.32812,-0.375 1,0 1.65625,0.8125 l 0,-0.6875 0.89063,0 0,4.92187 q 0,1.34375 -0.26563,1.89063 -0.26562,0.5625 -0.85937,0.875 -0.59375,0.32812 -1.45313,0.32812 -1.01562,0 -1.64062,-0.46875 -0.625,-0.45312 -0.60938,-1.375 z m 0.79688,-3.42187 q 0,1.125 0.4375,1.64062 0.45312,0.51563 1.125,0.51563 0.67187,0 1.125,-0.51563 0.45312,-0.51562 0.45312,-1.60937 0,-1.04688 -0.46875,-1.57813 -0.46875,-0.53125 -1.125,-0.53125 -0.64062,0 -1.09375,0.53125 -0.45312,0.51563 -0.45312,1.54688 z m 7.85589,-0.32813 q 0.40625,-0.0156 0.65625,-0.21875 0.26563,-0.21875 0.34375,-0.59375 0.0938,-0.375 0.0938,-1.26562 0.0156,-0.89063 0.0469,-1.1875 0.0469,-0.45313 0.17187,-0.71875 0.14063,-0.28125 0.32813,-0.4375 0.20312,-0.17188 0.5,-0.25 0.20312,-0.0625 0.65625,-0.0625 l 0.3125,0 0,0.84375 -0.17188,0 q -0.5625,0 -0.75,0.20312 -0.17187,0.20313 -0.17187,0.90625 0,1.40625 -0.0625,1.78125 -0.0937,0.5625 -0.32813,0.875 -0.23437,0.3125 -0.73437,0.5625 0.59375,0.25 0.85937,0.76563 0.26563,0.5 0.26563,1.64062 0,1.0625 0.0156,1.25 0.0469,0.375 0.21875,0.51563 0.17188,0.14062 0.6875,0.14062 l 0.17188,0 0,0.84375 -0.3125,0 q -0.51563,0 -0.75,-0.0781 -0.34375,-0.125 -0.57813,-0.40625 -0.21875,-0.28125 -0.29687,-0.70313 -0.0625,-0.42187 -0.0781,-1.39062 0,-0.96875 -0.0938,-1.32813 -0.0781,-0.375 -0.34375,-0.59375 -0.25,-0.21875 -0.65625,-0.21875 l 0,-0.875 z m 10.67592,3.28125 0,-0.84375 q -0.67187,0.96875 -1.8125,0.96875 -0.5,0 -0.95312,-0.1875 -0.4375,-0.20312 -0.65625,-0.48437 -0.20313,-0.29688 -0.28125,-0.71875 -0.0625,-0.28125 -0.0625,-0.90625 l 0,-3.53125 0.96875,0 0,3.15625 q 0,0.76562 0.0625,1.03125 0.0937,0.375 0.375,0.59375 0.29687,0.21875 0.73437,0.21875 0.4375,0 0.8125,-0.21875 0.39063,-0.23438 0.54688,-0.60938 0.15625,-0.39062 0.15625,-1.10937 l 0,-3.0625 0.96875,0 0,5.70312 -0.85938,0 z m 1.8015,-1.70312 0.95313,-0.15625 q 0.0781,0.57812 0.4375,0.89062 0.375,0.29688 1.03125,0.29688 0.67187,0 0.98437,-0.26563 0.32813,-0.26562 0.32813,-0.64062 0,-0.32813 -0.28125,-0.51563 -0.20313,-0.125 -0.98438,-0.32812 -1.0625,-0.26563 -1.48437,-0.45313 -0.40625,-0.20312 -0.625,-0.54687 -0.20313,-0.34375 -0.20313,-0.76563 0,-0.39062 0.17188,-0.70312 0.17187,-0.32813 0.48437,-0.54688 0.21875,-0.17187 0.60938,-0.28125 0.39062,-0.10937 0.82812,-0.10937 0.67188,0 1.17188,0.1875 0.51562,0.1875 0.75,0.53125 0.25,0.32812 0.34375,0.875 l -0.9375,0.125 q -0.0781,-0.4375 -0.39063,-0.67188 -0.29687,-0.25 -0.85937,-0.25 -0.67188,0 -0.95313,0.21875 -0.28125,0.21875 -0.28125,0.51563 0,0.1875 0.10938,0.32812 0.125,0.15625 0.375,0.26563 0.14062,0.0469 0.85937,0.25 1.01563,0.26562 1.42188,0.4375 0.40625,0.17187 0.64062,0.51562 0.23438,0.32813 0.23438,0.82813 0,0.48437 -0.28125,0.90625 -0.28125,0.42187 -0.8125,0.65625 -0.53125,0.23437 -1.20313,0.23437 -1.10937,0 -1.70312,-0.45312 -0.57813,-0.46875 -0.73438,-1.375 z m 9.60938,-0.14063 1,0.125 q -0.23438,0.875 -0.875,1.35938 -0.64063,0.48437 -1.625,0.48437 -1.25,0 -1.98438,-0.76562 -0.73437,-0.76563 -0.73437,-2.15625 0,-1.45313 0.73437,-2.23438 0.75,-0.79687 1.92188,-0.79687 1.15625,0 1.875,0.78125 0.71875,0.76562 0.71875,2.1875 0,0.0781 0,0.25 l -4.25,0 q 0.0469,0.9375 0.51562,1.4375 0.48438,0.5 1.20313,0.5 0.53125,0 0.90625,-0.26563 0.375,-0.28125 0.59375,-0.90625 z m -3.17188,-1.5625 3.1875,0 q -0.0625,-0.71875 -0.35937,-1.07812 -0.46875,-0.54688 -1.20313,-0.54688 -0.67187,0 -1.125,0.45313 -0.45312,0.4375 -0.5,1.17187 z m 10.28587,-1.21875 -5.20312,0 0,-0.90625 5.20312,0 0,0.90625 z m 0,2.39063 -5.20312,0 0,-0.90625 5.20312,0 0,0.90625 z m 1.19184,-2.85938 -0.28125,-1.48437 0,-1.29688 1.10937,0 0,1.29688 -0.25,1.48437 -0.57812,0 z m 1.76562,0 -0.26562,-1.48437 0,-1.29688 1.10937,0 0,1.29688 -0.26562,1.48437 -0.57813,0 z m 1.59526,2.23438 q 0,-1.57813 0.89063,-2.34375 0.73437,-0.625 1.79687,-0.625 1.17188,0 1.90625,0.76562 0.75,0.76563 0.75,2.125 0,1.10938 -0.32812,1.75 -0.32813,0.625 -0.96875,0.96875 -0.625,0.34375 -1.35938,0.34375 -1.20312,0 -1.95312,-0.76562 -0.73438,-0.76563 -0.73438,-2.21875 z m 1,0 q 0,1.10937 0.46875,1.65625 0.48438,0.53125 1.21875,0.53125 0.71875,0 1.1875,-0.54688 0.48438,-0.54687 0.48438,-1.67187 0,-1.04688 -0.48438,-1.59375 -0.48437,-0.54688 -1.1875,-0.54688 -0.73437,0 -1.21875,0.54688 -0.46875,0.53125 -0.46875,1.625 z m 5.28588,5.04687 0,-7.89062 0.89062,0 0,0.73437 q 0.3125,-0.42187 0.70313,-0.64062 0.39062,-0.21875 0.95312,-0.21875 0.71875,0 1.28125,0.375 0.5625,0.375 0.84375,1.0625 0.28125,0.67187 0.28125,1.5 0,0.875 -0.3125,1.57812 -0.3125,0.6875 -0.92187,1.0625 -0.59375,0.375 -1.25,0.375 -0.48438,0 -0.875,-0.20312 -0.375,-0.20313 -0.625,-0.51563 l 0,2.78125 -0.96875,0 z m 0.875,-5 q 0,1.09375 0.45312,1.625 0.45313,0.51563 1.07813,0.51563 0.64062,0 1.09375,-0.53125 0.46875,-0.54688 0.46875,-1.70313 0,-1.07812 -0.45313,-1.625 -0.4375,-0.54687 -1.0625,-0.54687 -0.625,0 -1.10937,0.57812 -0.46875,0.57813 -0.46875,1.6875 z m 7.1765,1.95313 0.125,0.84375 q -0.40625,0.0937 -0.71875,0.0937 -0.53125,0 -0.82813,-0.17188 -0.28125,-0.17187 -0.40625,-0.4375 -0.10937,-0.26562 -0.10937,-1.14062 l 0,-3.28125 -0.71875,0 0,-0.75 0.71875,0 0,-1.40625 0.95312,-0.59375 0,2 0.98438,0 0,0.75 -0.98438,0 0,3.34375 q 0,0.40625 0.0469,0.53125 0.0625,0.10937 0.17187,0.1875 0.125,0.0625 0.32813,0.0625 0.17187,0 0.4375,-0.0312 z m 0.85127,-5.90625 0,-1.10938 0.96875,0 0,1.10938 -0.96875,0 z m 0,6.76562 0,-5.70312 0.96875,0 0,5.70312 -0.96875,0 z m 1.99248,-2.85937 q 0,-1.57813 0.89062,-2.34375 0.73438,-0.625 1.79688,-0.625 1.17187,0 1.90625,0.76562 0.75,0.76563 0.75,2.125 0,1.10938 -0.32813,1.75 -0.32812,0.625 -0.96875,0.96875 -0.625,0.34375 -1.35937,0.34375 -1.20313,0 -1.95313,-0.76562 -0.73437,-0.76563 -0.73437,-2.21875 z m 1,0 q 0,1.10937 0.46875,1.65625 0.48437,0.53125 1.21875,0.53125 0.71875,0 1.1875,-0.54688 0.48437,-0.54687 0.48437,-1.67187 0,-1.04688 -0.48437,-1.59375 -0.48438,-0.54688 -1.1875,-0.54688 -0.73438,0 -1.21875,0.54688 -0.46875,0.53125 -0.46875,1.625 z m 5.28587,2.85937 0,-5.70312 0.875,0 0,0.8125 q 0.625,-0.9375 1.8125,-0.9375 0.51562,0 0.95312,0.1875 0.4375,0.17187 0.64063,0.48437 0.21875,0.29688 0.3125,0.70313 0.0469,0.28125 0.0469,0.95312 l 0,3.5 -0.96875,0 0,-3.46875 q 0,-0.59375 -0.10937,-0.875 -0.10938,-0.29687 -0.40625,-0.46875 -0.28125,-0.1875 -0.67188,-0.1875 -0.60937,0 -1.0625,0.39063 -0.45312,0.39062 -0.45312,1.5 l 0,3.10937 -0.96875,0 z m 9.66087,-0.70312 q -0.54687,0.45312 -1.04687,0.64062 -0.48438,0.1875 -1.0625,0.1875 -0.9375,0 -1.45313,-0.45312 -0.5,-0.46875 -0.5,-1.17188 0,-0.42187 0.1875,-0.76562 0.20313,-0.34375 0.5,-0.54688 0.3125,-0.21875 0.70313,-0.32812 0.28125,-0.0781 0.85937,-0.14063 1.17188,-0.14062 1.71875,-0.34375 0.0156,-0.1875 0.0156,-0.25 0,-0.59375 -0.28125,-0.82812 -0.35938,-0.32813 -1.09375,-0.32813 -0.6875,0 -1.01563,0.23438 -0.3125,0.23437 -0.46875,0.84375 l -0.95312,-0.125 q 0.125,-0.60938 0.42187,-0.98438 0.29688,-0.375 0.85938,-0.5625 0.5625,-0.20312 1.29687,-0.20312 0.73438,0 1.1875,0.17187 0.45313,0.17188 0.65625,0.4375 0.21875,0.25 0.3125,0.64063 0.0469,0.25 0.0469,0.90625 l 0,1.28125 q 0,1.34375 0.0625,1.70312 0.0625,0.35938 0.25,0.6875 l -1.01563,0 q -0.15625,-0.29687 -0.1875,-0.70312 z m -0.0937,-2.15625 q -0.51562,0.21875 -1.57812,0.35937 -0.59375,0.0937 -0.84375,0.20313 -0.23438,0.0937 -0.375,0.3125 -0.14063,0.20312 -0.14063,0.45312 0,0.39063 0.29688,0.65625 0.29687,0.25 0.85937,0.25 0.5625,0 0.98438,-0.25 0.4375,-0.25 0.65625,-0.67187 0.14062,-0.32813 0.14062,-0.96875 l 0,-0.34375 z m 2.27025,2.85937 0,-7.875 0.96875,0 0,7.875 -0.96875,0 z m 2.4456,-5.09375 -0.28125,-1.48437 0,-1.29688 1.10938,0 0,1.29688 -0.25,1.48437 -0.57813,0 z m 1.76563,0 -0.26563,-1.48437 0,-1.29688 1.10938,0 0,1.29688 -0.26563,1.48437 -0.57812,0 z m 4.59526,1.8125 0,0.875 q -0.40625,0 -0.67188,0.21875 -0.26562,0.21875 -0.35937,0.59375 -0.0781,0.35938 -0.0781,1.26563 0,0.89062 -0.0312,1.17187 -0.0469,0.45313 -0.1875,0.71875 -0.125,0.28125 -0.32812,0.4375 -0.1875,0.17188 -0.48438,0.25 -0.20312,0.0625 -0.67187,0.0625 l -0.29688,0 0,-0.84375 0.17188,0 q 0.5625,0 0.73437,-0.20312 0.1875,-0.20313 0.1875,-0.90625 0,-1.34375 0.0469,-1.70313 0.0937,-0.59375 0.34375,-0.9375 0.26562,-0.35937 0.73437,-0.5625 -0.625,-0.29687 -0.875,-0.78125 -0.25,-0.48437 -0.25,-1.64062 0,-1.04688 -0.0312,-1.25 -0.0312,-0.35938 -0.21875,-0.5 -0.17187,-0.15625 -0.67187,-0.15625 l -0.17188,0 0,-0.84375 0.29688,0 q 0.53125,0 0.76562,0.0937 0.34375,0.125 0.5625,0.40625 0.23438,0.26562 0.29688,0.70312 0.0781,0.42188 0.0781,1.39063 0,0.95312 0.0781,1.32812 0.0937,0.35938 0.35937,0.57813 0.26563,0.21875 0.67188,0.23437 z" />
  <path
     style="fill:#ffffff;fill-rule:nonzero"
     inkscape:connector-curvature="0"
     id="path55"
     d="m 37.083977,105.96195 185.984243,0 0,16.7559 -185.984243,0 z" />
  <path
     style="fill-rule:nonzero;stroke:#0b5394;stroke-width:1;stroke-linecap:butt;stroke-linejoin:round"
     inkscape:connector-curvature="0"
     id="path57"
     d="m 37.083977,105.96195 185.984243,0 0,16.7559 -185.984243,0 z" />
  <path
     style="fill:#ffffff;fill-rule:nonzero"
     inkscape:connector-curvature="0"
     id="path61"
     d="m 37.083984,59.36483 185.984256,0 0,16.755905 -185.984256,0 z" />
  <path
     style="fill-rule:nonzero;stroke:#0b5394;stroke-width:1;stroke-linecap:butt;stroke-linejoin:round"
     inkscape:connector-curvature="0"
     id="path63"
     d="m 37.083984,59.36483 185.984256,0 0,16.755905 -185.984256,0 z" />
  <path
     style="fill:#000000;fill-opacity:0;fill-rule:nonzero"
     inkscape:connector-curvature="0"
     id="path67"
     d="M 130.21784,58.901573 129.93438,41.137794" />
  <path
     style="fill-rule:nonzero;stroke:#0b5394;stroke-width:1;stroke-linecap:butt;stroke-linejoin:round"
     inkscape:connector-curvature="0"
     id="path69"
     d="M 130.21784,58.901573 129.93438,41.137794" />
  <g
     id="g4321"
     transform="translate(-0.64304,0.5)">
    <path
       d="m 124.65616,42.733795 6.06299,-12.629921 6.06299,12.629921 z"
       id="path71"
       inkscape:connector-curvature="0"
       style="fill:#ffffff;fill-rule:nonzero" />
    <path
       d="m 124.65616,42.733795 6.06299,-12.629921 6.06299,12.629921 z"
       id="path73"
       inkscape:connector-curvature="0"
       style="fill-rule:nonzero;stroke:#0b5394;stroke-width:1;stroke-linecap:butt;stroke-linejoin:round" />
  </g>
  <path
     style="fill:#000000;fill-opacity:0;fill-rule:nonzero"
     inkscape:connector-curvature="0"
     id="path75"
     d="m 130.07611,105.96195 0,-19.307095" />
  <path
     style="fill-rule:nonzero;stroke:#0b5394;stroke-width:1;stroke-linecap:butt;stroke-linejoin:round"
     inkscape:connector-curvature="0"
     id="path77"
     d="m 130.07611,105.96195 0,-19.307095" />
  <g
     id="g4325"
     transform="translate(-0.64304,0.5)">
    <path
       d="m 124.65616,88.250854 6.06299,-12.629921 6.06299,12.629921 z"
       id="path79"
       inkscape:connector-curvature="0"
       style="fill:#ffffff;fill-rule:nonzero" />
    <path
       d="m 124.65616,88.250854 6.06299,-12.629921 6.06299,12.629921 z"
       id="path81"
       inkscape:connector-curvature="0"
       style="fill-rule:nonzero;stroke:#0b5394;stroke-width:1;stroke-linecap:butt;stroke-linejoin:round" />
  </g>
  <path
     style="fill:#000000;fill-opacity:0;fill-rule:nonzero"
     inkscape:connector-curvature="0"
     id="path83"
     d="m 130.07611,178.95013 0,-19.30708" />
  <path
     style="fill-rule:nonzero;stroke:#0b5394;stroke-width:1;stroke-linecap:butt;stroke-linejoin:round"
     inkscape:connector-curvature="0"
     id="path85"
     d="m 130.07611,178.95013 0,-19.30708" />
  <g
     id="g4329"
     transform="translate(-0.64304,0.5)">
    <path
       d="m 124.65616,161.23904 6.06299,-12.62991 6.06299,12.62991 z"
       id="path87"
       inkscape:connector-curvature="0"
       style="fill:#ffffff;fill-rule:nonzero" />
    <path
       d="m 124.65616,161.23904 6.06299,-12.62991 6.06299,12.62991 z"
       id="path89"
       inkscape:connector-curvature="0"
       style="fill-rule:nonzero;stroke:#0b5394;stroke-width:1;stroke-linecap:butt;stroke-linejoin:round" />
  </g>
  <path
     style="fill:#000000;fill-opacity:0;fill-rule:nonzero"
     inkscape:connector-curvature="0"
     id="path91"
     d="m 130.21784,286.50262 -0.28346,-18.64566" />
  <path
     style="fill-rule:nonzero;stroke:#0b5394;stroke-width:1;stroke-linecap:butt;stroke-linejoin:round"
     inkscape:connector-curvature="0"
     id="path93"
     d="m 130.21784,286.50262 -0.28346,-18.64566" />
  <g
     id="g4333"
     transform="translate(-0.64304,0.5)">
    <path
       d="m 124.65616,269.43985 6.06299,-12.62994 6.06299,12.62994 z"
       id="path95"
       inkscape:connector-curvature="0"
       style="fill:#ffffff;fill-rule:nonzero" />
    <path
       d="m 124.65616,269.43985 6.06299,-12.62994 6.06299,12.62994 z"
       id="path97"
       inkscape:connector-curvature="0"
       style="fill-rule:nonzero;stroke:#0b5394;stroke-width:1;stroke-linecap:butt;stroke-linejoin:round" />
  </g>
  <text
     xml:space="preserve"
     style="font-style:normal;font-variant:normal;font-weight:normal;font-stretch:normal;font-size:10px;line-height:125%;font-family:'Segoe UI';-inkscape-font-specification:'Segoe UI';letter-spacing:0px;word-spacing:0px;fill:#0b5394;fill-opacity:1;stroke:none;stroke-width:1px;stroke-linecap:butt;stroke-linejoin:miter;stroke-opacity:1"
     x="88.336304"
     y="71.769272"
     id="text4189"
     sodipodi:linespacing="125%"><tspan
       sodipodi:role="line"
       id="tspan4191"
       x="88.336304"
       y="71.769272"
       style="font-style:italic;font-variant:normal;font-weight:bold;font-stretch:normal;font-size:11.25px;line-height:125%;font-family:Arial;-inkscape-font-specification:'Arial, Bold Italic';text-align:start;writing-mode:lr-tb;text-anchor:start;fill:#0b5394;fill-opacity:1">Transformation</tspan></text>
  <text
     xml:space="preserve"
     style="font-style:normal;font-variant:normal;font-weight:normal;font-stretch:normal;font-size:10px;line-height:125%;font-family:'Segoe UI';-inkscape-font-specification:'Segoe UI';letter-spacing:0px;word-spacing:0px;fill:#0b5394;fill-opacity:1;stroke:none;stroke-width:1px;stroke-linecap:butt;stroke-linejoin:miter;stroke-miterlimit:10;stroke-opacity:1"
     x="81.016647"
     y="118.36639"
     id="text4189-9"
     sodipodi:linespacing="125%"><tspan
       sodipodi:role="line"
       id="tspan4191-8"
       x="81.016647"
       y="118.36639"
       style="font-style:italic;font-variant:normal;font-weight:bold;font-stretch:normal;font-size:11.25px;line-height:125%;font-family:Arial;-inkscape-font-specification:'Arial, Bold Italic';text-align:start;writing-mode:lr-tb;text-anchor:start;fill:#0b5394;fill-opacity:1">Transformation2D</tspan></text>
  <text
     xml:space="preserve"
     style="font-style:normal;font-variant:normal;font-weight:normal;font-stretch:normal;font-size:10px;line-height:125%;font-family:'Segoe UI';-inkscape-font-specification:'Segoe UI';letter-spacing:0px;word-spacing:0px;fill:#0b5394;fill-opacity:1;stroke:none;stroke-width:1px;stroke-linecap:butt;stroke-linejoin:miter;stroke-miterlimit:10;stroke-opacity:1"
     x="72.658745"
     y="190.31087"
     id="text4189-9-3"
     sodipodi:linespacing="125%"><tspan
       sodipodi:role="line"
       id="tspan4191-8-1"
       x="72.658745"
       y="190.31087"
       style="font-style:italic;font-variant:normal;font-weight:bold;font-stretch:normal;font-size:11.25px;line-height:125%;font-family:Arial;-inkscape-font-specification:'Arial, Bold Italic';text-align:start;writing-mode:lr-tb;text-anchor:start;fill:#0b5394;fill-opacity:1">GraphicalPrimitive1D</tspan></text>
  <text
     xml:space="preserve"
     style="font-style:normal;font-variant:normal;font-weight:normal;font-stretch:normal;font-size:10px;line-height:125%;font-family:'Segoe UI';-inkscape-font-specification:'Segoe UI';letter-spacing:0px;word-spacing:0px;fill:#0b5394;fill-opacity:1;stroke:none;stroke-width:1px;stroke-linecap:butt;stroke-linejoin:miter;stroke-miterlimit:10;stroke-opacity:1"
     x="72.658981"
     y="298.51166"
     id="text4189-9-3-2"
     sodipodi:linespacing="125%"><tspan
       sodipodi:role="line"
       id="tspan4191-8-1-6"
       x="72.658981"
       y="298.51166"
       style="font-style:italic;font-variant:normal;font-weight:bold;font-stretch:normal;font-size:11.25px;line-height:125%;font-family:Arial;-inkscape-font-specification:'Arial, Bold Italic';text-align:start;writing-mode:lr-tb;text-anchor:start;fill:#0b5394;fill-opacity:1">GraphicalPrimitive2D</tspan></text>
  <text
     xml:space="preserve"
     style="font-style:normal;font-variant:normal;font-weight:normal;font-stretch:normal;font-size:11.25px;line-height:125%;font-family:Arial;-inkscape-font-specification:'Arial, Normal';text-align:start;letter-spacing:0px;word-spacing:0px;writing-mode:lr-tb;text-anchor:start;fill:#0b5394;fill-opacity:1;stroke:none;stroke-width:1px;stroke-linecap:butt;stroke-linejoin:miter;stroke-opacity:1"
     x="50.301464"
     y="319.83157"
     id="text4277"
     sodipodi:linespacing="125%"><tspan
       sodipodi:role="line"
       id="tspan4279"
       x="50.301464"
       y="319.83157">fill: string {use=&quot;optional&quot;}</tspan><tspan
       sodipodi:role="line"
       x="50.301464"
       y="333.89407"
       id="tspan4281">fill-rule: FillRule {use=&quot;optional&quot;}</tspan></text>
  <text
     xml:space="preserve"
     style="font-style:normal;font-variant:normal;font-weight:normal;font-stretch:normal;font-size:11.25px;line-height:125%;font-family:Arial;-inkscape-font-specification:'Arial, Normal';text-align:start;letter-spacing:0px;word-spacing:0px;writing-mode:lr-tb;text-anchor:start;fill:#0b5394;fill-opacity:1;stroke:none;stroke-width:1px;stroke-linecap:butt;stroke-linejoin:miter;stroke-opacity:1"
     x="40.708496"
     y="208.00923"
     id="text4283"
     sodipodi:linespacing="125%"><tspan
       sodipodi:role="line"
       id="tspan4285"
       x="40.708496"
       y="208.00923">id: SId {use=&quot;optional&quot;}</tspan><tspan
       sodipodi:role="line"
       x="40.708496"
       y="222.07173"
       id="tspan4287">stroke: string {use=&quot;optional&quot;}</tspan><tspan
       sodipodi:role="line"
       x="40.708496"
       y="236.13423"
       id="tspan4289">stroke-width: double {use=&quot;optional&quot;}</tspan><tspan
       sodipodi:role="line"
       x="40.708496"
       y="250.19673"
       id="tspan4291">stroke-dasharray: string {use=&quot;optional&quot;}</tspan></text>
</svg>
