<?xml version="1.0" encoding="UTF-8" standalone="no"?>
<svg
   xmlns:dc="http://purl.org/dc/elements/1.1/"
   xmlns:cc="http://creativecommons.org/ns#"
   xmlns:rdf="http://www.w3.org/1999/02/22-rdf-syntax-ns#"
   xmlns:svg="http://www.w3.org/2000/svg"
   xmlns="http://www.w3.org/2000/svg"
   xmlns:sodipodi="http://sodipodi.sourceforge.net/DTD/sodipodi-0.dtd"
   xmlns:inkscape="http://www.inkscape.org/namespaces/inkscape"
   version="1.1"
   viewBox="0 0 660.54071 284.69424"
   stroke-miterlimit="10"
   id="svg2"
   inkscape:version="0.91 r13725"
   sodipodi:docname="render-listoflayout-uml.svg"
   width="660.54071"
   height="284.69424"
   style="fill:none;stroke:none;stroke-linecap:square;stroke-miterlimit:10">
  <metadata
     id="metadata151">
    <rdf:RDF>
      <cc:Work
         rdf:about="">
        <dc:format>image/svg+xml</dc:format>
        <dc:type
           rdf:resource="http://purl.org/dc/dcmitype/StillImage" />
        <dc:title></dc:title>
      </cc:Work>
    </rdf:RDF>
  </metadata>
  <defs
     id="defs149" />
  <sodipodi:namedview
     pagecolor="#ffffff"
     bordercolor="#666666"
     borderopacity="1"
     objecttolerance="10"
     gridtolerance="10"
     guidetolerance="10"
     inkscape:pageopacity="0"
     inkscape:pageshadow="2"
     inkscape:window-width="1680"
     inkscape:window-height="987"
     id="namedview147"
     showgrid="false"
     inkscape:zoom="2.0000001"
     inkscape:cx="242.62399"
     inkscape:cy="183.39691"
     inkscape:window-x="1272"
     inkscape:window-y="-8"
     inkscape:window-maximized="1"
     inkscape:current-layer="svg2"
     fit-margin-left="0.5"
     fit-margin-top="0.5"
     fit-margin-right="0.5"
     fit-margin-bottom="0.5" />
  <clipPath
     id="p.0">
    <path
       d="M 0,0 659,0 659,245 0,245 0,0 Z"
       id="path5"
       inkscape:connector-curvature="0"
       style="clip-rule:nonzero" />
  </clipPath>
  <path
     style="fill:#000000;fill-opacity:0;fill-rule:nonzero"
     inkscape:connector-curvature="0"
     id="path9"
     d="m 0.5,0.5 659.5407,0 0,245.49869 -659.5407,0 z" />
  <path
     style="fill:#000000;fill-opacity:0;fill-rule:nonzero"
     inkscape:connector-curvature="0"
     id="path11"
     d="m 219.86745,222.18242 140.62993,0" />
  <path
     style="fill-rule:nonzero;stroke:#0b5394;stroke-width:1;stroke-linecap:butt;stroke-linejoin:round"
     inkscape:connector-curvature="0"
     id="path13"
     d="m 219.89088,222.18242 142.78068,0" />
  <path
     style="fill:#ffffff;fill-rule:nonzero"
     inkscape:connector-curvature="0"
     id="path15"
     d="m 348.84647,8.990813 162.42517,0 0,27.02362 -162.42517,0 z" />
  <path
     style="fill-rule:nonzero;stroke:#000000;stroke-width:1;stroke-linecap:butt;stroke-linejoin:round"
     inkscape:connector-curvature="0"
     id="path17"
     d="m 348.84647,8.990813 162.42517,0 0,27.02362 -162.42517,0 z" />
  <path
     style="fill:#000000;fill-rule:nonzero"
     inkscape:connector-curvature="0"
     id="path19"
     d="m 414.4708,23.69575 1.53125,-0.07813 q 0.0312,0.734375 0.26562,0.984375 0.34375,0.421875 1.29688,0.421875 0.79687,0 1.15625,-0.28125 0.35937,-0.28125 0.35937,-0.6875 0,-0.359375 -0.29687,-0.59375 -0.20313,-0.171875 -1.125,-0.5625 -0.90625,-0.40625 -1.32813,-0.671875 -0.42187,-0.265625 -0.67187,-0.6875 -0.23438,-0.4375 -0.23438,-1 0,-1 0.71875,-1.65625 0.71875,-0.65625 2.07813,-0.65625 1.39062,0 2.14062,0.65625 0.76563,0.65625 0.84375,1.734375 l -1.54687,0.0625 q -0.0625,-0.5625 -0.42188,-0.859375 -0.34375,-0.296875 -1.01562,-0.296875 -0.67188,0 -0.96875,0.234375 -0.28125,0.234375 -0.28125,0.59375 0,0.34375 0.26562,0.5625 0.26563,0.21875 1.15625,0.609375 1.35938,0.59375 1.73438,0.953125 0.54687,0.53125 0.54687,1.375 0,1.046875 -0.82812,1.796875 -0.8125,0.734375 -2.28125,0.734375 -1.01563,0 -1.76563,-0.34375 -0.73437,-0.34375 -1.04687,-0.953125 -0.3125,-0.609375 -0.28125,-1.390625 z m 6.84201,2.546875 1.65625,-7.875 2.6875,0 q 0.875,0 1.21875,0.04687 0.57813,0.09375 0.98438,0.34375 0.40625,0.234375 0.60937,0.640625 0.21875,0.390625 0.21875,0.875 0,0.65625 -0.375,1.140625 -0.35937,0.484375 -1.125,0.734375 0.60938,0.15625 0.95313,0.59375 0.34375,0.421875 0.34375,0.953125 0,0.71875 -0.40625,1.359375 -0.40625,0.625 -1.125,0.90625 -0.70313,0.28125 -1.92188,0.28125 l -3.71875,0 z m 2.60938,-4.6875 1.23437,0 q 0.82813,0 1.1875,-0.125 0.375,-0.125 0.54688,-0.390625 0.1875,-0.265625 0.1875,-0.578125 0,-0.296875 -0.17188,-0.484375 -0.17187,-0.203125 -0.48437,-0.265625 -0.1875,-0.03125 -0.85938,-0.03125 l -1.25,0 -0.39062,1.875 z m -0.71875,3.421875 1.5625,0 q 0.98437,0 1.3125,-0.125 0.34375,-0.125 0.54687,-0.40625 0.20313,-0.296875 0.20313,-0.625 0,-0.390625 -0.29688,-0.640625 -0.29687,-0.265625 -0.96875,-0.265625 l -1.9375,0 -0.42187,2.0625 z m 7.97686,-2.828125 -1.5,-0.125 q 0.26563,-0.765625 0.90625,-1.1875 0.64063,-0.4375 1.70313,-0.4375 1.09375,0 1.60937,0.453125 0.53125,0.4375 0.53125,1.078125 0,0.25 -0.0469,0.546875 -0.0312,0.296875 -0.3125,1.53125 -0.21875,1.015625 -0.21875,1.421875 0,0.359375 0.125,0.8125 l -1.5,0 q -0.0937,-0.3125 -0.10938,-0.640625 -0.34375,0.375 -0.78125,0.578125 -0.4375,0.203125 -0.89062,0.203125 -0.70313,0 -1.17188,-0.46875 -0.45312,-0.46875 -0.45312,-1.203125 0,-0.8125 0.5,-1.296875 0.51562,-0.484375 1.8125,-0.59375 1.10937,-0.09375 1.46875,-0.21875 0.10937,-0.328125 0.10937,-0.515625 0,-0.25 -0.20312,-0.40625 -0.20313,-0.171875 -0.59375,-0.171875 -0.40625,0 -0.65625,0.171875 -0.23438,0.15625 -0.32813,0.46875 z m 1.46875,1.4375 q -0.14062,0.03125 -0.35937,0.0625 -1.17188,0.140625 -1.51563,0.40625 -0.26562,0.203125 -0.26562,0.53125 0,0.265625 0.1875,0.453125 0.20312,0.1875 0.51562,0.1875 0.35938,0 0.65625,-0.171875 0.3125,-0.171875 0.46875,-0.4375 Q 432.4928,24.352 432.6178,23.7895 l 0.0312,-0.203125 z m 2.08274,1.0625 1.5,-0.234375 q 0.20312,0.46875 0.5,0.671875 0.29687,0.1875 0.79687,0.1875 0.53125,0 0.84375,-0.234375 0.21875,-0.15625 0.21875,-0.390625 0,-0.15625 -0.10937,-0.28125 -0.10938,-0.125 -0.64063,-0.296875 -1.39062,-0.453125 -1.73437,-0.71875 -0.51563,-0.421875 -0.51563,-1.09375 0,-0.6875 0.5,-1.171875 0.70313,-0.6875 2.09375,-0.6875 1.10938,0 1.67188,0.40625 0.5625,0.40625 0.70312,1.09375 l -1.42187,0.25 q -0.10938,-0.3125 -0.35938,-0.46875 -0.34375,-0.21875 -0.82812,-0.21875 -0.48438,0 -0.70313,0.171875 -0.20312,0.15625 -0.20312,0.359375 0,0.21875 0.21875,0.359375 0.125,0.09375 0.85937,0.296875 1.125,0.328125 1.51563,0.65625 0.53125,0.4375 0.53125,1.0625 0,0.8125 -0.6875,1.421875 -0.67188,0.59375 -1.92188,0.59375 -1.23437,0 -1.90625,-0.453125 -0.67187,-0.46875 -0.92187,-1.28125 z m 11.69214,-0.78125 -3.875,0 q 0,0.09375 0,0.140625 0,0.5625 0.3125,0.921875 0.32812,0.34375 0.79687,0.34375 0.76563,0 1.20313,-0.796875 l 1.375,0.234375 q -0.39063,0.828125 -1.07813,1.25 -0.67187,0.421875 -1.5,0.421875 -1.15625,0 -1.875,-0.734375 -0.71875,-0.734375 -0.71875,-1.921875 0,-1.171875 0.65625,-2.09375 0.875,-1.234375 2.51563,-1.234375 1.04687,0 1.67187,0.65625 0.625,0.640625 0.625,1.8125 0,0.5625 -0.10937,1 z m -1.3125,-0.9375 q 0.0156,-0.109375 0.0156,-0.15625 0,-0.640625 -0.29687,-0.953125 -0.28125,-0.3125 -0.75,-0.3125 -0.48438,0 -0.85938,0.359375 -0.375,0.359375 -0.51562,1.0625 l 2.40625,0 z" />
  <path
     style="fill:#ffffff;fill-rule:nonzero"
     inkscape:connector-curvature="0"
     id="path21"
     d="m 424.87747,48.644356 6.06299,-12.629921 6.06299,12.629921 z" />
  <path
     style="fill-rule:nonzero;stroke:#0b5394;stroke-width:1;stroke-linecap:butt;stroke-linejoin:round"
     inkscape:connector-curvature="0"
     id="path23"
     d="m 424.87747,48.644356 6.06299,-12.629921 6.06299,12.629921 z" />
  <path
     style="fill:#000000;fill-opacity:0;fill-rule:nonzero"
     inkscape:connector-curvature="0"
     id="path25"
     d="m 220.3924,178.50262 0,-56.063" />
  <path
     style="fill-rule:nonzero;stroke:#0b5394;stroke-width:1;stroke-linecap:butt;stroke-linejoin:round"
     inkscape:connector-curvature="0"
     id="path27"
     d="m 220.3924,222.67465 0,-100.23503" />
  <path
     style="fill:#000000;fill-opacity:0;fill-rule:nonzero"
     inkscape:connector-curvature="0"
     id="path29"
     d="m 204.19817,208.67061 121.25984,0 0,14.99213 -121.25984,0 z" />
  <path
     style="fill:#0b5394;fill-rule:nonzero"
     inkscape:connector-curvature="0"
     id="path31"
     d="m 223.4916,219.90666 0,-5.70313 0.85937,0 0,0.85938 q 0.34375,-0.60938 0.625,-0.79688 0.28125,-0.1875 0.60938,-0.1875 0.5,0 1,0.3125 l -0.32813,0.89063 q -0.35937,-0.20313 -0.71875,-0.20313 -0.3125,0 -0.5625,0.1875 -0.25,0.1875 -0.35937,0.53125 -0.15625,0.51563 -0.15625,1.125 l 0,2.98438 -0.96875,0 z m 7.45486,-1.84375 1,0.125 q -0.23437,0.875 -0.875,1.35937 -0.64062,0.48438 -1.625,0.48438 -1.25,0 -1.98437,-0.76563 -0.73438,-0.76562 -0.73438,-2.15625 0,-1.45312 0.73438,-2.23437 0.75,-0.79688 1.92187,-0.79688 1.15625,0 1.875,0.78125 0.71875,0.76563 0.71875,2.1875 0,0.0781 0,0.25 l -4.25,0 q 0.0469,0.9375 0.51563,1.4375 0.48437,0.5 1.20312,0.5 0.53125,0 0.90625,-0.26562 0.375,-0.28125 0.59375,-0.90625 z m -3.17187,-1.5625 3.1875,0 q -0.0625,-0.71875 -0.35938,-1.07813 -0.46875,-0.54687 -1.20312,-0.54687 -0.67188,0 -1.125,0.45312 -0.45313,0.4375 -0.5,1.17188 z m 5.19212,3.40625 0,-5.70313 0.875,0 0,0.8125 q 0.625,-0.9375 1.8125,-0.9375 0.51563,0 0.95313,0.1875 0.4375,0.17188 0.64062,0.48438 0.21875,0.29687 0.3125,0.70312 0.0469,0.28125 0.0469,0.95313 l 0,3.5 -0.96875,0 0,-3.46875 q 0,-0.59375 -0.10938,-0.875 -0.10937,-0.29688 -0.40625,-0.46875 -0.28125,-0.1875 -0.67187,-0.1875 -0.60938,0 -1.0625,0.39062 -0.45313,0.39063 -0.45313,1.5 l 0,3.10938 -0.96875,0 z m 9.62963,0 0,-0.71875 q -0.53125,0.84375 -1.59375,0.84375 -0.67188,0 -1.25,-0.375 -0.57813,-0.375 -0.89063,-1.04688 -0.3125,-0.67187 -0.3125,-1.54687 0,-0.85938 0.28125,-1.54688 0.29688,-0.70312 0.85938,-1.0625 0.5625,-0.375 1.26562,-0.375 0.51563,0 0.92188,0.21875 0.40625,0.21875 0.65625,0.5625 l 0,-2.82812 0.96875,0 0,7.875 -0.90625,0 z m -3.04688,-2.84375 q 0,1.09375 0.45313,1.64062 0.46875,0.53125 1.09375,0.53125 0.64062,0 1.07812,-0.51562 0.4375,-0.51563 0.4375,-1.57813 0,-1.17187 -0.45312,-1.71875 -0.4375,-0.54687 -1.10938,-0.54687 -0.64062,0 -1.07812,0.53125 -0.42188,0.51562 -0.42188,1.65625 z m 9.1765,1 1,0.125 q -0.23438,0.875 -0.875,1.35937 -0.64063,0.48438 -1.625,0.48438 -1.25,0 -1.98438,-0.76563 -0.73437,-0.76562 -0.73437,-2.15625 0,-1.45312 0.73437,-2.23437 0.75,-0.79688 1.92188,-0.79688 1.15625,0 1.875,0.78125 0.71875,0.76563 0.71875,2.1875 0,0.0781 0,0.25 l -4.25,0 q 0.0469,0.9375 0.51562,1.4375 0.48438,0.5 1.20313,0.5 0.53125,0 0.90625,-0.26562 0.375,-0.28125 0.59375,-0.90625 z m -3.17188,-1.5625 3.1875,0 q -0.0625,-0.71875 -0.35937,-1.07813 -0.46875,-0.54687 -1.20313,-0.54687 -0.67187,0 -1.125,0.45312 -0.45312,0.4375 -0.5,1.17188 z m 5.19213,3.40625 0,-5.70313 0.85937,0 0,0.85938 q 0.34375,-0.60938 0.625,-0.79688 0.28125,-0.1875 0.60938,-0.1875 0.5,0 1,0.3125 l -0.32813,0.89063 q -0.35937,-0.20313 -0.71875,-0.20313 -0.3125,0 -0.5625,0.1875 -0.25,0.1875 -0.35937,0.53125 -0.15625,0.51563 -0.15625,1.125 l 0,2.98438 -0.96875,0 z m 3.86111,0 0,-7.875 1.03125,0 0,7.875 -1.03125,0 z m 2.64815,0 0,-5.70313 0.875,0 0,0.8125 q 0.625,-0.9375 1.8125,-0.9375 0.51562,0 0.95312,0.1875 0.4375,0.17188 0.64063,0.48438 0.21875,0.29687 0.3125,0.70312 0.0469,0.28125 0.0469,0.95313 l 0,3.5 -0.96875,0 0,-3.46875 q 0,-0.59375 -0.10937,-0.875 -0.10938,-0.29688 -0.40625,-0.46875 -0.28125,-0.1875 -0.67188,-0.1875 -0.60937,0 -1.0625,0.39062 -0.45312,0.39063 -0.45312,1.5 l 0,3.10938 -0.96875,0 z m 6.16086,0 0,-4.95313 -0.84375,0 0,-0.75 0.84375,0 0,-0.60937 q 0,-0.57813 0.10937,-0.85938 0.14063,-0.375 0.48438,-0.60937 0.35937,-0.23438 0.98437,-0.23438 0.40625,0 0.90625,0.10938 l -0.14062,0.84375 q -0.3125,-0.0625 -0.57813,-0.0625 -0.4375,0 -0.625,0.1875 -0.17187,0.1875 -0.17187,0.70312 l 0,0.53125 1.10937,0 0,0.75 -1.10937,0 0,4.95313 -0.96875,0 z m 2.36691,-2.85938 q 0,-1.57812 0.89063,-2.34375 0.73437,-0.625 1.79687,-0.625 1.17188,0 1.90625,0.76563 0.75,0.76562 0.75,2.125 0,1.10937 -0.32812,1.75 -0.32813,0.625 -0.96875,0.96875 -0.625,0.34375 -1.35938,0.34375 -1.20312,0 -1.95312,-0.76563 -0.73438,-0.76562 -0.73438,-2.21875 z m 1,0 q 0,1.10938 0.46875,1.65625 0.48438,0.53125 1.21875,0.53125 0.71875,0 1.1875,-0.54687 0.48438,-0.54688 0.48438,-1.67188 0,-1.04687 -0.48438,-1.59375 -0.48437,-0.54687 -1.1875,-0.54687 -0.73437,0 -1.21875,0.54687 -0.46875,0.53125 -0.46875,1.625 z m 5.28586,2.85938 0,-5.70313 0.85937,0 0,0.85938 q 0.34375,-0.60938 0.625,-0.79688 0.28125,-0.1875 0.60938,-0.1875 0.5,0 1,0.3125 l -0.32813,0.89063 q -0.35937,-0.20313 -0.71875,-0.20313 -0.3125,0 -0.5625,0.1875 -0.25,0.1875 -0.35937,0.53125 -0.15625,0.51563 -0.15625,1.125 l 0,2.98438 -0.96875,0 z m 3.54861,0 0,-5.70313 0.875,0 0,0.79688 q 0.26563,-0.42188 0.70313,-0.67188 0.45312,-0.25 1.01562,-0.25 0.64063,0 1.04688,0.26563 0.40625,0.25 0.57812,0.73437 0.67188,-1 1.75,-1 0.85938,0 1.3125,0.46875 0.45313,0.46875 0.45313,1.4375 l 0,3.92188 -0.95313,0 0,-3.59375 q 0,-0.57813 -0.0937,-0.82813 -0.0937,-0.26562 -0.34375,-0.42187 -0.25,-0.15625 -0.57812,-0.15625 -0.60938,0 -1.01563,0.40625 -0.39062,0.40625 -0.39062,1.28125 l 0,3.3125 -0.96875,0 0,-3.70313 q 0,-0.64062 -0.23438,-0.96875 -0.23437,-0.32812 -0.76562,-0.32812 -0.40625,0 -0.76563,0.21875 -0.34375,0.21875 -0.5,0.64062 -0.15625,0.40625 -0.15625,1.1875 l 0,2.95313 -0.96875,0 z m 12.61112,-0.70313 q -0.54688,0.45313 -1.04688,0.64063 -0.48437,0.1875 -1.0625,0.1875 -0.9375,0 -1.45312,-0.45313 -0.5,-0.46875 -0.5,-1.17187 0,-0.42188 0.1875,-0.76563 0.20312,-0.34375 0.5,-0.54687 0.3125,-0.21875 0.70312,-0.32813 0.28125,-0.0781 0.85938,-0.14062 1.17187,-0.14063 1.71875,-0.34375 0.0156,-0.1875 0.0156,-0.25 0,-0.59375 -0.28125,-0.82813 -0.35937,-0.32812 -1.09375,-0.32812 -0.6875,0 -1.01562,0.23437 -0.3125,0.23438 -0.46875,0.84375 l -0.95313,-0.125 q 0.125,-0.60937 0.42188,-0.98437 0.29687,-0.375 0.85937,-0.5625 0.5625,-0.20313 1.29688,-0.20313 0.73437,0 1.1875,0.17188 0.45312,0.17187 0.65625,0.4375 0.21875,0.25 0.3125,0.64062 0.0469,0.25 0.0469,0.90625 l 0,1.28125 q 0,1.34375 0.0625,1.70313 0.0625,0.35937 0.25,0.6875 l -1.01562,0 q -0.15625,-0.29688 -0.1875,-0.70313 z m -0.0937,-2.15625 q -0.51563,0.21875 -1.57813,0.35938 -0.59375,0.0937 -0.84375,0.20312 -0.23437,0.0937 -0.375,0.3125 -0.14062,0.20313 -0.14062,0.45313 0,0.39062 0.29687,0.65625 0.29688,0.25 0.85938,0.25 0.5625,0 0.98437,-0.25 0.4375,-0.25 0.65625,-0.67188 0.14063,-0.32812 0.14063,-0.96875 l 0,-0.34375 z m 4.41089,2 0.125,0.84375 q -0.40625,0.0937 -0.71875,0.0937 -0.53125,0 -0.82813,-0.17187 -0.28125,-0.17188 -0.40625,-0.4375 -0.10937,-0.26563 -0.10937,-1.14063 l 0,-3.28125 -0.71875,0 0,-0.75 0.71875,0 0,-1.40625 0.95312,-0.59375 0,2 0.98438,0 0,0.75 -0.98438,0 0,3.34375 q 0,0.40625 0.0469,0.53125 0.0625,0.10938 0.17187,0.1875 0.125,0.0625 0.32813,0.0625 0.17187,0 0.4375,-0.0312 z m 0.85125,-5.90625 0,-1.10937 0.96875,0 0,1.10937 -0.96875,0 z m 0,6.76563 0,-5.70313 0.96875,0 0,5.70313 -0.96875,0 z m 1.9925,-2.85938 q 0,-1.57812 0.89062,-2.34375 0.73438,-0.625 1.79688,-0.625 1.17187,0 1.90625,0.76563 0.75,0.76562 0.75,2.125 0,1.10937 -0.32813,1.75 -0.32812,0.625 -0.96875,0.96875 -0.625,0.34375 -1.35937,0.34375 -1.20313,0 -1.95313,-0.76563 -0.73437,-0.76562 -0.73437,-2.21875 z m 1,0 q 0,1.10938 0.46875,1.65625 0.48437,0.53125 1.21875,0.53125 0.71875,0 1.1875,-0.54687 0.48437,-0.54688 0.48437,-1.67188 0,-1.04687 -0.48437,-1.59375 -0.48438,-0.54687 -1.1875,-0.54687 -0.73438,0 -1.21875,0.54687 -0.46875,0.53125 -0.46875,1.625 z m 5.28585,2.85938 0,-5.70313 0.875,0 0,0.8125 q 0.625,-0.9375 1.8125,-0.9375 0.51563,0 0.95313,0.1875 0.4375,0.17188 0.64062,0.48438 0.21875,0.29687 0.3125,0.70312 0.0469,0.28125 0.0469,0.95313 l 0,3.5 -0.96875,0 0,-3.46875 q 0,-0.59375 -0.10938,-0.875 -0.10937,-0.29688 -0.40625,-0.46875 -0.28125,-0.1875 -0.67187,-0.1875 -0.60938,0 -1.0625,0.39062 -0.45313,0.39063 -0.45313,1.5 l 0,3.10938 -0.96875,0 z" />
  <path
     style="fill:#0b5394;fill-rule:nonzero"
     inkscape:connector-curvature="0"
     id="path33"
     d="m 215.62073,149.8924 4.77167,-5.05513 4.77165,5.05513 -4.77165,5.05511 z" />
  <path
     style="fill-rule:nonzero;stroke:#0b5394;stroke-width:2;stroke-linecap:butt;stroke-linejoin:round"
     inkscape:connector-curvature="0"
     id="path35"
     d="m 215.62073,149.8924 4.77167,-5.05513 4.77165,5.05513 -4.77165,5.05511 z" />
  <path
     style="fill:#ffffff;fill-rule:nonzero"
     inkscape:connector-curvature="0"
     id="path37"
     d="m 426.68634,95.23753 156.315,0 0,27.02362 -156.315,0 z" />
  <path
     style="fill-rule:nonzero;stroke:#0b5394;stroke-width:1;stroke-linecap:butt;stroke-linejoin:round"
     inkscape:connector-curvature="0"
     id="path39"
     d="m 426.68634,95.23753 156.315,0 0,27.02362 -156.315,0 z" />
  <path
     style="fill:#c27ba0;fill-rule:nonzero"
     inkscape:connector-curvature="0"
     id="path41"
     d="m 445.25964,112.48934 0,-7.875 3.34375,0 q 1.26562,0 1.82812,0.21875 0.57813,0.20313 0.92188,0.75 0.34375,0.54688 0.34375,1.23438 0,0.89062 -0.53125,1.46875 -0.51563,0.57812 -1.54688,0.73437 0.51563,0.29688 0.84375,0.65625 0.34375,0.35938 0.90625,1.28125 l 0.96875,1.53125 -1.90625,0 -1.15625,-1.71875 q -0.60937,-0.90625 -0.84375,-1.14062 -0.21875,-0.25 -0.46875,-0.32813 -0.25,-0.0937 -0.79687,-0.0937 l -0.32813,0 0,3.28125 -1.57812,0 z m 1.57812,-4.54687 1.1875,0 q 1.14063,0 1.42188,-0.0937 0.28125,-0.0937 0.4375,-0.32813 0.17187,-0.23437 0.17187,-0.59375 0,-0.40625 -0.21875,-0.64062 -0.20312,-0.25 -0.59375,-0.3125 -0.1875,-0.0312 -1.15625,-0.0312 l -1.25,0 0,2 z m 9.39875,2.73437 1.5,0.25 q -0.28125,0.82813 -0.90625,1.26563 -0.625,0.42187 -1.57813,0.42187 -1.48437,0 -2.20312,-0.96875 -0.5625,-0.78125 -0.5625,-1.96875 0,-1.42187 0.73437,-2.21875 0.75,-0.79687 1.89063,-0.79687 1.26562,0 2,0.84375 0.73437,0.82812 0.70312,2.5625 l -3.78125,0 q 0.0156,0.67187 0.35938,1.04687 0.35937,0.375 0.875,0.375 0.35937,0 0.59375,-0.1875 0.25,-0.20312 0.375,-0.625 z m 0.0781,-1.53125 q -0.0156,-0.65625 -0.34375,-0.98437 -0.3125,-0.34375 -0.76562,-0.34375 -0.5,0 -0.82813,0.35937 -0.3125,0.35938 -0.3125,0.96875 l 2.25,0 z m 7.73899,3.34375 -1.51563,0 0,-2.90625 q 0,-0.92187 -0.0937,-1.1875 -0.0937,-0.28125 -0.3125,-0.42187 -0.21875,-0.15625 -0.53125,-0.15625 -0.39062,0 -0.70312,0.21875 -0.3125,0.20312 -0.4375,0.5625 -0.10938,0.34375 -0.10938,1.3125 l 0,2.57812 -1.5,0 0,-5.70312 1.40625,0 0,0.84375 q 0.73438,-0.96875 1.875,-0.96875 0.5,0 0.90625,0.1875 0.42188,0.17187 0.625,0.45312 0.21875,0.26563 0.29688,0.625 0.0937,0.35938 0.0937,1.01563 l 0,3.54687 z m 6.54052,0 -1.39062,0 0,-0.84375 q -0.35938,0.5 -0.84375,0.73438 -0.46875,0.23437 -0.9375,0.23437 -0.98438,0 -1.6875,-0.78125 -0.70313,-0.79687 -0.70313,-2.21875 0,-1.45312 0.67188,-2.20312 0.6875,-0.75 1.73437,-0.75 0.95313,0 1.65625,0.79687 l 0,-2.84375 1.5,0 0,7.875 z m -4.01562,-2.96875 q 0,0.90625 0.25,1.3125 0.35937,0.59375 1.01562,0.59375 0.51563,0 0.875,-0.4375 0.375,-0.45312 0.375,-1.32812 0,-0.98438 -0.35937,-1.40625 -0.34375,-0.4375 -0.90625,-0.4375 -0.53125,0 -0.89063,0.42187 -0.35937,0.42188 -0.35937,1.28125 z m 8.603,1.15625 1.5,0.25 q -0.28125,0.82813 -0.90625,1.26563 -0.625,0.42187 -1.57813,0.42187 -1.48437,0 -2.20312,-0.96875 -0.5625,-0.78125 -0.5625,-1.96875 0,-1.42187 0.73437,-2.21875 0.75,-0.79687 1.89063,-0.79687 1.26562,0 2,0.84375 0.73437,0.82812 0.70312,2.5625 l -3.78125,0 q 0.0156,0.67187 0.35938,1.04687 0.35937,0.375 0.875,0.375 0.35937,0 0.59375,-0.1875 0.25,-0.20312 0.375,-0.625 z m 0.0781,-1.53125 q -0.0156,-0.65625 -0.34375,-0.98437 -0.3125,-0.34375 -0.76562,-0.34375 -0.5,0 -0.82813,0.35937 -0.3125,0.35938 -0.3125,0.96875 l 2.25,0 z m 3.98901,3.34375 -1.51562,0 0,-5.70312 1.40625,0 0,0.8125 q 0.35937,-0.57813 0.64062,-0.75 0.29688,-0.1875 0.65625,-0.1875 0.51563,0 1,0.28125 l -0.46875,1.3125 q -0.375,-0.25 -0.70312,-0.25 -0.32813,0 -0.54688,0.1875 -0.21875,0.17187 -0.34375,0.625 -0.125,0.45312 -0.125,1.90625 l 0,1.76562 z m 2.6626,0 0,-7.875 1.59375,0 0,7.875 -1.59375,0 z m 8.19504,0 -1.51563,0 0,-2.90625 q 0,-0.92187 -0.0937,-1.1875 -0.0937,-0.28125 -0.3125,-0.42187 -0.21875,-0.15625 -0.53125,-0.15625 -0.39062,0 -0.70312,0.21875 -0.3125,0.20312 -0.4375,0.5625 -0.10938,0.34375 -0.10938,1.3125 l 0,2.57812 -1.5,0 0,-5.70312 1.40625,0 0,0.84375 q 0.73438,-0.96875 1.875,-0.96875 0.5,0 0.90625,0.1875 0.42188,0.17187 0.625,0.45312 0.21875,0.26563 0.29688,0.625 0.0937,0.35938 0.0937,1.01563 l 0,3.54687 z m 0.64987,-5.70312 0.84375,0 0,-0.4375 q 0,-0.71875 0.14063,-1.0625 0.15625,-0.35938 0.5625,-0.57813 0.42187,-0.23437 1.04687,-0.23437 0.65625,0 1.26563,0.20312 l -0.20313,1.04688 q -0.35937,-0.0781 -0.6875,-0.0781 -0.32812,0 -0.48437,0.15625 -0.14063,0.14063 -0.14063,0.57813 l 0,0.40625 1.14063,0 0,1.1875 -1.14063,0 0,4.51562 -1.5,0 0,-4.51562 -0.84375,0 0,-1.1875 z m 3.86112,2.76562 q 0,-0.75 0.375,-1.45312 0.375,-0.70313 1.04687,-1.0625 0.6875,-0.375 1.51563,-0.375 1.29687,0 2.125,0.84375 0.82812,0.82812 0.82812,2.10937 0,1.29688 -0.84375,2.15625 -0.82812,0.84375 -2.09375,0.84375 -0.78125,0 -1.5,-0.34375 -0.70312,-0.35937 -1.07812,-1.04687 -0.375,-0.6875 -0.375,-1.67188 z m 1.54687,0.0781 q 0,0.85937 0.40625,1.3125 0.40625,0.45312 1,0.45312 0.57813,0 0.98438,-0.45312 0.40625,-0.45313 0.40625,-1.3125 0,-0.84375 -0.40625,-1.29688 -0.40625,-0.45312 -0.98438,-0.45312 -0.59375,0 -1,0.45312 -0.40625,0.45313 -0.40625,1.29688 z m 6.75928,2.85937 -1.51563,0 0,-5.70312 1.40625,0 0,0.8125 q 0.35938,-0.57813 0.64063,-0.75 0.29687,-0.1875 0.65625,-0.1875 0.51562,0 1,0.28125 l -0.46875,1.3125 q -0.375,-0.25 -0.70313,-0.25 -0.32812,0 -0.54687,0.1875 -0.21875,0.17187 -0.34375,0.625 -0.125,0.45312 -0.125,1.90625 l 0,1.76562 z m 2.58447,-5.70312 1.39063,0 0,0.78125 q 0.75,-0.90625 1.78125,-0.90625 0.54687,0 0.95312,0.23437 0.40625,0.21875 0.65625,0.67188 0.375,-0.45313 0.8125,-0.67188 0.4375,-0.23437 0.9375,-0.23437 0.62503,0 1.06253,0.25 0.4375,0.25 0.64063,0.75 0.15625,0.35937 0.15625,1.1875 l 0,3.64062 -1.50003,0 0,-3.26562 q 0,-0.84375 -0.15625,-1.09375 -0.21875,-0.3125 -0.65625,-0.3125 -0.3125,0 -0.59375,0.1875 -0.28125,0.1875 -0.40625,0.5625 -0.10938,0.375 -0.10938,1.1875 l 0,2.73437 -1.51562,0 0,-3.125 q 0,-0.82812 -0.0781,-1.0625 -0.0781,-0.25 -0.25,-0.35937 -0.17187,-0.125 -0.46875,-0.125 -0.34375,0 -0.625,0.1875 -0.28125,0.1875 -0.40625,0.54687 -0.10937,0.34375 -0.10937,1.17188 l 0,2.76562 -1.51563,0 0,-5.70312 z m 10.72513,1.73437 -1.375,-0.25 q 0.23437,-0.8125 0.79687,-1.20312 0.5625,-0.40625 1.67188,-0.40625 1.01562,0 1.5,0.23437 0.5,0.23438 0.70312,0.60938 0.20313,0.35937 0.20313,1.34375 l -0.0156,1.76562 q 0,0.75 0.0625,1.10938 0.0781,0.35937 0.28125,0.76562 l -1.5,0 q -0.0625,-0.15625 -0.14062,-0.45312 -0.0312,-0.125 -0.0469,-0.17188 -0.39062,0.375 -0.84375,0.5625 -0.4375,0.1875 -0.9375,0.1875 -0.875,0 -1.39062,-0.46875 -0.5,-0.48437 -0.5,-1.21875 0,-0.48437 0.23437,-0.85937 0.23438,-0.375 0.64063,-0.57813 0.42187,-0.20312 1.20312,-0.35937 1.0625,-0.1875 1.46875,-0.35938 l 0,-0.15625 q 0,-0.4375 -0.21875,-0.60937 -0.21875,-0.1875 -0.8125,-0.1875 -0.39062,0 -0.625,0.15625 -0.21875,0.15625 -0.35937,0.54687 z m 2.01562,1.23438 q -0.29687,0.0937 -0.92187,0.23437 -0.625,0.125 -0.8125,0.25 -0.29688,0.21875 -0.29688,0.53125 0,0.32813 0.23438,0.5625 0.23437,0.21875 0.59375,0.21875 0.40625,0 0.78125,-0.26562 0.28125,-0.20313 0.35937,-0.5 0.0625,-0.1875 0.0625,-0.73438 l 0,-0.29687 z m 5.39527,-2.96875 0,1.20312 -1.03125,0 0,2.29688 q 0,0.70312 0.0312,0.82812 0.0312,0.10938 0.125,0.1875 0.10937,0.0625 0.26562,0.0625 0.20313,0 0.60938,-0.14062 l 0.125,1.17187 q -0.53125,0.21875 -1.1875,0.21875 -0.42188,0 -0.75,-0.125 -0.32813,-0.14062 -0.48438,-0.35937 -0.14062,-0.21875 -0.20312,-0.59375 -0.0469,-0.26563 -0.0469,-1.0625 l 0,-2.48438 -0.6875,0 0,-1.20312 0.6875,0 0,-1.14063 1.51563,-0.875 0,2.01563 1.03125,0 z m 0.93921,-0.78125 0,-1.39063 1.5,0 0,1.39063 -1.5,0 z m 0,6.48437 0,-5.70312 1.5,0 0,5.70312 -1.5,0 z m 2.60125,-2.9375 q 0,-0.75 0.375,-1.45312 0.375,-0.70313 1.04688,-1.0625 0.6875,-0.375 1.51562,-0.375 1.29688,0 2.125,0.84375 0.82813,0.82812 0.82813,2.10937 0,1.29688 -0.84375,2.15625 -0.82813,0.84375 -2.09375,0.84375 -0.78125,0 -1.5,-0.34375 -0.70313,-0.35937 -1.07813,-1.04687 -0.375,-0.6875 -0.375,-1.67188 z m 1.54688,0.0781 q 0,0.85937 0.40625,1.3125 0.40625,0.45312 1,0.45312 0.57812,0 0.98437,-0.45312 0.40625,-0.45313 0.40625,-1.3125 0,-0.84375 -0.40625,-1.29688 -0.40625,-0.45312 -0.98437,-0.45312 -0.59375,0 -1,0.45312 -0.40625,0.45313 -0.40625,1.29688 z m 10.50928,2.85937 -1.51563,0 0,-2.90625 q 0,-0.92187 -0.0937,-1.1875 -0.0937,-0.28125 -0.3125,-0.42187 -0.21875,-0.15625 -0.53125,-0.15625 -0.39062,0 -0.70312,0.21875 -0.3125,0.20312 -0.4375,0.5625 -0.10938,0.34375 -0.10938,1.3125 l 0,2.57812 -1.5,0 0,-5.70312 1.40625,0 0,0.84375 q 0.73438,-0.96875 1.875,-0.96875 0.5,0 0.90625,0.1875 0.42188,0.17187 0.625,0.45312 0.21875,0.26563 0.29688,0.625 0.0937,0.35938 0.0937,1.01563 l 0,3.54687 z m 1.3374,-7.875 3.14062,0 q 0.9375,0 1.39063,0.0781 0.46875,0.0781 0.82812,0.32812 0.35938,0.25 0.59375,0.65625 0.25,0.40625 0.25,0.92188 0,0.54687 -0.29687,1.01562 -0.29688,0.45313 -0.8125,0.6875 0.71875,0.21875 1.10937,0.71875 0.39063,0.5 0.39063,1.1875 0,0.53125 -0.25,1.04688 -0.25,0.5 -0.6875,0.8125 -0.4375,0.29687 -1.0625,0.375 -0.40625,0.0312 -1.92188,0.0469 l -2.67187,0 0,-7.875 z m 1.57812,1.3125 0,1.8125 1.04688,0 q 0.92187,0 1.15625,-0.0156 0.40625,-0.0469 0.64062,-0.28125 0.23438,-0.23438 0.23438,-0.625 0,-0.35938 -0.20313,-0.57813 -0.20312,-0.23437 -0.59375,-0.28125 -0.23437,-0.0312 -1.35937,-0.0312 l -0.92188,0 z m 0,3.125 0,2.10938 1.48438,0 q 0.85937,0 1.07812,-0.0469 0.35938,-0.0625 0.57813,-0.3125 0.23437,-0.25 0.23437,-0.67187 0,-0.35938 -0.17187,-0.59375 -0.17188,-0.25 -0.5,-0.35938 -0.32813,-0.125 -1.42188,-0.125 l -1.28125,0 z m 7.22687,-0.53125 -1.375,-0.25 q 0.23438,-0.8125 0.79688,-1.20312 0.5625,-0.40625 1.67187,-0.40625 1.01563,0 1.5,0.23437 0.5,0.23438 0.70313,0.60938 0.20312,0.35937 0.20312,1.34375 l -0.0156,1.76562 q 0,0.75 0.0625,1.10938 0.0781,0.35937 0.28125,0.76562 l -1.5,0 q -0.0625,-0.15625 -0.14063,-0.45312 -0.0312,-0.125 -0.0469,-0.17188 -0.39063,0.375 -0.84375,0.5625 -0.4375,0.1875 -0.9375,0.1875 -0.875,0 -1.39063,-0.46875 -0.5,-0.48437 -0.5,-1.21875 0,-0.48437 0.23438,-0.85937 0.23437,-0.375 0.64062,-0.57813 0.42188,-0.20312 1.20313,-0.35937 1.0625,-0.1875 1.46875,-0.35938 l 0,-0.15625 q 0,-0.4375 -0.21875,-0.60937 -0.21875,-0.1875 -0.8125,-0.1875 -0.39063,0 -0.625,0.15625 -0.21875,0.15625 -0.35938,0.54687 z m 2.01563,1.23438 q -0.29688,0.0937 -0.92188,0.23437 -0.625,0.125 -0.8125,0.25 -0.29687,0.21875 -0.29687,0.53125 0,0.32813 0.23437,0.5625 0.23438,0.21875 0.59375,0.21875 0.40625,0 0.78125,-0.26562 0.28125,-0.20313 0.35938,-0.5 0.0625,-0.1875 0.0625,-0.73438 l 0,-0.29687 z m 2.25457,1.10937 1.5,-0.23437 q 0.10938,0.4375 0.39063,0.67187 0.29687,0.21875 0.82812,0.21875 0.59375,0 0.89063,-0.20312 0.20312,-0.15625 0.20312,-0.40625 0,-0.17188 -0.10937,-0.28125 -0.125,-0.10938 -0.51563,-0.20313 -1.8125,-0.40625 -2.3125,-0.73437 -0.67187,-0.46875 -0.67187,-1.28125 0,-0.75 0.57812,-1.25 0.59375,-0.5 1.82813,-0.5 1.17187,0 1.73437,0.375 0.5625,0.375 0.78125,1.125 l -1.42187,0.26562 q -0.0937,-0.32812 -0.34375,-0.5 -0.25,-0.1875 -0.73438,-0.1875 -0.59375,0 -0.84375,0.17188 -0.17187,0.10937 -0.17187,0.29687 0,0.17188 0.14062,0.28125 0.20313,0.15625 1.40625,0.4375 1.21875,0.26563 1.6875,0.65625 0.48438,0.40625 0.48438,1.125 0,0.78125 -0.65625,1.34375 -0.65625,0.5625 -1.95313,0.5625 -1.15625,0 -1.84375,-0.46875 -0.67187,-0.46875 -0.875,-1.28125 z m 9.75464,-0.1875 1.5,0.25 q -0.28125,0.82813 -0.90625,1.26563 -0.625,0.42187 -1.57812,0.42187 -1.48438,0 -2.20313,-0.96875 -0.5625,-0.78125 -0.5625,-1.96875 0,-1.42187 0.73438,-2.21875 0.75,-0.79687 1.89062,-0.79687 1.26563,0 2,0.84375 0.73438,0.82812 0.70313,2.5625 l -3.78125,0 q 0.0156,0.67187 0.35937,1.04687 0.35938,0.375 0.875,0.375 0.35938,0 0.59375,-0.1875 0.25,-0.20312 0.375,-0.625 z m 0.0781,-1.53125 q -0.0156,-0.65625 -0.34375,-0.98437 -0.3125,-0.34375 -0.76563,-0.34375 -0.5,0 -0.82812,0.35937 -0.3125,0.35938 -0.3125,0.96875 l 2.25,0 z" />
  <path
     style="fill:#ffffff;fill-rule:nonzero"
     inkscape:connector-curvature="0"
     id="path43"
     d="m 205.56561,82.33202 195.21259,0 0,27.02362 -195.21259,0 z" />
  <path
     style="fill-rule:nonzero;stroke:#0b5394;stroke-width:1;stroke-linecap:butt;stroke-linejoin:round"
     inkscape:connector-curvature="0"
     id="path45"
     d="m 205.56561,82.33202 195.21259,0 0,27.02362 -195.21259,0 z" />
  <path
     style="fill:#0b5394;fill-rule:nonzero"
     inkscape:connector-curvature="0"
     id="path47"
     d="m 224.38777,99.58383 0,-7.8125 1.59375,0 0,6.484375 3.95312,0 0,1.328125 -5.54687,0 z m 6.46239,-6.484375 0,-1.390625 1.5,0 0,1.390625 -1.5,0 z m 0,6.484375 0,-5.703125 1.5,0 0,5.703125 -1.5,0 z m 2.42939,-1.625 1.5,-0.234375 q 0.10938,0.4375 0.39063,0.671875 0.29687,0.21875 0.82812,0.21875 0.59375,0 0.89063,-0.203125 0.20312,-0.15625 0.20312,-0.40625 0,-0.171875 -0.10937,-0.28125 -0.125,-0.109375 -0.51563,-0.203125 -1.8125,-0.40625 -2.3125,-0.734375 -0.67187,-0.46875 -0.67187,-1.28125 0,-0.75 0.57812,-1.25 0.59375,-0.5 1.82813,-0.5 1.17187,0 1.73437,0.375 0.5625,0.375 0.78125,1.125 l -1.42187,0.265625 q -0.0937,-0.328125 -0.34375,-0.5 -0.25,-0.1875 -0.73438,-0.1875 -0.59375,0 -0.84375,0.171875 -0.17187,0.109375 -0.17187,0.296875 0,0.171875 0.14062,0.28125 0.20313,0.15625 1.40625,0.4375 1.21875,0.265625 1.6875,0.65625 0.48438,0.40625 0.48438,1.125 0,0.78125 -0.65625,1.34375 -0.65625,0.5625 -1.95313,0.5625 -1.15625,0 -1.84375,-0.46875 -0.67187,-0.46875 -0.875,-1.28125 z m 9.06713,-4.078125 0,1.203125 -1.03125,0 0,2.296875 q 0,0.703125 0.0312,0.828125 0.0312,0.109375 0.125,0.1875 0.10937,0.0625 0.26562,0.0625 0.20313,0 0.60938,-0.140625 l 0.125,1.171875 q -0.53125,0.21875 -1.1875,0.21875 -0.42188,0 -0.75,-0.125 -0.32813,-0.140625 -0.48438,-0.359375 -0.14062,-0.21875 -0.20312,-0.59375 -0.0469,-0.265625 -0.0469,-1.0625 l 0,-2.484375 -0.6875,0 0,-1.203125 0.6875,0 0,-1.140625 1.51563,-0.875 0,2.015625 1.03125,0 z m 0.62674,1.8125 q 0,-1.203125 0.35937,-2.015625 0.26563,-0.609375 0.71875,-1.078125 0.46875,-0.484375 1.03125,-0.71875 0.73438,-0.3125 1.6875,-0.3125 1.75,0 2.78125,1.09375 1.04688,1.078125 1.04688,3 0,1.90625 -1.03125,2.984375 -1.03125,1.078125 -2.76563,1.078125 -1.76562,0 -2.79687,-1.078125 -1.03125,-1.078125 -1.03125,-2.953125 z m 1.625,-0.04687 q 0,1.328125 0.625,2.03125 0.625,0.6875 1.5625,0.6875 0.95312,0 1.5625,-0.6875 0.60937,-0.6875 0.60937,-2.0625 0,-1.34375 -0.59375,-2.015625 -0.59375,-0.671875 -1.57812,-0.671875 -0.98438,0 -1.59375,0.6875 -0.59375,0.671875 -0.59375,2.03125 z m 6.30439,-1.765625 0.84375,0 0,-0.4375 q 0,-0.71875 0.14063,-1.0625 0.15625,-0.359375 0.5625,-0.578125 0.42187,-0.234375 1.04687,-0.234375 0.65625,0 1.26563,0.203125 l -0.20313,1.046875 q -0.35937,-0.07813 -0.6875,-0.07813 -0.32812,0 -0.48437,0.15625 -0.14063,0.140625 -0.14063,0.578125 l 0,0.40625 1.14063,0 0,1.1875 -1.14063,0 0,4.515625 -1.5,0 0,-4.515625 -0.84375,0 0,-1.1875 z m 7.89235,2.8125 0,-1.328125 3.42188,0 0,3.140625 q -0.5,0.46875 -1.45313,0.84375 -0.9375,0.375 -1.92187,0.375 -1.23438,0 -2.15625,-0.515625 -0.90624,-0.53125 -1.37499,-1.484375 -0.45312,-0.96875 -0.45312,-2.109375 0,-1.21875 0.51562,-2.171875 0.51563,-0.96875 1.49999,-1.46875 0.76562,-0.40625 1.89062,-0.40625 1.46875,0 2.28125,0.625 0.82813,0.609375 1.0625,1.703125 l -1.57812,0.296875 q -0.15625,-0.59375 -0.625,-0.921875 -0.45313,-0.34375 -1.14063,-0.34375 -1.04687,0 -1.65625,0.671875 -0.60936,0.65625 -0.60936,1.953125 0,1.40625 0.60936,2.109375 0.625,0.703125 1.64063,0.703125 0.5,0 1,-0.1875 0.5,-0.203125 0.85937,-0.484375 l 0,-1 -1.8125,0 z m 4.61692,2.890625 0,-7.875 1.5,0 0,7.875 -1.5,0 z m 2.60125,-2.9375 q 0,-0.75 0.375,-1.453125 0.375,-0.703125 1.04688,-1.0625 0.6875,-0.375 1.51562,-0.375 1.29688,0 2.125,0.84375 0.82813,0.828125 0.82813,2.109375 0,1.296875 -0.84375,2.15625 -0.82813,0.84375 -2.09375,0.84375 -0.78125,0 -1.5,-0.34375 -0.70313,-0.359375 -1.07813,-1.046875 -0.375,-0.6875 -0.375,-1.671875 z m 1.54688,0.07813 q 0,0.859375 0.40625,1.3125 0.40625,0.453125 1,0.453125 0.57812,0 0.98437,-0.453125 0.40625,-0.453125 0.40625,-1.3125 0,-0.84375 -0.40625,-1.296875 -0.40625,-0.453125 -0.98437,-0.453125 -0.59375,0 -1,0.453125 -0.40625,0.453125 -0.40625,1.296875 z m 5.24365,2.859375 0,-7.875 1.51563,0 0,2.84375 q 0.70312,-0.796875 1.65625,-0.796875 1.04687,0 1.71875,0.75 0.6875,0.75 0.6875,2.171875 0,1.453125 -0.70313,2.25 -0.6875,0.78125 -1.6875,0.78125 -0.48437,0 -0.96875,-0.234375 -0.46875,-0.25 -0.8125,-0.734375 l 0,0.84375 -1.40625,0 z m 1.5,-2.96875 q 0,0.875 0.28125,1.296875 0.39063,0.609375 1.04688,0.609375 0.5,0 0.84375,-0.421875 0.35937,-0.4375 0.35937,-1.359375 0,-0.96875 -0.35937,-1.390625 -0.34375,-0.4375 -0.90625,-0.4375 -0.54688,0 -0.90625,0.421875 -0.35938,0.421875 -0.35938,1.28125 z m 6.21237,-1 -1.375,-0.25 q 0.23438,-0.8125 0.79688,-1.203125 0.5625,-0.40625 1.67187,-0.40625 1.01563,0 1.5,0.234375 0.5,0.234375 0.70313,0.609375 0.20312,0.359375 0.20312,1.34375 l -0.0156,1.765625 q 0,0.75 0.0625,1.109375 0.0781,0.359375 0.28125,0.765625 l -1.5,0 q -0.0625,-0.15625 -0.14063,-0.453125 -0.0312,-0.125 -0.0469,-0.171875 -0.39063,0.375 -0.84375,0.5625 -0.4375,0.1875 -0.9375,0.1875 -0.875,0 -1.39063,-0.46875 -0.5,-0.484375 -0.5,-1.21875 0,-0.484375 0.23438,-0.859375 0.23437,-0.375 0.64062,-0.578125 0.42188,-0.203125 1.20313,-0.359375 1.0625,-0.1875 1.46875,-0.359375 l 0,-0.15625 q 0,-0.4375 -0.21875,-0.609375 -0.21875,-0.1875 -0.8125,-0.1875 -0.39063,0 -0.625,0.15625 -0.21875,0.15625 -0.35938,0.546875 z m 2.01563,1.234375 q -0.29688,0.09375 -0.92188,0.234375 -0.625,0.125 -0.8125,0.25 -0.29687,0.21875 -0.29687,0.53125 0,0.328125 0.23437,0.5625 0.23438,0.21875 0.59375,0.21875 0.40625,0 0.78125,-0.265625 0.28125,-0.203125 0.35938,-0.5 0.0625,-0.1875 0.0625,-0.734375 l 0,-0.296875 z m 2.78589,2.734375 0,-7.875 1.5,0 0,7.875 -1.5,0 z m 2.97625,0 0,-7.875 3.34375,0 q 1.26563,0 1.82813,0.21875 0.57812,0.203125 0.92187,0.75 0.34375,0.546875 0.34375,1.234375 0,0.890625 -0.53125,1.46875 -0.51562,0.578125 -1.54687,0.734375 0.51562,0.296875 0.84375,0.65625 0.34375,0.359375 0.90625,1.28125 l 0.96875,1.53125 -1.90625,0 -1.15625,-1.71875 q -0.60938,-0.90625 -0.84375,-1.140625 -0.21875,-0.25 -0.46875,-0.328125 -0.25,-0.09375 -0.79688,-0.09375 l -0.32812,0 0,3.28125 -1.57813,0 z m 1.57813,-4.546875 1.1875,0 q 1.14062,0 1.42187,-0.09375 0.28125,-0.09375 0.4375,-0.328125 0.17188,-0.234375 0.17188,-0.59375 0,-0.40625 -0.21875,-0.640625 -0.20313,-0.25 -0.59375,-0.3125 -0.1875,-0.03125 -1.15625,-0.03125 l -1.25,0 0,2 z m 9.39874,2.734375 1.5,0.25 q -0.28125,0.828125 -0.90625,1.265625 -0.625,0.421875 -1.57812,0.421875 -1.48438,0 -2.20313,-0.96875 -0.5625,-0.78125 -0.5625,-1.96875 0,-1.421875 0.73438,-2.21875 0.75,-0.796875 1.89062,-0.796875 1.26563,0 2,0.84375 0.73438,0.828125 0.70313,2.5625 l -3.78125,0 q 0.0156,0.671875 0.35937,1.046875 0.35938,0.375 0.875,0.375 0.35938,0 0.59375,-0.1875 0.25,-0.203125 0.375,-0.625 z m 0.0781,-1.53125 q -0.0156,-0.65625 -0.34375,-0.984375 -0.3125,-0.34375 -0.76563,-0.34375 -0.5,0 -0.82812,0.359375 -0.3125,0.359375 -0.3125,0.96875 l 2.25,0 z m 7.73898,3.34375 -1.51562,0 0,-2.90625 q 0,-0.921875 -0.0937,-1.1875 -0.0937,-0.28125 -0.3125,-0.421875 -0.21875,-0.15625 -0.53125,-0.15625 -0.39063,0 -0.70313,0.21875 -0.3125,0.203125 -0.4375,0.5625 -0.10937,0.34375 -0.10937,1.3125 l 0,2.578125 -1.5,0 0,-5.703125 1.40625,0 0,0.84375 q 0.73437,-0.96875 1.875,-0.96875 0.5,0 0.90625,0.1875 0.42187,0.171875 0.625,0.453125 0.21875,0.265625 0.29687,0.625 0.0937,0.359375 0.0937,1.015625 l 0,3.546875 z m 6.54053,0 -1.39063,0 0,-0.84375 q -0.35937,0.5 -0.84375,0.734375 -0.46875,0.234375 -0.9375,0.234375 -0.98437,0 -1.6875,-0.78125 -0.70312,-0.796875 -0.70312,-2.21875 0,-1.453125 0.67187,-2.203125 0.6875,-0.75 1.73438,-0.75 0.95312,0 1.65625,0.796875 l 0,-2.84375 1.5,0 0,7.875 z m -4.01563,-2.96875 q 0,0.90625 0.25,1.3125 0.35938,0.59375 1.01563,0.59375 0.51562,0 0.875,-0.4375 0.375,-0.453125 0.375,-1.328125 0,-0.984375 -0.35938,-1.40625 -0.34375,-0.4375 -0.90625,-0.4375 -0.53125,0 -0.89062,0.421875 -0.35938,0.421875 -0.35938,1.28125 z m 8.603,1.15625 1.5,0.25 q -0.28125,0.828125 -0.90625,1.265625 -0.625,0.421875 -1.57813,0.421875 -1.48437,0 -2.20312,-0.96875 -0.5625,-0.78125 -0.5625,-1.96875 0,-1.421875 0.73437,-2.21875 0.75,-0.796875 1.89063,-0.796875 1.26562,0 2,0.84375 0.73437,0.828125 0.70312,2.5625 l -3.78125,0 q 0.0156,0.671875 0.35938,1.046875 0.35937,0.375 0.875,0.375 0.35937,0 0.59375,-0.1875 0.25,-0.203125 0.375,-0.625 z m 0.0781,-1.53125 q -0.0156,-0.65625 -0.34375,-0.984375 -0.3125,-0.34375 -0.76562,-0.34375 -0.5,0 -0.82813,0.359375 -0.3125,0.359375 -0.3125,0.96875 l 2.25,0 z m 3.98902,3.34375 -1.51563,0 0,-5.703125 1.40625,0 0,0.8125 q 0.35938,-0.578125 0.64063,-0.75 0.29687,-0.1875 0.65625,-0.1875 0.51562,0 1,0.28125 l -0.46875,1.3125 q -0.375,-0.25 -0.70313,-0.25 -0.32812,0 -0.54687,0.1875 -0.21875,0.171875 -0.34375,0.625 -0.125,0.453125 -0.125,1.90625 l 0,1.765625 z m 2.6626,0 0,-7.875 1.59375,0 0,7.875 -1.59375,0 z m 8.19503,0 -1.51562,0 0,-2.90625 q 0,-0.921875 -0.0937,-1.1875 -0.0937,-0.28125 -0.3125,-0.421875 -0.21875,-0.15625 -0.53125,-0.15625 -0.39063,0 -0.70313,0.21875 -0.3125,0.203125 -0.4375,0.5625 -0.10937,0.34375 -0.10937,1.3125 l 0,2.578125 -1.5,0 0,-5.703125 1.40625,0 0,0.84375 q 0.73437,-0.96875 1.875,-0.96875 0.5,0 0.90625,0.1875 0.42187,0.171875 0.625,0.453125 0.21875,0.265625 0.29687,0.625 0.0937,0.359375 0.0937,1.015625 l 0,3.546875 z m 0.64988,-5.703125 0.84375,0 0,-0.4375 q 0,-0.71875 0.14062,-1.0625 0.15625,-0.359375 0.5625,-0.578125 0.42188,-0.234375 1.04688,-0.234375 0.65625,0 1.26562,0.203125 l -0.20312,1.046875 q -0.35938,-0.07813 -0.6875,-0.07813 -0.32813,0 -0.48438,0.15625 -0.14062,0.140625 -0.14062,0.578125 l 0,0.40625 1.14062,0 0,1.1875 -1.14062,0 0,4.515625 -1.5,0 0,-4.515625 -0.84375,0 0,-1.1875 z m 3.86111,2.765625 q 0,-0.75 0.375,-1.453125 0.375,-0.703125 1.04688,-1.0625 0.6875,-0.375 1.51562,-0.375 1.29688,0 2.125,0.84375 0.82813,0.828125 0.82813,2.109375 0,1.296875 -0.84375,2.15625 -0.82813,0.84375 -2.09375,0.84375 -0.78125,0 -1.5,-0.34375 -0.70313,-0.359375 -1.07813,-1.046875 -0.375,-0.6875 -0.375,-1.671875 z m 1.54688,0.07813 q 0,0.859375 0.40625,1.3125 0.40625,0.453125 1,0.453125 0.57812,0 0.98437,-0.453125 0.40625,-0.453125 0.40625,-1.3125 0,-0.84375 -0.40625,-1.296875 -0.40625,-0.453125 -0.98437,-0.453125 -0.59375,0 -1,0.453125 -0.40625,0.453125 -0.40625,1.296875 z m 6.75927,2.859375 -1.51562,0 0,-5.703125 1.40625,0 0,0.8125 q 0.35937,-0.578125 0.64062,-0.75 0.29688,-0.1875 0.65625,-0.1875 0.51563,0 1,0.28125 l -0.46875,1.3125 q -0.375,-0.25 -0.70312,-0.25 -0.32813,0 -0.54688,0.1875 -0.21875,0.171875 -0.34375,0.625 -0.125,0.453125 -0.125,1.90625 l 0,1.765625 z m 2.58448,-5.703125 1.39062,0 0,0.78125 q 0.75,-0.90625 1.78125,-0.90625 0.54688,0 0.95313,0.234375 0.40625,0.21875 0.65625,0.671875 0.375,-0.453125 0.8125,-0.671875 0.4375,-0.234375 0.9375,-0.234375 0.625,0 1.0625,0.25 0.4375,0.25 0.64062,0.75 0.15625,0.359375 0.15625,1.1875 l 0,3.640625 -1.5,0 0,-3.265625 q 0,-0.84375 -0.15625,-1.09375 -0.21875,-0.3125 -0.65625,-0.3125 -0.3125,0 -0.59375,0.1875 -0.28125,0.1875 -0.40625,0.5625 -0.10937,0.375 -0.10937,1.1875 l 0,2.734375 -1.51563,0 0,-3.125 q 0,-0.828125 -0.0781,-1.0625 -0.0781,-0.25 -0.25,-0.359375 -0.17188,-0.125 -0.46875,-0.125 -0.34375,0 -0.625,0.1875 -0.28125,0.1875 -0.40625,0.546875 -0.10938,0.34375 -0.10938,1.171875 l 0,2.765625 -1.51562,0 0,-5.703125 z m 10.72512,1.734375 -1.375,-0.25 q 0.23438,-0.8125 0.79688,-1.203125 0.5625,-0.40625 1.67187,-0.40625 1.01563,0 1.5,0.234375 0.5,0.234375 0.70313,0.609375 0.20312,0.359375 0.20312,1.34375 l -0.0156,1.765625 q 0,0.75 0.0625,1.109375 0.0781,0.359375 0.28125,0.765625 l -1.5,0 q -0.0625,-0.15625 -0.14063,-0.453125 -0.0312,-0.125 -0.0469,-0.171875 -0.39063,0.375 -0.84375,0.5625 -0.4375,0.1875 -0.9375,0.1875 -0.875,0 -1.39063,-0.46875 -0.5,-0.484375 -0.5,-1.21875 0,-0.484375 0.23438,-0.859375 0.23437,-0.375 0.64062,-0.578125 0.42188,-0.203125 1.20313,-0.359375 1.0625,-0.1875 1.46875,-0.359375 l 0,-0.15625 q 0,-0.4375 -0.21875,-0.609375 -0.21875,-0.1875 -0.8125,-0.1875 -0.39063,0 -0.625,0.15625 -0.21875,0.15625 -0.35938,0.546875 z m 2.01563,1.234375 q -0.29688,0.09375 -0.92188,0.234375 -0.625,0.125 -0.8125,0.25 -0.29687,0.21875 -0.29687,0.53125 0,0.328125 0.23437,0.5625 0.23438,0.21875 0.59375,0.21875 0.40625,0 0.78125,-0.265625 0.28125,-0.203125 0.35938,-0.5 0.0625,-0.1875 0.0625,-0.734375 l 0,-0.296875 z m 5.39523,-2.96875 0,1.203125 -1.03125,0 0,2.296875 q 0,0.703125 0.0312,0.828125 0.0312,0.109375 0.125,0.1875 0.10938,0.0625 0.26563,0.0625 0.20312,0 0.60937,-0.140625 l 0.125,1.171875 q -0.53125,0.21875 -1.1875,0.21875 -0.42187,0 -0.75,-0.125 -0.32812,-0.140625 -0.48437,-0.359375 -0.14063,-0.21875 -0.20313,-0.59375 -0.0469,-0.265625 -0.0469,-1.0625 l 0,-2.484375 -0.6875,0 0,-1.203125 0.6875,0 0,-1.140625 1.51562,-0.875 0,2.015625 1.03125,0 z m 0.93924,-0.78125 0,-1.390625 1.5,0 0,1.390625 -1.5,0 z m 0,6.484375 0,-5.703125 1.5,0 0,5.703125 -1.5,0 z m 2.60129,-2.9375 q 0,-0.75 0.375,-1.453125 0.375,-0.703125 1.04687,-1.0625 0.6875,-0.375 1.51563,-0.375 1.29687,0 2.125,0.84375 0.82812,0.828125 0.82812,2.109375 0,1.296875 -0.84375,2.15625 -0.82812,0.84375 -2.09375,0.84375 -0.78125,0 -1.5,-0.34375 -0.70312,-0.359375 -1.07812,-1.046875 -0.375,-0.6875 -0.375,-1.671875 z m 1.54687,0.07813 q 0,0.859375 0.40625,1.3125 0.40625,0.453125 1,0.453125 0.57813,0 0.98438,-0.453125 0.40625,-0.453125 0.40625,-1.3125 0,-0.84375 -0.40625,-1.296875 -0.40625,-0.453125 -0.98438,-0.453125 -0.59375,0 -1,0.453125 -0.40625,0.453125 -0.40625,1.296875 z m 10.50925,2.859375 -1.51562,0 0,-2.90625 q 0,-0.921875 -0.0937,-1.1875 -0.0937,-0.28125 -0.3125,-0.421875 -0.21875,-0.15625 -0.53125,-0.15625 -0.39063,0 -0.70313,0.21875 -0.3125,0.203125 -0.4375,0.5625 -0.10937,0.34375 -0.10937,1.3125 l 0,2.578125 -1.5,0 0,-5.703125 1.40625,0 0,0.84375 q 0.73437,-0.96875 1.875,-0.96875 0.5,0 0.90625,0.1875 0.42187,0.171875 0.625,0.453125 0.21875,0.265625 0.29687,0.625 0.0937,0.359375 0.0937,1.015625 l 0,3.546875 z" />
  <path
     style="fill-rule:nonzero;stroke:#1a994d;stroke-width:1;stroke-linecap:butt;stroke-linejoin:round;stroke-opacity:1"
     inkscape:connector-curvature="0"
     id="path51"
     d="m 13.565617,10.213911 162.425203,0 0,27.023623 -162.425203,0 z" />
  <path
     style="fill:#ffffff;fill-rule:nonzero"
     inkscape:connector-curvature="0"
     id="path55"
     d="m 205.56561,107.0958 195.21259,0 0,36.34646 -195.21259,0 z" />
  <path
     style="fill-rule:nonzero;stroke:#0b5394;stroke-width:1;stroke-linecap:butt;stroke-linejoin:round"
     inkscape:connector-curvature="0"
     id="path57"
     d="m 205.56561,107.0958 195.21259,0 0,36.34646 -195.21259,0 z" />
  <path
     style="fill:#000000;fill-opacity:0;fill-rule:nonzero"
     inkscape:connector-curvature="0"
     id="path63"
     d="m 20.39239,114.68898 0,-73.88977" />
  <path
     style="fill-rule:nonzero;stroke:#0b5394;stroke-width:1;stroke-linecap:butt;stroke-linejoin:round"
     inkscape:connector-curvature="0"
     id="path65"
     d="m 20.39239,114.68898 0,-73.88977" />
  <path
     style="fill:#000000;fill-opacity:0;fill-rule:nonzero"
     inkscape:connector-curvature="0"
     id="path67"
     d="m 12.198163,100.6706 163.779527,0 0,14.99213 -163.779527,0 z" />
  <path
     style="fill:#0b5394;fill-rule:nonzero"
     inkscape:connector-curvature="0"
     id="path69"
     d="m 23.124126,111.90667 0,-7.875 0.96875,0 0,7.875 -0.96875,0 z m 2.398727,-6.76562 0,-1.10938 0.96875,0 0,1.10938 -0.96875,0 z m 0,6.76562 0,-5.70312 0.96875,0 0,5.70312 -0.96875,0 z m 1.976853,-1.70312 0.953125,-0.15625 q 0.07813,0.57812 0.4375,0.89062 0.375,0.29688 1.03125,0.29688 0.671875,0 0.984375,-0.26563 0.328125,-0.26562 0.328125,-0.64062 0,-0.32813 -0.28125,-0.51563 -0.203125,-0.125 -0.984375,-0.32812 -1.0625,-0.26563 -1.484375,-0.45313 -0.40625,-0.20312 -0.625,-0.54687 -0.203125,-0.34375 -0.203125,-0.76563 0,-0.39062 0.171875,-0.70312 0.171875,-0.32813 0.484375,-0.54688 0.21875,-0.17187 0.609375,-0.28125 0.390625,-0.10937 0.828125,-0.10937 0.671875,0 1.171875,0.1875 0.515625,0.1875 0.75,0.53125 0.25,0.32812 0.34375,0.875 l -0.9375,0.125 q -0.07813,-0.4375 -0.390625,-0.67188 -0.296875,-0.25 -0.859375,-0.25 -0.671875,0 -0.953125,0.21875 -0.28125,0.21875 -0.28125,0.51563 0,0.1875 0.109375,0.32812 0.125,0.15625 0.375,0.26563 0.140625,0.0469 0.859375,0.25 1.015625,0.26562 1.421875,0.4375 0.40625,0.17187 0.640625,0.51562 0.234375,0.32813 0.234375,0.82813 0,0.48437 -0.28125,0.90625 -0.28125,0.42187 -0.8125,0.65625 -0.53125,0.23437 -1.203125,0.23437 -1.109375,0 -1.703125,-0.45312 -0.578125,-0.46875 -0.734375,-1.375 z m 7.828125,0.84375 0.125,0.84375 q -0.40625,0.0937 -0.71875,0.0937 -0.53125,0 -0.828125,-0.17188 -0.28125,-0.17187 -0.40625,-0.4375 -0.109375,-0.26562 -0.109375,-1.14062 l 0,-3.28125 -0.71875,0 0,-0.75 0.71875,0 0,-1.40625 0.953125,-0.59375 0,2 0.984375,0 0,0.75 -0.984375,0 0,3.34375 q 0,0.40625 0.04687,0.53125 0.0625,0.10937 0.171875,0.1875 0.125,0.0625 0.328125,0.0625 0.171875,0 0.4375,-0.0312 z m 0.648147,-2.96875 q 0,-1.96875 1.046875,-3.07813 1.0625,-1.10937 2.71875,-1.10937 1.09375,0 1.96875,0.53125 0.875,0.51562 1.328125,1.45312 0.46875,0.92188 0.46875,2.10938 0,1.1875 -0.484375,2.14062 -0.484375,0.9375 -1.375,1.4375 -0.875,0.48438 -1.90625,0.48438 -1.109375,0 -1.984375,-0.53125 -0.875,-0.54688 -1.328125,-1.46875 -0.453125,-0.9375 -0.453125,-1.96875 z m 1.078125,0.0156 q 0,1.42188 0.765625,2.25 0.765625,0.8125 1.921875,0.8125 1.171875,0 1.921875,-0.82812 0.765625,-0.82813 0.765625,-2.35938 0,-0.95312 -0.328125,-1.67187 -0.3125,-0.71875 -0.9375,-1.10938 -0.625,-0.39062 -1.40625,-0.39062 -1.109375,0 -1.90625,0.76562 -0.796875,0.75 -0.796875,2.53125 z m 7.632523,3.8125 0,-4.95312 -0.84375,0 0,-0.75 0.84375,0 0,-0.60938 q 0,-0.57812 0.109375,-0.85937 0.140625,-0.375 0.484375,-0.60938 0.359375,-0.23437 0.984375,-0.23437 0.40625,0 0.90625,0.10937 l -0.140625,0.84375 q -0.3125,-0.0625 -0.578125,-0.0625 -0.4375,0 -0.625,0.1875 -0.171875,0.1875 -0.171875,0.70313 l 0,0.53125 1.109375,0 0,0.75 -1.109375,0 0,4.95312 -0.96875,0 z m 6.538773,-3.09375 0,-0.92187 3.34375,0 0,2.92187 q -0.78125,0.60938 -1.59375,0.92188 -0.8125,0.3125 -1.671875,0.3125 -1.15625,0 -2.109375,-0.5 -0.953125,-0.5 -1.4375,-1.4375 -0.484375,-0.9375 -0.484375,-2.10938 0,-1.14062 0.484375,-2.14062 0.484375,-1 1.390625,-1.48438 0.90625,-0.48437 2.078125,-0.48437 0.84375,0 1.53125,0.28125 0.703125,0.28125 1.09375,0.78125 0.390625,0.48437 0.59375,1.28125 l -0.9375,0.25 q -0.171875,-0.59375 -0.4375,-0.9375 -0.265625,-0.34375 -0.765625,-0.54688 -0.484375,-0.20312 -1.078125,-0.20312 -0.71875,0 -1.234375,0.21875 -0.515625,0.20312 -0.84375,0.5625 -0.3125,0.35937 -0.5,0.78125 -0.296875,0.73437 -0.296875,1.57812 0,1.0625 0.359375,1.76563 0.375,0.70312 1.0625,1.04687 0.6875,0.34375 1.46875,0.34375 0.671875,0 1.3125,-0.25 0.65625,-0.26562 0.984375,-0.5625 l 0,-1.46875 -2.3125,0 z m 4.460647,3.09375 0,-7.875 0.96875,0 0,7.875 -0.96875,0 z m 2.023728,-2.85937 q 0,-1.57813 0.890625,-2.34375 0.734375,-0.625 1.796875,-0.625 1.171875,0 1.90625,0.76562 0.75,0.76563 0.75,2.125 0,1.10938 -0.328125,1.75 -0.328125,0.625 -0.96875,0.96875 -0.625,0.34375 -1.359375,0.34375 -1.203125,0 -1.953125,-0.76562 -0.734375,-0.76563 -0.734375,-2.21875 z m 1,0 q 0,1.10937 0.46875,1.65625 0.484375,0.53125 1.21875,0.53125 0.71875,0 1.1875,-0.54688 0.484375,-0.54687 0.484375,-1.67187 0,-1.04688 -0.484375,-1.59375 -0.484375,-0.54688 -1.1875,-0.54688 -0.734375,0 -1.21875,0.54688 -0.46875,0.53125 -0.46875,1.625 z m 6.176502,2.85937 -0.890629,0 0,-7.875 0.968754,0 0,2.8125 q 0.609375,-0.76562 1.5625,-0.76562 0.53125,0 1,0.21875 0.46875,0.20312 0.765625,0.59375 0.3125,0.375 0.484375,0.92187 0.171875,0.53125 0.171875,1.15625 0,1.46875 -0.734375,2.26563 -0.71875,0.79687 -1.734375,0.79687 -1.015625,0 -1.59375,-0.84375 l 0,0.71875 z m 0,-2.89062 q 0,1.01562 0.28125,1.48437 0.453125,0.73438 1.234375,0.73438 0.625,0 1.078125,-0.54688 0.46875,-0.54687 0.46875,-1.64062 0,-1.10938 -0.4375,-1.64063 -0.4375,-0.53125 -1.078125,-0.53125 -0.625,0 -1.09375,0.54688 -0.453125,0.54687 -0.453125,1.59375 z m 8.770248,2.1875 q -0.546875,0.45312 -1.046875,0.64062 -0.484375,0.1875 -1.0625,0.1875 -0.9375,0 -1.453125,-0.45312 -0.5,-0.46875 -0.5,-1.17188 0,-0.42187 0.1875,-0.76562 0.203125,-0.34375 0.5,-0.54688 0.3125,-0.21875 0.703125,-0.32812 0.28125,-0.0781 0.859375,-0.14063 1.171875,-0.14062 1.71875,-0.34375 0.01563,-0.1875 0.01563,-0.25 0,-0.59375 -0.28125,-0.82812 -0.359375,-0.32813 -1.09375,-0.32813 -0.6875,0 -1.015625,0.23438 -0.3125,0.23437 -0.46875,0.84375 l -0.953125,-0.125 q 0.125,-0.60938 0.421875,-0.98438 0.296875,-0.375 0.859375,-0.5625 0.5625,-0.20312 1.296875,-0.20312 0.734375,0 1.1875,0.17187 0.453125,0.17188 0.65625,0.4375 0.21875,0.25 0.3125,0.64063 0.04687,0.25 0.04687,0.90625 l 0,1.28125 q 0,1.34375 0.0625,1.70312 0.0625,0.35938 0.25,0.6875 l -1.015625,0 q -0.15625,-0.29687 -0.1875,-0.70312 z m -0.09375,-2.15625 q -0.515625,0.21875 -1.578125,0.35937 -0.59375,0.0937 -0.84375,0.20313 -0.234375,0.0937 -0.375,0.3125 -0.140625,0.20312 -0.140625,0.45312 0,0.39063 0.296875,0.65625 0.296875,0.25 0.859375,0.25 0.5625,0 0.984375,-0.25 0.4375,-0.25 0.65625,-0.67187 0.140625,-0.32813 0.140625,-0.96875 l 0,-0.34375 z m 2.270248,2.85937 0,-7.875 0.96875,0 0,7.875 -0.96875,0 z m 2.523727,0 0,-7.875 3.5,0 q 1.046875,0 1.59375,0.21875 0.546875,0.20313 0.875,0.75 0.328125,0.53125 0.328125,1.1875 0,0.82813 -0.546875,1.40625 -0.53125,0.57813 -1.671875,0.73438 0.421875,0.1875 0.625,0.39062 0.46875,0.42188 0.875,1.04688 l 1.359375,2.14062 -1.296875,0 -1.046875,-1.64062 q -0.453125,-0.70313 -0.75,-1.07813 -0.296875,-0.375 -0.53125,-0.53125 -0.234375,-0.15625 -0.46875,-0.20312 -0.1875,-0.0469 -0.59375,-0.0469 l -1.203125,0 0,3.5 -1.046875,0 z m 1.046875,-4.40625 2.234375,0 q 0.71875,0 1.125,-0.14062 0.40625,-0.14063 0.609375,-0.46875 0.203125,-0.32813 0.203125,-0.70313 0,-0.5625 -0.40625,-0.92187 -0.390625,-0.35938 -1.265625,-0.35938 l -2.5,0 0,2.59375 z m 10.414352,2.5625 1,0.125 q -0.234375,0.875 -0.875,1.35938 -0.640625,0.48437 -1.625,0.48437 -1.25,0 -1.984375,-0.76562 -0.734375,-0.76563 -0.734375,-2.15625 0,-1.45313 0.734375,-2.23438 0.75,-0.79687 1.921875,-0.79687 1.15625,0 1.875,0.78125 0.71875,0.76562 0.71875,2.1875 0,0.0781 0,0.25 l -4.25,0 q 0.04687,0.9375 0.515625,1.4375 0.484375,0.5 1.203125,0.5 0.53125,0 0.90625,-0.26563 0.375,-0.28125 0.59375,-0.90625 z m -3.171875,-1.5625 3.1875,0 q -0.0625,-0.71875 -0.359375,-1.07812 -0.46875,-0.54688 -1.203125,-0.54688 -0.671875,0 -1.125,0.45313 -0.453125,0.4375 -0.5,1.17187 z m 5.192124,3.40625 0,-5.70312 0.875,0 0,0.8125 q 0.625,-0.9375 1.8125,-0.9375 0.515625,0 0.953125,0.1875 0.4375,0.17187 0.640625,0.48437 0.21875,0.29688 0.3125,0.70313 0.04687,0.28125 0.04687,0.95312 l 0,3.5 -0.96875,0 0,-3.46875 q 0,-0.59375 -0.109375,-0.875 -0.109375,-0.29687 -0.40625,-0.46875 -0.28125,-0.1875 -0.671875,-0.1875 -0.609375,0 -1.0625,0.39063 -0.453125,0.39062 -0.453125,1.5 l 0,3.10937 -0.96875,0 z m 9.629625,0 0,-0.71875 q -0.53125,0.84375 -1.593752,0.84375 -0.671875,0 -1.25,-0.375 -0.578125,-0.375 -0.890625,-1.04687 -0.3125,-0.67188 -0.3125,-1.54688 0,-0.85937 0.28125,-1.54687 0.296875,-0.70313 0.859375,-1.0625 0.5625,-0.375 1.265625,-0.375 0.515627,0 0.921877,0.21875 0.40625,0.21875 0.65625,0.5625 l 0,-2.82813 0.96875,0 0,7.875 -0.90625,0 z m -3.046877,-2.84375 q 0,1.09375 0.453125,1.64063 0.46875,0.53125 1.09375,0.53125 0.640622,0 1.078122,-0.51563 0.4375,-0.51562 0.4375,-1.57812 0,-1.17188 -0.45312,-1.71875 -0.4375,-0.54688 -1.109377,-0.54688 -0.640625,0 -1.078125,0.53125 -0.421875,0.51563 -0.421875,1.65625 z m 9.176497,1 1,0.125 q -0.23437,0.875 -0.875,1.35938 -0.64062,0.48437 -1.625,0.48437 -1.25,0 -1.98437,-0.76562 -0.73438,-0.76563 -0.73438,-2.15625 0,-1.45313 0.73438,-2.23438 0.75,-0.79687 1.92187,-0.79687 1.15625,0 1.875,0.78125 0.71875,0.76562 0.71875,2.1875 0,0.0781 0,0.25 l -4.25,0 q 0.0469,0.9375 0.51563,1.4375 0.48437,0.5 1.20312,0.5 0.53125,0 0.90625,-0.26563 0.375,-0.28125 0.59375,-0.90625 z m -3.17187,-1.5625 3.1875,0 q -0.0625,-0.71875 -0.35938,-1.07812 -0.46875,-0.54688 -1.20312,-0.54688 -0.67188,0 -1.125,0.45313 -0.45313,0.4375 -0.5,1.17187 z m 5.19212,3.40625 0,-5.70312 0.85937,0 0,0.85937 q 0.34375,-0.60937 0.625,-0.79687 0.28125,-0.1875 0.60938,-0.1875 0.5,0 1,0.3125 l -0.32813,0.89062 q -0.35937,-0.20312 -0.71875,-0.20312 -0.3125,0 -0.5625,0.1875 -0.25,0.1875 -0.35937,0.53125 -0.15625,0.51562 -0.15625,1.125 l 0,2.98437 -0.96875,0 z m 3.86111,0 0,-7.875 1.03125,0 0,7.875 -1.03125,0 z m 2.64815,0 0,-5.70312 0.875,0 0,0.8125 q 0.625,-0.9375 1.8125,-0.9375 0.51563,0 0.95313,0.1875 0.4375,0.17187 0.64062,0.48437 0.21875,0.29688 0.3125,0.70313 0.0469,0.28125 0.0469,0.95312 l 0,3.5 -0.96875,0 0,-3.46875 q 0,-0.59375 -0.10938,-0.875 -0.10937,-0.29687 -0.40625,-0.46875 -0.28125,-0.1875 -0.67187,-0.1875 -0.60938,0 -1.0625,0.39063 -0.45313,0.39062 -0.45313,1.5 l 0,3.10937 -0.96875,0 z m 6.16087,0 0,-4.95312 -0.84375,0 0,-0.75 0.84375,0 0,-0.60938 q 0,-0.57812 0.10938,-0.85937 0.14062,-0.375 0.48437,-0.60938 0.35938,-0.23437 0.98438,-0.23437 0.40625,0 0.90625,0.10937 l -0.14063,0.84375 q -0.3125,-0.0625 -0.57812,-0.0625 -0.4375,0 -0.625,0.1875 -0.17188,0.1875 -0.17188,0.70313 l 0,0.53125 1.10938,0 0,0.75 -1.10938,0 0,4.95312 -0.96875,0 z m 2.3669,-2.85937 q 0,-1.57813 0.89063,-2.34375 0.73437,-0.625 1.79687,-0.625 1.17188,0 1.90625,0.76562 0.75,0.76563 0.75,2.125 0,1.10938 -0.32812,1.75 -0.32813,0.625 -0.96875,0.96875 -0.625,0.34375 -1.35938,0.34375 -1.20312,0 -1.95312,-0.76562 -0.73438,-0.76563 -0.73438,-2.21875 z m 1,0 q 0,1.10937 0.46875,1.65625 0.48438,0.53125 1.21875,0.53125 0.71875,0 1.1875,-0.54688 0.48438,-0.54687 0.48438,-1.67187 0,-1.04688 -0.48438,-1.59375 -0.48437,-0.54688 -1.1875,-0.54688 -0.73437,0 -1.21875,0.54688 -0.46875,0.53125 -0.46875,1.625 z m 5.28588,2.85937 0,-5.70312 0.85937,0 0,0.85937 q 0.34375,-0.60937 0.625,-0.79687 0.28125,-0.1875 0.60938,-0.1875 0.5,0 1,0.3125 l -0.32813,0.89062 q -0.35937,-0.20312 -0.71875,-0.20312 -0.3125,0 -0.5625,0.1875 -0.25,0.1875 -0.35937,0.53125 -0.15625,0.51562 -0.15625,1.125 l 0,2.98437 -0.96875,0 z m 3.54861,0 0,-5.70312 0.875,0 0,0.79687 q 0.26563,-0.42187 0.70313,-0.67187 0.45312,-0.25 1.01562,-0.25 0.64063,0 1.04688,0.26562 0.40625,0.25 0.57812,0.73438 0.67188,-1 1.75,-1 0.85938,0 1.3125,0.46875 0.45313,0.46875 0.45313,1.4375 l 0,3.92187 -0.95313,0 0,-3.59375 q 0,-0.57812 -0.0937,-0.82812 -0.0937,-0.26563 -0.34375,-0.42188 -0.25,-0.15625 -0.57812,-0.15625 -0.60938,0 -1.01563,0.40625 -0.39062,0.40625 -0.39062,1.28125 l 0,3.3125 -0.96875,0 0,-3.70312 q 0,-0.64063 -0.23438,-0.96875 -0.23437,-0.32813 -0.76562,-0.32813 -0.40625,0 -0.76563,0.21875 -0.34375,0.21875 -0.5,0.64063 -0.15625,0.40625 -0.15625,1.1875 l 0,2.95312 -0.96875,0 z m 12.61111,-0.70312 q -0.54687,0.45312 -1.04687,0.64062 -0.48438,0.1875 -1.0625,0.1875 -0.9375,0 -1.45313,-0.45312 -0.5,-0.46875 -0.5,-1.17188 0,-0.42187 0.1875,-0.76562 0.20313,-0.34375 0.5,-0.54688 0.3125,-0.21875 0.70313,-0.32812 0.28125,-0.0781 0.85937,-0.14063 1.17188,-0.14062 1.71875,-0.34375 0.0156,-0.1875 0.0156,-0.25 0,-0.59375 -0.28125,-0.82812 -0.35938,-0.32813 -1.09375,-0.32813 -0.6875,0 -1.01563,0.23438 -0.3125,0.23437 -0.46875,0.84375 l -0.95312,-0.125 q 0.125,-0.60938 0.42187,-0.98438 0.29688,-0.375 0.85938,-0.5625 0.5625,-0.20312 1.29687,-0.20312 0.73438,0 1.1875,0.17187 0.45313,0.17188 0.65625,0.4375 0.21875,0.25 0.3125,0.64063 0.0469,0.25 0.0469,0.90625 l 0,1.28125 q 0,1.34375 0.0625,1.70312 0.0625,0.35938 0.25,0.6875 l -1.01563,0 q -0.15625,-0.29687 -0.1875,-0.70312 z m -0.0937,-2.15625 q -0.51562,0.21875 -1.57812,0.35937 -0.59375,0.0937 -0.84375,0.20313 -0.23438,0.0937 -0.375,0.3125 -0.14063,0.20312 -0.14063,0.45312 0,0.39063 0.29688,0.65625 0.29687,0.25 0.85937,0.25 0.5625,0 0.98438,-0.25 0.4375,-0.25 0.65625,-0.67187 0.14062,-0.32813 0.14062,-0.96875 l 0,-0.34375 z m 4.41088,2 0.125,0.84375 q -0.40625,0.0937 -0.71875,0.0937 -0.53125,0 -0.82813,-0.17188 -0.28125,-0.17187 -0.40625,-0.4375 -0.10937,-0.26562 -0.10937,-1.14062 l 0,-3.28125 -0.71875,0 0,-0.75 0.71875,0 0,-1.40625 0.95312,-0.59375 0,2 0.98438,0 0,0.75 -0.98438,0 0,3.34375 q 0,0.40625 0.0469,0.53125 0.0625,0.10937 0.17187,0.1875 0.125,0.0625 0.32813,0.0625 0.17187,0 0.4375,-0.0312 z m 0.85127,-5.90625 0,-1.10938 0.96875,0 0,1.10938 -0.96875,0 z m 0,6.76562 0,-5.70312 0.96875,0 0,5.70312 -0.96875,0 z m 1.99248,-2.85937 q 0,-1.57813 0.89062,-2.34375 0.73438,-0.625 1.79688,-0.625 1.17187,0 1.90625,0.76562 0.75,0.76563 0.75,2.125 0,1.10938 -0.32813,1.75 -0.32812,0.625 -0.96875,0.96875 -0.625,0.34375 -1.35937,0.34375 -1.20313,0 -1.95313,-0.76562 -0.73437,-0.76563 -0.73437,-2.21875 z m 1,0 q 0,1.10937 0.46875,1.65625 0.48437,0.53125 1.21875,0.53125 0.71875,0 1.1875,-0.54688 0.48437,-0.54687 0.48437,-1.67187 0,-1.04688 -0.48437,-1.59375 -0.48438,-0.54688 -1.1875,-0.54688 -0.73438,0 -1.21875,0.54688 -0.46875,0.53125 -0.46875,1.625 z m 5.28587,2.85937 0,-5.70312 0.875,0 0,0.8125 q 0.625,-0.9375 1.8125,-0.9375 0.51563,0 0.95313,0.1875 0.4375,0.17187 0.64062,0.48437 0.21875,0.29688 0.3125,0.70313 0.0469,0.28125 0.0469,0.95312 l 0,3.5 -0.96875,0 0,-3.46875 q 0,-0.59375 -0.10938,-0.875 -0.10937,-0.29687 -0.40625,-0.46875 -0.28125,-0.1875 -0.67187,-0.1875 -0.60938,0 -1.0625,0.39063 -0.45313,0.39062 -0.45313,1.5 l 0,3.10937 -0.96875,0 z" />
  <path
     style="fill:#000000;fill-opacity:0;fill-rule:nonzero"
     inkscape:connector-curvature="0"
     id="path71"
     d="m 173.60498,99.36614 36,0 0,14.99213 -36,0 z" />
  <path
     style="fill:#0b5394;fill-rule:nonzero"
     inkscape:connector-curvature="0"
     id="path75"
     d="m 15.620735,43.587925 4.771654,-5.055115 4.771652,5.055115 -4.771652,5.055119 z" />
  <path
     style="fill-rule:nonzero;stroke:#0b5394;stroke-width:2;stroke-linecap:butt;stroke-linejoin:round"
     inkscape:connector-curvature="0"
     id="path77"
     d="m 15.620735,43.587925 4.771654,-5.055115 4.771652,5.055115 -4.771652,5.055119 z" />
  <path
     style="fill:#000000;fill-opacity:0;fill-rule:nonzero"
     inkscape:connector-curvature="0"
     id="path79"
     d="m 20.702099,114.18241 184.629911,0" />
  <path
     style="fill-rule:nonzero;stroke:#0b5394;stroke-width:1;stroke-miterlimit:8"
     inkscape:connector-curvature="0"
     id="path81"
     d="m 20.702099,114.18241 184.629911,0"
     stroke-miterlimit="8.0" />
  <path
     style="fill:#000000;fill-opacity:0;fill-rule:nonzero"
     inkscape:connector-curvature="0"
     id="path83"
     d="m 333.96637,208.67032 36,0 0,14.99213 -36,0 z" />
  <path
     style="fill:#0b5394;fill-rule:nonzero"
     inkscape:connector-curvature="0"
     id="path85"
     d="m 348.06274,219.90637 -0.96875,0 0,-6.15625 q -0.34375,0.32812 -0.90625,0.67187 -0.5625,0.32813 -1.01562,0.48438 l 0,-0.9375 q 0.8125,-0.375 1.40625,-0.90625 0.60937,-0.54688 0.85937,-1.0625 l 0.625,0 0,7.90625 z m 2.83273,0 0,-1.09375 1.09375,0 0,1.09375 -1.09375,0 z m 2.96067,0 0,-1.09375 1.09375,0 0,1.09375 -1.09375,0 z m 2.30438,-6.42188 0.25,-0.76562 q 0.84375,0.29687 1.23437,0.51562 -0.0937,-0.96875 -0.10937,-1.34375 l 0.78125,0 q -0.0156,0.53125 -0.125,1.34375 0.5625,-0.28125 1.26562,-0.51562 l 0.25,0.76562 q -0.67187,0.21875 -1.32812,0.29688 0.32812,0.28125 0.92187,1.01562 l -0.64062,0.45313 q -0.3125,-0.42188 -0.75,-1.15625 -0.39063,0.76562 -0.6875,1.15625 l -0.64063,-0.45313 q 0.625,-0.76562 0.89063,-1.01562 -0.6875,-0.14063 -1.3125,-0.29688 z" />
  <path
     style="fill:#000000;fill-opacity:0;fill-rule:nonzero"
     inkscape:connector-curvature="0"
     id="path87"
     d="m 431.1831,48.644356 0,12.346458" />
  <path
     style="fill-rule:nonzero;stroke:#0b5394;stroke-width:1;stroke-linecap:butt;stroke-linejoin:round"
     inkscape:connector-curvature="0"
     id="path89"
     d="m 431.1831,48.644356 0,12.346458" />
  <path
     style="fill:#ffffff;fill-rule:nonzero"
     inkscape:connector-curvature="0"
     id="path91"
     d="m 362.68634,211.23753 162.42523,0 0,27.02362 -162.42523,0 z" />
  <path
     style="fill-rule:nonzero;stroke:#0b5394;stroke-width:1;stroke-linecap:butt;stroke-linejoin:round"
     inkscape:connector-curvature="0"
     id="path93"
     d="m 362.68634,211.23753 162.42523,0 0,27.02362 -162.42523,0 z" />
  <path
     style="fill:#0b5394;fill-rule:nonzero"
     inkscape:connector-curvature="0"
     id="path95"
     d="m 384.12785,225.79623 0,-1.32813 3.42187,0 0,3.14063 q -0.5,0.46875 -1.45312,0.84375 -0.9375,0.375 -1.92188,0.375 -1.23437,0 -2.15625,-0.51563 -0.90625,-0.53125 -1.375,-1.48437 -0.45312,-0.96875 -0.45312,-2.10938 0,-1.21875 0.51562,-2.17187 0.51563,-0.96875 1.5,-1.46875 0.76563,-0.40625 1.89063,-0.40625 1.46875,0 2.28125,0.625 0.82812,0.60937 1.0625,1.70312 l -1.57813,0.29688 q -0.15625,-0.59375 -0.625,-0.92188 -0.45312,-0.34375 -1.14062,-0.34375 -1.04688,0 -1.65625,0.67188 -0.60938,0.65625 -0.60938,1.95312 0,1.40625 0.60938,2.10938 0.625,0.70312 1.64062,0.70312 0.5,0 1,-0.1875 0.5,-0.20312 0.85938,-0.48437 l 0,-1 -1.8125,0 z m 4.61691,2.89062 0,-7.875 1.5,0 0,7.875 -1.5,0 z m 2.60126,-2.9375 q 0,-0.75 0.375,-1.45312 0.375,-0.70313 1.04688,-1.0625 0.6875,-0.375 1.51562,-0.375 1.29688,0 2.125,0.84375 0.82813,0.82812 0.82813,2.10937 0,1.29688 -0.84375,2.15625 -0.82813,0.84375 -2.09375,0.84375 -0.78125,0 -1.5,-0.34375 -0.70313,-0.35937 -1.07813,-1.04687 -0.375,-0.6875 -0.375,-1.67188 z m 1.54688,0.0781 q 0,0.85937 0.40625,1.3125 0.40625,0.45312 1,0.45312 0.57812,0 0.98437,-0.45312 0.40625,-0.45313 0.40625,-1.3125 0,-0.84375 -0.40625,-1.29688 -0.40625,-0.45312 -0.98437,-0.45312 -0.59375,0 -1,0.45312 -0.40625,0.45313 -0.40625,1.29688 z m 5.24365,2.85937 0,-7.875 1.51562,0 0,2.84375 q 0.70313,-0.79687 1.65625,-0.79687 1.04688,0 1.71875,0.75 0.6875,0.75 0.6875,2.17187 0,1.45313 -0.70312,2.25 -0.6875,0.78125 -1.6875,0.78125 -0.48438,0 -0.96875,-0.23437 -0.46875,-0.25 -0.8125,-0.73438 l 0,0.84375 -1.40625,0 z m 1.5,-2.96875 q 0,0.875 0.28125,1.29688 0.39062,0.60937 1.04687,0.60937 0.5,0 0.84375,-0.42187 0.35938,-0.4375 0.35938,-1.35938 0,-0.96875 -0.35938,-1.39062 -0.34375,-0.4375 -0.90625,-0.4375 -0.54687,0 -0.90625,0.42187 -0.35937,0.42188 -0.35937,1.28125 z m 6.21237,-1 -1.375,-0.25 q 0.23438,-0.8125 0.79688,-1.20312 0.5625,-0.40625 1.67187,-0.40625 1.01563,0 1.5,0.23437 0.5,0.23438 0.70313,0.60938 0.20312,0.35937 0.20312,1.34375 l -0.0156,1.76562 q 0,0.75 0.0625,1.10938 0.0781,0.35937 0.28125,0.76562 l -1.5,0 q -0.0625,-0.15625 -0.14062,-0.45312 -0.0312,-0.125 -0.0469,-0.17188 -0.39062,0.375 -0.84375,0.5625 -0.4375,0.1875 -0.9375,0.1875 -0.875,0 -1.39062,-0.46875 -0.5,-0.48437 -0.5,-1.21875 0,-0.48437 0.23437,-0.85937 0.23438,-0.375 0.64063,-0.57813 0.42187,-0.20312 1.20312,-0.35937 1.0625,-0.1875 1.46875,-0.35938 l 0,-0.15625 q 0,-0.4375 -0.21875,-0.60937 -0.21875,-0.1875 -0.8125,-0.1875 -0.39062,0 -0.625,0.15625 -0.21875,0.15625 -0.35937,0.54687 z m 2.01563,1.23438 q -0.29688,0.0937 -0.92188,0.23437 -0.625,0.125 -0.8125,0.25 -0.29687,0.21875 -0.29687,0.53125 0,0.32813 0.23437,0.5625 0.23438,0.21875 0.59375,0.21875 0.40625,0 0.78125,-0.26562 0.28125,-0.20313 0.35938,-0.5 0.0625,-0.1875 0.0625,-0.73438 l 0,-0.29687 z m 2.78589,2.73437 0,-7.875 1.5,0 0,7.875 -1.5,0 z m 2.97626,0 0,-7.875 3.34375,0 q 1.26563,0 1.82813,0.21875 0.57812,0.20313 0.92187,0.75 0.34375,0.54688 0.34375,1.23438 0,0.89062 -0.53125,1.46875 -0.51562,0.57812 -1.54687,0.73437 0.51562,0.29688 0.84375,0.65625 0.34375,0.35938 0.90625,1.28125 l 0.96875,1.53125 -1.90625,0 -1.15625,-1.71875 q -0.60938,-0.90625 -0.84375,-1.14062 -0.21875,-0.25 -0.46875,-0.32813 -0.25,-0.0937 -0.79688,-0.0937 l -0.32812,0 0,3.28125 -1.57813,0 z m 1.57813,-4.54687 1.1875,0 q 1.14062,0 1.42187,-0.0937 0.28125,-0.0937 0.4375,-0.32813 0.17188,-0.23437 0.17188,-0.59375 0,-0.40625 -0.21875,-0.64062 -0.20313,-0.25 -0.59375,-0.3125 -0.1875,-0.0312 -1.15625,-0.0312 l -1.25,0 0,2 z m 9.39873,2.73437 1.5,0.25 q -0.28125,0.82813 -0.90625,1.26563 -0.625,0.42187 -1.57812,0.42187 -1.48438,0 -2.20313,-0.96875 -0.5625,-0.78125 -0.5625,-1.96875 0,-1.42187 0.73438,-2.21875 0.75,-0.79687 1.89062,-0.79687 1.26563,0 2,0.84375 0.73438,0.82812 0.70313,2.5625 l -3.78125,0 q 0.0156,0.67187 0.35937,1.04687 0.35938,0.375 0.875,0.375 0.35938,0 0.59375,-0.1875 0.25,-0.20312 0.375,-0.625 z m 0.0781,-1.53125 q -0.0156,-0.65625 -0.34375,-0.98437 -0.3125,-0.34375 -0.76562,-0.34375 -0.5,0 -0.82813,0.35937 -0.3125,0.35938 -0.3125,0.96875 l 2.25,0 z m 7.73899,3.34375 -1.51562,0 0,-2.90625 q 0,-0.92187 -0.0937,-1.1875 -0.0937,-0.28125 -0.3125,-0.42187 -0.21875,-0.15625 -0.53125,-0.15625 -0.39062,0 -0.70312,0.21875 -0.3125,0.20312 -0.4375,0.5625 -0.10938,0.34375 -0.10938,1.3125 l 0,2.57812 -1.5,0 0,-5.70312 1.40625,0 0,0.84375 q 0.73438,-0.96875 1.875,-0.96875 0.5,0 0.90625,0.1875 0.42188,0.17187 0.625,0.45312 0.21875,0.26563 0.29688,0.625 0.0937,0.35938 0.0937,1.01563 l 0,3.54687 z m 6.54053,0 -1.39062,0 0,-0.84375 q -0.35938,0.5 -0.84375,0.73438 -0.46875,0.23437 -0.9375,0.23437 -0.98438,0 -1.6875,-0.78125 -0.70313,-0.79687 -0.70313,-2.21875 0,-1.45312 0.67188,-2.20312 0.6875,-0.75 1.73437,-0.75 0.95313,0 1.65625,0.79687 l 0,-2.84375 1.5,0 0,7.875 z m -4.01562,-2.96875 q 0,0.90625 0.25,1.3125 0.35937,0.59375 1.01562,0.59375 0.51563,0 0.875,-0.4375 0.375,-0.45312 0.375,-1.32812 0,-0.98438 -0.35937,-1.40625 -0.34375,-0.4375 -0.90625,-0.4375 -0.53125,0 -0.89063,0.42187 -0.35937,0.42188 -0.35937,1.28125 z m 8.603,1.15625 1.5,0.25 q -0.28125,0.82813 -0.90625,1.26563 -0.625,0.42187 -1.57813,0.42187 -1.48437,0 -2.20312,-0.96875 -0.5625,-0.78125 -0.5625,-1.96875 0,-1.42187 0.73437,-2.21875 0.75,-0.79687 1.89063,-0.79687 1.26562,0 2,0.84375 0.73437,0.82812 0.70312,2.5625 l -3.78125,0 q 0.0156,0.67187 0.35938,1.04687 0.35937,0.375 0.875,0.375 0.35937,0 0.59375,-0.1875 0.25,-0.20312 0.375,-0.625 z m 0.0781,-1.53125 q -0.0156,-0.65625 -0.34375,-0.98437 -0.3125,-0.34375 -0.76562,-0.34375 -0.5,0 -0.82813,0.35937 -0.3125,0.35938 -0.3125,0.96875 l 2.25,0 z m 3.98901,3.34375 -1.51562,0 0,-5.70312 1.40625,0 0,0.8125 q 0.35937,-0.57813 0.64062,-0.75 0.29688,-0.1875 0.65625,-0.1875 0.51563,0 1,0.28125 l -0.46875,1.3125 q -0.375,-0.25 -0.70312,-0.25 -0.32813,0 -0.54688,0.1875 -0.21875,0.17187 -0.34375,0.625 -0.125,0.45312 -0.125,1.90625 l 0,1.76562 z m 2.6626,0 0,-7.875 1.59375,0 0,7.875 -1.59375,0 z m 8.19504,0 -1.51562,0 0,-2.90625 q 0,-0.92187 -0.0937,-1.1875 -0.0937,-0.28125 -0.3125,-0.42187 -0.21875,-0.15625 -0.53125,-0.15625 -0.39063,0 -0.70313,0.21875 -0.3125,0.20312 -0.4375,0.5625 -0.10937,0.34375 -0.10937,1.3125 l 0,2.57812 -1.5,0 0,-5.70312 1.40625,0 0,0.84375 q 0.73437,-0.96875 1.875,-0.96875 0.5,0 0.90625,0.1875 0.42187,0.17187 0.625,0.45312 0.21875,0.26563 0.29687,0.625 0.0937,0.35938 0.0937,1.01563 l 0,3.54687 z m 0.64987,-5.70312 0.84375,0 0,-0.4375 q 0,-0.71875 0.14063,-1.0625 0.15625,-0.35938 0.5625,-0.57813 0.42187,-0.23437 1.04687,-0.23437 0.65625,0 1.26563,0.20312 l -0.20313,1.04688 q -0.35937,-0.0781 -0.6875,-0.0781 -0.32812,0 -0.48437,0.15625 -0.14063,0.14063 -0.14063,0.57813 l 0,0.40625 1.14063,0 0,1.1875 -1.14063,0 0,4.51562 -1.5,0 0,-4.51562 -0.84375,0 0,-1.1875 z m 3.86112,2.76562 q 0,-0.75 0.375,-1.45312 0.375,-0.70313 1.04687,-1.0625 0.6875,-0.375 1.51563,-0.375 1.29687,0 2.125,0.84375 0.82812,0.82812 0.82812,2.10937 0,1.29688 -0.84375,2.15625 -0.82812,0.84375 -2.09375,0.84375 -0.78125,0 -1.5,-0.34375 -0.70312,-0.35937 -1.07812,-1.04687 -0.375,-0.6875 -0.375,-1.67188 z m 1.54687,0.0781 q 0,0.85937 0.40625,1.3125 0.40625,0.45312 1,0.45312 0.57813,0 0.98438,-0.45312 0.40625,-0.45313 0.40625,-1.3125 0,-0.84375 -0.40625,-1.29688 -0.40625,-0.45312 -0.98438,-0.45312 -0.59375,0 -1,0.45312 -0.40625,0.45313 -0.40625,1.29688 z m 6.75928,2.85937 -1.51563,0 0,-5.70312 1.40625,0 0,0.8125 q 0.35938,-0.57813 0.64063,-0.75 0.29687,-0.1875 0.65625,-0.1875 0.51562,0 1,0.28125 l -0.46875,1.3125 q -0.375,-0.25 -0.70313,-0.25 -0.32812,0 -0.54687,0.1875 -0.21875,0.17187 -0.34375,0.625 -0.125,0.45312 -0.125,1.90625 l 0,1.76562 z m 2.58447,-5.70312 1.39063,0 0,0.78125 q 0.75,-0.90625 1.78125,-0.90625 0.54687,0 0.95312,0.23437 0.40625,0.21875 0.65625,0.67188 0.375,-0.45313 0.8125,-0.67188 0.4375,-0.23437 0.9375,-0.23437 0.625,0 1.0625,0.25 0.4375,0.25 0.64063,0.75 0.15625,0.35937 0.15625,1.1875 l 0,3.64062 -1.5,0 0,-3.26562 q 0,-0.84375 -0.15625,-1.09375 -0.21875,-0.3125 -0.65625,-0.3125 -0.3125,0 -0.59375,0.1875 -0.28125,0.1875 -0.40625,0.5625 -0.10938,0.375 -0.10938,1.1875 l 0,2.73437 -1.51562,0 0,-3.125 q 0,-0.82812 -0.0781,-1.0625 -0.0781,-0.25 -0.25,-0.35937 -0.17187,-0.125 -0.46875,-0.125 -0.34375,0 -0.625,0.1875 -0.28125,0.1875 -0.40625,0.54687 -0.10937,0.34375 -0.10937,1.17188 l 0,2.76562 -1.51563,0 0,-5.70312 z m 10.72513,1.73437 -1.375,-0.25 q 0.23437,-0.8125 0.79687,-1.20312 0.5625,-0.40625 1.67188,-0.40625 1.01562,0 1.5,0.23437 0.5,0.23438 0.70312,0.60938 0.20313,0.35937 0.20313,1.34375 l -0.0156,1.76562 q 0,0.75 0.0625,1.10938 0.0781,0.35937 0.28125,0.76562 l -1.5,0 q -0.0625,-0.15625 -0.14062,-0.45312 -0.0312,-0.125 -0.0469,-0.17188 -0.39062,0.375 -0.84375,0.5625 -0.4375,0.1875 -0.9375,0.1875 -0.875,0 -1.39062,-0.46875 -0.5,-0.48437 -0.5,-1.21875 0,-0.48437 0.23437,-0.85937 0.23438,-0.375 0.64063,-0.57813 0.42187,-0.20312 1.20312,-0.35937 1.0625,-0.1875 1.46875,-0.35938 l 0,-0.15625 q 0,-0.4375 -0.21875,-0.60937 -0.21875,-0.1875 -0.8125,-0.1875 -0.39062,0 -0.625,0.15625 -0.21875,0.15625 -0.35937,0.54687 z m 2.01562,1.23438 q -0.29687,0.0937 -0.92187,0.23437 -0.625,0.125 -0.8125,0.25 -0.29688,0.21875 -0.29688,0.53125 0,0.32813 0.23438,0.5625 0.23437,0.21875 0.59375,0.21875 0.40625,0 0.78125,-0.26562 0.28125,-0.20313 0.35937,-0.5 0.0625,-0.1875 0.0625,-0.73438 l 0,-0.29687 z m 5.39524,-2.96875 0,1.20312 -1.03125,0 0,2.29688 q 0,0.70312 0.0312,0.82812 0.0312,0.10938 0.125,0.1875 0.10937,0.0625 0.26562,0.0625 0.20313,0 0.60938,-0.14062 l 0.125,1.17187 q -0.53125,0.21875 -1.1875,0.21875 -0.42188,0 -0.75,-0.125 -0.32813,-0.14062 -0.48438,-0.35937 -0.14062,-0.21875 -0.20312,-0.59375 -0.0469,-0.26563 -0.0469,-1.0625 l 0,-2.48438 -0.6875,0 0,-1.20312 0.6875,0 0,-1.14063 1.51563,-0.875 0,2.01563 1.03125,0 z m 0.93924,-0.78125 0,-1.39063 1.5,0 0,1.39063 -1.5,0 z m 0,6.48437 0,-5.70312 1.5,0 0,5.70312 -1.5,0 z m 2.60128,-2.9375 q 0,-0.75 0.375,-1.45312 0.375,-0.70313 1.04688,-1.0625 0.6875,-0.375 1.51562,-0.375 1.29688,0 2.125,0.84375 0.82813,0.82812 0.82813,2.10937 0,1.29688 -0.84375,2.15625 -0.82813,0.84375 -2.09375,0.84375 -0.78125,0 -1.5,-0.34375 -0.70313,-0.35937 -1.07813,-1.04687 -0.375,-0.6875 -0.375,-1.67188 z m 1.54688,0.0781 q 0,0.85937 0.40625,1.3125 0.40625,0.45312 1,0.45312 0.57812,0 0.98437,-0.45312 0.40625,-0.45313 0.40625,-1.3125 0,-0.84375 -0.40625,-1.29688 -0.40625,-0.45312 -0.98437,-0.45312 -0.59375,0 -1,0.45312 -0.40625,0.45313 -0.40625,1.29688 z m 10.50925,2.85937 -1.51563,0 0,-2.90625 q 0,-0.92187 -0.0937,-1.1875 -0.0937,-0.28125 -0.3125,-0.42187 -0.21875,-0.15625 -0.53125,-0.15625 -0.39062,0 -0.70312,0.21875 -0.3125,0.20312 -0.4375,0.5625 -0.10938,0.34375 -0.10938,1.3125 l 0,2.57812 -1.5,0 0,-5.70312 1.40625,0 0,0.84375 q 0.73438,-0.96875 1.875,-0.96875 0.5,0 0.90625,0.1875 0.42188,0.17187 0.625,0.45312 0.21875,0.26563 0.29688,0.625 0.0937,0.35938 0.0937,1.01563 l 0,3.54687 z" />
  <path
     style="fill:#000000;fill-opacity:0;fill-rule:nonzero"
     inkscape:connector-curvature="0"
     id="path97"
     d="m 388.3924,270.62993 0,-30.92914" />
  <path
     style="fill-rule:nonzero;stroke:#0b5394;stroke-width:1;stroke-linecap:butt;stroke-linejoin:round"
     inkscape:connector-curvature="0"
     id="path99"
     d="m 388.3924,270.62993 0,-30.92914" />
  <path
     style="fill:#000000;fill-opacity:0;fill-rule:nonzero"
     inkscape:connector-curvature="0"
     id="path101"
     d="m 380.19815,256.67061 76.56696,0 0,14.99213 -76.56696,0 z" />
  <path
     style="fill:#0b5394;fill-rule:nonzero"
     inkscape:connector-curvature="0"
     id="path103"
     d="m 390.60839,266.96732 0,-7.875 0.96875,0 0,7.875 -0.96875,0 z m 2.39874,-6.76563 0,-1.10937 0.96875,0 0,1.10937 -0.96875,0 z m 0,6.76563 0,-5.70313 0.96875,0 0,5.70313 -0.96875,0 z m 1.97684,-1.70313 0.95312,-0.15625 q 0.0781,0.57813 0.4375,0.89063 0.375,0.29687 1.03125,0.29687 0.67188,0 0.98438,-0.26562 0.32812,-0.26563 0.32812,-0.64063 0,-0.32812 -0.28125,-0.51562 -0.20312,-0.125 -0.98437,-0.32813 -1.0625,-0.26562 -1.48438,-0.45312 -0.40625,-0.20313 -0.625,-0.54688 -0.20312,-0.34375 -0.20312,-0.76562 0,-0.39063 0.17187,-0.70313 0.17188,-0.32812 0.48438,-0.54687 0.21875,-0.17188 0.60937,-0.28125 0.39063,-0.10938 0.82813,-0.10938 0.67187,0 1.17187,0.1875 0.51563,0.1875 0.75,0.53125 0.25,0.32813 0.34375,0.875 l -0.9375,0.125 q -0.0781,-0.4375 -0.39062,-0.67187 -0.29688,-0.25 -0.85938,-0.25 -0.67187,0 -0.95312,0.21875 -0.28125,0.21875 -0.28125,0.51562 0,0.1875 0.10937,0.32813 0.125,0.15625 0.375,0.26562 0.14063,0.0469 0.85938,0.25 1.01562,0.26563 1.42187,0.4375 0.40625,0.17188 0.64063,0.51563 0.23437,0.32812 0.23437,0.82812 0,0.48438 -0.28125,0.90625 -0.28125,0.42188 -0.8125,0.65625 -0.53125,0.23438 -1.20312,0.23438 -1.10938,0 -1.70313,-0.45313 -0.57812,-0.46875 -0.73437,-1.375 z m 7.82812,0.84375 0.125,0.84375 q -0.40625,0.0937 -0.71875,0.0937 -0.53125,0 -0.82812,-0.17187 -0.28125,-0.17188 -0.40625,-0.4375 -0.10938,-0.26563 -0.10938,-1.14063 l 0,-3.28125 -0.71875,0 0,-0.75 0.71875,0 0,-1.40625 0.95313,-0.59375 0,2 0.98437,0 0,0.75 -0.98437,0 0,3.34375 q 0,0.40625 0.0469,0.53125 0.0625,0.10938 0.17188,0.1875 0.125,0.0625 0.32812,0.0625 0.17188,0 0.4375,-0.0312 z m 0.64817,-2.96875 q 0,-1.96875 1.04687,-3.07812 1.0625,-1.10938 2.71875,-1.10938 1.09375,0 1.96875,0.53125 0.875,0.51563 1.32813,1.45313 0.46875,0.92187 0.46875,2.10937 0,1.1875 -0.48438,2.14063 -0.48437,0.9375 -1.375,1.4375 -0.875,0.48437 -1.90625,0.48437 -1.10937,0 -1.98437,-0.53125 -0.875,-0.54687 -1.32813,-1.46875 -0.45312,-0.9375 -0.45312,-1.96875 z m 1.07812,0.0156 q 0,1.42187 0.76563,2.25 0.76562,0.8125 1.92187,0.8125 1.17188,0 1.92188,-0.82813 0.76562,-0.82812 0.76562,-2.35937 0,-0.95313 -0.32812,-1.67188 -0.3125,-0.71875 -0.9375,-1.10937 -0.625,-0.39063 -1.40625,-0.39063 -1.10938,0 -1.90625,0.76563 -0.79688,0.75 -0.79688,2.53125 z m 7.63251,3.8125 0,-4.95313 -0.84375,0 0,-0.75 0.84375,0 0,-0.60937 q 0,-0.57813 0.10938,-0.85938 0.14062,-0.375 0.48437,-0.60937 0.35938,-0.23438 0.98438,-0.23438 0.40625,0 0.90625,0.10938 l -0.14063,0.84375 q -0.3125,-0.0625 -0.57812,-0.0625 -0.4375,0 -0.625,0.1875 -0.17188,0.1875 -0.17188,0.70312 l 0,0.53125 1.10938,0 0,0.75 -1.10938,0 0,4.95313 -0.96875,0 z m 2.50754,-2.53125 0.98437,-0.0781 q 0.0625,0.57813 0.3125,0.96875 0.26563,0.375 0.79688,0.60938 0.53125,0.23437 1.20312,0.23437 0.60938,0 1.0625,-0.17187 0.45313,-0.1875 0.67188,-0.48438 0.23437,-0.3125 0.23437,-0.6875 0,-0.375 -0.21875,-0.64062 -0.21875,-0.28125 -0.71875,-0.46875 -0.3125,-0.125 -1.40625,-0.375 -1.07812,-0.26563 -1.51562,-0.5 -0.5625,-0.29688 -0.84375,-0.73438 -0.26563,-0.4375 -0.26563,-0.98437 0,-0.59375 0.32813,-1.10938 0.34375,-0.51562 0.98437,-0.78125 0.65625,-0.28125 1.45313,-0.28125 0.875,0 1.54687,0.29688 0.67188,0.28125 1.03125,0.82812 0.35938,0.54688 0.39063,1.23438 l -1,0.0781 q -0.0781,-0.75 -0.54688,-1.125 -0.46875,-0.39062 -1.375,-0.39062 -0.9375,0 -1.375,0.35937 -0.4375,0.34375 -0.4375,0.82813 0,0.42187 0.3125,0.70312 0.29688,0.26563 1.5625,0.5625 1.28125,0.28125 1.75,0.5 0.6875,0.3125 1.01563,0.79688 0.32812,0.48437 0.32812,1.125 0,0.625 -0.35937,1.1875 -0.35938,0.54687 -1.04688,0.85937 -0.67187,0.3125 -1.51562,0.3125 -1.0625,0 -1.78125,-0.3125 -0.71875,-0.3125 -1.14063,-0.9375 -0.40625,-0.625 -0.42187,-1.42187 z m 9.45138,1.67187 0.125,0.84375 q -0.40625,0.0937 -0.71875,0.0937 -0.53125,0 -0.82812,-0.17187 -0.28125,-0.17188 -0.40625,-0.4375 -0.10938,-0.26563 -0.10938,-1.14063 l 0,-3.28125 -0.71875,0 0,-0.75 0.71875,0 0,-1.40625 0.95313,-0.59375 0,2 0.98437,0 0,0.75 -0.98437,0 0,3.34375 q 0,0.40625 0.0469,0.53125 0.0625,0.10938 0.17188,0.1875 0.125,0.0625 0.32812,0.0625 0.17188,0 0.4375,-0.0312 z m 0.80439,3.0625 -0.10938,-0.90625 q 0.3125,0.0781 0.54688,0.0781 0.32812,0 0.51562,-0.10938 0.20313,-0.10937 0.3125,-0.29687 0.0937,-0.14063 0.29688,-0.71875 0.0312,-0.0781 0.0937,-0.23438 l -2.17188,-5.71875 1.04688,0 1.1875,3.29688 q 0.23437,0.64062 0.40625,1.32812 0.17187,-0.67187 0.40625,-1.29687 l 1.21875,-3.32813 0.96875,0 -2.17188,5.79688 q -0.34375,0.9375 -0.54687,1.29687 -0.25,0.48438 -0.59375,0.70313 -0.32813,0.21875 -0.78125,0.21875 -0.28125,0 -0.625,-0.10938 z m 5.34375,-2.20312 0,-7.875 0.96875,0 0,7.875 -0.96875,0 z m 6.28936,-1.84375 1,0.125 q -0.23437,0.875 -0.875,1.35937 -0.64062,0.48438 -1.625,0.48438 -1.25,0 -1.98437,-0.76563 -0.73438,-0.76562 -0.73438,-2.15625 0,-1.45312 0.73438,-2.23437 0.75,-0.79688 1.92187,-0.79688 1.15625,0 1.875,0.78125 0.71875,0.76563 0.71875,2.1875 0,0.0781 0,0.25 l -4.25,0 q 0.0469,0.9375 0.51563,1.4375 0.48437,0.5 1.20312,0.5 0.53125,0 0.90625,-0.26562 0.375,-0.28125 0.59375,-0.90625 z m -3.17187,-1.5625 3.1875,0 q -0.0625,-0.71875 -0.35938,-1.07813 -0.46875,-0.54687 -1.20312,-0.54687 -0.67188,0 -1.125,0.45312 -0.45313,0.4375 -0.5,1.17188 z m 4.81711,1.70312 0.95312,-0.15625 q 0.0781,0.57813 0.4375,0.89063 0.375,0.29687 1.03125,0.29687 0.67188,0 0.98438,-0.26562 0.32812,-0.26563 0.32812,-0.64063 0,-0.32812 -0.28125,-0.51562 -0.20312,-0.125 -0.98437,-0.32813 -1.0625,-0.26562 -1.48438,-0.45312 -0.40625,-0.20313 -0.625,-0.54688 -0.20312,-0.34375 -0.20312,-0.76562 0,-0.39063 0.17187,-0.70313 0.17188,-0.32812 0.48438,-0.54687 0.21875,-0.17188 0.60937,-0.28125 0.39063,-0.10938 0.82813,-0.10938 0.67187,0 1.17187,0.1875 0.51563,0.1875 0.75,0.53125 0.25,0.32813 0.34375,0.875 l -0.9375,0.125 q -0.0781,-0.4375 -0.39062,-0.67187 -0.29688,-0.25 -0.85938,-0.25 -0.67187,0 -0.95312,0.21875 -0.28125,0.21875 -0.28125,0.51562 0,0.1875 0.10937,0.32813 0.125,0.15625 0.375,0.26562 0.14063,0.0469 0.85938,0.25 1.01562,0.26563 1.42187,0.4375 0.40625,0.17188 0.64063,0.51563 0.23437,0.32812 0.23437,0.82812 0,0.48438 -0.28125,0.90625 -0.28125,0.42188 -0.8125,0.65625 -0.53125,0.23438 -1.20312,0.23438 -1.10938,0 -1.70313,-0.45313 -0.57812,-0.46875 -0.73437,-1.375 z" />
  <path
     style="fill:#0b5394;fill-rule:nonzero"
     inkscape:connector-curvature="0"
     id="path105"
     d="m 383.62073,244.7559 4.77167,-5.05511 4.77163,5.05511 -4.77163,5.05511 z" />
  <path
     style="fill-rule:nonzero;stroke:#0b5394;stroke-width:2;stroke-linecap:butt;stroke-linejoin:round"
     inkscape:connector-curvature="0"
     id="path107"
     d="m 383.62073,244.7559 4.77167,-5.05511 4.77163,5.05511 -4.77163,5.05511 z" />
  <path
     style="fill:#000000;fill-opacity:0;fill-rule:nonzero"
     inkscape:connector-curvature="0"
     id="path109"
     d="m 453.9674,256.67061 45.16534,0 0,14.99213 -45.16534,0 z" />
  <path
     style="fill:#ffffff;fill-rule:nonzero"
     inkscape:connector-curvature="0"
     id="path113"
     d="m 488.49738,256.67061 162.42517,0 0,27.02362 -162.42517,0 z" />
  <path
     style="fill-rule:nonzero;stroke:#0b5394;stroke-width:1;stroke-linecap:butt;stroke-linejoin:round"
     inkscape:connector-curvature="0"
     id="path115"
     d="m 488.49738,256.67061 162.42517,0 0,27.02362 -162.42517,0 z" />
  <path
     style="fill:#c27ba0;fill-rule:nonzero"
     inkscape:connector-curvature="0"
     id="path117"
     d="m 522.8868,273.92241 0,-7.8125 1.59375,0 0,6.48438 3.95312,0 0,1.32812 -5.54687,0 z m 6.4624,-6.48437 0,-1.39063 1.5,0 0,1.39063 -1.5,0 z m 0,6.48437 0,-5.70312 1.5,0 0,5.70312 -1.5,0 z m 2.42938,-1.625 1.5,-0.23437 q 0.10938,0.4375 0.39063,0.67187 0.29687,0.21875 0.82812,0.21875 0.59375,0 0.89063,-0.20312 0.20312,-0.15625 0.20312,-0.40625 0,-0.17188 -0.10937,-0.28125 -0.125,-0.10938 -0.51563,-0.20313 -1.8125,-0.40625 -2.3125,-0.73437 -0.67187,-0.46875 -0.67187,-1.28125 0,-0.75 0.57812,-1.25 0.59375,-0.5 1.82813,-0.5 1.17187,0 1.73437,0.375 0.5625,0.375 0.78125,1.125 l -1.42187,0.26562 q -0.0937,-0.32812 -0.34375,-0.5 -0.25,-0.1875 -0.73438,-0.1875 -0.59375,0 -0.84375,0.17188 -0.17187,0.10937 -0.17187,0.29687 0,0.17188 0.14062,0.28125 0.20313,0.15625 1.40625,0.4375 1.21875,0.26563 1.6875,0.65625 0.48438,0.40625 0.48438,1.125 0,0.78125 -0.65625,1.34375 -0.65625,0.5625 -1.95313,0.5625 -1.15625,0 -1.84375,-0.46875 -0.67187,-0.46875 -0.875,-1.28125 z m 9.06714,-4.07812 0,1.20312 -1.03125,0 0,2.29688 q 0,0.70312 0.0312,0.82812 0.0312,0.10938 0.125,0.1875 0.10938,0.0625 0.26563,0.0625 0.20312,0 0.60937,-0.14062 l 0.125,1.17187 q -0.53125,0.21875 -1.1875,0.21875 -0.42187,0 -0.75,-0.125 -0.32812,-0.14062 -0.48437,-0.35937 -0.14063,-0.21875 -0.20313,-0.59375 -0.0469,-0.26563 -0.0469,-1.0625 l 0,-2.48438 -0.6875,0 0,-1.20312 0.6875,0 0,-1.14063 1.51562,-0.875 0,2.01563 1.03125,0 z m 0.62671,1.8125 q 0,-1.20313 0.35938,-2.01563 0.26562,-0.60937 0.71875,-1.07812 0.46875,-0.48438 1.03125,-0.71875 0.73437,-0.3125 1.6875,-0.3125 1.75,0 2.78125,1.09375 1.04687,1.07812 1.04687,3 0,1.90625 -1.03125,2.98437 -1.03125,1.07813 -2.76562,1.07813 -1.76563,0 -2.79688,-1.07813 -1.03125,-1.07812 -1.03125,-2.95312 z m 1.625,-0.0469 q 0,1.32813 0.625,2.03125 0.625,0.6875 1.5625,0.6875 0.95313,0 1.5625,-0.6875 0.60938,-0.6875 0.60938,-2.0625 0,-1.34375 -0.59375,-2.01562 -0.59375,-0.67188 -1.57813,-0.67188 -0.98437,0 -1.59375,0.6875 -0.59375,0.67188 -0.59375,2.03125 z m 6.30438,-1.76562 0.84375,0 0,-0.4375 q 0,-0.71875 0.14063,-1.0625 0.15625,-0.35938 0.5625,-0.57813 0.42187,-0.23437 1.04687,-0.23437 0.65625,0 1.26563,0.20312 l -0.20313,1.04688 q -0.35937,-0.0781 -0.6875,-0.0781 -0.32812,0 -0.48437,0.15625 -0.14063,0.14063 -0.14063,0.57813 l 0,0.40625 1.14063,0 0,1.1875 -1.14063,0 0,4.51562 -1.5,0 0,-4.51562 -0.84375,0 0,-1.1875 z m 7.8924,2.8125 0,-1.32813 3.42187,0 0,3.14063 q -0.5,0.46875 -1.45312,0.84375 -0.9375,0.375 -1.92188,0.375 -1.23437,0 -2.15625,-0.51563 -0.90625,-0.53125 -1.375,-1.48437 -0.45312,-0.96875 -0.45312,-2.10938 0,-1.21875 0.51562,-2.17187 0.51563,-0.96875 1.5,-1.46875 0.76563,-0.40625 1.89063,-0.40625 1.46875,0 2.28125,0.625 0.82812,0.60937 1.0625,1.70312 l -1.57813,0.29688 q -0.15625,-0.59375 -0.625,-0.92188 -0.45312,-0.34375 -1.14062,-0.34375 -1.04688,0 -1.65625,0.67188 -0.60938,0.65625 -0.60938,1.95312 0,1.40625 0.60938,2.10938 0.625,0.70312 1.64062,0.70312 0.5,0 1,-0.1875 0.5,-0.20312 0.85938,-0.48437 l 0,-1 -1.8125,0 z m 4.61688,2.89062 0,-7.875 1.5,0 0,7.875 -1.5,0 z m 2.60126,-2.9375 q 0,-0.75 0.375,-1.45312 0.375,-0.70313 1.04687,-1.0625 0.6875,-0.375 1.51563,-0.375 1.29687,0 2.125,0.84375 0.82812,0.82812 0.82812,2.10937 0,1.29688 -0.84375,2.15625 -0.82812,0.84375 -2.09375,0.84375 -0.78125,0 -1.5,-0.34375 -0.70312,-0.35937 -1.07812,-1.04687 -0.375,-0.6875 -0.375,-1.67188 z m 1.54687,0.0781 q 0,0.85937 0.40625,1.3125 0.40625,0.45312 1,0.45312 0.57813,0 0.98438,-0.45312 0.40625,-0.45313 0.40625,-1.3125 0,-0.84375 -0.40625,-1.29688 -0.40625,-0.45312 -0.98438,-0.45312 -0.59375,0 -1,0.45312 -0.40625,0.45313 -0.40625,1.29688 z m 5.24366,2.85937 0,-7.875 1.51562,0 0,2.84375 q 0.70313,-0.79687 1.65625,-0.79687 1.04688,0 1.71875,0.75 0.6875,0.75 0.6875,2.17187 0,1.45313 -0.70312,2.25 -0.6875,0.78125 -1.6875,0.78125 -0.48438,0 -0.96875,-0.23437 -0.46875,-0.25 -0.8125,-0.73438 l 0,0.84375 -1.40625,0 z m 1.5,-2.96875 q 0,0.875 0.28125,1.29688 0.39062,0.60937 1.04687,0.60937 0.5,0 0.84375,-0.42187 0.35938,-0.4375 0.35938,-1.35938 0,-0.96875 -0.35938,-1.39062 -0.34375,-0.4375 -0.90625,-0.4375 -0.54687,0 -0.90625,0.42187 -0.35937,0.42188 -0.35937,1.28125 z m 6.2124,-1 -1.375,-0.25 q 0.23437,-0.8125 0.79687,-1.20312 0.5625,-0.40625 1.67188,-0.40625 1.01562,0 1.5,0.23437 0.5,0.23438 0.70312,0.60938 0.20313,0.35937 0.20313,1.34375 l -0.0156,1.76562 q 0,0.75 0.0625,1.10938 0.0781,0.35937 0.28125,0.76562 l -1.5,0 q -0.0625,-0.15625 -0.14062,-0.45312 -0.0312,-0.125 -0.0469,-0.17188 -0.39062,0.375 -0.84375,0.5625 -0.4375,0.1875 -0.9375,0.1875 -0.875,0 -1.39062,-0.46875 -0.5,-0.48437 -0.5,-1.21875 0,-0.48437 0.23437,-0.85937 0.23438,-0.375 0.64063,-0.57813 0.42187,-0.20312 1.20312,-0.35937 1.0625,-0.1875 1.46875,-0.35938 l 0,-0.15625 q 0,-0.4375 -0.21875,-0.60937 -0.21875,-0.1875 -0.8125,-0.1875 -0.39062,0 -0.625,0.15625 -0.21875,0.15625 -0.35937,0.54687 z m 2.01562,1.23438 q -0.29687,0.0937 -0.92187,0.23437 -0.625,0.125 -0.8125,0.25 -0.29688,0.21875 -0.29688,0.53125 0,0.32813 0.23438,0.5625 0.23437,0.21875 0.59375,0.21875 0.40625,0 0.78125,-0.26562 0.28125,-0.20313 0.35937,-0.5 0.0625,-0.1875 0.0625,-0.73438 l 0,-0.29687 z m 2.78589,2.73437 0,-7.875 1.5,0 0,7.875 -1.5,0 z m 2.55439,-2.5625 1.54687,-0.15625 q 0.14063,0.78125 0.5625,1.15625 0.4375,0.35938 1.15625,0.35938 0.78125,0 1.15625,-0.32813 0.39063,-0.32812 0.39063,-0.75 0,-0.28125 -0.17188,-0.46875 -0.15625,-0.20312 -0.5625,-0.35937 -0.28125,-0.0937 -1.26562,-0.34375 -1.28125,-0.3125 -1.79688,-0.78125 -0.71875,-0.64063 -0.71875,-1.57813 0,-0.59375 0.32813,-1.10937 0.34375,-0.53125 0.98437,-0.8125 0.64063,-0.28125 1.5625,-0.28125 1.46875,0 2.21875,0.65625 0.75,0.65625 0.79688,1.73437 l -1.59375,0.0781 q -0.10938,-0.60938 -0.4375,-0.875 -0.32813,-0.26563 -1,-0.26563 -0.70313,0 -1.09375,0.28125 -0.25,0.1875 -0.25,0.48438 0,0.28125 0.23437,0.48437 0.29688,0.25 1.45313,0.53125 1.17187,0.26563 1.71875,0.5625 0.5625,0.28125 0.875,0.79688 0.3125,0.5 0.3125,1.25 0,0.6875 -0.375,1.28125 -0.375,0.57812 -1.0625,0.875 -0.6875,0.28125 -1.71875,0.28125 -1.48438,0 -2.29688,-0.6875 -0.79687,-0.6875 -0.95312,-2.01563 z m 10.12323,-3.14062 0,1.20312 -1.03125,0 0,2.29688 q 0,0.70312 0.0312,0.82812 0.0312,0.10938 0.125,0.1875 0.10937,0.0625 0.26562,0.0625 0.20313,0 0.60938,-0.14062 l 0.125,1.17187 q -0.53125,0.21875 -1.1875,0.21875 -0.42188,0 -0.75,-0.125 -0.32813,-0.14062 -0.48438,-0.35937 -0.14062,-0.21875 -0.20312,-0.59375 -0.0469,-0.26563 -0.0469,-1.0625 l 0,-2.48438 -0.6875,0 0,-1.20312 0.6875,0 0,-1.14063 1.51563,-0.875 0,2.01563 1.03125,0 z m 0.22052,0 1.60937,0 1.35938,4.04687 1.32812,-4.04687 1.5625,0 -2.01562,5.48437 -0.35938,1 q -0.1875,0.5 -0.375,0.76563 -0.17187,0.26562 -0.40625,0.42187 -0.23437,0.15625 -0.57812,0.25 -0.34375,0.0937 -0.78125,0.0937 -0.42188,0 -0.84375,-0.0937 l -0.14063,-1.17187 q 0.35938,0.0625 0.64063,0.0625 0.53125,0 0.78125,-0.3125 0.25,-0.29688 0.39062,-0.78125 l -2.17187,-5.71875 z m 6.64526,5.70312 0,-7.875 1.5,0 0,7.875 -1.5,0 z m 6.25751,-1.8125 1.5,0.25 q -0.28125,0.82813 -0.90625,1.26563 -0.625,0.42187 -1.57813,0.42187 -1.48437,0 -2.20312,-0.96875 -0.5625,-0.78125 -0.5625,-1.96875 0,-1.42187 0.73437,-2.21875 0.75,-0.79687 1.89063,-0.79687 1.26562,0 2,0.84375 0.73437,0.82812 0.70312,2.5625 l -3.78125,0 q 0.0156,0.67187 0.35938,1.04687 0.35937,0.375 0.875,0.375 0.35937,0 0.59375,-0.1875 0.25,-0.20312 0.375,-0.625 z m 0.0781,-1.53125 q -0.0156,-0.65625 -0.34375,-0.98437 -0.3125,-0.34375 -0.76562,-0.34375 -0.5,0 -0.82813,0.35937 -0.3125,0.35938 -0.3125,0.96875 l 2.25,0 z m 2.02026,1.71875 1.5,-0.23437 q 0.10938,0.4375 0.39063,0.67187 0.29687,0.21875 0.82812,0.21875 0.59375,0 0.89063,-0.20312 0.20312,-0.15625 0.20312,-0.40625 0,-0.17188 -0.10937,-0.28125 -0.125,-0.10938 -0.51563,-0.20313 -1.8125,-0.40625 -2.3125,-0.73437 -0.67187,-0.46875 -0.67187,-1.28125 0,-0.75 0.57812,-1.25 0.59375,-0.5 1.82813,-0.5 1.17187,0 1.73437,0.375 0.56244,0.375 0.78119,1.125 l -1.42181,0.26562 q -0.0937,-0.32812 -0.34375,-0.5 -0.25,-0.1875 -0.73438,-0.1875 -0.59375,0 -0.84375,0.17188 -0.17187,0.10937 -0.17187,0.29687 0,0.17188 0.14062,0.28125 0.20313,0.15625 1.40625,0.4375 1.21875,0.26563 1.68744,0.65625 0.48438,0.40625 0.48438,1.125 0,0.78125 -0.65619,1.34375 -0.65625,0.5625 -1.95313,0.5625 -1.15625,0 -1.84375,-0.46875 -0.67187,-0.46875 -0.875,-1.28125 z" />
  <path
     style="fill:#000000;fill-opacity:0;fill-rule:nonzero"
     inkscape:connector-curvature="0"
     id="path119"
     d="m 388.65485,270.18242 99.84253,0" />
  <path
     style="fill-rule:nonzero;stroke:#0b5394;stroke-width:1;stroke-linecap:butt;stroke-linejoin:round"
     inkscape:connector-curvature="0"
     id="path121"
     d="m 388.65485,270.18242 99.84253,0" />
  <path
     style="fill:#ffffff;fill-rule:nonzero"
     inkscape:connector-curvature="0"
     id="path123"
     d="m 472.78558,135.97836 6.06302,-12.62993 6.06299,12.62993 z" />
  <path
     style="fill-rule:nonzero;stroke:#0b5394;stroke-width:1;stroke-linecap:butt;stroke-linejoin:round"
     inkscape:connector-curvature="0"
     id="path125"
     d="m 472.78558,135.96572 6.06302,-12.62993 6.06299,12.62993 z" />
  <path
     style="fill:#000000;fill-opacity:0;fill-rule:nonzero"
     inkscape:connector-curvature="0"
     id="path127"
     d="m 479.09055,135.94882 0,31.1496" />
  <path
     style="fill-rule:nonzero;stroke:#0b5394;stroke-width:1;stroke-linecap:butt;stroke-linejoin:round"
     inkscape:connector-curvature="0"
     id="path129"
     d="m 479.09056,135.52995 0,76.02781" />
  <path
     style="fill:#000000;fill-opacity:0;fill-rule:nonzero"
     inkscape:connector-curvature="0"
     id="path131"
     d="m 287.08267,61.2979 0,21.952755" />
  <path
     style="fill-rule:nonzero;stroke:#0b5394;stroke-width:1;stroke-linecap:butt;stroke-linejoin:round"
     inkscape:connector-curvature="0"
     id="path133"
     d="m 287.08267,61.2979 0,21.952755" />
  <path
     style="fill:#000000;fill-opacity:0;fill-rule:nonzero"
     inkscape:connector-curvature="0"
     id="path135"
     d="m 592.68634,61.250656 0,152.125994" />
  <path
     style="fill-rule:nonzero;stroke:#0b5394;stroke-width:1;stroke-linecap:butt;stroke-linejoin:round"
     inkscape:connector-curvature="0"
     id="path137"
     d="m 592.68631,61.250654 0,195.844736" />
  <path
     style="fill:#000000;fill-opacity:0;fill-rule:nonzero"
     inkscape:connector-curvature="0"
     id="path139"
     d="m 504.84384,61.694225 0,33.54331" />
  <path
     style="fill-rule:nonzero;stroke:#0b5394;stroke-width:1;stroke-linecap:butt;stroke-linejoin:round"
     inkscape:connector-curvature="0"
     id="path141"
     d="m 504.84384,61.694225 0,33.54331" />
  <path
     style="fill:#000000;fill-opacity:0;fill-rule:nonzero"
     inkscape:connector-curvature="0"
     id="path143"
     d="m 287.33728,61.56824 305.4488,0" />
  <path
     style="fill-rule:nonzero;stroke:#0b5394;stroke-width:1;stroke-miterlimit:8"
     inkscape:connector-curvature="0"
     id="path145"
     d="m 287.33728,61.56824 305.4488,0"
     stroke-miterlimit="8.0" />
  <path
     style="fill-rule:nonzero;stroke:#0b5394;stroke-width:0.99999994;stroke-linecap:butt;stroke-linejoin:round"
     inkscape:connector-curvature="0"
     id="path13-2"
     d="m 219.8904,184.66339 106.01113,0" />
  <text
     xml:space="preserve"
     style="font-style:normal;font-variant:normal;font-weight:normal;font-stretch:normal;font-size:10px;line-height:125%;font-family:'Segoe UI';-inkscape-font-specification:'Segoe UI';letter-spacing:0px;word-spacing:0px;fill:#0b5394;fill-opacity:1;stroke:none;stroke-width:1px;stroke-linecap:butt;stroke-linejoin:miter;stroke-opacity:1"
     x="222.53152"
     y="182.14458"
     id="text4236"
     sodipodi:linespacing="125%"><tspan
       sodipodi:role="line"
       id="tspan4238"
       x="222.53152"
       y="182.14458"
       style="font-style:normal;font-variant:normal;font-weight:normal;font-stretch:normal;font-size:10px;line-height:125%;font-family:Arial;-inkscape-font-specification:'Arial, Normal';text-align:start;writing-mode:lr-tb;text-anchor:start;fill:#0b5394;fill-opacity:1">defaultValues</tspan></text>
  <text
     xml:space="preserve"
     style="font-style:normal;font-variant:normal;font-weight:normal;font-stretch:normal;font-size:10px;line-height:125%;font-family:'Segoe UI';-inkscape-font-specification:'Segoe UI';letter-spacing:0px;word-spacing:0px;fill:#0b5394;fill-opacity:1;stroke:none;stroke-width:1px;stroke-linecap:butt;stroke-linejoin:miter;stroke-opacity:1"
     x="312.10339"
     y="180.84575"
     id="text4236-6"
     sodipodi:linespacing="125%"><tspan
       sodipodi:role="line"
       id="tspan4238-8"
       x="312.10339"
       y="180.84575"
       style="font-style:normal;font-variant:normal;font-weight:normal;font-stretch:normal;font-size:10px;line-height:125%;font-family:Arial;-inkscape-font-specification:'Arial, Normal';text-align:start;writing-mode:lr-tb;text-anchor:start;fill:#0b5394;fill-opacity:1">0,1</tspan></text>
  <path
     style="fill:#ffffff;fill-rule:nonzero"
     inkscape:connector-curvature="0"
     id="path91-4"
     d="m 326.33231,171.15158 119.99882,0 0,27.02362 -119.99882,0 z" />
  <path
     style="fill-rule:nonzero;stroke:#0b5394;stroke-width:1;stroke-linecap:butt;stroke-linejoin:round"
     inkscape:connector-curvature="0"
     id="path93-3"
     d="m 326.33231,171.15158 120.70593,0 0,27.02362 -120.70593,0 z" />
  <text
     xml:space="preserve"
     style="font-style:normal;font-variant:normal;font-weight:bold;font-stretch:normal;font-size:11.25px;line-height:125%;font-family:Arial;-inkscape-font-specification:'Arial, Bold';text-align:start;letter-spacing:0px;word-spacing:0px;writing-mode:lr-tb;text-anchor:start;fill:#c27ba0;fill-opacity:1;stroke:none;stroke-width:1px;stroke-linecap:butt;stroke-linejoin:miter;stroke-opacity:1"
     x="350.48804"
     y="188.69264"
     id="text4236-7"
     sodipodi:linespacing="125%"><tspan
       sodipodi:role="line"
       id="tspan4238-7"
       x="350.48804"
       y="188.69264"
       style="font-style:normal;font-variant:normal;font-weight:bold;font-stretch:normal;font-size:11.25px;line-height:125%;font-family:Arial;-inkscape-font-specification:'Arial, Bold';text-align:start;writing-mode:lr-tb;text-anchor:start;fill:#c27ba0;fill-opacity:1">DefaultValues</tspan></text>
  <text
     xml:space="preserve"
     style="font-style:normal;font-variant:normal;font-weight:normal;font-stretch:normal;font-size:10px;line-height:125%;font-family:'Segoe UI';-inkscape-font-specification:'Segoe UI';letter-spacing:0px;word-spacing:0px;fill:#0b5394;fill-opacity:1;stroke:none;stroke-width:1px;stroke-linecap:butt;stroke-linejoin:miter;stroke-miterlimit:10;stroke-opacity:1"
     x="206.8208"
     y="121.77579"
     id="text4236-4"
     sodipodi:linespacing="125%"><tspan
       sodipodi:role="line"
       id="tspan4238-3"
       x="206.8208"
       y="121.77579"
       style="font-style:normal;font-variant:normal;font-weight:normal;font-stretch:normal;font-size:10px;line-height:125%;font-family:Arial;-inkscape-font-specification:'Arial, Normal';text-align:start;writing-mode:lr-tb;text-anchor:start;fill:#0b5394;fill-opacity:1">versionMajor: unsigned int {use=&quot;optional&quot;}</tspan><tspan
       sodipodi:role="line"
       x="206.8208"
       y="134.27579"
       style="font-style:normal;font-variant:normal;font-weight:normal;font-stretch:normal;font-size:10px;line-height:125%;font-family:Arial;-inkscape-font-specification:'Arial, Normal';text-align:start;writing-mode:lr-tb;text-anchor:start;fill:#0b5394;fill-opacity:1"
       id="tspan4314">versionMinor: unsigned int {use=&quot;optional&quot;}</tspan></text>
  <text
     xml:space="preserve"
     style="font-style:normal;font-variant:normal;font-weight:normal;font-stretch:normal;font-size:10px;line-height:125%;font-family:'Segoe UI';-inkscape-font-specification:'Segoe UI';letter-spacing:0px;word-spacing:0px;fill:#0b5394;fill-opacity:1;stroke:none;stroke-width:1px;stroke-linecap:butt;stroke-linejoin:miter;stroke-miterlimit:10;stroke-opacity:1"
     x="188.35626"
     y="110.63129"
     id="text4236-6-5"
     sodipodi:linespacing="125%"><tspan
       sodipodi:role="line"
       id="tspan4238-8-1"
       x="188.35626"
       y="110.63129"
       style="font-style:normal;font-variant:normal;font-weight:normal;font-stretch:normal;font-size:10px;line-height:125%;font-family:Arial;-inkscape-font-specification:'Arial, Normal';text-align:start;writing-mode:lr-tb;text-anchor:start;fill:#0b5394;fill-opacity:1">0,1</tspan></text>
  <text
     xml:space="preserve"
     style="font-style:normal;font-variant:normal;font-weight:bold;font-stretch:normal;font-size:11.25px;line-height:125%;font-family:Arial;-inkscape-font-specification:'Arial, Bold';text-align:start;letter-spacing:0px;word-spacing:0px;writing-mode:lr-tb;text-anchor:start;fill:#1a994d;fill-opacity:1;stroke:none;stroke-width:1px;stroke-linecap:butt;stroke-linejoin:miter;stroke-opacity:1"
     x="56.795734"
     y="26.6371"
     id="text4269"
     sodipodi:linespacing="125%"><tspan
       sodipodi:role="line"
       id="tspan4271"
       x="56.795734"
       y="26.6371">ListOfLayouts</tspan></text>
  <text
     xml:space="preserve"
     style="font-style:normal;font-variant:normal;font-weight:normal;font-stretch:normal;font-size:10px;line-height:125%;font-family:'Segoe UI';-inkscape-font-specification:'Segoe UI';letter-spacing:0px;word-spacing:0px;fill:#0b5394;fill-opacity:1;stroke:none;stroke-width:1px;stroke-linecap:butt;stroke-linejoin:miter;stroke-miterlimit:10;stroke-opacity:1"
     x="473.17813"
     y="267.86374"
     id="text4236-6-5-6"
     sodipodi:linespacing="125%"><tspan
       sodipodi:role="line"
       id="tspan4238-8-1-3"
       x="473.17813"
       y="267.86374"
       style="font-style:normal;font-variant:normal;font-weight:normal;font-stretch:normal;font-size:10px;line-height:125%;font-family:Arial;-inkscape-font-specification:'Arial, Normal';text-align:start;writing-mode:lr-tb;text-anchor:start;fill:#0b5394;fill-opacity:1">0,1</tspan></text>
</svg>
