<?xml version="1.0" encoding="UTF-8" standalone="no"?>
<svg
   xmlns:dc="http://purl.org/dc/elements/1.1/"
   xmlns:cc="http://creativecommons.org/ns#"
   xmlns:rdf="http://www.w3.org/1999/02/22-rdf-syntax-ns#"
   xmlns:svg="http://www.w3.org/2000/svg"
   xmlns="http://www.w3.org/2000/svg"
   xmlns:sodipodi="http://sodipodi.sourceforge.net/DTD/sodipodi-0.dtd"
   xmlns:inkscape="http://www.inkscape.org/namespaces/inkscape"
   version="1.1"
   viewBox="0 0 287.5249 176.31496"
   stroke-miterlimit="10"
   id="svg2"
   inkscape:version="0.91 r13725"
   sodipodi:docname="render-color-definition-uml.svg"
   width="287.5249"
   height="176.31496"
   style="fill:none;stroke:none;stroke-linecap:square;stroke-miterlimit:10">
  <metadata
     id="metadata81">
    <rdf:RDF>
      <cc:Work
         rdf:about="">
        <dc:format>image/svg+xml</dc:format>
        <dc:type
           rdf:resource="http://purl.org/dc/dcmitype/StillImage" />
        <dc:title></dc:title>
      </cc:Work>
    </rdf:RDF>
  </metadata>
  <defs
     id="defs79" />
  <sodipodi:namedview
     pagecolor="#ffffff"
     bordercolor="#666666"
     borderopacity="1"
     objecttolerance="10"
     gridtolerance="10"
     guidetolerance="10"
     inkscape:pageopacity="0"
     inkscape:pageshadow="2"
     inkscape:window-width="1680"
     inkscape:window-height="987"
     id="namedview77"
     showgrid="false"
     fit-margin-left="0.5"
     fit-margin-top="0.5"
     fit-margin-right="0.5"
     fit-margin-bottom="0.5"
     inkscape:zoom="2"
     inkscape:cx="256.20184"
     inkscape:cy="102.33872"
     inkscape:window-x="1272"
     inkscape:window-y="-8"
     inkscape:window-maximized="1"
     inkscape:current-layer="svg2" />
  <clipPath
     id="p.0">
    <path
       d="M 0,0 282,0 282,175 0,175 0,0 Z"
       id="path5"
       inkscape:connector-curvature="0"
       style="clip-rule:nonzero" />
  </clipPath>
  <path
     style="fill:#000000;fill-opacity:0;fill-rule:nonzero"
     inkscape:connector-curvature="0"
     id="path9"
     d="m 4.8018374,0.5 282.2230826,0 0,175.31496 -282.2230826,0 z" />
  <path
     style="fill:#000000;fill-opacity:0;fill-rule:nonzero"
     inkscape:connector-curvature="0"
     id="path11"
     d="m 24.169292,146.18242 140.629908,0" />
  <path
     style="fill-rule:nonzero;stroke:#0b5394;stroke-width:1;stroke-linecap:butt;stroke-linejoin:round"
     inkscape:connector-curvature="0"
     id="path13"
     d="m 24.169292,146.18242 140.629908,0" />
  <path
     style="fill:#ffffff;fill-rule:nonzero"
     inkscape:connector-curvature="0"
     id="path15"
     d="m 102.71653,8.990813 86.39371,0 0,27.02362 -86.39371,0 z" />
  <path
     style="fill-rule:nonzero;stroke:#000000;stroke-width:1;stroke-linecap:butt;stroke-linejoin:round"
     inkscape:connector-curvature="0"
     id="path17"
     d="m 102.71653,8.990813 86.39371,0 0,27.02362 -86.39371,0 z" />
  <path
     style="fill:#000000;fill-rule:nonzero"
     inkscape:connector-curvature="0"
     id="path19"
     d="m 130.32515,23.69575 1.53125,-0.07813 q 0.0312,0.734375 0.26562,0.984375 0.34375,0.421875 1.29689,0.421875 0.79687,0 1.15625,-0.28125 0.35937,-0.28125 0.35937,-0.6875 0,-0.359375 -0.29687,-0.59375 -0.20313,-0.171875 -1.125,-0.5625 -0.90626,-0.40625 -1.32814,-0.671875 -0.42187,-0.265625 -0.67187,-0.6875 -0.23438,-0.4375 -0.23438,-1 0,-1 0.71875,-1.65625 0.71875,-0.65625 2.07814,-0.65625 1.39062,0 2.14062,0.65625 0.76563,0.65625 0.84375,1.734375 l -1.54687,0.0625 q -0.0625,-0.5625 -0.42188,-0.859375 -0.34375,-0.296875 -1.01562,-0.296875 -0.67188,0 -0.96875,0.234375 -0.28125,0.234375 -0.28125,0.59375 0,0.34375 0.26562,0.5625 0.26563,0.21875 1.15625,0.609375 1.35938,0.59375 1.73438,0.953125 0.54687,0.53125 0.54687,1.375 0,1.046875 -0.82812,1.796875 -0.8125,0.734375 -2.28125,0.734375 -1.01564,0 -1.76564,-0.34375 -0.73437,-0.34375 -1.04687,-0.953125 -0.3125,-0.609375 -0.28125,-1.390625 z m 6.84202,2.546875 1.65625,-7.875 2.6875,0 q 0.875,0 1.21875,0.04687 0.57812,0.09375 0.98437,0.34375 0.40625,0.234375 0.60938,0.640625 0.21875,0.390625 0.21875,0.875 0,0.65625 -0.375,1.140625 -0.35938,0.484375 -1.125,0.734375 0.60937,0.15625 0.95312,0.59375 0.34375,0.421875 0.34375,0.953125 0,0.71875 -0.40625,1.359375 -0.40625,0.625 -1.125,0.90625 -0.70312,0.28125 -1.92187,0.28125 l -3.71875,0 z m 2.60937,-4.6875 1.23438,0 q 0.82812,0 1.1875,-0.125 0.375,-0.125 0.54687,-0.390625 0.1875,-0.265625 0.1875,-0.578125 0,-0.296875 -0.17187,-0.484375 -0.17188,-0.203125 -0.48438,-0.265625 -0.1875,-0.03125 -0.85937,-0.03125 l -1.25,0 -0.39063,1.875 z m -0.71875,3.421875 1.5625,0 q 0.98438,0 1.3125,-0.125 0.34375,-0.125 0.54688,-0.40625 0.20312,-0.296875 0.20312,-0.625 0,-0.390625 -0.29687,-0.640625 -0.29688,-0.265625 -0.96875,-0.265625 l -1.9375,0 -0.42188,2.0625 z m 7.97686,-2.828125 -1.5,-0.125 q 0.26562,-0.765625 0.90625,-1.1875 0.64062,-0.4375 1.70312,-0.4375 1.09375,0 1.60938,0.453125 0.53125,0.4375 0.53125,1.078125 0,0.25 -0.0469,0.546875 -0.0312,0.296875 -0.3125,1.53125 -0.21875,1.015625 -0.21875,1.421875 0,0.359375 0.125,0.8125 l -1.5,0 q -0.0937,-0.3125 -0.10937,-0.640625 -0.34375,0.375 -0.78125,0.578125 -0.4375,0.203125 -0.89063,0.203125 -0.70312,0 -1.17187,-0.46875 -0.45313,-0.46875 -0.45313,-1.203125 0,-0.8125 0.5,-1.296875 0.51563,-0.484375 1.8125,-0.59375 1.10938,-0.09375 1.46875,-0.21875 0.10938,-0.328125 0.10938,-0.515625 0,-0.25 -0.20313,-0.40625 -0.20312,-0.171875 -0.59375,-0.171875 -0.40625,0 -0.65625,0.171875 -0.23437,0.15625 -0.32812,0.46875 z m 1.46875,1.4375 q -0.14063,0.03125 -0.35938,0.0625 -1.17187,0.140625 -1.51562,0.40625 -0.26563,0.203125 -0.26563,0.53125 0,0.265625 0.1875,0.453125 0.20313,0.1875 0.51563,0.1875 0.35937,0 0.65625,-0.171875 0.3125,-0.171875 0.46875,-0.4375 0.15625,-0.265625 0.28125,-0.828125 l 0.0312,-0.203125 z m 2.08274,1.0625 1.5,-0.234375 q 0.20313,0.46875 0.5,0.671875 0.29688,0.1875 0.79688,0.1875 0.53125,0 0.84375,-0.234375 0.21875,-0.15625 0.21875,-0.390625 0,-0.15625 -0.10938,-0.28125 -0.10937,-0.125 -0.64062,-0.296875 -1.39063,-0.453125 -1.73438,-0.71875 -0.51562,-0.421875 -0.51562,-1.09375 0,-0.6875 0.5,-1.171875 0.70312,-0.6875 2.09375,-0.6875 1.10937,0 1.67187,0.40625 0.5625,0.40625 0.70313,1.09375 l -1.42188,0.25 q -0.10937,-0.3125 -0.35937,-0.46875 -0.34375,-0.21875 -0.82813,-0.21875 -0.48437,0 -0.70312,0.171875 -0.20313,0.15625 -0.20313,0.359375 0,0.21875 0.21875,0.359375 0.125,0.09375 0.85938,0.296875 1.125,0.328125 1.51562,0.65625 0.53125,0.4375 0.53125,1.0625 0,0.8125 -0.6875,1.421875 -0.67187,0.59375 -1.92187,0.59375 -1.23438,0 -1.90625,-0.453125 -0.67188,-0.46875 -0.92188,-1.28125 z m 11.69213,-0.78125 -3.875,0 q 0,0.09375 0,0.140625 0,0.5625 0.3125,0.921875 0.32812,0.34375 0.79687,0.34375 0.76563,0 1.20313,-0.796875 l 1.375,0.234375 q -0.39063,0.828125 -1.07813,1.25 -0.67187,0.421875 -1.5,0.421875 -1.15625,0 -1.875,-0.734375 -0.71875,-0.734375 -0.71875,-1.921875 0,-1.171875 0.65625,-2.09375 0.875,-1.234375 2.51563,-1.234375 1.04687,0 1.67187,0.65625 0.625,0.640625 0.625,1.8125 0,0.5625 -0.10937,1 z m -1.3125,-0.9375 q 0.0156,-0.109375 0.0156,-0.15625 0,-0.640625 -0.29687,-0.953125 -0.28125,-0.3125 -0.75,-0.3125 -0.48438,0 -0.85938,0.359375 -0.375,0.359375 -0.51562,1.0625 l 2.40625,0 z" />
  <path
     style="fill:#ffffff;fill-rule:nonzero"
     inkscape:connector-curvature="0"
     id="path21"
     d="m 139.84991,48.644356 6.06299,-12.629921 6.06299,12.629921 z" />
  <path
     style="fill-rule:nonzero;stroke:#0b5394;stroke-width:1;stroke-linecap:butt;stroke-linejoin:round"
     inkscape:connector-curvature="0"
     id="path23"
     d="m 139.84991,48.644356 6.06299,-12.629921 6.06299,12.629921 z" />
  <path
     style="fill:#000000;fill-opacity:0;fill-rule:nonzero"
     inkscape:connector-curvature="0"
     id="path25"
     d="m 24.694227,146.50262 0,-56.062996" />
  <path
     style="fill-rule:nonzero;stroke:#0b5394;stroke-width:1;stroke-linecap:butt;stroke-linejoin:round"
     inkscape:connector-curvature="0"
     id="path27"
     d="m 24.694227,146.50262 0,-56.062996" />
  <path
     style="fill:#000000;fill-opacity:0;fill-rule:nonzero"
     inkscape:connector-curvature="0"
     id="path29"
     d="m 0.5,132.67061 121.25984,0 0,14.99213 -121.25984,0 z" />
  <path
     style="fill:#0b5394;fill-rule:nonzero"
     inkscape:connector-curvature="0"
     id="path31"
     d="m 31.821777,141.81291 0.9375,0.125 q -0.140625,0.98437 -0.796875,1.54687 -0.640625,0.54688 -1.5625,0.54688 -1.171875,0 -1.890625,-0.76563 -0.703125,-0.76562 -0.703125,-2.1875 0,-0.92187 0.296875,-1.60937 0.3125,-0.70313 0.9375,-1.04688 0.625,-0.34375 1.359375,-0.34375 0.921875,0 1.515625,0.46875 0.59375,0.46875 0.765625,1.32813 l -0.953125,0.14062 q -0.125,-0.5625 -0.46875,-0.84375 -0.34375,-0.29687 -0.828125,-0.29687 -0.71875,0 -1.1875,0.53125 -0.453125,0.51562 -0.453125,1.64062 0,1.15625 0.4375,1.67188 0.4375,0.51562 1.15625,0.51562 0.5625,0 0.9375,-0.34375 0.390625,-0.34375 0.5,-1.07812 z m 1.234375,-0.76563 q 0,-1.57812 0.890625,-2.34375 0.734375,-0.625 1.796875,-0.625 1.171875,0 1.90625,0.76563 0.75,0.76562 0.75,2.125 0,1.10937 -0.328125,1.75 -0.328125,0.625 -0.96875,0.96875 -0.625,0.34375 -1.359375,0.34375 -1.203125,0 -1.953125,-0.76563 -0.734375,-0.76562 -0.734375,-2.21875 z m 1,0 q 0,1.10938 0.46875,1.65625 0.484375,0.53125 1.21875,0.53125 0.71875,0 1.1875,-0.54687 0.484375,-0.54688 0.484375,-1.67188 0,-1.04687 -0.484375,-1.59375 -0.484375,-0.54687 -1.1875,-0.54687 -0.734375,0 -1.21875,0.54687 -0.46875,0.53125 -0.46875,1.625 z m 5.270248,2.85938 0,-7.875 0.96875,0 0,7.875 -0.96875,0 z m 2.023728,-2.85938 q 0,-1.57812 0.890625,-2.34375 0.734375,-0.625 1.796875,-0.625 1.171875,0 1.90625,0.76563 0.75,0.76562 0.75,2.125 0,1.10937 -0.328125,1.75 -0.328125,0.625 -0.96875,0.96875 -0.625,0.34375 -1.359375,0.34375 -1.203125,0 -1.953125,-0.76563 -0.734375,-0.76562 -0.734375,-2.21875 z m 1,0 q 0,1.10938 0.46875,1.65625 0.484375,0.53125 1.21875,0.53125 0.71875,0 1.1875,-0.54687 0.484375,-0.54688 0.484375,-1.67188 0,-1.04687 -0.484375,-1.59375 -0.484375,-0.54687 -1.1875,-0.54687 -0.734375,0 -1.21875,0.54687 -0.46875,0.53125 -0.46875,1.625 z m 5.285873,2.85938 0,-5.70313 0.859375,0 0,0.85938 q 0.34375,-0.60938 0.625,-0.79688 0.28125,-0.1875 0.609375,-0.1875 0.5,0 1,0.3125 l -0.328125,0.89063 q -0.359375,-0.20313 -0.71875,-0.20313 -0.3125,0 -0.5625,0.1875 -0.25,0.1875 -0.359375,0.53125 -0.15625,0.51563 -0.15625,1.125 l 0,2.98438 -0.96875,0 z m 3.673615,0 0,-7.875 2.71875,0 q 0.921875,0 1.40625,0.10937 0.671875,0.15625 1.15625,0.5625 0.609375,0.53125 0.921875,1.35938 0.3125,0.8125 0.3125,1.85937 0,0.90625 -0.21875,1.59375 -0.203125,0.6875 -0.53125,1.14063 -0.328125,0.45312 -0.71875,0.71875 -0.390625,0.26562 -0.9375,0.40625 -0.546875,0.125 -1.265625,0.125 l -2.84375,0 z m 1.046875,-0.92188 1.6875,0 q 0.765625,0 1.203125,-0.14062 0.453125,-0.15625 0.71875,-0.42188 0.375,-0.375 0.578125,-1 0.203125,-0.625 0.203125,-1.51562 0,-1.23438 -0.40625,-1.89063 -0.40625,-0.67187 -0.984375,-0.89062 -0.421875,-0.15625 -1.34375,-0.15625 l -1.65625,0 0,6.01562 z m 10.429977,-0.92187 1,0.125 q -0.234375,0.875 -0.875,1.35937 -0.640625,0.48438 -1.625,0.48438 -1.25,0 -1.984375,-0.76563 -0.734375,-0.76562 -0.734375,-2.15625 0,-1.45312 0.734375,-2.23437 0.75,-0.79688 1.921875,-0.79688 1.15625,0 1.875,0.78125 0.71875,0.76563 0.71875,2.1875 0,0.0781 0,0.25 l -4.25,0 q 0.04687,0.9375 0.515625,1.4375 0.484375,0.5 1.203125,0.5 0.53125,0 0.90625,-0.26562 0.375,-0.28125 0.59375,-0.90625 z m -3.171875,-1.5625 3.1875,0 q -0.0625,-0.71875 -0.359375,-1.07813 -0.46875,-0.54687 -1.203125,-0.54687 -0.671875,0 -1.125,0.45312 -0.453125,0.4375 -0.5,1.17188 z m 5.426498,3.40625 0,-4.95313 -0.84375,0 0,-0.75 0.84375,0 0,-0.60937 q 0,-0.57813 0.109375,-0.85938 0.140625,-0.375 0.484375,-0.60937 0.359375,-0.23438 0.984375,-0.23438 0.40625,0 0.90625,0.10938 l -0.140625,0.84375 q -0.3125,-0.0625 -0.578125,-0.0625 -0.4375,0 -0.625,0.1875 -0.171875,0.1875 -0.171875,0.70312 l 0,0.53125 1.109375,0 0,0.75 -1.109375,0 0,4.95313 -0.96875,0 z m 2.741898,-6.76563 0,-1.10937 0.96875,0 0,1.10937 -0.96875,0 z m 0,6.76563 0,-5.70313 0.96875,0 0,5.70313 -0.96875,0 z m 2.351856,0 0,-5.70313 0.875,0 0,0.8125 q 0.625,-0.9375 1.8125,-0.9375 0.515625,0 0.953125,0.1875 0.4375,0.17188 0.640625,0.48438 0.21875,0.29687 0.3125,0.70312 0.04687,0.28125 0.04687,0.95313 l 0,3.5 -0.96875,0 0,-3.46875 q 0,-0.59375 -0.109375,-0.875 -0.109375,-0.29688 -0.40625,-0.46875 -0.28125,-0.1875 -0.671875,-0.1875 -0.609375,0 -1.0625,0.39062 -0.453125,0.39063 -0.453125,1.5 l 0,3.10938 -0.96875,0 z m 5.942123,-6.76563 0,-1.10937 0.96875,0 0,1.10937 -0.96875,0 z m 0,6.76563 0,-5.70313 0.96875,0 0,5.70313 -0.96875,0 z m 4.476853,-0.85938 0.125,0.84375 q -0.40625,0.0937 -0.71875,0.0937 -0.53125,0 -0.828125,-0.17187 -0.28125,-0.17188 -0.40625,-0.4375 -0.109375,-0.26563 -0.109375,-1.14063 l 0,-3.28125 -0.71875,0 0,-0.75 0.71875,0 0,-1.40625 0.953125,-0.59375 0,2 0.984375,0 0,0.75 -0.984375,0 0,3.34375 q 0,0.40625 0.04687,0.53125 0.0625,0.10938 0.171875,0.1875 0.125,0.0625 0.328125,0.0625 0.171875,0 0.4375,-0.0312 z m 0.851272,-5.90625 0,-1.10937 0.96875,0 0,1.10937 -0.96875,0 z m 0,6.76563 0,-5.70313 0.96875,0 0,5.70313 -0.96875,0 z m 1.992478,-2.85938 q 0,-1.57812 0.890625,-2.34375 0.734375,-0.625 1.796875,-0.625 1.171875,0 1.90625,0.76563 0.75,0.76562 0.75,2.125 0,1.10937 -0.328125,1.75 -0.328125,0.625 -0.96875,0.96875 -0.625,0.34375 -1.359375,0.34375 -1.203125,0 -1.953125,-0.76563 -0.734375,-0.76562 -0.734375,-2.21875 z m 1,0 q 0,1.10938 0.46875,1.65625 0.484375,0.53125 1.21875,0.53125 0.71875,0 1.1875,-0.54687 0.484375,-0.54688 0.484375,-1.67188 0,-1.04687 -0.484375,-1.59375 -0.484375,-0.54687 -1.1875,-0.54687 -0.734375,0 -1.21875,0.54687 -0.46875,0.53125 -0.46875,1.625 z m 5.285873,2.85938 0,-5.70313 0.875,0 0,0.8125 q 0.625,-0.9375 1.8125,-0.9375 0.515625,0 0.953125,0.1875 0.4375,0.17188 0.640625,0.48438 0.21875,0.29687 0.3125,0.70312 0.04687,0.28125 0.04687,0.95313 l 0,3.5 -0.96875,0 0,-3.46875 q 0,-0.59375 -0.109375,-0.875 -0.109375,-0.29688 -0.40625,-0.46875 -0.28125,-0.1875 -0.671875,-0.1875 -0.609375,0 -1.0625,0.39062 -0.453125,0.39063 -0.453125,1.5 l 0,3.10938 -0.96875,0 z" />
  <path
     style="fill:#0b5394;fill-rule:nonzero"
     inkscape:connector-curvature="0"
     id="path33"
     d="m 19.922572,115.86614 4.771654,-5.05512 4.771652,5.05512 -4.771652,5.05511 z" />
  <path
     style="fill-rule:nonzero;stroke:#0b5394;stroke-width:2;stroke-linecap:butt;stroke-linejoin:round"
     inkscape:connector-curvature="0"
     id="path35"
     d="m 19.922572,115.86614 4.771654,-5.05512 4.771652,5.05512 -4.771652,5.05511 z" />
  <path
     style="fill:#ffffff;fill-rule:nonzero"
     inkscape:connector-curvature="0"
     id="path37"
     d="m 9.867454,82.33202 151.748036,0 0,27.02362 -151.748036,0 z" />
  <path
     style="fill-rule:nonzero;stroke:#0b5394;stroke-width:1;stroke-linecap:butt;stroke-linejoin:round"
     inkscape:connector-curvature="0"
     id="path39"
     d="m 9.867454,82.33202 151.748036,0 0,27.02362 -151.748036,0 z" />
  <path
     style="fill:#0b5394;fill-rule:nonzero"
     inkscape:connector-curvature="0"
     id="path41"
     d="m 29.755355,99.58383 0,-7.8125 1.59375,0 0,6.484375 3.953125,0 0,1.328125 -5.546875,0 z m 6.462387,-6.484375 0,-1.390625 1.5,0 0,1.390625 -1.5,0 z m 0,6.484375 0,-5.703125 1.5,0 0,5.703125 -1.5,0 z m 2.429398,-1.625 1.5,-0.234375 q 0.109375,0.4375 0.390625,0.671875 0.296875,0.21875 0.828125,0.21875 0.59375,0 0.890625,-0.203125 0.203125,-0.15625 0.203125,-0.40625 0,-0.171875 -0.109375,-0.28125 -0.125,-0.109375 -0.515625,-0.203125 -1.8125,-0.40625 -2.3125,-0.734375 -0.671875,-0.46875 -0.671875,-1.28125 0,-0.75 0.578125,-1.25 0.59375,-0.5 1.828125,-0.5 1.171875,0 1.734375,0.375 0.5625,0.375 0.78125,1.125 l -1.421875,0.265625 q -0.09375,-0.328125 -0.34375,-0.5 -0.25,-0.1875 -0.734375,-0.1875 -0.59375,0 -0.84375,0.171875 -0.171875,0.109375 -0.171875,0.296875 0,0.171875 0.140625,0.28125 0.203125,0.15625 1.40625,0.4375 1.21875,0.265625 1.6875,0.65625 0.484375,0.40625 0.484375,1.125 0,0.78125 -0.65625,1.34375 -0.65625,0.5625 -1.953125,0.5625 -1.15625,0 -1.84375,-0.46875 -0.671875,-0.46875 -0.875,-1.28125 z m 9.067123,-4.078125 0,1.203125 -1.03125,0 0,2.296875 q 0,0.703125 0.03125,0.828125 0.03125,0.109375 0.125,0.1875 0.109375,0.0625 0.265625,0.0625 0.203125,0 0.609375,-0.140625 l 0.125,1.171875 q -0.53125,0.21875 -1.1875,0.21875 -0.421875,0 -0.75,-0.125 -0.328125,-0.140625 -0.484375,-0.359375 -0.140625,-0.21875 -0.203125,-0.59375 -0.04687,-0.265625 -0.04687,-1.0625 l 0,-2.484375 -0.6875,0 0,-1.203125 0.6875,0 0,-1.140625 1.515625,-0.875 0,2.015625 1.03125,0 z m 0.626739,1.8125 q 0,-1.203125 0.359375,-2.015625 0.265625,-0.609375 0.71875,-1.078125 0.46875,-0.484375 1.03125,-0.71875 0.734375,-0.3125 1.6875,-0.3125 1.75,0 2.78125,1.09375 1.046875,1.078125 1.046875,3 0,1.90625 -1.03125,2.984375 -1.03125,1.078125 -2.765625,1.078125 -1.765625,0 -2.796875,-1.078125 -1.03125,-1.078125 -1.03125,-2.953125 z m 1.625,-0.04687 q 0,1.328125 0.625,2.03125 0.625,0.6875 1.5625,0.6875 0.953125,0 1.5625,-0.6875 0.609375,-0.6875 0.609375,-2.0625 0,-1.34375 -0.59375,-2.015625 -0.59375,-0.671875 -1.578125,-0.671875 -0.984375,0 -1.59375,0.6875 -0.59375,0.671875 -0.59375,2.03125 z m 6.304398,-1.765625 0.84375,0 0,-0.4375 q 0,-0.71875 0.140625,-1.0625 0.15625,-0.359375 0.5625,-0.578125 0.421875,-0.234375 1.046875,-0.234375 0.65625,0 1.265625,0.203125 L 59.92665,92.81821 q -0.359375,-0.07813 -0.6875,-0.07813 -0.328125,0 -0.484375,0.15625 -0.140625,0.140625 -0.140625,0.578125 l 0,0.40625 1.140625,0 0,1.1875 -1.140625,0 0,4.515625 -1.5,0 0,-4.515625 -0.84375,0 0,-1.1875 z m 9.267364,2.8125 1.53125,0.484375 q -0.34375,1.28125 -1.171875,1.921875 -0.828125,0.625 -2.09375,0.625 -1.5625,0 -2.578125,-1.078125 -1.015625,-1.078125 -1.015625,-2.9375 0,-1.953125 1.015625,-3.046875 1.015625,-1.09375 2.671875,-1.09375 1.453125,0 2.34375,0.859375 0.546875,0.5 0.8125,1.453125 l -1.578125,0.375 q -0.140625,-0.609375 -0.578125,-0.96875 -0.4375,-0.359375 -1.078125,-0.359375 -0.875,0 -1.421875,0.640625 -0.546875,0.625 -0.546875,2.03125 0,1.484375 0.53125,2.125 0.546875,0.640625 1.40625,0.640625 0.640625,0 1.09375,-0.40625 0.453125,-0.40625 0.65625,-1.265625 z m 2.289353,-0.04687 q 0,-0.75 0.375,-1.453125 0.375,-0.703125 1.046878,-1.0625 0.6875,-0.375 1.515625,-0.375 1.296875,0 2.125,0.84375 0.828125,0.828125 0.828125,2.109375 0,1.296875 -0.84375,2.15625 -0.828125,0.84375 -2.09375,0.84375 -0.78125,0 -1.5,-0.34375 -0.703128,-0.359375 -1.078128,-1.046875 -0.375,-0.6875 -0.375,-1.671875 z m 1.546878,0.07813 q 0,0.859375 0.40625,1.3125 0.40625,0.453125 1,0.453125 0.578125,0 0.984375,-0.453125 0.40625,-0.453125 0.40625,-1.3125 0,-0.84375 -0.40625,-1.296875 -0.40625,-0.453125 -0.984375,-0.453125 -0.59375,0 -1,0.453125 -0.40625,0.453125 -0.40625,1.296875 z m 5.321762,2.859375 0,-7.875 1.5,0 0,7.875 -1.5,0 z m 2.601273,-2.9375 q 0,-0.75 0.375,-1.453125 0.375,-0.703125 1.046875,-1.0625 0.6875,-0.375 1.515625,-0.375 1.296875,0 2.125,0.84375 0.828125,0.828125 0.828125,2.109375 0,1.296875 -0.84375,2.15625 -0.828125,0.84375 -2.09375,0.84375 -0.78125,0 -1.5,-0.34375 -0.703125,-0.359375 -1.078125,-1.046875 -0.375,-0.6875 -0.375,-1.671875 z m 1.546875,0.07813 q 0,0.859375 0.40625,1.3125 0.40625,0.453125 1,0.453125 0.578125,0 0.984375,-0.453125 0.40625,-0.453125 0.40625,-1.3125 0,-0.84375 -0.40625,-1.296875 -0.40625,-0.453125 -0.984375,-0.453125 -0.59375,0 -1,0.453125 -0.40625,0.453125 -0.40625,1.296875 z m 6.759262,2.859375 -1.515625,0 0,-5.703125 1.40625,0 0,0.8125 q 0.359375,-0.578125 0.640625,-0.75 0.296875,-0.1875 0.65625,-0.1875 0.515625,0 1,0.28125 l -0.46875,1.3125 q -0.375,-0.25 -0.703125,-0.25 -0.328125,0 -0.546875,0.1875 -0.21875,0.171875 -0.34375,0.625 -0.125,0.453125 -0.125,1.90625 l 0,1.765625 z m 2.709488,-7.875 2.90625,0 q 0.984375,0 1.5,0.15625 0.6875,0.203125 1.171875,0.71875 0.5,0.515625 0.75,1.28125 0.265625,0.75 0.265625,1.859375 0,0.96875 -0.234375,1.671875 -0.296875,0.859375 -0.84375,1.390625 -0.421875,0.40625 -1.125,0.625 -0.515625,0.171875 -1.40625,0.171875 l -2.984375,0 0,-7.875 z m 1.59375,1.328125 0,5.21875 1.1875,0 q 0.65625,0 0.953125,-0.07813 0.390625,-0.09375 0.640625,-0.3125 0.265625,-0.234375 0.421875,-0.765625 0.15625,-0.53125 0.15625,-1.453125 0,-0.90625 -0.15625,-1.390625 -0.15625,-0.5 -0.453125,-0.765625 -0.296875,-0.28125 -0.734375,-0.375 -0.328125,-0.07813 -1.3125,-0.07813 l -0.703125,0 z m 9.398727,4.734375 1.499998,0.25 q -0.28125,0.828125 -0.906248,1.265625 -0.625,0.421875 -1.578125,0.421875 -1.484375,0 -2.203125,-0.96875 -0.5625,-0.78125 -0.5625,-1.96875 0,-1.421875 0.734375,-2.21875 0.75,-0.796875 1.890625,-0.796875 1.265625,0 1.999998,0.84375 0.73438,0.828125 0.70313,2.5625 l -3.781253,0 q 0.01563,0.671875 0.359375,1.046875 0.359375,0.375 0.875,0.375 0.359375,0 0.59375,-0.1875 0.25,-0.203125 0.375,-0.625 z m 0.07813,-1.53125 q -0.01563,-0.65625 -0.34375,-0.984375 -0.3125,-0.34375 -0.765625,-0.34375 -0.5,0 -0.828125,0.359375 -0.3125,0.359375 -0.3125,0.96875 l 2.25,0 z m 1.879628,-2.359375 0.84375,0 0,-0.4375 q 0,-0.71875 0.14062,-1.0625 0.15625,-0.359375 0.5625,-0.578125 0.42188,-0.234375 1.04688,-0.234375 0.65625,0 1.26562,0.203125 l -0.20313,1.046875 q -0.35937,-0.07813 -0.68749,-0.07813 -0.32813,0 -0.48438,0.15625 -0.14062,0.140625 -0.14062,0.578125 l 0,0.40625 1.14062,0 0,1.1875 -1.14062,0 0,4.515625 -1.5,0 0,-4.515625 -0.84375,0 0,-1.1875 z m 4.22048,-0.78125 0,-1.390625 1.5,0 0,1.390625 -1.5,0 z m 0,6.484375 0,-5.703125 1.5,0 0,5.703125 -1.5,0 z m 8.14815,0 -1.51561,0 0,-2.90625 q 0,-0.921875 -0.0937,-1.1875 -0.0937,-0.28125 -0.3125,-0.421875 -0.21875,-0.15625 -0.53125,-0.15625 -0.39063,0 -0.70313,0.21875 -0.3125,0.203125 -0.4375,0.5625 -0.10937,0.34375 -0.10937,1.3125 l 0,2.578125 -1.5,0 0,-5.703125 1.40625,0 0,0.84375 q 0.73437,-0.96875 1.875,-0.96875 0.5,0 0.90625,0.1875 0.42187,0.171875 0.625,0.453125 0.21875,0.265625 0.29687,0.625 0.0937,0.359375 0.0937,1.015625 l 0,3.546875 z m 1.32176,-6.484375 0,-1.390625 1.5,0 0,1.390625 -1.5,0 z m 0,6.484375 0,-5.703125 1.5,0 0,5.703125 -1.5,0 z m 5.57003,-5.703125 0,1.203125 -1.03125,0 0,2.296875 q 0,0.703125 0.0312,0.828125 0.0312,0.109375 0.125,0.1875 0.10937,0.0625 0.26562,0.0625 0.20313,0 0.60938,-0.140625 l 0.125,1.171875 q -0.53125,0.21875 -1.1875,0.21875 -0.42188,0 -0.75,-0.125 -0.32813,-0.140625 -0.48438,-0.359375 -0.14062,-0.21875 -0.20312,-0.59375 -0.0469,-0.265625 -0.0469,-1.0625 l 0,-2.484375 -0.6875,0 0,-1.203125 0.6875,0 0,-1.140625 1.51563,-0.875 0,2.015625 1.03125,0 z m 0.93924,-0.78125 0,-1.390625 1.5,0 0,1.390625 -1.5,0 z m 0,6.484375 0,-5.703125 1.5,0 0,5.703125 -1.5,0 z m 2.60127,-2.9375 q 0,-0.75 0.375,-1.453125 0.375,-0.703125 1.04687,-1.0625 0.6875,-0.375 1.51563,-0.375 1.29687,0 2.125,0.84375 0.82812,0.828125 0.82812,2.109375 0,1.296875 -0.84375,2.15625 -0.82812,0.84375 -2.09375,0.84375 -0.78125,0 -1.5,-0.34375 -0.70312,-0.359375 -1.07812,-1.046875 -0.375,-0.6875 -0.375,-1.671875 z m 1.54687,0.07813 q 0,0.859375 0.40625,1.3125 0.40625,0.453125 1,0.453125 0.57813,0 0.98438,-0.453125 0.40625,-0.453125 0.40625,-1.3125 0,-0.84375 -0.40625,-1.296875 -0.40625,-0.453125 -0.98438,-0.453125 -0.59375,0 -1,0.453125 -0.40625,0.453125 -0.40625,1.296875 z m 10.50926,2.859375 -1.51562,0 0,-2.90625 q 0,-0.921875 -0.0937,-1.1875 -0.0937,-0.28125 -0.3125,-0.421875 -0.21875,-0.15625 -0.53125,-0.15625 -0.39063,0 -0.70313,0.21875 -0.3125,0.203125 -0.4375,0.5625 -0.10937,0.34375 -0.10937,1.3125 l 0,2.578125 -1.5,0 0,-5.703125 1.40625,0 0,0.84375 q 0.73437,-0.96875 1.875,-0.96875 0.5,0 0.90625,0.1875 0.42188,0.171875 0.625,0.453125 0.21875,0.265625 0.29688,0.625 0.0937,0.359375 0.0937,1.015625 l 0,3.546875 z m 0.79052,-1.625 1.49998,-0.234375 q 0.10938,0.4375 0.39063,0.671875 0.29687,0.21875 0.82812,0.21875 0.59375,0 0.89063,-0.203125 0.20312,-0.15625 0.20312,-0.40625 0,-0.171875 -0.10937,-0.28125 -0.125,-0.109375 -0.51563,-0.203125 -1.8125,-0.40625 -2.31248,-0.734375 -0.67188,-0.46875 -0.67188,-1.28125 0,-0.75 0.57813,-1.25 0.59373,-0.5 1.82811,-0.5 1.17188,0 1.73438,0.375 0.5625,0.375 0.78125,1.125 l -1.42188,0.265625 q -0.0937,-0.328125 -0.34375,-0.5 -0.25,-0.1875 -0.73437,-0.1875 -0.59375,0 -0.84375,0.171875 -0.17188,0.109375 -0.17188,0.296875 0,0.171875 0.14063,0.28125 0.20312,0.15625 1.40625,0.4375 1.21875,0.265625 1.6875,0.65625 0.48437,0.40625 0.48437,1.125 0,0.78125 -0.65625,1.34375 -0.65625,0.5625 -1.95312,0.5625 -1.15625,0 -1.84373,-0.46875 -0.67188,-0.46875 -0.875,-1.28125 z" />
  <path
     style="fill:#000000;fill-opacity:0;fill-rule:nonzero"
     inkscape:connector-curvature="0"
     id="path43"
     d="m 138.26821,132.67032 36,0 0,14.99213 -36,0 z" />
  <path
     style="fill:#0b5394;fill-rule:nonzero"
     inkscape:connector-curvature="0"
     id="path45"
     d="m 152.36457,143.90637 -0.96875,0 0,-6.15625 q -0.34375,0.32812 -0.90625,0.67187 -0.5625,0.32813 -1.01563,0.48438 l 0,-0.9375 q 0.8125,-0.375 1.40625,-0.90625 0.60938,-0.54688 0.85938,-1.0625 l 0.625,0 0,7.90625 z m 2.83275,0 0,-1.09375 1.09375,0 0,1.09375 -1.09375,0 z m 2.96065,0 0,-1.09375 1.09375,0 0,1.09375 -1.09375,0 z m 2.30439,-6.42188 0.25,-0.76562 q 0.84375,0.29687 1.23438,0.51562 -0.0937,-0.96875 -0.10938,-1.34375 l 0.78125,0 q -0.0156,0.53125 -0.125,1.34375 0.5625,-0.28125 1.26563,-0.51562 l 0.25,0.76562 q -0.67188,0.21875 -1.32813,0.29688 0.32813,0.28125 0.92188,1.01562 l -0.64063,0.45313 q -0.3125,-0.42188 -0.75,-1.15625 -0.39062,0.76562 -0.6875,1.15625 l -0.64062,-0.45313 q 0.625,-0.76562 0.89062,-1.01562 -0.6875,-0.14063 -1.3125,-0.29688 z" />
  <path
     style="fill:#000000;fill-opacity:0;fill-rule:nonzero"
     inkscape:connector-curvature="0"
     id="path47"
     d="m 145.9154,48.93307 0,12.346458" />
  <path
     style="fill-rule:nonzero;stroke:#0b5394;stroke-width:1;stroke-linecap:butt;stroke-linejoin:round"
     inkscape:connector-curvature="0"
     id="path49"
     d="m 145.9154,48.93307 0,12.346458" />
  <path
     style="fill:#000000;fill-opacity:0;fill-rule:nonzero"
     inkscape:connector-curvature="0"
     id="path51"
     d="m 91.384517,61.2979 0,21.952755" />
  <path
     style="fill-rule:nonzero;stroke:#0b5394;stroke-width:1;stroke-linecap:butt;stroke-linejoin:round"
     inkscape:connector-curvature="0"
     id="path53"
     d="m 91.384519,61.060759 0,21.627398" />
  <path
     style="fill:#000000;fill-opacity:0;fill-rule:nonzero"
     inkscape:connector-curvature="0"
     id="path55"
     d="m 91.639107,61.56824 109.858273,0" />
  <path
     style="fill-rule:nonzero;stroke:#0b5394;stroke-width:1;stroke-miterlimit:8"
     inkscape:connector-curvature="0"
     id="path57"
     d="m 91.639405,61.568239 109.924075,0"
     stroke-miterlimit="8.0" />
  <g
     id="g4243"
     transform="translate(4.8018374,2)">
    <path
       d="m 159.99475,120.1706 118.14172,0 0,27.02363 -118.14172,0 z"
       id="path59"
       inkscape:connector-curvature="0"
       style="fill:#ffffff;fill-rule:nonzero" />
    <path
       d="m 159.99475,120.1706 118.14172,0 0,27.02363 -118.14172,0 z"
       id="path61"
       inkscape:connector-curvature="0"
       style="fill-rule:nonzero;stroke:#0b5394;stroke-width:1;stroke-linecap:butt;stroke-linejoin:round" />
    <path
       d="m 186.43396,134.53178 1.53125,0.48437 q -0.34375,1.28125 -1.17187,1.92188 -0.82813,0.625 -2.09375,0.625 -1.5625,0 -2.57813,-1.07813 -1.01562,-1.07812 -1.01562,-2.9375 0,-1.95312 1.01562,-3.04687 1.01563,-1.09375 2.67188,-1.09375 1.45312,0 2.34375,0.85937 0.54687,0.5 0.8125,1.45313 l -1.57813,0.375 q -0.14062,-0.60938 -0.57812,-0.96875 -0.4375,-0.35938 -1.07813,-0.35938 -0.875,0 -1.42187,0.64063 -0.54688,0.625 -0.54688,2.03125 0,1.48437 0.53125,2.125 0.54688,0.64062 1.40625,0.64062 0.64063,0 1.09375,-0.40625 0.45313,-0.40625 0.65625,-1.26562 z m 2.28935,-0.0469 q 0,-0.75 0.375,-1.45312 0.375,-0.70313 1.04688,-1.0625 0.6875,-0.375 1.51562,-0.375 1.29688,0 2.125,0.84375 0.82813,0.82812 0.82813,2.10937 0,1.29688 -0.84375,2.15625 -0.82813,0.84375 -2.09375,0.84375 -0.78125,0 -1.5,-0.34375 -0.70313,-0.35937 -1.07813,-1.04687 -0.375,-0.6875 -0.375,-1.67188 z m 1.54688,0.0781 q 0,0.85937 0.40625,1.3125 0.40625,0.45312 1,0.45312 0.57812,0 0.98437,-0.45312 0.40625,-0.45313 0.40625,-1.3125 0,-0.84375 -0.40625,-1.29688 -0.40625,-0.45312 -0.98437,-0.45312 -0.59375,0 -1,0.45312 -0.40625,0.45313 -0.40625,1.29688 z m 5.32176,2.85937 0,-7.875 1.5,0 0,7.875 -1.5,0 z m 2.60127,-2.9375 q 0,-0.75 0.375,-1.45312 0.375,-0.70313 1.04688,-1.0625 0.6875,-0.375 1.51562,-0.375 1.29688,0 2.125,0.84375 0.82813,0.82812 0.82813,2.10937 0,1.29688 -0.84375,2.15625 -0.82813,0.84375 -2.09375,0.84375 -0.78125,0 -1.5,-0.34375 -0.70313,-0.35937 -1.07813,-1.04687 -0.375,-0.6875 -0.375,-1.67188 z m 1.54688,0.0781 q 0,0.85937 0.40625,1.3125 0.40625,0.45312 1,0.45312 0.57812,0 0.98437,-0.45312 0.40625,-0.45313 0.40625,-1.3125 0,-0.84375 -0.40625,-1.29688 -0.40625,-0.45312 -0.98437,-0.45312 -0.59375,0 -1,0.45312 -0.40625,0.45313 -0.40625,1.29688 z m 6.75926,2.85937 -1.51563,0 0,-5.70312 1.40625,0 0,0.8125 q 0.35938,-0.57813 0.64063,-0.75 0.29687,-0.1875 0.65625,-0.1875 0.51562,0 1,0.28125 l -0.46875,1.3125 q -0.375,-0.25 -0.70313,-0.25 -0.32812,0 -0.54687,0.1875 -0.21875,0.17187 -0.34375,0.625 -0.125,0.45312 -0.125,1.90625 l 0,1.76562 z m 2.70949,-7.875 2.90625,0 q 0.98437,0 1.5,0.15625 0.6875,0.20313 1.17187,0.71875 0.5,0.51563 0.75,1.28125 0.26563,0.75 0.26563,1.85938 0,0.96875 -0.23438,1.67187 -0.29687,0.85938 -0.84375,1.39063 -0.42187,0.40625 -1.125,0.625 -0.51562,0.17187 -1.40625,0.17187 l -2.98437,0 0,-7.875 z m 1.59375,1.32813 0,5.21875 1.1875,0 q 0.65625,0 0.95312,-0.0781 0.39063,-0.0937 0.64063,-0.3125 0.26562,-0.23437 0.42187,-0.76562 0.15625,-0.53125 0.15625,-1.45313 0,-0.90625 -0.15625,-1.39062 -0.15625,-0.5 -0.45312,-0.76563 -0.29688,-0.28125 -0.73438,-0.375 -0.32812,-0.0781 -1.3125,-0.0781 l -0.70312,0 z m 9.39872,4.73437 1.5,0.25 q -0.28125,0.82813 -0.90625,1.26563 -0.625,0.42187 -1.57812,0.42187 -1.48438,0 -2.20313,-0.96875 -0.5625,-0.78125 -0.5625,-1.96875 0,-1.42187 0.73438,-2.21875 0.75,-0.79687 1.89062,-0.79687 1.26563,0 2,0.84375 0.73438,0.82812 0.70313,2.5625 l -3.78125,0 q 0.0156,0.67187 0.35937,1.04687 0.35938,0.375 0.875,0.375 0.35938,0 0.59375,-0.1875 0.25,-0.20312 0.375,-0.625 z m 0.0781,-1.53125 q -0.0156,-0.65625 -0.34375,-0.98437 -0.3125,-0.34375 -0.76563,-0.34375 -0.5,0 -0.82812,0.35937 -0.3125,0.35938 -0.3125,0.96875 l 2.25,0 z m 1.87962,-2.35937 0.84375,0 0,-0.4375 q 0,-0.71875 0.14063,-1.0625 0.15625,-0.35938 0.5625,-0.57813 0.42187,-0.23437 1.04687,-0.23437 0.65625,0 1.26563,0.20312 l -0.20313,1.04688 q -0.35937,-0.0781 -0.6875,-0.0781 -0.32812,0 -0.48437,0.15625 -0.14063,0.14063 -0.14063,0.57813 l 0,0.40625 1.14063,0 0,1.1875 -1.14063,0 0,4.51562 -1.5,0 0,-4.51562 -0.84375,0 0,-1.1875 z m 4.22049,-0.78125 0,-1.39063 1.5,0 0,1.39063 -1.5,0 z m 0,6.48437 0,-5.70312 1.5,0 0,5.70312 -1.5,0 z m 8.14815,0 -1.51563,0 0,-2.90625 q 0,-0.92187 -0.0937,-1.1875 -0.0937,-0.28125 -0.3125,-0.42187 -0.21875,-0.15625 -0.53125,-0.15625 -0.39062,0 -0.70312,0.21875 -0.3125,0.20312 -0.4375,0.5625 -0.10938,0.34375 -0.10938,1.3125 l 0,2.57812 -1.5,0 0,-5.70312 1.40625,0 0,0.84375 q 0.73438,-0.96875 1.875,-0.96875 0.5,0 0.90625,0.1875 0.42188,0.17187 0.625,0.45312 0.21875,0.26563 0.29688,0.625 0.0937,0.35938 0.0937,1.01563 l 0,3.54687 z m 1.32176,-6.48437 0,-1.39063 1.5,0 0,1.39063 -1.5,0 z m 0,6.48437 0,-5.70312 1.5,0 0,5.70312 -1.5,0 z m 5.57002,-5.70312 0,1.20312 -1.03125,0 0,2.29688 q 0,0.70312 0.0312,0.82812 0.0312,0.10938 0.125,0.1875 0.10938,0.0625 0.26563,0.0625 0.20312,0 0.60937,-0.14062 l 0.125,1.17187 q -0.53125,0.21875 -1.1875,0.21875 -0.42187,0 -0.75,-0.125 -0.32812,-0.14062 -0.48437,-0.35937 -0.14063,-0.21875 -0.20313,-0.59375 -0.0469,-0.26563 -0.0469,-1.0625 l 0,-2.48438 -0.6875,0 0,-1.20312 0.6875,0 0,-1.14063 1.51562,-0.875 0,2.01563 1.03125,0 z m 0.93924,-0.78125 0,-1.39063 1.5,0 0,1.39063 -1.5,0 z m 0,6.48437 0,-5.70312 1.5,0 0,5.70312 -1.5,0 z m 2.60128,-2.9375 q 0,-0.75 0.375,-1.45312 0.375,-0.70313 1.04687,-1.0625 0.6875,-0.375 1.51563,-0.375 1.29687,0 2.125,0.84375 0.82812,0.82812 0.82812,2.10937 0,1.29688 -0.84375,2.15625 -0.82812,0.84375 -2.09375,0.84375 -0.78125,0 -1.5,-0.34375 -0.70312,-0.35937 -1.07812,-1.04687 -0.375,-0.6875 -0.375,-1.67188 z m 1.54687,0.0781 q 0,0.85937 0.40625,1.3125 0.40625,0.45312 1,0.45312 0.57813,0 0.98438,-0.45312 0.40625,-0.45313 0.40625,-1.3125 0,-0.84375 -0.40625,-1.29688 -0.40625,-0.45312 -0.98438,-0.45312 -0.59375,0 -1,0.45312 -0.40625,0.45313 -0.40625,1.29688 z m 10.50926,2.85937 -1.51562,0 0,-2.90625 q 0,-0.92187 -0.0937,-1.1875 -0.0937,-0.28125 -0.3125,-0.42187 -0.21875,-0.15625 -0.53125,-0.15625 -0.39063,0 -0.70313,0.21875 -0.3125,0.20312 -0.4375,0.5625 -0.10937,0.34375 -0.10937,1.3125 l 0,2.57812 -1.5,0 0,-5.70312 1.40625,0 0,0.84375 q 0.73437,-0.96875 1.875,-0.96875 0.5,0 0.90625,0.1875 0.42187,0.17187 0.625,0.45312 0.21875,0.26563 0.29687,0.625 0.0937,0.35938 0.0937,1.01563 l 0,3.54687 z"
       id="path63"
       inkscape:connector-curvature="0"
       style="fill:#0b5394;fill-rule:nonzero" />
    <path
       d="m 159.99475,144.17061 118.14172,0 0,27.02362 -118.14172,0 z"
       id="path65"
       inkscape:connector-curvature="0"
       style="fill:#ffffff;fill-rule:nonzero" />
    <path
       d="m 159.99475,144.17061 118.14172,0 0,27.02362 -118.14172,0 z"
       id="path67"
       inkscape:connector-curvature="0"
       style="fill-rule:nonzero;stroke:#0b5394;stroke-width:1;stroke-linecap:butt;stroke-linejoin:round" />
    <path
       d="m 169.72913,148.15678 0,-1.10938 0.96875,0 0,1.10938 -0.96875,0 z m 0,6.76562 0,-5.70312 0.96875,0 0,5.70312 -0.96875,0 z m 6.05498,0 0,-0.71875 q -0.53125,0.84375 -1.59375,0.84375 -0.67188,0 -1.25,-0.375 -0.57813,-0.375 -0.89063,-1.04687 -0.3125,-0.67188 -0.3125,-1.54688 0,-0.85937 0.28125,-1.54687 0.29688,-0.70313 0.85938,-1.0625 0.5625,-0.375 1.26562,-0.375 0.51563,0 0.92188,0.21875 0.40625,0.21875 0.65625,0.5625 l 0,-2.82813 0.96875,0 0,7.875 -0.90625,0 z m -3.04688,-2.84375 q 0,1.09375 0.45313,1.64063 0.46875,0.53125 1.09375,0.53125 0.64062,0 1.07812,-0.51563 0.4375,-0.51562 0.4375,-1.57812 0,-1.17188 -0.45312,-1.71875 -0.4375,-0.54688 -1.10938,-0.54688 -0.64062,0 -1.07812,0.53125 -0.42188,0.51563 -0.42188,1.65625 z m 5.5515,-1.76562 0,-1.09375 1.09375,0 0,1.09375 -1.09375,0 z m 0,4.60937 0,-1.09375 1.09375,0 0,1.09375 -1.09375,0 z m 5.4213,-2.53125 0.98437,-0.0781 q 0.0625,0.57812 0.3125,0.96875 0.26563,0.375 0.79688,0.60937 0.53125,0.23438 1.20312,0.23438 0.60938,0 1.0625,-0.17188 0.45313,-0.1875 0.67188,-0.48437 0.23437,-0.3125 0.23437,-0.6875 0,-0.375 -0.21875,-0.64063 -0.21875,-0.28125 -0.71875,-0.46875 -0.3125,-0.125 -1.40625,-0.375 -1.07812,-0.26562 -1.51562,-0.5 -0.5625,-0.29687 -0.84375,-0.73437 -0.26563,-0.4375 -0.26563,-0.98438 0,-0.59375 0.32813,-1.10937 0.34375,-0.51563 0.98437,-0.78125 0.65625,-0.28125 1.45313,-0.28125 0.875,0 1.54687,0.29687 0.67188,0.28125 1.03125,0.82813 0.35938,0.54687 0.39063,1.23437 l -1,0.0781 q -0.0781,-0.75 -0.54688,-1.125 -0.46875,-0.39063 -1.375,-0.39063 -0.9375,0 -1.375,0.35938 -0.4375,0.34375 -0.4375,0.82812 0,0.42188 0.3125,0.70313 0.29688,0.26562 1.5625,0.5625 1.28125,0.28125 1.75,0.5 0.6875,0.3125 1.01563,0.79687 0.32812,0.48438 0.32812,1.125 0,0.625 -0.35937,1.1875 -0.35938,0.54688 -1.04688,0.85938 -0.67187,0.3125 -1.51562,0.3125 -1.0625,0 -1.78125,-0.3125 -0.71875,-0.3125 -1.14063,-0.9375 -0.40625,-0.625 -0.42187,-1.42188 z m 7.63888,2.53125 0,-7.875 1.03125,0 0,7.875 -1.03125,0 z m 6.35127,0 0,-0.71875 q -0.53125,0.84375 -1.59375,0.84375 -0.67187,0 -1.25,-0.375 -0.57812,-0.375 -0.89062,-1.04687 -0.3125,-0.67188 -0.3125,-1.54688 0,-0.85937 0.28125,-1.54687 0.29687,-0.70313 0.85937,-1.0625 0.5625,-0.375 1.26563,-0.375 0.51562,0 0.92187,0.21875 0.40625,0.21875 0.65625,0.5625 l 0,-2.82813 0.96875,0 0,7.875 -0.90625,0 z m -3.04687,-2.84375 q 0,1.09375 0.45312,1.64063 0.46875,0.53125 1.09375,0.53125 0.64063,0 1.07813,-0.51563 0.4375,-0.51562 0.4375,-1.57812 0,-1.17188 -0.45313,-1.71875 -0.4375,-0.54688 -1.10937,-0.54688 -0.64063,0 -1.07813,0.53125 -0.42187,0.51563 -0.42187,1.65625 z"
       id="path69"
       inkscape:connector-curvature="0"
       style="fill:#0b5394;fill-rule:nonzero" />
    <path
       d="m 171.30725,167.92241 -2.17188,-5.70312 1.01563,0 1.23437,3.42187 q 0.1875,0.54688 0.35938,1.14063 0.125,-0.45313 0.35937,-1.07813 l 1.26563,-3.48437 1,0 -2.15625,5.70312 -0.90625,0 z m 7.46875,-0.70312 q -0.54688,0.45312 -1.04688,0.64062 -0.48437,0.1875 -1.0625,0.1875 -0.9375,0 -1.45312,-0.45312 -0.5,-0.46875 -0.5,-1.17188 0,-0.42187 0.1875,-0.76562 0.20312,-0.34375 0.5,-0.54688 0.3125,-0.21875 0.70312,-0.32812 0.28125,-0.0781 0.85938,-0.14063 1.17187,-0.14062 1.71875,-0.34375 0.0156,-0.1875 0.0156,-0.25 0,-0.59375 -0.28125,-0.82812 -0.35937,-0.32813 -1.09375,-0.32813 -0.6875,0 -1.01562,0.23438 -0.3125,0.23437 -0.46875,0.84375 l -0.95313,-0.125 q 0.125,-0.60938 0.42188,-0.98438 0.29687,-0.375 0.85937,-0.5625 0.5625,-0.20312 1.29688,-0.20312 0.73437,0 1.1875,0.17187 0.45312,0.17188 0.65625,0.4375 0.21875,0.25 0.3125,0.64063 0.0469,0.25 0.0469,0.90625 l 0,1.28125 q 0,1.34375 0.0625,1.70312 0.0625,0.35938 0.25,0.6875 l -1.01562,0 q -0.15625,-0.29687 -0.1875,-0.70312 z m -0.0937,-2.15625 q -0.51563,0.21875 -1.57813,0.35937 -0.59375,0.0937 -0.84375,0.20313 -0.23437,0.0937 -0.375,0.3125 -0.14062,0.20312 -0.14062,0.45312 0,0.39063 0.29687,0.65625 0.29688,0.25 0.85938,0.25 0.5625,0 0.98437,-0.25 0.4375,-0.25 0.65625,-0.67187 0.14063,-0.32813 0.14063,-0.96875 l 0,-0.34375 z m 2.27025,2.85937 0,-7.875 0.96875,0 0,7.875 -0.96875,0 z m 6.1331,0 0,-0.84375 q -0.67187,0.96875 -1.8125,0.96875 -0.5,0 -0.95312,-0.1875 -0.4375,-0.20312 -0.65625,-0.48437 -0.20313,-0.29688 -0.28125,-0.71875 -0.0625,-0.28125 -0.0625,-0.90625 l 0,-3.53125 0.96875,0 0,3.15625 q 0,0.76562 0.0625,1.03125 0.0937,0.375 0.375,0.59375 0.29687,0.21875 0.73437,0.21875 0.4375,0 0.8125,-0.21875 0.39063,-0.23438 0.54688,-0.60938 0.15625,-0.39062 0.15625,-1.10937 l 0,-3.0625 0.96875,0 0,5.70312 -0.85938,0 z m 6.08275,-1.84375 1,0.125 q -0.23438,0.875 -0.875,1.35938 -0.64063,0.48437 -1.625,0.48437 -1.25,0 -1.98438,-0.76562 -0.73437,-0.76563 -0.73437,-2.15625 0,-1.45313 0.73437,-2.23438 0.75,-0.79687 1.92188,-0.79687 1.15625,0 1.875,0.78125 0.71875,0.76562 0.71875,2.1875 0,0.0781 0,0.25 l -4.25,0 q 0.0469,0.9375 0.51562,1.4375 0.48438,0.5 1.20313,0.5 0.53125,0 0.90625,-0.26563 0.375,-0.28125 0.59375,-0.90625 z m -3.17188,-1.5625 3.1875,0 q -0.0625,-0.71875 -0.35937,-1.07812 -0.46875,-0.54688 -1.20313,-0.54688 -0.67187,0 -1.125,0.45313 -0.45312,0.4375 -0.5,1.17187 z m 5.47338,-1.20312 0,-1.09375 1.09375,0 0,1.09375 -1.09375,0 z m 0,4.60937 0,-1.09375 1.09375,0 0,1.09375 -1.09375,0 z m 5.26504,-1.70312 0.95313,-0.15625 q 0.0781,0.57812 0.4375,0.89062 0.375,0.29688 1.03125,0.29688 0.67187,0 0.98437,-0.26563 0.32813,-0.26562 0.32813,-0.64062 0,-0.32813 -0.28125,-0.51563 -0.20313,-0.125 -0.98438,-0.32812 -1.0625,-0.26563 -1.48437,-0.45313 -0.40625,-0.20312 -0.625,-0.54687 -0.20313,-0.34375 -0.20313,-0.76563 0,-0.39062 0.17188,-0.70312 0.17187,-0.32813 0.48437,-0.54688 0.21875,-0.17187 0.60938,-0.28125 0.39062,-0.10937 0.82812,-0.10937 0.67188,0 1.17188,0.1875 0.51562,0.1875 0.75,0.53125 0.25,0.32812 0.34375,0.875 l -0.9375,0.125 q -0.0781,-0.4375 -0.39063,-0.67188 -0.29687,-0.25 -0.85937,-0.25 -0.67188,0 -0.95313,0.21875 -0.28125,0.21875 -0.28125,0.51563 0,0.1875 0.10938,0.32812 0.125,0.15625 0.375,0.26563 0.14062,0.0469 0.85937,0.25 1.01563,0.26562 1.42188,0.4375 0.40625,0.17187 0.64062,0.51562 0.23438,0.32813 0.23438,0.82813 0,0.48437 -0.28125,0.90625 -0.28125,0.42187 -0.8125,0.65625 -0.53125,0.23437 -1.20313,0.23437 -1.10937,0 -1.70312,-0.45312 -0.57813,-0.46875 -0.73438,-1.375 z m 7.82813,0.84375 0.125,0.84375 q -0.40625,0.0937 -0.71875,0.0937 -0.53125,0 -0.82813,-0.17188 -0.28125,-0.17187 -0.40625,-0.4375 -0.10937,-0.26562 -0.10937,-1.14062 l 0,-3.28125 -0.71875,0 0,-0.75 0.71875,0 0,-1.40625 0.95312,-0.59375 0,2 0.98438,0 0,0.75 -0.98438,0 0,3.34375 q 0,0.40625 0.0469,0.53125 0.0625,0.10937 0.17187,0.1875 0.125,0.0625 0.32813,0.0625 0.17187,0 0.4375,-0.0312 z m 0.83565,0.85937 0,-5.70312 0.85937,0 0,0.85937 q 0.34375,-0.60937 0.625,-0.79687 0.28125,-0.1875 0.60938,-0.1875 0.5,0 1,0.3125 l -0.32813,0.89062 q -0.35937,-0.20312 -0.71875,-0.20312 -0.3125,0 -0.5625,0.1875 -0.25,0.1875 -0.35937,0.53125 -0.15625,0.51562 -0.15625,1.125 l 0,2.98437 -0.96875,0 z m 3.56423,-6.76562 0,-1.10938 0.96875,0 0,1.10938 -0.96875,0 z m 0,6.76562 0,-5.70312 0.96875,0 0,5.70312 -0.96875,0 z m 2.35186,0 0,-5.70312 0.875,0 0,0.8125 q 0.625,-0.9375 1.8125,-0.9375 0.51562,0 0.95312,0.1875 0.4375,0.17187 0.64063,0.48437 0.21875,0.29688 0.3125,0.70313 0.0469,0.28125 0.0469,0.95312 l 0,3.5 -0.96875,0 0,-3.46875 q 0,-0.59375 -0.10937,-0.875 -0.10938,-0.29687 -0.40625,-0.46875 -0.28125,-0.1875 -0.67188,-0.1875 -0.60937,0 -1.0625,0.39063 -0.45312,0.39062 -0.45312,1.5 l 0,3.10937 -0.96875,0 z m 5.75462,0.46875 0.9375,0.14063 q 0.0625,0.4375 0.32813,0.64062 0.35937,0.26563 0.98437,0.26563 0.67188,0 1.03125,-0.26563 0.375,-0.26562 0.5,-0.75 0.0781,-0.29687 0.0781,-1.25 -0.64063,0.75 -1.59375,0.75 -1.17188,0 -1.8125,-0.84375 -0.64063,-0.85937 -0.64063,-2.04687 0,-0.8125 0.29688,-1.5 0.29687,-0.6875 0.84375,-1.0625 0.5625,-0.375 1.32812,-0.375 1,0 1.65625,0.8125 l 0,-0.6875 0.89063,0 0,4.92187 q 0,1.34375 -0.26563,1.89063 -0.26562,0.5625 -0.85937,0.875 -0.59375,0.32812 -1.45313,0.32812 -1.01562,0 -1.64062,-0.46875 -0.625,-0.45312 -0.60938,-1.375 z m 0.79688,-3.42187 q 0,1.125 0.4375,1.64062 0.45312,0.51563 1.125,0.51563 0.67187,0 1.125,-0.51563 0.45312,-0.51562 0.45312,-1.60937 0,-1.04688 -0.46875,-1.57813 -0.46875,-0.53125 -1.125,-0.53125 -0.64062,0 -1.09375,0.53125 -0.45312,0.51563 -0.45312,1.54688 z"
       id="path71"
       inkscape:connector-curvature="0"
       style="fill:#0b5394;fill-rule:nonzero" />
  </g>
  <path
     style="fill:#000000;fill-opacity:0;fill-rule:nonzero"
     inkscape:connector-curvature="0"
     id="path73"
     d="m 201.56299,61.56824 0,58.89764" />
  <path
     style="fill-rule:nonzero;stroke:#0b5394;stroke-width:0.99999994;stroke-linecap:butt;stroke-linejoin:round"
     inkscape:connector-curvature="0"
     id="path75"
     d="m 201.56298,61.068238 0,60.897642" />
</svg>
