<?xml version="1.0" encoding="UTF-8" standalone="no"?>
<svg
   xmlns:dc="http://purl.org/dc/elements/1.1/"
   xmlns:cc="http://creativecommons.org/ns#"
   xmlns:rdf="http://www.w3.org/1999/02/22-rdf-syntax-ns#"
   xmlns:svg="http://www.w3.org/2000/svg"
   xmlns="http://www.w3.org/2000/svg"
   xmlns:sodipodi="http://sodipodi.sourceforge.net/DTD/sodipodi-0.dtd"
   xmlns:inkscape="http://www.inkscape.org/namespaces/inkscape"
   version="1.1"
   viewBox="0 0 268.28382 404.35033"
   stroke-miterlimit="10"
   id="svg2"
   inkscape:version="0.91 r13725"
   sodipodi:docname="render-default-values.svg"
   width="214.62704pt"
   height="323.48026pt"
   style="fill:none;stroke:none;stroke-linecap:square;stroke-miterlimit:10">
  <metadata
     id="metadata103">
    <rdf:RDF>
      <cc:Work
         rdf:about="">
        <dc:format>image/svg+xml</dc:format>
        <dc:type
           rdf:resource="http://purl.org/dc/dcmitype/StillImage" />
        <dc:title></dc:title>
      </cc:Work>
    </rdf:RDF>
  </metadata>
  <defs
     id="defs101" />
  <sodipodi:namedview
     pagecolor="#ffffff"
     bordercolor="#666666"
     borderopacity="1"
     objecttolerance="10"
     gridtolerance="10"
     guidetolerance="10"
     inkscape:pageopacity="0"
     inkscape:pageshadow="2"
     inkscape:window-width="1680"
     inkscape:window-height="987"
     id="namedview99"
     showgrid="false"
     fit-margin-left="1.5"
     fit-margin-top="1.5"
     fit-margin-right="1.5"
     fit-margin-bottom="1.5"
     inkscape:zoom="2.7204611"
     inkscape:cx="186.34814"
     inkscape:cy="95.32828"
     inkscape:window-x="1272"
     inkscape:window-y="-8"
     inkscape:window-maximized="1"
     inkscape:current-layer="svg2"
     units="pt" />
  <clipPath
     id="p.0">
    <path
       d="M 0,0 259,0 259,347 0,347 0,0 Z"
       id="path5"
       inkscape:connector-curvature="0"
       style="clip-rule:nonzero" />
  </clipPath>
  <g
     id="g4316"
     transform="translate(-5.3993299,-72.1985)">
    <path
       d="m 49.506557,2 162.425193,0 0,27.023623 -162.425193,0 z"
       id="path11"
       inkscape:connector-curvature="0"
       style="fill:#ffffff;fill-rule:nonzero" />
    <path
       d="m 49.506557,2 162.425193,0 0,27.023623 -162.425193,0 z"
       id="path13"
       inkscape:connector-curvature="0"
       style="fill-rule:nonzero;stroke:#000000;stroke-width:1;stroke-linecap:butt;stroke-linejoin:round" />
    <path
       d="m 115.13091,16.704935 1.53125,-0.07813 q 0.0312,0.734375 0.26562,0.984375 0.34375,0.421875 1.29688,0.421875 0.79687,0 1.15625,-0.28125 0.35937,-0.28125 0.35937,-0.6875 0,-0.359375 -0.29687,-0.59375 -0.20313,-0.171875 -1.125,-0.5625 -0.90625,-0.40625 -1.32813,-0.671875 -0.42187,-0.265625 -0.67187,-0.6875 -0.23438,-0.4375 -0.23438,-1 0,-1 0.71875,-1.65625 0.71875,-0.65625 2.07813,-0.65625 1.39062,0 2.14062,0.65625 0.76563,0.65625 0.84375,1.734375 l -1.54687,0.0625 q -0.0625,-0.5625 -0.42188,-0.859375 -0.34375,-0.296875 -1.01562,-0.296875 -0.67188,0 -0.96875,0.234375 -0.28125,0.234375 -0.28125,0.59375 0,0.34375 0.26562,0.5625 0.26563,0.21875 1.15625,0.609375 1.35938,0.59375 1.73438,0.953125 0.54687,0.53125 0.54687,1.375 0,1.046875 -0.82812,1.796875 -0.8125,0.734375 -2.28125,0.734375 -1.01563,0 -1.76563,-0.34375 -0.73437,-0.34375 -1.04687,-0.953125 -0.3125,-0.609375 -0.28125,-1.390625 z m 6.84201,2.546875 1.65625,-7.875 2.6875,0 q 0.875,0 1.21875,0.04687 0.57812,0.09375 0.98437,0.34375 0.40625,0.234375 0.60938,0.640625 0.21875,0.390625 0.21875,0.875 0,0.65625 -0.375,1.140625 -0.35938,0.484375 -1.125,0.734375 0.60937,0.15625 0.95312,0.59375 0.34375,0.421875 0.34375,0.953125 0,0.71875 -0.40625,1.359375 -0.40625,0.625 -1.125,0.90625 -0.70312,0.28125 -1.92187,0.28125 l -3.71875,0 z m 2.60937,-4.6875 1.23438,0 q 0.82812,0 1.1875,-0.125 0.375,-0.125 0.54687,-0.390625 0.1875,-0.265625 0.1875,-0.578125 0,-0.296875 -0.17187,-0.484375 -0.17188,-0.203125 -0.48438,-0.265625 -0.1875,-0.03125 -0.85937,-0.03125 l -1.25,0 -0.39063,1.875 z m -0.71875,3.421875 1.5625,0 q 0.98438,0 1.3125,-0.125 0.34375,-0.125 0.54688,-0.40625 0.20312,-0.296875 0.20312,-0.625 0,-0.390625 -0.29687,-0.640625 -0.29688,-0.265625 -0.96875,-0.265625 l -1.9375,0 -0.42188,2.0625 z m 7.97685,-2.828125 -1.5,-0.125 q 0.26563,-0.765625 0.90625,-1.1875 0.64063,-0.4375 1.70313,-0.4375 1.09375,0 1.60937,0.453125 0.53125,0.4375 0.53125,1.078125 0,0.25 -0.0469,0.546875 -0.0312,0.296875 -0.3125,1.53125 -0.21875,1.015625 -0.21875,1.421875 0,0.359375 0.125,0.8125 l -1.5,0 q -0.0937,-0.3125 -0.10938,-0.640625 -0.34375,0.375 -0.78125,0.578125 -0.4375,0.203125 -0.89062,0.203125 -0.70313,0 -1.17188,-0.46875 -0.45312,-0.46875 -0.45312,-1.203125 0,-0.8125 0.5,-1.296875 0.51562,-0.484375 1.8125,-0.59375 1.10937,-0.09375 1.46875,-0.21875 0.10937,-0.328125 0.10937,-0.515625 0,-0.25 -0.20312,-0.40625 -0.20313,-0.171875 -0.59375,-0.171875 -0.40625,0 -0.65625,0.171875 -0.23438,0.15625 -0.32813,0.46875 z m 1.46875,1.4375 q -0.14062,0.03125 -0.35937,0.0625 -1.17188,0.140625 -1.51563,0.40625 -0.26562,0.203125 -0.26562,0.53125 0,0.265625 0.1875,0.453125 0.20312,0.1875 0.51562,0.1875 0.35938,0 0.65625,-0.171875 0.3125,-0.171875 0.46875,-0.4375 0.15625,-0.265625 0.28125,-0.828125 l 0.0312,-0.203125 z m 2.08275,1.0625 1.5,-0.234375 q 0.20313,0.46875 0.5,0.671875 0.29688,0.1875 0.79688,0.1875 0.53125,0 0.84375,-0.234375 0.21875,-0.15625 0.21875,-0.390625 0,-0.15625 -0.10938,-0.28125 -0.10937,-0.125 -0.64062,-0.296875 -1.39063,-0.453125 -1.73438,-0.71875 -0.51562,-0.421875 -0.51562,-1.09375 0,-0.6875 0.5,-1.171875 0.70312,-0.6875 2.09375,-0.6875 1.10937,0 1.67187,0.40625 0.5625,0.40625 0.70313,1.09375 l -1.42188,0.25 q -0.10937,-0.3125 -0.35937,-0.46875 -0.34375,-0.21875 -0.82813,-0.21875 -0.48437,0 -0.70312,0.171875 -0.20313,0.15625 -0.20313,0.359375 0,0.21875 0.21875,0.359375 0.125,0.09375 0.85938,0.296875 1.125,0.328125 1.51562,0.65625 0.53125,0.4375 0.53125,1.0625 0,0.8125 -0.6875,1.421875 -0.67187,0.59375 -1.92187,0.59375 -1.23438,0 -1.90625,-0.453125 -0.67188,-0.46875 -0.92188,-1.28125 z m 11.69212,-0.78125 -3.875,0 q 0,0.09375 0,0.140625 0,0.5625 0.3125,0.921875 0.32813,0.34375 0.79688,0.34375 0.76562,0 1.20312,-0.796875 l 1.375,0.234375 q -0.39062,0.828125 -1.07812,1.25 -0.67188,0.421875 -1.5,0.421875 -1.15625,0 -1.875,-0.734375 -0.71875,-0.734375 -0.71875,-1.921875 0,-1.171875 0.65625,-2.09375 0.875,-1.234375 2.51562,-1.234375 1.04688,0 1.67188,0.65625 0.625,0.640625 0.625,1.8125 0,0.5625 -0.10938,1 z m -1.3125,-0.9375 q 0.0156,-0.109375 0.0156,-0.15625 0,-0.640625 -0.29688,-0.953125 -0.28125,-0.3125 -0.75,-0.3125 -0.48437,0 -0.85937,0.359375 -0.375,0.359375 -0.51563,1.0625 l 2.40625,0 z"
       id="path15"
       inkscape:connector-curvature="0"
       style="fill:#000000;fill-rule:nonzero" />
  </g>
  <path
     style="fill-rule:nonzero;stroke:#0b5394;stroke-width:0.99999994;stroke-linecap:butt;stroke-linejoin:round"
     inkscape:connector-curvature="0"
     id="path19"
     d="m 2.3750002,2.3749848 263.5338398,0 0,399.6003352 -263.5338398,0 z" />
  <path
     style="fill-rule:nonzero;stroke:#0b5394;stroke-width:1;stroke-linecap:butt;stroke-linejoin:round"
     inkscape:connector-curvature="0"
     id="path31"
     d="m 2.3748736,-13.74837 263.5644464,0 0,16.1060958 -263.5644464,0 z" />
  <path
     style="fill:#000000;fill-opacity:0;fill-rule:nonzero"
     inkscape:connector-curvature="0"
     id="path67"
     d="m 125.46155,-13.796927 -0.28346,-17.763779" />
  <path
     style="fill-rule:nonzero;stroke:#0b5394;stroke-width:1;stroke-linecap:butt;stroke-linejoin:round"
     inkscape:connector-curvature="0"
     id="path69"
     d="m 125.46155,-13.796927 -0.28346,-17.763779" />
  <g
     id="g4321"
     transform="translate(-5.3993264,-72.1985)">
    <path
       d="m 124.65616,42.733795 6.06299,-12.629921 6.06299,12.629921 z"
       id="path71"
       inkscape:connector-curvature="0"
       style="fill:#ffffff;fill-rule:nonzero" />
    <path
       d="m 124.65616,42.733795 6.06299,-12.629921 6.06299,12.629921 z"
       id="path73"
       inkscape:connector-curvature="0"
       style="fill-rule:nonzero;stroke:#0b5394;stroke-width:1;stroke-linecap:butt;stroke-linejoin:round" />
  </g>
  <text
     xml:space="preserve"
     style="font-style:normal;font-variant:normal;font-weight:normal;font-stretch:normal;font-size:10px;line-height:125%;font-family:'Segoe UI';-inkscape-font-specification:'Segoe UI';letter-spacing:0px;word-spacing:0px;fill:#0b5394;fill-opacity:1;stroke:none;stroke-width:1px;stroke-linecap:butt;stroke-linejoin:miter;stroke-miterlimit:10;stroke-opacity:1"
     x="88.262871"
     y="-1.3411851"
     id="text4189-9-3"
     sodipodi:linespacing="125%"><tspan
       sodipodi:role="line"
       id="tspan4191-8-1"
       x="88.262871"
       y="-1.3411851"
       style="font-style:normal;font-variant:normal;font-weight:bold;font-stretch:normal;font-size:11.25px;line-height:125%;font-family:Arial;-inkscape-font-specification:'Arial, Bold';text-align:start;writing-mode:lr-tb;text-anchor:start;fill:#0b5394;fill-opacity:1">DefaultValues</tspan></text>
  <text
     xml:space="preserve"
     style="font-style:normal;font-variant:normal;font-weight:normal;font-stretch:normal;font-size:11.25000095px;line-height:125%;font-family:Arial;-inkscape-font-specification:'Arial, Normal';text-align:start;letter-spacing:0px;word-spacing:0px;writing-mode:lr-tb;text-anchor:start;fill:#0b5394;fill-opacity:1;stroke:none;stroke-width:1px;stroke-linecap:butt;stroke-linejoin:miter;stroke-opacity:1"
     x="11.180191"
     y="16.760263"
     id="text4283"
     sodipodi:linespacing="125%"><tspan
       sodipodi:role="line"
       id="tspan4175"
       x="11.180191"
       y="16.760263">backgroundColor: string {use=&quot;optional&quot;}</tspan><tspan
       sodipodi:role="line"
       id="tspan4177"
       x="11.180191"
       y="30.822763">spreadMethod: SpreadMethod {use=&quot;optional&quot;}</tspan><tspan
       sodipodi:role="line"
       id="tspan4179"
       x="11.180191"
       y="44.885262">linearGradient_x1: RelAbsVector {use=&quot;optional&quot;}</tspan><tspan
       sodipodi:role="line"
       id="tspan4181"
       x="11.180191"
       y="58.947769">linearGradient_y1: RelAbsVector {use=&quot;optional&quot;}</tspan><tspan
       sodipodi:role="line"
       id="tspan4183"
       x="11.180191"
       y="73.010269">linearGradient_z1: RelAbsVector {use=&quot;optional&quot;}</tspan><tspan
       sodipodi:role="line"
       id="tspan4185"
       x="11.180191"
       y="87.072769">linearGradient_x2: RelAbsVector {use=&quot;optional&quot;}</tspan><tspan
       sodipodi:role="line"
       id="tspan4187"
       x="11.180191"
       y="101.13527">linearGradient_y2: RelAbsVector {use=&quot;optional&quot;}</tspan><tspan
       sodipodi:role="line"
       id="tspan4189"
       x="11.180191"
       y="115.19777">linearGradient_z2: RelAbsVector {use=&quot;optional&quot;}</tspan><tspan
       sodipodi:role="line"
       id="tspan4191"
       x="11.180191"
       y="129.26027">radialGradient_cx: RelAbsVector {use=&quot;optional&quot;}</tspan><tspan
       sodipodi:role="line"
       id="tspan4193"
       x="11.180191"
       y="143.32277">radialGradient_cy: RelAbsVector {use=&quot;optional&quot;}</tspan><tspan
       sodipodi:role="line"
       id="tspan4195"
       x="11.180191"
       y="157.38527">radialGradient_cz: RelAbsVector {use=&quot;optional&quot;}</tspan><tspan
       sodipodi:role="line"
       id="tspan4197"
       x="11.180191"
       y="171.44777">radialGradient_r: RelAbsVector {use=&quot;optional&quot;}</tspan><tspan
       sodipodi:role="line"
       id="tspan4199"
       x="11.180191"
       y="185.51027">radialGradient_fx: RelAbsVector {use=&quot;optional&quot;}</tspan><tspan
       sodipodi:role="line"
       id="tspan4201"
       x="11.180191"
       y="199.57277">radialGradient_fy: RelAbsVector {use=&quot;optional&quot;}</tspan><tspan
       sodipodi:role="line"
       id="tspan4203"
       x="11.180191"
       y="213.63527">radialGradient_fz: RelAbsVector {use=&quot;optional&quot;}</tspan><tspan
       sodipodi:role="line"
       id="tspan4205"
       x="11.180191"
       y="227.69777">fill: string {use=&quot;optional&quot;}</tspan><tspan
       sodipodi:role="line"
       id="tspan4207"
       x="11.180191"
       y="241.76027">fill-rule: FillRule  {use=&quot;optional&quot;}</tspan><tspan
       sodipodi:role="line"
       id="tspan4209"
       x="11.180191"
       y="255.82277">default_z: RelAbsVector {use=&quot;optional&quot;}</tspan><tspan
       sodipodi:role="line"
       id="tspan4211"
       x="11.180191"
       y="269.88528">stroke: string {use=&quot;optional&quot;}</tspan><tspan
       sodipodi:role="line"
       id="tspan4213"
       x="11.180191"
       y="283.94778">stroke-width: double {use=&quot;optional&quot;}</tspan><tspan
       sodipodi:role="line"
       id="tspan4215"
       x="11.180191"
       y="298.01031">font-family: string {use=&quot;optional&quot;}</tspan><tspan
       sodipodi:role="line"
       id="tspan4217"
       x="11.180191"
       y="312.07281">font-size: RelAbsVector {use=&quot;optional&quot;}</tspan><tspan
       sodipodi:role="line"
       id="tspan4219"
       x="11.180191"
       y="326.13531">font-weight: FontWeight {use=&quot;optional&quot;}</tspan><tspan
       sodipodi:role="line"
       id="tspan4221"
       x="11.180191"
       y="340.19781">font-style: FontStyle {use=&quot;optional&quot;}</tspan><tspan
       sodipodi:role="line"
       id="tspan4223"
       x="11.180191"
       y="354.26031">text-anchor: HTextAnchor  {use=&quot;optional&quot;}</tspan><tspan
       sodipodi:role="line"
       id="tspan4225"
       x="11.180191"
       y="368.32281">vtext-anchor: VTextAnchor  {use=&quot;optional&quot;}</tspan><tspan
       sodipodi:role="line"
       id="tspan4227"
       x="11.180191"
       y="382.38531">startHead: SIdRef {use=&quot;optional&quot;}</tspan><tspan
       sodipodi:role="line"
       id="tspan4229"
       x="11.180191"
       y="396.44781">endHead: SIdRef {use=&quot;optional&quot;}</tspan></text>
</svg>
