<?xml version="1.0" standalone="yes"?>

<svg version="1.1" viewBox="0.0 0.0 477.0 258.0" fill="none" stroke="none" stroke-linecap="square" stroke-miterlimit="10" xmlns="http://www.w3.org/2000/svg" xmlns:xlink="http://www.w3.org/1999/xlink"><clipPath id="p.0"><path d="m0 0l477.0 0l0 258.0l-477.0 0l0 -258.0z" clip-rule="nonzero"></path></clipPath><g clip-path="url(#p.0)"><path fill="#000000" fill-opacity="0.0" d="m0 0l477.85828 0l0 258.58792l-477.85828 0z" fill-rule="nonzero"></path><path fill="#000000" fill-opacity="0.0" d="m19.874016 145.68242l92.125984 0" fill-rule="nonzero"></path><path stroke="#0b5394" stroke-width="1.0" stroke-linejoin="round" stroke-linecap="butt" d="m19.874016 145.68242l92.125984 0" fill-rule="nonzero"></path><path fill="#ffffff" d="m163.46194 8.490813l86.39371 0l0 27.02362l-86.39371 0z" fill-rule="nonzero"></path><path stroke="#000000" stroke-width="1.0" stroke-linejoin="round" stroke-linecap="butt" d="m163.46194 8.490813l86.39371 0l0 27.02362l-86.39371 0z" fill-rule="nonzero"></path><path fill="#000000" d="m191.07056 23.19575l1.53125 -0.078125q0.03125 0.734375 0.265625 0.984375q0.34375 0.421875 1.296875 0.421875q0.796875 0 1.15625 -0.28125q0.359375 -0.28125 0.359375 -0.6875q0 -0.359375 -0.296875 -0.59375q-0.203125 -0.171875 -1.125 -0.5625q-0.90625 -0.40625 -1.328125 -0.671875q-0.421875 -0.265625 -0.671875 -0.6875q-0.234375 -0.4375 -0.234375 -1.0q0 -1.0 0.71875 -1.65625q0.71875 -0.65625 2.078125 -0.65625q1.390625 0 2.140625 0.65625q0.765625 0.65625 0.84375 1.734375l-1.546875 0.0625q-0.0625 -0.5625 -0.421875 -0.859375q-0.34375 -0.296875 -1.015625 -0.296875q-0.671875 0 -0.96875 0.234375q-0.28125 0.234375 -0.28125 0.59375q0 0.34375 0.265625 0.5625q0.265625 0.21875 1.15625 0.609375q1.359375 0.59375 1.734375 0.953125q0.546875 0.53125 0.546875 1.375q0 1.046875 -0.828125 1.796875q-0.8125 0.734375 -2.28125 0.734375q-1.015625 0 -1.765625 -0.34375q-0.734375 -0.34375 -1.046875 -0.953125q-0.3125 -0.609375 -0.28125 -1.390625zm6.8420105 2.546875l1.65625 -7.875l2.6875 0q0.875 0 1.21875 0.046875q0.578125 0.09375 0.984375 0.34375q0.40625 0.234375 0.609375 0.640625q0.21875 0.390625 0.21875 0.875q0 0.65625 -0.375 1.140625q-0.359375 0.484375 -1.125 0.734375q0.609375 0.15625 0.953125 0.59375q0.34375 0.421875 0.34375 0.953125q0 0.71875 -0.40625 1.359375q-0.40625 0.625 -1.125 0.90625q-0.703125 0.28125 -1.921875 0.28125l-3.71875 0zm2.609375 -4.6875l1.234375 0q0.828125 0 1.1875 -0.125q0.375 -0.125 0.546875 -0.390625q0.1875 -0.265625 0.1875 -0.578125q0 -0.296875 -0.171875 -0.484375q-0.171875 -0.203125 -0.484375 -0.265625q-0.1875 -0.03125 -0.859375 -0.03125l-1.25 0l-0.390625 1.875zm-0.71875 3.421875l1.5625 0q0.984375 0 1.3125 -0.125q0.34375 -0.125 0.546875 -0.40625q0.203125 -0.296875 0.203125 -0.625q0 -0.390625 -0.296875 -0.640625q-0.296875 -0.265625 -0.96875 -0.265625l-1.9375 0l-0.421875 2.0625zm7.9768524 -2.828125l-1.5 -0.125q0.265625 -0.765625 0.90625 -1.1875q0.640625 -0.4375 1.703125 -0.4375q1.09375 0 1.609375 0.453125q0.53125 0.4375 0.53125 1.078125q0 0.25 -0.046875 0.546875q-0.03125 0.296875 -0.3125 1.53125q-0.21875 1.015625 -0.21875 1.421875q0 0.359375 0.125 0.8125l-1.5 0q-0.09375 -0.3125 -0.109375 -0.640625q-0.34375 0.375 -0.78125 0.578125q-0.4375 0.203125 -0.890625 0.203125q-0.703125 0 -1.171875 -0.46875q-0.453125 -0.46875 -0.453125 -1.203125q0 -0.8125 0.5 -1.296875q0.515625 -0.484375 1.8125 -0.59375q1.109375 -0.09375 1.46875 -0.21875q0.109375 -0.328125 0.109375 -0.515625q0 -0.25 -0.203125 -0.40625q-0.203125 -0.171875 -0.59375 -0.171875q-0.40625 0 -0.65625 0.171875q-0.234375 0.15625 -0.328125 0.46875zm1.46875 1.4375q-0.140625 0.03125 -0.359375 0.0625q-1.171875 0.140625 -1.515625 0.40625q-0.265625 0.203125 -0.265625 0.53125q0 0.265625 0.1875 0.453125q0.203125 0.1875 0.515625 0.1875q0.359375 0 0.65625 -0.171875q0.3125 -0.171875 0.46875 -0.4375q0.15625 -0.265625 0.28125 -0.828125l0.03125 -0.203125zm2.0827484 1.0625l1.5 -0.234375q0.203125 0.46875 0.5 0.671875q0.296875 0.1875 0.796875 0.1875q0.53125 0 0.84375 -0.234375q0.21875 -0.15625 0.21875 -0.390625q0 -0.15625 -0.109375 -0.28125q-0.109375 -0.125 -0.640625 -0.296875q-1.390625 -0.453125 -1.734375 -0.71875q-0.515625 -0.421875 -0.515625 -1.09375q0 -0.6875 0.5 -1.171875q0.703125 -0.6875 2.09375 -0.6875q1.109375 0 1.671875 0.40625q0.5625 0.40625 0.703125 1.09375l-1.421875 0.25q-0.109375 -0.3125 -0.359375 -0.46875q-0.34375 -0.21875 -0.828125 -0.21875q-0.484375 0 -0.703125 0.171875q-0.203125 0.15625 -0.203125 0.359375q0 0.21875 0.21875 0.359375q0.125 0.09375 0.859375 0.296875q1.125 0.328125 1.515625 0.65625q0.53125 0.4375 0.53125 1.0625q0 0.8125 -0.6875 1.421875q-0.671875 0.59375 -1.921875 0.59375q-1.234375 0 -1.90625 -0.453125q-0.671875 -0.46875 -0.921875 -1.28125zm11.692123 -0.78125l-3.875 0q0 0.09375 0 0.140625q0 0.5625 0.3125 0.921875q0.328125 0.34375 0.796875 0.34375q0.765625 0 1.203125 -0.796875l1.375 0.234375q-0.390625 0.828125 -1.078125 1.25q-0.671875 0.421875 -1.5 0.421875q-1.15625 0 -1.875 -0.734375q-0.71875 -0.734375 -0.71875 -1.921875q0 -1.171875 0.65625 -2.09375q0.875 -1.234375 2.515625 -1.234375q1.046875 0 1.671875 0.65625q0.625 0.640625 0.625 1.8125q0 0.5625 -0.109375 1.0zm-1.3125 -0.9375q0.015625 -0.109375 0.015625 -0.15625q0 -0.640625 -0.296875 -0.953125q-0.28125 -0.3125 -0.75 -0.3125q-0.484375 0 -0.859375 0.359375q-0.375 0.359375 -0.515625 1.0625l2.40625 0z" fill-rule="nonzero"></path><path fill="#ffffff" d="m200.5953 48.144356l6.0629883 -12.629921l6.0630035 12.629921z" fill-rule="nonzero"></path><path stroke="#0b5394" stroke-width="1.0" stroke-linejoin="round" stroke-linecap="butt" d="m200.5953 48.144356l6.0629883 -12.629921l6.0630035 12.629921z" fill-rule="nonzero"></path><path fill="#000000" fill-opacity="0.0" d="m19.89239 146.00262l0 -56.062996" fill-rule="nonzero"></path><path stroke="#0b5394" stroke-width="1.0" stroke-linejoin="round" stroke-linecap="butt" d="m19.89239 146.00262l0 -56.062996" fill-rule="nonzero"></path><path fill="#000000" fill-opacity="0.0" d="m-4.3018374 132.17061l102.20472 0l0 14.992126l-102.20472 0z" fill-rule="nonzero"></path><path fill="#0b5394" d="m22.619118 143.40666l0 -7.875l0.96875 0l0 7.875l-0.96875 0zm2.3987274 -6.765625l0 -1.109375l0.96875 0l0 1.109375l-0.96875 0zm0 6.765625l0 -5.703125l0.96875 0l0 5.703125l-0.96875 0zm2.3518524 0l0 -5.703125l0.875 0l0 0.8125q0.625 -0.9375 1.8125 -0.9375q0.515625 0 0.953125 0.1875q0.4375 0.171875 0.640625 0.484375q0.21875 0.296875 0.3125 0.703125q0.046875 0.28125 0.046875 0.953125l0 3.5l-0.96875 0l0 -3.46875q0 -0.59375 -0.109375 -0.875q-0.109375 -0.296875 -0.40625 -0.46875q-0.28125 -0.1875 -0.671875 -0.1875q-0.609375 0 -1.0625 0.390625q-0.453125 0.390625 -0.453125 1.5l0 3.109375l-0.96875 0zm9.832748 -1.84375l1.0 0.125q-0.234375 0.875 -0.875 1.359375q-0.640625 0.484375 -1.625 0.484375q-1.25 0 -1.984375 -0.765625q-0.734375 -0.765625 -0.734375 -2.15625q0 -1.453125 0.734375 -2.234375q0.75 -0.796875 1.921875 -0.796875q1.15625 0 1.875 0.78125q0.71875 0.765625 0.71875 2.1875q0 0.078125 0 0.25l-4.25 0q0.046875 0.9375 0.515625 1.4375q0.484375 0.5 1.203125 0.5q0.53125 0 0.90625 -0.265625q0.375 -0.28125 0.59375 -0.90625zm-3.171875 -1.5625l3.1875 0q-0.0625 -0.71875 -0.359375 -1.078125q-0.46875 -0.546875 -1.203125 -0.546875q-0.671875 0 -1.125 0.453125q-0.453125 0.4375 -0.5 1.171875zm5.3483734 3.40625l0 -7.875l5.6875 0l0 0.9375l-4.65625 0l0 2.40625l4.359375 0l0 0.921875l-4.359375 0l0 2.6875l4.84375 0l0 0.921875l-5.875 0zm6.9513855 0l0 -5.703125l0.875 0l0 0.8125q0.625 -0.9375 1.8125 -0.9375q0.515625 0 0.953125 0.1875q0.4375 0.171875 0.640625 0.484375q0.21875 0.296875 0.3125 0.703125q0.046875 0.28125 0.046875 0.953125l0 3.5l-0.96875 0l0 -3.46875q0 -0.59375 -0.109375 -0.875q-0.109375 -0.296875 -0.40625 -0.46875q-0.28125 -0.1875 -0.671875 -0.1875q-0.609375 0 -1.0625 0.390625q-0.453125 0.390625 -0.453125 1.5l0 3.109375l-0.96875 0zm9.629623 0l0 -0.71875q-0.53125 0.84375 -1.59375 0.84375q-0.671875 0 -1.25 -0.375q-0.578125 -0.375 -0.890625 -1.046875q-0.3125 -0.671875 -0.3125 -1.546875q0 -0.859375 0.28125 -1.546875q0.296875 -0.703125 0.859375 -1.0625q0.5625 -0.375 1.265625 -0.375q0.515625 0 0.921875 0.21875q0.40625 0.21875 0.65625 0.5625l0 -2.828125l0.96875 0l0 7.875l-0.90625 0zm-3.046875 -2.84375q0 1.09375 0.453125 1.640625q0.46875 0.53125 1.09375 0.53125q0.640625 0 1.078125 -0.515625q0.4375 -0.515625 0.4375 -1.578125q0 -1.171875 -0.453125 -1.71875q-0.4375 -0.546875 -1.109375 -0.546875q-0.640625 0 -1.078125 0.53125q-0.421875 0.515625 -0.421875 1.65625zm5.2858734 -3.921875l0 -1.109375l0.96875 0l0 1.109375l-0.96875 0zm0 6.765625l0 -5.703125l0.96875 0l0 5.703125l-0.96875 0zm2.3518562 0l0 -5.703125l0.875 0l0 0.8125q0.625 -0.9375 1.8125 -0.9375q0.515625 0 0.9531288 0.1875q0.4375 0.171875 0.640625 0.484375q0.21875 0.296875 0.3125 0.703125q0.046875 0.28125 0.046875 0.953125l0 3.5l-0.96875 0l0 -3.46875q0 -0.59375 -0.109375 -0.875q-0.109375 -0.296875 -0.4062538 -0.46875q-0.28125 -0.1875 -0.671875 -0.1875q-0.609375 0 -1.0625 0.390625q-0.453125 0.390625 -0.453125 1.5l0 3.109375l-0.96875 0zm5.754627 0.46875l0.9375 0.140625q0.0625 0.4375 0.328125 0.640625q0.359375 0.265625 0.984375 0.265625q0.671875 0 1.03125 -0.265625q0.375 -0.265625 0.5 -0.75q0.078125 -0.296875 0.078125 -1.25q-0.640625 0.75 -1.59375 0.75q-1.171875 0 -1.8125 -0.84375q-0.640625 -0.859375 -0.640625 -2.046875q0 -0.8125 0.296875 -1.5q0.296875 -0.6875 0.84375 -1.0625q0.5625 -0.375 1.328125 -0.375q1.0 0 1.65625 0.8125l0 -0.6875l0.890625 0l0 4.921875q0 1.34375 -0.265625 1.890625q-0.265625 0.5625 -0.859375 0.875q-0.59375 0.328125 -1.453125 0.328125q-1.015625 0 -1.640625 -0.46875q-0.625 -0.453125 -0.609375 -1.375zm0.796875 -3.421875q0 1.125 0.4375 1.640625q0.453125 0.515625 1.125 0.515625q0.671875 0 1.125 -0.515625q0.453125 -0.515625 0.453125 -1.609375q0 -1.046875 -0.46875 -1.578125q-0.46875 -0.53125 -1.125 -0.53125q-0.640625 0 -1.09375 0.53125q-0.453125 0.515625 -0.453125 1.546875z" fill-rule="nonzero"></path><path fill="#0b5394" d="m15.120735 115.36614l4.771654 -5.0551224l4.771652 5.0551224l-4.771652 5.0551147z" fill-rule="nonzero"></path><path stroke="#0b5394" stroke-width="2.0" stroke-linejoin="round" stroke-linecap="butt" d="m15.120735 115.36614l4.771654 -5.0551224l4.771652 5.0551224l-4.771652 5.0551147z" fill-rule="nonzero"></path><path fill="#ffffff" d="m5.0656166 81.83202l151.74803 0l0 27.02362l-151.74803 0z" fill-rule="nonzero"></path><path stroke="#0b5394" stroke-width="1.0" stroke-linejoin="round" stroke-linecap="butt" d="m5.0656166 81.83202l151.74803 0l0 27.02362l-151.74803 0z" fill-rule="nonzero"></path><path fill="#0b5394" d="m34.423428 99.08383l0 -7.8125l1.59375 0l0 6.484375l3.953125 0l0 1.328125l-5.546875 0zm6.462387 -6.484375l0 -1.390625l1.5 0l0 1.390625l-1.5 0zm0 6.484375l0 -5.703125l1.5 0l0 5.703125l-1.5 0zm2.4293976 -1.625l1.5 -0.234375q0.109375 0.4375 0.390625 0.671875q0.296875 0.21875 0.828125 0.21875q0.59375 0 0.890625 -0.203125q0.203125 -0.15625 0.203125 -0.40625q0 -0.171875 -0.109375 -0.28125q-0.125 -0.109375 -0.515625 -0.203125q-1.8125 -0.40625 -2.3125 -0.734375q-0.671875 -0.46875 -0.671875 -1.28125q0 -0.75 0.578125 -1.25q0.59375 -0.5 1.828125 -0.5q1.171875 0 1.734375 0.375q0.5625 0.375 0.78125 1.125l-1.421875 0.265625q-0.09375 -0.328125 -0.34375 -0.5q-0.25 -0.1875 -0.734375 -0.1875q-0.59375 0 -0.84375 0.171875q-0.171875 0.109375 -0.171875 0.296875q0 0.171875 0.140625 0.28125q0.203125 0.15625 1.40625 0.4375q1.21875 0.265625 1.6875 0.65625q0.484375 0.40625 0.484375 1.125q0 0.78125 -0.65625 1.34375q-0.65625 0.5625 -1.953125 0.5625q-1.15625 0 -1.84375 -0.46875q-0.671875 -0.46875 -0.875 -1.28125zm9.067123 -4.078125l0 1.203125l-1.03125 0l0 2.296875q0 0.703125 0.03125 0.828125q0.03125 0.109375 0.125 0.1875q0.109375 0.0625 0.265625 0.0625q0.203125 0 0.609375 -0.140625l0.125 1.171875q-0.53125 0.21875 -1.1875 0.21875q-0.421875 0 -0.75 -0.125q-0.328125 -0.140625 -0.484375 -0.359375q-0.140625 -0.21875 -0.203125 -0.59375q-0.046875 -0.265625 -0.046875 -1.0625l0 -2.484375l-0.6875 0l0 -1.203125l0.6875 0l0 -1.140625l1.515625 -0.875l0 2.015625l1.03125 0zm0.6267395 1.8125q0 -1.203125 0.359375 -2.015625q0.265625 -0.609375 0.71875 -1.078125q0.46875 -0.484375 1.03125 -0.71875q0.734375 -0.3125 1.6875 -0.3125q1.75 0 2.78125 1.09375q1.046875 1.078125 1.046875 3.0q0 1.90625 -1.03125 2.984375q-1.03125 1.078125 -2.765625 1.078125q-1.765625 0 -2.796875 -1.078125q-1.03125 -1.078125 -1.03125 -2.953125zm1.625 -0.046875q0 1.328125 0.625 2.03125q0.625 0.6875 1.5625 0.6875q0.953125 0 1.5625 -0.6875q0.609375 -0.6875 0.609375 -2.0625q0 -1.34375 -0.59375 -2.015625q-0.59375 -0.671875 -1.578125 -0.671875q-0.984375 0 -1.59375 0.6875q-0.59375 0.671875 -0.59375 2.03125zm6.3043976 -1.765625l0.84375 0l0 -0.4375q0 -0.71875 0.140625 -1.0625q0.15625 -0.359375 0.5625 -0.578125q0.421875 -0.234375 1.046875 -0.234375q0.6562538 0 1.2656288 0.203125l-0.203125 1.046875q-0.359375 -0.078125 -0.6875038 -0.078125q-0.328125 0 -0.484375 0.15625q-0.140625 0.140625 -0.140625 0.578125l0 0.40625l1.1406288 0l0 1.1875l-1.1406288 0l0 4.515625l-1.5 0l0 -4.515625l-0.84375 0l0 -1.1875zm4.2673683 5.703125l0 -7.8125l1.59375 0l0 6.484375l3.953125 0l0 1.328125l-5.546875 0zm6.462387 -6.484375l0 -1.390625l1.5 0l0 1.390625l-1.5 0zm0 6.484375l0 -5.703125l1.5 0l0 5.703125l-1.5 0zm8.148148 0l-1.515625 0l0 -2.90625q0 -0.921875 -0.09375 -1.1875q-0.09375 -0.28125 -0.3125 -0.421875q-0.21875 -0.15625 -0.53125 -0.15625q-0.390625 0 -0.703125 0.21875q-0.3125 0.203125 -0.4375 0.5625q-0.109375 0.34375 -0.109375 1.3125l0 2.578125l-1.5 0l0 -5.703125l1.40625 0l0 0.84375q0.734375 -0.96875 1.875 -0.96875q0.5 0 0.90625 0.1875q0.421875 0.171875 0.625 0.453125q0.21875 0.265625 0.296875 0.625q0.09375 0.359375 0.09375 1.015625l0 3.546875zm4.618637 -1.8125l1.5 0.25q-0.28125 0.828125 -0.90625 1.265625q-0.625 0.421875 -1.578125 0.421875q-1.484375 0 -2.203125 -0.96875q-0.5625 -0.78125 -0.5625 -1.96875q0 -1.421875 0.734375 -2.21875q0.75 -0.796875 1.890625 -0.796875q1.265625 0 2.0 0.84375q0.734375 0.828125 0.703125 2.5625l-3.78125 0q0.015625 0.671875 0.359375 1.046875q0.359375 0.375 0.875 0.375q0.359375 0 0.59375 -0.1875q0.25 -0.203125 0.375 -0.625zm0.078125 -1.53125q-0.015625 -0.65625 -0.34375 -0.984375q-0.3125 -0.34375 -0.765625 -0.34375q-0.5 0 -0.828125 0.359375q-0.3125 0.359375 -0.3125 0.96875l2.25 0zm2.5514984 3.34375l0 -7.875l5.84375 0l0 1.328125l-4.25 0l0 1.75l3.953125 0l0 1.328125l-3.953125 0l0 2.140625l4.40625 0l0 1.328125l-6.0 0zm12.2951355 0l-1.515625 0l0 -2.90625q0 -0.921875 -0.09375 -1.1875q-0.09375 -0.28125 -0.3125 -0.421875q-0.21875 -0.15625 -0.53125 -0.15625q-0.390625 0 -0.703125 0.21875q-0.3125 0.203125 -0.4375 0.5625q-0.109375 0.34375 -0.109375 1.3125l0 2.578125l-1.5 0l0 -5.703125l1.40625 0l0 0.84375q0.734375 -0.96875 1.875 -0.96875q0.5 0 0.90625 0.1875q0.421875 0.171875 0.625 0.453125q0.21875 0.265625 0.296875 0.625q0.09375 0.359375 0.09375 1.015625l0 3.546875zm6.540512 0l-1.390625 0l0 -0.84375q-0.359375 0.5 -0.84375 0.734375q-0.46875 0.234375 -0.9375 0.234375q-0.984375 0 -1.6875 -0.78125q-0.703125 -0.796875 -0.703125 -2.21875q0 -1.453125 0.671875 -2.203125q0.6875 -0.75 1.734375 -0.75q0.953125 0 1.65625 0.796875l0 -2.84375l1.5 0l0 7.875zm-4.015625 -2.96875q0 0.90625 0.25 1.3125q0.359375 0.59375 1.015625 0.59375q0.515625 0 0.875 -0.4375q0.375 -0.453125 0.375 -1.328125q0 -0.984375 -0.359375 -1.40625q-0.34375 -0.4375 -0.90625 -0.4375q-0.53125 0 -0.890625 0.421875q-0.359375 0.421875 -0.359375 1.28125zm5.306137 -3.515625l0 -1.390625l1.5 0l0 1.390625l-1.5 0zm0 6.484375l0 -5.703125l1.5 0l0 5.703125l-1.5 0zm8.148148 0l-1.515625 0l0 -2.90625q0 -0.921875 -0.09375 -1.1875q-0.09375 -0.28125 -0.3125 -0.421875q-0.21875 -0.15625 -0.53125 -0.15625q-0.390625 0 -0.703125 0.21875q-0.3125 0.203125 -0.4375 0.5625q-0.109375 0.34375 -0.109375 1.3125l0 2.578125l-1.5 0l0 -5.703125l1.40625 0l0 0.84375q0.734375 -0.96875 1.875 -0.96875q0.5 0 0.90625 0.1875q0.421875 0.171875 0.625 0.453125q0.21875 0.265625 0.296875 0.625q0.09375 0.359375 0.09375 1.015625l0 3.546875zm1.1811371 0.375l1.71875 0.203125q0.046875 0.3125 0.203125 0.421875q0.203125 0.15625 0.671875 0.15625q0.59375 0 0.890625 -0.171875q0.1875 -0.125 0.296875 -0.375q0.0625 -0.203125 0.0625 -0.703125l0 -0.828125q-0.671875 0.921875 -1.703125 0.921875q-1.140625 0 -1.8125 -0.96875q-0.53125 -0.765625 -0.53125 -1.921875q0 -1.421875 0.6875 -2.171875q0.6875 -0.765625 1.71875 -0.765625q1.0625 0 1.75 0.921875l0 -0.796875l1.40625 0l0 5.125q0 1.0 -0.171875 1.5q-0.15625 0.5 -0.46875 0.78125q-0.296875 0.296875 -0.796875 0.453125q-0.5 0.15625 -1.265625 0.15625q-1.453125 0 -2.0625 -0.5q-0.609375 -0.484375 -0.609375 -1.25q0 -0.078125 0.015625 -0.1875zm1.34375 -3.34375q0 0.90625 0.34375 1.328125q0.359375 0.421875 0.875 0.421875q0.546875 0 0.921875 -0.421875q0.390625 -0.4375 0.390625 -1.296875q0 -0.875 -0.375 -1.296875q-0.359375 -0.4375 -0.90625 -0.4375q-0.546875 0 -0.90625 0.421875q-0.34375 0.421875 -0.34375 1.28125zm4.774887 1.34375l1.5 -0.234375q0.109375 0.4375 0.390625 0.671875q0.296875 0.21875 0.828125 0.21875q0.59375 0 0.890625 -0.203125q0.203125 -0.15625 0.203125 -0.40625q0 -0.171875 -0.109375 -0.28125q-0.125 -0.109375 -0.515625 -0.203125q-1.8125 -0.40625 -2.3125 -0.734375q-0.671875 -0.46875 -0.671875 -1.28125q0 -0.75 0.578125 -1.25q0.59375 -0.5 1.828125 -0.5q1.171875 0 1.734375 0.375q0.5625 0.375 0.78125 1.125l-1.421875 0.265625q-0.09375 -0.328125 -0.34375 -0.5q-0.25 -0.1875 -0.734375 -0.1875q-0.59375 0 -0.84375 0.171875q-0.171875 0.109375 -0.171875 0.296875q0 0.171875 0.140625 0.28125q0.203125 0.15625 1.40625 0.4375q1.21875 0.265625 1.6875 0.65625q0.484375 0.40625 0.484375 1.125q0 0.78125 -0.65625 1.34375q-0.65625 0.5625 -1.953125 0.5625q-1.15625 0 -1.84375 -0.46875q-0.671875 -0.46875 -0.875 -1.28125z" fill-rule="nonzero"></path><path fill="#000000" fill-opacity="0.0" d="m85.46637 132.17032l36.0 0l0 14.992126l-36.0 0z" fill-rule="nonzero"></path><path fill="#0b5394" d="m99.56273 143.40637l-0.96875 0l0 -6.15625q-0.34375 0.328125 -0.90625 0.671875q-0.5625 0.328125 -1.015625 0.484375l0 -0.9375q0.8125 -0.375 1.40625 -0.90625q0.609375 -0.546875 0.859375 -1.0625l0.625 0l0 7.90625zm2.8327484 0l0 -1.09375l1.09375 0l0 1.09375l-1.09375 0zm2.9606476 0l0 -1.09375l1.09375 0l0 1.09375l-1.09375 0zm2.3043976 -6.421875l0.25 -0.765625q0.84375 0.296875 1.234375 0.515625q-0.09375 -0.96875 -0.109375 -1.34375l0.78125 0q-0.015625 0.53125 -0.125 1.34375q0.5625 -0.28125 1.265625 -0.515625l0.25 0.765625q-0.671875 0.21875 -1.328125 0.296875q0.328125 0.28125 0.921875 1.015625l-0.640625 0.453125q-0.3125 -0.421875 -0.75 -1.15625q-0.390625 0.765625 -0.6875 1.15625l-0.640625 -0.453125q0.625 -0.765625 0.890625 -1.015625q-0.6875 -0.140625 -1.3125 -0.296875z" fill-rule="nonzero"></path><path fill="#000000" fill-opacity="0.0" d="m206.6608 48.43307l0 12.346458" fill-rule="nonzero"></path><path stroke="#0b5394" stroke-width="1.0" stroke-linejoin="round" stroke-linecap="butt" d="m206.6608 48.43307l0 12.346458" fill-rule="nonzero"></path><path fill="#000000" fill-opacity="0.0" d="m86.58268 60.7979l0 21.952755" fill-rule="nonzero"></path><path stroke="#0b5394" stroke-width="1.0" stroke-linejoin="round" stroke-linecap="butt" d="m86.58268 60.7979l0 21.952755" fill-rule="nonzero"></path><path fill="#000000" fill-opacity="0.0" d="m86.83727 61.06824l138.55118 0" fill-rule="nonzero"></path><path stroke="#0b5394" stroke-width="1.0" stroke-miterlimit="8.0" d="m86.83727 61.06824l138.55118 0" fill-rule="nonzero"></path><path fill="#ffffff" d="m111.990425 120.1706l248.09763 0l0 27.023628l-248.09763 0z" fill-rule="nonzero"></path><path stroke="#0b5394" stroke-width="1.0" stroke-linejoin="round" stroke-linecap="butt" d="m111.990425 120.1706l248.09763 0l0 27.023628l-248.09763 0z" fill-rule="nonzero"></path><path fill="#0b5394" d="m207.87747 137.42241l0 -7.8125l1.59375 0l0 6.484375l3.953125 0l0 1.328125l-5.546875 0zm6.462387 -6.484375l0 -1.390625l1.5 0l0 1.390625l-1.5 0zm0 6.484375l0 -5.703125l1.5 0l0 5.703125l-1.5 0zm8.148148 0l-1.515625 0l0 -2.90625q0 -0.921875 -0.09375 -1.1875q-0.09375 -0.28125 -0.3125 -0.421875q-0.21875 -0.15625 -0.53125 -0.15625q-0.390625 0 -0.703125 0.21875q-0.3125 0.203125 -0.4375 0.5625q-0.109375 0.34375 -0.109375 1.3125l0 2.578125l-1.5 0l0 -5.703125l1.40625 0l0 0.84375q0.734375 -0.96875 1.875 -0.96875q0.5 0 0.90625 0.1875q0.421875 0.171875 0.625 0.453125q0.21875 0.265625 0.296875 0.625q0.09375 0.359375 0.09375 1.015625l0 3.546875zm4.618637 -1.8125l1.5 0.25q-0.28125 0.828125 -0.90625 1.265625q-0.625 0.421875 -1.578125 0.421875q-1.484375 0 -2.203125 -0.96875q-0.5625 -0.78125 -0.5625 -1.96875q0 -1.421875 0.734375 -2.21875q0.75 -0.796875 1.890625 -0.796875q1.265625 0 2.0 0.84375q0.734375 0.828125 0.703125 2.5625l-3.78125 0q0.015625 0.671875 0.359375 1.046875q0.359375 0.375 0.875 0.375q0.359375 0 0.59375 -0.1875q0.25 -0.203125 0.375 -0.625zm0.078125 -1.53125q-0.015625 -0.65625 -0.34375 -0.984375q-0.3125 -0.34375 -0.765625 -0.34375q-0.5 0 -0.828125 0.359375q-0.3125 0.359375 -0.3125 0.96875l2.25 0zm2.5514984 3.34375l0 -7.875l5.84375 0l0 1.328125l-4.25 0l0 1.75l3.953125 0l0 1.328125l-3.953125 0l0 2.140625l4.40625 0l0 1.328125l-6.0 0zm12.2951355 0l-1.515625 0l0 -2.90625q0 -0.921875 -0.09375 -1.1875q-0.09375 -0.28125 -0.3125 -0.421875q-0.21875 -0.15625 -0.53125 -0.15625q-0.390625 0 -0.703125 0.21875q-0.3125 0.203125 -0.4375 0.5625q-0.109375 0.34375 -0.109375 1.3125l0 2.578125l-1.5 0l0 -5.703125l1.40625 0l0 0.84375q0.734375 -0.96875 1.875 -0.96875q0.5 0 0.90625 0.1875q0.421875 0.171875 0.625 0.453125q0.21875 0.265625 0.296875 0.625q0.09375 0.359375 0.09375 1.015625l0 3.546875zm6.540512 0l-1.390625 0l0 -0.84375q-0.359375 0.5 -0.84375 0.734375q-0.46875 0.234375 -0.9375 0.234375q-0.984375 0 -1.6875 -0.78125q-0.703125 -0.796875 -0.703125 -2.21875q0 -1.453125 0.671875 -2.203125q0.6875 -0.75 1.734375 -0.75q0.953125 0 1.65625 0.796875l0 -2.84375l1.5 0l0 7.875zm-4.015625 -2.96875q0 0.90625 0.25 1.3125q0.359375 0.59375 1.015625 0.59375q0.515625 0 0.875 -0.4375q0.375 -0.453125 0.375 -1.328125q0 -0.984375 -0.359375 -1.40625q-0.34375 -0.4375 -0.90625 -0.4375q-0.53125 0 -0.890625 0.421875q-0.359375 0.421875 -0.359375 1.28125zm5.306137 -3.515625l0 -1.390625l1.5 0l0 1.390625l-1.5 0zm0 6.484375l0 -5.703125l1.5 0l0 5.703125l-1.5 0zm8.148163 0l-1.515625 0l0 -2.90625q0 -0.921875 -0.09375 -1.1875q-0.09375 -0.28125 -0.3125 -0.421875q-0.21876526 -0.15625 -0.53126526 -0.15625q-0.390625 0 -0.703125 0.21875q-0.3125 0.203125 -0.4375 0.5625q-0.109375 0.34375 -0.109375 1.3125l0 2.578125l-1.5 0l0 -5.703125l1.40625 0l0 0.84375q0.734375 -0.96875 1.8750153 -0.96875q0.5 0 0.90625 0.1875q0.421875 0.171875 0.625 0.453125q0.21875 0.265625 0.296875 0.625q0.09375 0.359375 0.09375 1.015625l0 3.546875zm1.1811218 0.375l1.71875 0.203125q0.046875 0.3125 0.203125 0.421875q0.203125 0.15625 0.671875 0.15625q0.59375 0 0.890625 -0.171875q0.1875 -0.125 0.296875 -0.375q0.0625 -0.203125 0.0625 -0.703125l0 -0.828125q-0.671875 0.921875 -1.703125 0.921875q-1.140625 0 -1.8125 -0.96875q-0.53125 -0.765625 -0.53125 -1.921875q0 -1.421875 0.6875 -2.171875q0.6875 -0.765625 1.71875 -0.765625q1.0625 0 1.75 0.921875l0 -0.796875l1.40625 0l0 5.125q0 1.0 -0.171875 1.5q-0.15625 0.5 -0.46875 0.78125q-0.296875 0.296875 -0.796875 0.453125q-0.5 0.15625 -1.265625 0.15625q-1.453125 0 -2.0625 -0.5q-0.609375 -0.484375 -0.609375 -1.25q0 -0.078125 0.015625 -0.1875zm1.34375 -3.34375q0 0.90625 0.34375 1.328125q0.359375 0.421875 0.875 0.421875q0.546875 0 0.921875 -0.421875q0.390625 -0.4375 0.390625 -1.296875q0 -0.875 -0.375 -1.296875q-0.359375 -0.4375 -0.90625 -0.4375q-0.546875 0 -0.90625 0.421875q-0.34375 0.421875 -0.34375 1.28125z" fill-rule="nonzero"></path><path fill="#ffffff" d="m111.990425 144.17061l248.09763 0l0 27.02362l-248.09763 0z" fill-rule="nonzero"></path><path stroke="#0b5394" stroke-width="1.0" stroke-linejoin="round" stroke-linecap="butt" d="m111.990425 144.17061l248.09763 0l0 27.02362l-248.09763 0z" fill-rule="nonzero"></path><path fill="#0b5394" d="m121.7248 148.15678l0 -1.109375l0.96875 0l0 1.109375l-0.96875 0zm0 6.765625l0 -5.703125l0.96875 0l0 5.703125l-0.96875 0zm6.0549774 0l0 -0.71875q-0.53125 0.84375 -1.59375 0.84375q-0.671875 0 -1.25 -0.375q-0.578125 -0.375 -0.890625 -1.046875q-0.3125 -0.671875 -0.3125 -1.546875q0 -0.859375 0.28125 -1.546875q0.296875 -0.703125 0.859375 -1.0625q0.5625 -0.375 1.265625 -0.375q0.515625 0 0.921875 0.21875q0.40625 0.21875 0.65625 0.5625l0 -2.828125l0.9687424 0l0 7.875l-0.9062424 0zm-3.046875 -2.84375q0 1.09375 0.453125 1.640625q0.46875 0.53125 1.09375 0.53125q0.640625 0 1.078125 -0.515625q0.4375 -0.515625 0.4375 -1.578125q0 -1.171875 -0.453125 -1.71875q-0.4375 -0.546875 -1.109375 -0.546875q-0.640625 0 -1.078125 0.53125q-0.421875 0.515625 -0.421875 1.65625zm5.551491 -1.765625l0 -1.09375l1.09375 0l0 1.09375l-1.09375 0zm0 4.609375l0 -1.09375l1.09375 0l0 1.09375l-1.09375 0zm5.421295 -2.53125l0.984375 -0.078125q0.0625 0.578125 0.3125 0.96875q0.265625 0.375 0.796875 0.609375q0.53125 0.234375 1.203125 0.234375q0.609375 0 1.0625 -0.171875q0.453125 -0.1875 0.671875 -0.484375q0.234375 -0.3125 0.234375 -0.6875q0 -0.375 -0.21875 -0.640625q-0.21875 -0.28125 -0.71875 -0.46875q-0.3125 -0.125 -1.40625 -0.375q-1.078125 -0.265625 -1.515625 -0.5q-0.5625 -0.296875 -0.84375 -0.734375q-0.265625 -0.4375 -0.265625 -0.984375q0 -0.59375 0.328125 -1.109375q0.34375 -0.515625 0.984375 -0.78125q0.65625 -0.28125 1.453125 -0.28125q0.875 0 1.546875 0.296875q0.671875 0.28125 1.03125 0.828125q0.359375 0.546875 0.390625 1.234375l-1.0 0.078125q-0.078125 -0.75 -0.546875 -1.125q-0.46875 -0.390625 -1.375 -0.390625q-0.9375 0 -1.375 0.359375q-0.4375 0.34375 -0.4375 0.828125q0 0.421875 0.3125 0.703125q0.296875 0.265625 1.5625 0.5625q1.28125 0.28125 1.75 0.5q0.6875 0.3125 1.015625 0.796875q0.328125 0.484375 0.328125 1.125q0 0.625 -0.359375 1.1875q-0.359375 0.546875 -1.046875 0.859375q-0.671875 0.3125 -1.515625 0.3125q-1.0625 0 -1.78125 -0.3125q-0.71875 -0.3125 -1.140625 -0.9375q-0.40625 -0.625 -0.421875 -1.421875zm7.6388855 2.53125l0 -7.875l1.03125 0l0 7.875l-1.03125 0zm6.3512726 0l0 -0.71875q-0.53125 0.84375 -1.59375 0.84375q-0.671875 0 -1.25 -0.375q-0.578125 -0.375 -0.890625 -1.046875q-0.3125 -0.671875 -0.3125 -1.546875q0 -0.859375 0.28125 -1.546875q0.296875 -0.703125 0.859375 -1.0625q0.5625 -0.375 1.265625 -0.375q0.515625 0 0.921875 0.21875q0.40625 0.21875 0.65625 0.5625l0 -2.828125l0.96875 0l0 7.875l-0.90625 0zm-3.046875 -2.84375q0 1.09375 0.453125 1.640625q0.46875 0.53125 1.09375 0.53125q0.640625 0 1.078125 -0.515625q0.4375 -0.515625 0.4375 -1.578125q0 -1.171875 -0.453125 -1.71875q-0.4375 -0.546875 -1.109375 -0.546875q-0.640625 0 -1.078125 0.53125q-0.421875 0.515625 -0.421875 1.65625z" fill-rule="nonzero"></path><path fill="#0b5394" d="m125.615425 166.07866l1.0 0.125q-0.234375 0.875 -0.875 1.359375q-0.640625 0.484375 -1.625 0.484375q-1.25 0 -1.984375 -0.765625q-0.734375 -0.765625 -0.734375 -2.15625q0 -1.453125 0.734375 -2.234375q0.75 -0.796875 1.921875 -0.796875q1.15625 0 1.875 0.78125q0.71875 0.765625 0.71875 2.1875q0 0.078125 0 0.25l-4.25 0q0.046875 0.9375 0.515625 1.4375q0.484375 0.5 1.203125 0.5q0.53125 0 0.90625 -0.265625q0.375 -0.28125 0.59375 -0.90625zm-3.171875 -1.5625l3.1875 0q-0.0625 -0.71875 -0.359375 -1.078125q-0.46875 -0.546875 -1.203125 -0.546875q-0.671875 0 -1.125 0.453125q-0.453125 0.4375 -0.5 1.171875zm5.1921234 3.40625l0 -5.703125l0.8749924 0l0 0.8125q0.625 -0.9375 1.8125 -0.9375q0.515625 0 0.953125 0.1875q0.4375 0.171875 0.640625 0.484375q0.21875 0.296875 0.3125 0.703125q0.046875 0.28125 0.046875 0.953125l0 3.5l-0.96875 0l0 -3.46875q0 -0.59375 -0.109375 -0.875q-0.109375 -0.296875 -0.40625 -0.46875q-0.28125 -0.1875 -0.671875 -0.1875q-0.609375 0 -1.0625 0.390625q-0.453125 0.390625 -0.453125 1.5l0 3.109375l-0.9687424 0zm9.660866 -0.703125q-0.546875 0.453125 -1.046875 0.640625q-0.484375 0.1875 -1.0625 0.1875q-0.9375 0 -1.453125 -0.453125q-0.5 -0.46875 -0.5 -1.171875q0 -0.421875 0.1875 -0.765625q0.203125 -0.34375 0.5 -0.546875q0.3125 -0.21875 0.703125 -0.328125q0.28125 -0.078125 0.859375 -0.140625q1.171875 -0.140625 1.71875 -0.34375q0.015625 -0.1875 0.015625 -0.25q0 -0.59375 -0.28125 -0.828125q-0.359375 -0.328125 -1.09375 -0.328125q-0.6875 0 -1.015625 0.234375q-0.3125 0.234375 -0.46875 0.84375l-0.953125 -0.125q0.125 -0.609375 0.421875 -0.984375q0.296875 -0.375 0.859375 -0.5625q0.5625 -0.203125 1.296875 -0.203125q0.734375 0 1.1875 0.171875q0.453125 0.171875 0.65625 0.4375q0.21875 0.25 0.3125 0.640625q0.046875 0.25 0.046875 0.90625l0 1.28125q0 1.34375 0.0625 1.703125q0.0625 0.359375 0.25 0.6875l-1.015625 0q-0.15625 -0.296875 -0.1875 -0.703125zm-0.09375 -2.15625q-0.515625 0.21875 -1.578125 0.359375q-0.59375 0.09375 -0.84375 0.203125q-0.234375 0.09375 -0.375 0.3125q-0.140625 0.203125 -0.140625 0.453125q0 0.390625 0.296875 0.65625q0.296875 0.25 0.859375 0.25q0.5625 0 0.984375 -0.25q0.4375 -0.25 0.65625 -0.671875q0.140625 -0.328125 0.140625 -0.96875l0 -0.34375zm3.1764984 2.859375l-0.890625 0l0 -7.875l0.96875 0l0 2.8125q0.609375 -0.765625 1.5625 -0.765625q0.53125 0 1.0 0.21875q0.46875 0.203125 0.765625 0.59375q0.3125 0.375 0.484375 0.921875q0.171875 0.53125 0.171875 1.15625q0 1.46875 -0.734375 2.265625q-0.71875 0.796875 -1.734375 0.796875q-1.015625 0 -1.59375 -0.84375l0 0.71875zm0 -2.890625q0 1.015625 0.28125 1.484375q0.453125 0.734375 1.234375 0.734375q0.625 0 1.078125 -0.546875q0.46875 -0.546875 0.46875 -1.640625q0 -1.109375 -0.4375 -1.640625q-0.4375 -0.53125 -1.078125 -0.53125q-0.625 0 -1.09375 0.546875q-0.453125 0.546875 -0.453125 1.59375zm5.0202484 2.890625l0 -7.875l0.96875 0l0 7.875l-0.96875 0zm6.2893524 -1.84375l1.0 0.125q-0.234375 0.875 -0.875 1.359375q-0.640625 0.484375 -1.625 0.484375q-1.25 0 -1.984375 -0.765625q-0.734375 -0.765625 -0.734375 -2.15625q0 -1.453125 0.734375 -2.234375q0.75 -0.796875 1.921875 -0.796875q1.15625 0 1.875 0.78125q0.71875 0.765625 0.71875 2.1875q0 0.078125 0 0.25l-4.25 0q0.046875 0.9375 0.515625 1.4375q0.484375 0.5 1.203125 0.5q0.53125 0 0.90625 -0.265625q0.375 -0.28125 0.59375 -0.90625zm-3.171875 -1.5625l3.1875 0q-0.0625 -0.71875 -0.359375 -1.078125q-0.46875 -0.546875 -1.203125 -0.546875q-0.671875 0 -1.125 0.453125q-0.453125 0.4375 -0.5 1.171875zm5.3327484 3.40625l0 -7.875l3.5 0q1.046875 0 1.59375 0.21875q0.546875 0.203125 0.875 0.75q0.328125 0.53125 0.328125 1.1875q0 0.828125 -0.546875 1.40625q-0.53125 0.578125 -1.671875 0.734375q0.421875 0.1875 0.625 0.390625q0.46875 0.421875 0.875 1.046875l1.359375 2.140625l-1.296875 0l-1.046875 -1.640625q-0.453125 -0.703125 -0.75 -1.078125q-0.296875 -0.375 -0.53125 -0.53125q-0.234375 -0.15625 -0.46875 -0.203125q-0.1875 -0.046875 -0.59375 -0.046875l-1.203125 0l0 3.5l-1.046875 0zm1.046875 -4.40625l2.234375 0q0.71875 0 1.125 -0.140625q0.40625 -0.140625 0.609375 -0.46875q0.203125 -0.328125 0.203125 -0.703125q0 -0.5625 -0.40625 -0.921875q-0.390625 -0.359375 -1.265625 -0.359375l-2.5 0l0 2.59375zm6.1487274 1.546875q0 -1.578125 0.890625 -2.34375q0.734375 -0.625 1.796875 -0.625q1.171875 0 1.90625 0.765625q0.75 0.765625 0.75 2.125q0 1.109375 -0.328125 1.75q-0.328125 0.625 -0.96875 0.96875q-0.625 0.34375 -1.359375 0.34375q-1.203125 0 -1.953125 -0.765625q-0.734375 -0.765625 -0.734375 -2.21875zm1.0 0q0 1.109375 0.46875 1.65625q0.484375 0.53125 1.21875 0.53125q0.71875 0 1.1875 -0.546875q0.484375 -0.546875 0.484375 -1.671875q0 -1.046875 -0.484375 -1.59375q-0.484375 -0.546875 -1.1875 -0.546875q-0.734375 0 -1.21875 0.546875q-0.46875 0.53125 -0.46875 1.625zm7.4108734 2.0l0.125 0.84375q-0.40625 0.09375 -0.71875 0.09375q-0.53125 0 -0.828125 -0.171875q-0.28125 -0.171875 -0.40625 -0.4375q-0.109375 -0.265625 -0.109375 -1.140625l0 -3.28125l-0.71875 0l0 -0.75l0.71875 0l0 -1.40625l0.953125 -0.59375l0 2.0l0.984375 0l0 0.75l-0.984375 0l0 3.34375q0 0.40625 0.046875 0.53125q0.0625 0.109375 0.171875 0.1875q0.125 0.0625 0.328125 0.0625q0.171875 0 0.4375 -0.03125zm4.5700226 0.15625q-0.546875 0.453125 -1.046875 0.640625q-0.484375 0.1875 -1.0625 0.1875q-0.9375 0 -1.453125 -0.453125q-0.5 -0.46875 -0.5 -1.171875q0 -0.421875 0.1875 -0.765625q0.203125 -0.34375 0.5 -0.546875q0.3125 -0.21875 0.703125 -0.328125q0.28125 -0.078125 0.859375 -0.140625q1.171875 -0.140625 1.71875 -0.34375q0.015625 -0.1875 0.015625 -0.25q0 -0.59375 -0.28125 -0.828125q-0.359375 -0.328125 -1.09375 -0.328125q-0.6875 0 -1.015625 0.234375q-0.3125 0.234375 -0.46875 0.84375l-0.953125 -0.125q0.125 -0.609375 0.421875 -0.984375q0.296875 -0.375 0.859375 -0.5625q0.5625 -0.203125 1.296875 -0.203125q0.734375 0 1.1875 0.171875q0.453125 0.171875 0.65625 0.4375q0.21875 0.25 0.3125 0.640625q0.046875 0.25 0.046875 0.90625l0 1.28125q0 1.34375 0.0625 1.703125q0.0625 0.359375 0.25 0.6875l-1.015625 0q-0.15625 -0.296875 -0.1875 -0.703125zm-0.09375 -2.15625q-0.515625 0.21875 -1.578125 0.359375q-0.59375 0.09375 -0.84375 0.203125q-0.234375 0.09375 -0.375 0.3125q-0.140625 0.203125 -0.140625 0.453125q0 0.390625 0.296875 0.65625q0.296875 0.25 0.859375 0.25q0.5625 0 0.984375 -0.25q0.4375 -0.25 0.65625 -0.671875q0.140625 -0.328125 0.140625 -0.96875l0 -0.34375zm4.4108734 2.0l0.125 0.84375q-0.40625 0.09375 -0.71875 0.09375q-0.53125 0 -0.828125 -0.171875q-0.28125 -0.171875 -0.40625 -0.4375q-0.109375 -0.265625 -0.109375 -1.140625l0 -3.28125l-0.71875 0l0 -0.75l0.71875 0l0 -1.40625l0.953125 -0.59375l0 2.0l0.984375 0l0 0.75l-0.984375 0l0 3.34375q0 0.40625 0.046875 0.53125q0.0625 0.109375 0.171875 0.1875q0.125 0.0625 0.328125 0.0625q0.171875 0 0.4375 -0.03125zm0.8512726 -5.90625l0 -1.109375l0.96875 0l0 1.109375l-0.96875 0zm0 6.765625l0 -5.703125l0.96875 0l0 5.703125l-0.96875 0zm1.9924774 -2.859375q0 -1.578125 0.890625 -2.34375q0.734375 -0.625 1.796875 -0.625q1.171875 0 1.90625 0.765625q0.75 0.765625 0.75 2.125q0 1.109375 -0.328125 1.75q-0.328125 0.625 -0.96875 0.96875q-0.625 0.34375 -1.359375 0.34375q-1.203125 0 -1.953125 -0.765625q-0.734375 -0.765625 -0.734375 -2.21875zm1.0 0q0 1.109375 0.46875 1.65625q0.484375 0.53125 1.21875 0.53125q0.71875 0 1.1875 -0.546875q0.484375 -0.546875 0.484375 -1.671875q0 -1.046875 -0.484375 -1.59375q-0.484375 -0.546875 -1.1875 -0.546875q-0.734375 0 -1.21875 0.546875q-0.46875 0.53125 -0.46875 1.625zm5.2858734 2.859375l0 -5.703125l0.875 0l0 0.8125q0.625 -0.9375 1.8125 -0.9375q0.515625 0 0.953125 0.1875q0.4375 0.171875 0.640625 0.484375q0.21875 0.296875 0.3125 0.703125q0.046875 0.28125 0.046875 0.953125l0 3.5l-0.96875 0l0 -3.46875q0 -0.59375 -0.109375 -0.875q-0.109375 -0.296875 -0.40625 -0.46875q-0.28125 -0.1875 -0.671875 -0.1875q-0.609375 0 -1.0625 0.390625q-0.453125 0.390625 -0.453125 1.5l0 3.109375l-0.96875 0zm9.660873 -0.703125q-0.546875 0.453125 -1.046875 0.640625q-0.484375 0.1875 -1.0625 0.1875q-0.9375 0 -1.453125 -0.453125q-0.5 -0.46875 -0.5 -1.171875q0 -0.421875 0.1875 -0.765625q0.203125 -0.34375 0.5 -0.546875q0.3125 -0.21875 0.703125 -0.328125q0.28125 -0.078125 0.859375 -0.140625q1.171875 -0.140625 1.71875 -0.34375q0.015625 -0.1875 0.015625 -0.25q0 -0.59375 -0.28125 -0.828125q-0.359375 -0.328125 -1.09375 -0.328125q-0.6875 0 -1.015625 0.234375q-0.3125 0.234375 -0.46875 0.84375l-0.953125 -0.125q0.125 -0.609375 0.421875 -0.984375q0.296875 -0.375 0.859375 -0.5625q0.5625 -0.203125 1.296875 -0.203125q0.734375 0 1.1875 0.171875q0.453125 0.171875 0.65625 0.4375q0.21875 0.25 0.3125 0.640625q0.046875 0.25 0.046875 0.90625l0 1.28125q0 1.34375 0.0625 1.703125q0.0625 0.359375 0.25 0.6875l-1.015625 0q-0.15625 -0.296875 -0.1875 -0.703125zm-0.09375 -2.15625q-0.515625 0.21875 -1.578125 0.359375q-0.59375 0.09375 -0.84375 0.203125q-0.234375 0.09375 -0.375 0.3125q-0.140625 0.203125 -0.140625 0.453125q0 0.390625 0.296875 0.65625q0.296875 0.25 0.859375 0.25q0.5625 0 0.984375 -0.25q0.4375 -0.25 0.65625 -0.671875q0.140625 -0.328125 0.140625 -0.96875l0 -0.34375zm2.2702484 2.859375l0 -7.875l0.96875 0l0 7.875l-0.96875 0zm2.4768524 0l0 -7.875l1.578125 0l1.859375 5.578125q0.25 0.78125 0.375 1.15625q0.140625 -0.421875 0.421875 -1.25l1.875 -5.484375l1.40625 0l0 7.875l-1.0 0l0 -6.59375l-2.296875 6.59375l-0.9375 0l-2.265625 -6.703125l0 6.703125l-1.015625 0zm12.5173645 -0.703125q-0.546875 0.453125 -1.046875 0.640625q-0.484375 0.1875 -1.0625 0.1875q-0.9375 0 -1.453125 -0.453125q-0.5 -0.46875 -0.5 -1.171875q0 -0.421875 0.1875 -0.765625q0.203125 -0.34375 0.5 -0.546875q0.3125 -0.21875 0.703125 -0.328125q0.28125 -0.078125 0.859375 -0.140625q1.171875 -0.140625 1.71875 -0.34375q0.015625 -0.1875 0.015625 -0.25q0 -0.59375 -0.28125 -0.828125q-0.359375 -0.328125 -1.09375 -0.328125q-0.6875 0 -1.015625 0.234375q-0.3125 0.234375 -0.46875 0.84375l-0.953125 -0.125q0.125 -0.609375 0.421875 -0.984375q0.296875 -0.375 0.859375 -0.5625q0.5625 -0.203125 1.296875 -0.203125q0.734375 0 1.1875 0.171875q0.453125 0.171875 0.65625 0.4375q0.21875 0.25 0.3125 0.640625q0.046875 0.25 0.046875 0.90625l0 1.28125q0 1.34375 0.0625 1.703125q0.0625 0.359375 0.25 0.6875l-1.015625 0q-0.15625 -0.296875 -0.1875 -0.703125zm-0.09375 -2.15625q-0.515625 0.21875 -1.578125 0.359375q-0.59375 0.09375 -0.84375 0.203125q-0.234375 0.09375 -0.375 0.3125q-0.140625 0.203125 -0.140625 0.453125q0 0.390625 0.296875 0.65625q0.296875 0.25 0.859375 0.25q0.5625 0 0.984375 -0.25q0.4375 -0.25 0.65625 -0.671875q0.140625 -0.328125 0.140625 -0.96875l0 -0.34375zm2.2858734 5.046875l0 -7.890625l0.890625 0l0 0.734375q0.3125 -0.421875 0.703125 -0.640625q0.390625 -0.21875 0.953125 -0.21875q0.71875 0 1.28125 0.375q0.5625 0.375 0.84375 1.0625q0.28125 0.671875 0.28125 1.5q0 0.875 -0.3125 1.578125q-0.3125 0.6875 -0.921875 1.0625q-0.59375 0.375 -1.25 0.375q-0.484375 0 -0.875 -0.203125q-0.375 -0.203125 -0.625 -0.515625l0 2.78125l-0.96875 0zm0.875 -5.0q0 1.09375 0.453125 1.625q0.453125 0.515625 1.078125 0.515625q0.640625 0 1.09375 -0.53125q0.46875 -0.546875 0.46875 -1.703125q0 -1.078125 -0.453125 -1.625q-0.4375 -0.546875 -1.0625 -0.546875q-0.625 0 -1.109375 0.578125q-0.46875 0.578125 -0.46875 1.6875zm5.0514984 5.0l0 -7.890625l0.890625 0l0 0.734375q0.3125 -0.421875 0.703125 -0.640625q0.390625 -0.21875 0.953125 -0.21875q0.71875 0 1.28125 0.375q0.5625 0.375 0.84375 1.0625q0.28125 0.671875 0.28125 1.5q0 0.875 -0.3125 1.578125q-0.3125 0.6875 -0.921875 1.0625q-0.59375 0.375 -1.25 0.375q-0.484375 0 -0.875 -0.203125q-0.375 -0.203125 -0.625 -0.515625l0 2.78125l-0.96875 0zm0.875 -5.0q0 1.09375 0.453125 1.625q0.453125 0.515625 1.078125 0.515625q0.640625 0 1.09375 -0.53125q0.46875 -0.546875 0.46875 -1.703125q0 -1.078125 -0.453125 -1.625q-0.4375 -0.546875 -1.0625 -0.546875q-0.625 0 -1.109375 0.578125q-0.46875 0.578125 -0.46875 1.6875zm5.0671234 -3.953125l0 -1.109375l0.96875 0l0 1.109375l-0.96875 0zm0 6.765625l0 -5.703125l0.96875 0l0 5.703125l-0.96875 0zm2.3518524 0l0 -5.703125l0.875 0l0 0.8125q0.625 -0.9375 1.8125 -0.9375q0.515625 0 0.953125 0.1875q0.4375 0.171875 0.640625 0.484375q0.21875 0.296875 0.3125 0.703125q0.046875 0.28125 0.046875 0.953125l0 3.5l-0.96875 0l0 -3.46875q0 -0.59375 -0.109375 -0.875q-0.109375 -0.296875 -0.40625 -0.46875q-0.28125 -0.1875 -0.671875 -0.1875q-0.609375 0 -1.0625 0.390625q-0.453125 0.390625 -0.453125 1.5l0 3.109375l-0.96875 0zm5.7546234 0.46875l0.9375 0.140625q0.0625 0.4375 0.328125 0.640625q0.359375 0.265625 0.984375 0.265625q0.671875 0 1.03125 -0.265625q0.375 -0.265625 0.5 -0.75q0.078125 -0.296875 0.078125 -1.25q-0.640625 0.75 -1.59375 0.75q-1.171875 0 -1.8125 -0.84375q-0.640625 -0.859375 -0.640625 -2.046875q0 -0.8125 0.296875 -1.5q0.296875 -0.6875 0.84375 -1.0625q0.5625 -0.375 1.328125 -0.375q1.0 0 1.65625 0.8125l0 -0.6875l0.890625 0l0 4.921875q0 1.34375 -0.265625 1.890625q-0.265625 0.5625 -0.859375 0.875q-0.59375 0.328125 -1.453125 0.328125q-1.015625 0 -1.640625 -0.46875q-0.625 -0.453125 -0.609375 -1.375zm0.796875 -3.421875q0 1.125 0.4375 1.640625q0.453125 0.515625 1.125 0.515625q0.671875 0 1.125 -0.515625q0.453125 -0.515625 0.453125 -1.609375q0 -1.046875 -0.46875 -1.578125q-0.46875 -0.53125 -1.125 -0.53125q-0.640625 0 -1.09375 0.53125q-0.453125 0.515625 -0.453125 1.546875zm5.5827484 -1.65625l0 -1.09375l1.09375 0l0 1.09375l-1.09375 0zm0 4.609375l0 -1.09375l1.09375 0l0 1.09375l-1.09375 0zm6.53067 0l-0.890625 0l0 -7.875l0.96875 0l0 2.8125q0.609375 -0.765625 1.5625 -0.765625q0.53125 0 1.0 0.21875q0.46875 0.203125 0.765625 0.59375q0.3125 0.375 0.484375 0.921875q0.171875 0.53125 0.171875 1.15625q0 1.46875 -0.734375 2.265625q-0.71875 0.796875 -1.734375 0.796875q-1.015625 0 -1.59375 -0.84375l0 0.71875zm0 -2.890625q0 1.015625 0.28125 1.484375q0.453125 0.734375 1.234375 0.734375q0.625 0 1.078125 -0.546875q0.46875 -0.546875 0.46875 -1.640625q0 -1.109375 -0.4375 -1.640625q-0.4375 -0.53125 -1.078125 -0.53125q-0.625 0 -1.09375 0.546875q-0.453125 0.546875 -0.453125 1.59375zm4.6764984 0.03125q0 -1.578125 0.890625 -2.34375q0.734375 -0.625 1.7968903 -0.625q1.171875 0 1.90625 0.765625q0.75 0.765625 0.75 2.125q0 1.109375 -0.328125 1.75q-0.328125 0.625 -0.96875 0.96875q-0.625 0.34375 -1.359375 0.34375q-1.2031403 0 -1.9531403 -0.765625q-0.734375 -0.765625 -0.734375 -2.21875zm1.0 0q0 1.109375 0.46875 1.65625q0.48439026 0.53125 1.2187653 0.53125q0.71875 0 1.1875 -0.546875q0.484375 -0.546875 0.484375 -1.671875q0 -1.046875 -0.484375 -1.59375q-0.484375 -0.546875 -1.1875 -0.546875q-0.734375 0 -1.2187653 0.546875q-0.46875 0.53125 -0.46875 1.625zm4.9264984 0q0 -1.578125 0.890625 -2.34375q0.734375 -0.625 1.796875 -0.625q1.171875 0 1.90625 0.765625q0.75 0.765625 0.75 2.125q0 1.109375 -0.328125 1.75q-0.328125 0.625 -0.96875 0.96875q-0.625 0.34375 -1.359375 0.34375q-1.203125 0 -1.953125 -0.765625q-0.734375 -0.765625 -0.734375 -2.21875zm1.0 0q0 1.109375 0.46875 1.65625q0.484375 0.53125 1.21875 0.53125q0.71875 0 1.1875 -0.546875q0.484375 -0.546875 0.484375 -1.671875q0 -1.046875 -0.484375 -1.59375q-0.484375 -0.546875 -1.1875 -0.546875q-0.734375 0 -1.21875 0.546875q-0.46875 0.53125 -0.46875 1.625zm5.2702637 2.859375l0 -7.875l0.96875 0l0 7.875l-0.96875 0zm4.9375 -3.28125q0.40625 -0.015625 0.65625 -0.21875q0.265625 -0.21875 0.34375 -0.59375q0.09375 -0.375 0.09375 -1.265625q0.015625 -0.890625 0.046875 -1.1875q0.046875 -0.453125 0.171875 -0.71875q0.140625 -0.28125 0.328125 -0.4375q0.203125 -0.171875 0.5 -0.25q0.203125 -0.0625 0.65625 -0.0625l0.3125 0l0 0.84375l-0.171875 0q-0.5625 0 -0.75 0.203125q-0.171875 0.203125 -0.171875 0.90625q0 1.40625 -0.0625 1.78125q-0.09375 0.5625 -0.328125 0.875q-0.234375 0.3125 -0.734375 0.5625q0.59375 0.25 0.859375 0.765625q0.265625 0.5 0.265625 1.640625q0 1.0625 0.015625 1.25q0.046875 0.375 0.21875 0.515625q0.171875 0.140625 0.6875 0.140625l0.171875 0l0 0.84375l-0.3125 0q-0.515625 0 -0.75 -0.078125q-0.34375 -0.125 -0.578125 -0.40625q-0.21875 -0.28125 -0.296875 -0.703125q-0.0625 -0.421875 -0.078125 -1.390625q0 -0.96875 -0.09375 -1.328125q-0.078125 -0.375 -0.34375 -0.59375q-0.25 -0.21875 -0.65625 -0.21875l0 -0.875zm10.675903 3.28125l0 -0.84375q-0.671875 0.96875 -1.8125 0.96875q-0.5 0 -0.953125 -0.1875q-0.4375 -0.203125 -0.65625 -0.484375q-0.203125 -0.296875 -0.28125 -0.71875q-0.0625 -0.28125 -0.0625 -0.90625l0 -3.53125l0.96875 0l0 3.15625q0 0.765625 0.0625 1.03125q0.09375 0.375 0.375 0.59375q0.296875 0.21875 0.734375 0.21875q0.4375 0 0.8125 -0.21875q0.390625 -0.234375 0.546875 -0.609375q0.15625 -0.390625 0.15625 -1.109375l0 -3.0625l0.96875 0l0 5.703125l-0.859375 0zm1.8015137 -1.703125l0.953125 -0.15625q0.078125 0.578125 0.4375 0.890625q0.375 0.296875 1.03125 0.296875q0.671875 0 0.984375 -0.265625q0.328125 -0.265625 0.328125 -0.640625q0 -0.328125 -0.28125 -0.515625q-0.203125 -0.125 -0.984375 -0.328125q-1.0625 -0.265625 -1.484375 -0.453125q-0.40625 -0.203125 -0.625 -0.546875q-0.203125 -0.34375 -0.203125 -0.765625q0 -0.390625 0.171875 -0.703125q0.171875 -0.328125 0.484375 -0.546875q0.21875 -0.171875 0.609375 -0.28125q0.390625 -0.109375 0.828125 -0.109375q0.671875 0 1.171875 0.1875q0.515625 0.1875 0.75 0.53125q0.25 0.328125 0.34375 0.875l-0.9375 0.125q-0.078125 -0.4375 -0.390625 -0.671875q-0.296875 -0.25 -0.859375 -0.25q-0.671875 0 -0.953125 0.21875q-0.28125 0.21875 -0.28125 0.515625q0 0.1875 0.109375 0.328125q0.125 0.15625 0.375 0.265625q0.140625 0.046875 0.859375 0.25q1.015625 0.265625 1.421875 0.4375q0.40625 0.171875 0.640625 0.515625q0.234375 0.328125 0.234375 0.828125q0 0.484375 -0.28125 0.90625q-0.28125 0.421875 -0.8125 0.65625q-0.53125 0.234375 -1.203125 0.234375q-1.109375 0 -1.703125 -0.453125q-0.578125 -0.46875 -0.734375 -1.375zm9.609375 -0.140625l1.0 0.125q-0.234375 0.875 -0.875 1.359375q-0.640625 0.484375 -1.625 0.484375q-1.25 0 -1.984375 -0.765625q-0.734375 -0.765625 -0.734375 -2.15625q0 -1.453125 0.734375 -2.234375q0.75 -0.796875 1.921875 -0.796875q1.15625 0 1.875 0.78125q0.71875 0.765625 0.71875 2.1875q0 0.078125 0 0.25l-4.25 0q0.046875 0.9375 0.515625 1.4375q0.484375 0.5 1.203125 0.5q0.53125 0 0.90625 -0.265625q0.375 -0.28125 0.59375 -0.90625zm-3.171875 -1.5625l3.1875 0q-0.0625 -0.71875 -0.359375 -1.078125q-0.46875 -0.546875 -1.203125 -0.546875q-0.671875 0 -1.125 0.453125q-0.453125 0.4375 -0.5 1.171875zm10.285858 -1.21875l-5.203125 0l0 -0.90625l5.203125 0l0 0.90625zm0 2.390625l-5.203125 0l0 -0.90625l5.203125 0l0 0.90625zm0.8793335 -4.59375l0 -1.125l1.03125 0l0 0.890625q0 0.71875 -0.15625 1.03125q-0.234375 0.4375 -0.71875 0.65625l-0.25 -0.390625q0.296875 -0.109375 0.4375 -0.359375q0.140625 -0.265625 0.15625 -0.703125l-0.5 0zm1.65625 0l0 -1.125l1.046875 0l0 0.890625q0 0.71875 -0.171875 1.03125q-0.234375 0.4375 -0.71875 0.65625l-0.234375 -0.390625q0.296875 -0.109375 0.4375 -0.359375q0.140625 -0.265625 0.15625 -0.703125l-0.515625 0zm1.7829895 3.96875q0 -1.578125 0.890625 -2.34375q0.734375 -0.625 1.796875 -0.625q1.171875 0 1.90625 0.765625q0.75 0.765625 0.75 2.125q0 1.109375 -0.328125 1.75q-0.328125 0.625 -0.96875 0.96875q-0.625 0.34375 -1.359375 0.34375q-1.203125 0 -1.953125 -0.765625q-0.734375 -0.765625 -0.734375 -2.21875zm1.0 0q0 1.109375 0.46875 1.65625q0.484375 0.53125 1.21875 0.53125q0.71875 0 1.1875 -0.546875q0.484375 -0.546875 0.484375 -1.671875q0 -1.046875 -0.484375 -1.59375q-0.484375 -0.546875 -1.1875 -0.546875q-0.734375 0 -1.21875 0.546875q-0.46875 0.53125 -0.46875 1.625zm5.2858887 5.046875l0 -7.890625l0.890625 0l0 0.734375q0.3125 -0.421875 0.703125 -0.640625q0.390625 -0.21875 0.953125 -0.21875q0.71875 0 1.28125 0.375q0.5625 0.375 0.84375 1.0625q0.28125 0.671875 0.28125 1.5q0 0.875 -0.3125 1.578125q-0.3125 0.6875 -0.921875 1.0625q-0.59375 0.375 -1.25 0.375q-0.484375 0 -0.875 -0.203125q-0.375 -0.203125 -0.625 -0.515625l0 2.78125l-0.96875 0zm0.875 -5.0q0 1.09375 0.453125 1.625q0.453125 0.515625 1.078125 0.515625q0.640625 0 1.09375 -0.53125q0.46875 -0.546875 0.46875 -1.703125q0 -1.078125 -0.453125 -1.625q-0.4375 -0.546875 -1.0625 -0.546875q-0.625 0 -1.109375 0.578125q-0.46875 0.578125 -0.46875 1.6875zm7.176483 1.953125l0.125 0.84375q-0.40625 0.09375 -0.71875 0.09375q-0.53125 0 -0.828125 -0.171875q-0.28125 -0.171875 -0.40625 -0.4375q-0.109375 -0.265625 -0.109375 -1.140625l0 -3.28125l-0.71875 0l0 -0.75l0.71875 0l0 -1.40625l0.953125 -0.59375l0 2.0l0.984375 0l0 0.75l-0.984375 0l0 3.34375q0 0.40625 0.046875 0.53125q0.0625 0.109375 0.171875 0.1875q0.125 0.0625 0.328125 0.0625q0.171875 0 0.4375 -0.03125zm0.85128784 -5.90625l0 -1.109375l0.96875 0l0 1.109375l-0.96875 0zm0 6.765625l0 -5.703125l0.96875 0l0 5.703125l-0.96875 0zm1.9924622 -2.859375q0 -1.578125 0.890625 -2.34375q0.734375 -0.625 1.796875 -0.625q1.171875 0 1.90625 0.765625q0.75 0.765625 0.75 2.125q0 1.109375 -0.328125 1.75q-0.328125 0.625 -0.96875 0.96875q-0.625 0.34375 -1.359375 0.34375q-1.203125 0 -1.953125 -0.765625q-0.734375 -0.765625 -0.734375 -2.21875zm1.0 0q0 1.109375 0.46875 1.65625q0.484375 0.53125 1.21875 0.53125q0.71875 0 1.1875 -0.546875q0.484375 -0.546875 0.484375 -1.671875q0 -1.046875 -0.484375 -1.59375q-0.484375 -0.546875 -1.1875 -0.546875q-0.734375 0 -1.21875 0.546875q-0.46875 0.53125 -0.46875 1.625zm5.2858887 2.859375l0 -5.703125l0.875 0l0 0.8125q0.625 -0.9375 1.8125 -0.9375q0.515625 0 0.953125 0.1875q0.4375 0.171875 0.640625 0.484375q0.21875 0.296875 0.3125 0.703125q0.046875 0.28125 0.046875 0.953125l0 3.5l-0.96875 0l0 -3.46875q0 -0.59375 -0.109375 -0.875q-0.109375 -0.296875 -0.40625 -0.46875q-0.28125 -0.1875 -0.671875 -0.1875q-0.609375 0 -1.0625 0.390625q-0.453125 0.390625 -0.453125 1.5l0 3.109375l-0.96875 0zm9.660858 -0.703125q-0.546875 0.453125 -1.046875 0.640625q-0.484375 0.1875 -1.0625 0.1875q-0.9375 0 -1.453125 -0.453125q-0.5 -0.46875 -0.5 -1.171875q0 -0.421875 0.1875 -0.765625q0.203125 -0.34375 0.5 -0.546875q0.3125 -0.21875 0.703125 -0.328125q0.28125 -0.078125 0.859375 -0.140625q1.171875 -0.140625 1.71875 -0.34375q0.015625 -0.1875 0.015625 -0.25q0 -0.59375 -0.28125 -0.828125q-0.359375 -0.328125 -1.09375 -0.328125q-0.6875 0 -1.015625 0.234375q-0.3125 0.234375 -0.46875 0.84375l-0.953125 -0.125q0.125 -0.609375 0.421875 -0.984375q0.296875 -0.375 0.859375 -0.5625q0.5625 -0.203125 1.296875 -0.203125q0.734375 0 1.1875 0.171875q0.453125 0.171875 0.65625 0.4375q0.21875 0.25 0.3125 0.640625q0.046875 0.25 0.046875 0.90625l0 1.28125q0 1.34375 0.0625 1.703125q0.0625 0.359375 0.25 0.6875l-1.015625 0q-0.15625 -0.296875 -0.1875 -0.703125zm-0.09375 -2.15625q-0.515625 0.21875 -1.578125 0.359375q-0.59375 0.09375 -0.84375 0.203125q-0.234375 0.09375 -0.375 0.3125q-0.140625 0.203125 -0.140625 0.453125q0 0.390625 0.296875 0.65625q0.296875 0.25 0.859375 0.25q0.5625 0 0.984375 -0.25q0.4375 -0.25 0.65625 -0.671875q0.140625 -0.328125 0.140625 -0.96875l0 -0.34375zm2.2702637 2.859375l0 -7.875l0.96875 0l0 7.875l-0.96875 0zm2.1330872 -6.828125l0 -1.125l1.03125 0l0 0.890625q0 0.71875 -0.15625 1.03125q-0.234375 0.4375 -0.71875 0.65625l-0.25 -0.390625q0.296875 -0.109375 0.4375 -0.359375q0.140625 -0.265625 0.15625 -0.703125l-0.5 0zm1.65625 0l0 -1.125l1.046875 0l0 0.890625q0 0.71875 -0.171875 1.03125q-0.234375 0.4375 -0.71875 0.65625l-0.234375 -0.390625q0.296875 -0.109375 0.4375 -0.359375q0.140625 -0.265625 0.15625 -0.703125l-0.515625 0zm4.7829895 3.546875l0 0.875q-0.40625 0 -0.671875 0.21875q-0.265625 0.21875 -0.359375 0.59375q-0.078125 0.359375 -0.078125 1.265625q0 0.890625 -0.03125 1.171875q-0.046875 0.453125 -0.1875 0.71875q-0.125 0.28125 -0.328125 0.4375q-0.1875 0.171875 -0.484375 0.25q-0.203125 0.0625 -0.671875 0.0625l-0.296875 0l0 -0.84375l0.171875 0q0.5625 0 0.734375 -0.203125q0.1875 -0.203125 0.1875 -0.90625q0 -1.34375 0.046875 -1.703125q0.09375 -0.59375 0.34375 -0.9375q0.265625 -0.359375 0.734375 -0.5625q-0.625 -0.296875 -0.875 -0.78125q-0.25 -0.484375 -0.25 -1.640625q0 -1.046875 -0.03125 -1.25q-0.03125 -0.359375 -0.21875 -0.5q-0.171875 -0.15625 -0.671875 -0.15625l-0.171875 0l0 -0.84375l0.296875 0q0.53125 0 0.765625 0.09375q0.34375 0.125 0.5625 0.40625q0.234375 0.265625 0.296875 0.703125q0.078125 0.421875 0.078125 1.390625q0 0.953125 0.078125 1.328125q0.09375 0.359375 0.359375 0.578125q0.265625 0.21875 0.671875 0.234375z" fill-rule="nonzero"></path><path fill="#000000" fill-opacity="0.0" d="m225.32545 60.7979l0 58.89764" fill-rule="nonzero"></path><path stroke="#0b5394" stroke-width="1.0" stroke-linejoin="round" stroke-linecap="butt" d="m225.32545 60.7979l0 58.89764" fill-rule="nonzero"></path><path fill="#000000" fill-opacity="0.0" d="m107.698166 186.85432l121.25984 0l0 14.992126l-121.25984 0z" fill-rule="nonzero"></path><path fill="#0b5394" d="m117.24504 198.55914l0.9375 0.140625q0.0625 0.4375 0.328125 0.640625q0.359375 0.265625 0.984375 0.265625q0.671875 0 1.03125 -0.265625q0.375 -0.265625 0.5 -0.75q0.078125 -0.296875 0.078125 -1.25q-0.640625 0.75 -1.59375 0.75q-1.171875 0 -1.8125 -0.84375q-0.640625 -0.859375 -0.640625 -2.046875q0 -0.8125 0.296875 -1.5q0.296875 -0.6875 0.84375 -1.0625q0.5625 -0.375 1.328125 -0.375q1.0 0 1.65625 0.8125l0 -0.6875l0.890625 0l0 4.921875q0 1.34375 -0.265625 1.890625q-0.265625 0.5625 -0.859375 0.875q-0.59375 0.328125 -1.453125 0.328125q-1.015625 0 -1.640625 -0.46875q-0.625 -0.453125 -0.609375 -1.375zm0.796875 -3.421875q0 1.125 0.4375 1.640625q0.453125 0.515625 1.125 0.515625q0.671875 0 1.125 -0.515625q0.453125 -0.515625 0.453125 -1.609375q0 -1.046875 -0.46875 -1.578125q-0.46875 -0.53125 -1.125 -0.53125q-0.640625 0 -1.09375 0.53125q-0.453125 0.515625 -0.453125 1.546875z" fill-rule="nonzero"></path><path fill="#0b5394" d="m111.120735 177.63649l4.771652 -5.05513l4.771652 5.05513l-4.771652 5.0551147z" fill-rule="nonzero"></path><path stroke="#0b5394" stroke-width="2.0" stroke-linejoin="round" stroke-linecap="butt" d="m111.120735 177.63649l4.771652 -5.05513l4.771652 5.05513l-4.771652 5.0551147z" fill-rule="nonzero"></path><path fill="#000000" fill-opacity="0.0" d="m181.46727 226.85432l39.716537 0l0 14.992126l-39.716537 0z" fill-rule="nonzero"></path><path fill="#0b5394" d="m194.37184 234.19977q0 -1.390625 0.28125 -2.234375q0.296875 -0.859375 0.859375 -1.3125q0.578125 -0.46875 1.4375 -0.46875q0.625 0 1.09375 0.265625q0.484375 0.25 0.796875 0.734375q0.3125 0.46875 0.484375 1.171875q0.1875 0.6875 0.1875 1.84375q0 1.390625 -0.296875 2.25q-0.28125 0.84375 -0.84375 1.3125q-0.5625 0.46875 -1.421875 0.46875q-1.140625 0 -1.796875 -0.828125q-0.78125 -0.984375 -0.78125 -3.203125zm1.0 0q0 1.953125 0.453125 2.59375q0.453125 0.640625 1.125 0.640625q0.65625 0 1.109375 -0.640625q0.453125 -0.65625 0.453125 -2.59375q0 -1.9375 -0.453125 -2.578125q-0.453125 -0.640625 -1.125 -0.640625q-0.671875 0 -1.0625 0.5625q-0.5 0.71875 -0.5 2.65625zm5.4577484 3.890625l0 -1.09375l1.09375 0l0 1.09375q0 0.609375 -0.21875 0.984375q-0.203125 0.375 -0.671875 0.578125l-0.28125 -0.421875q0.3125 -0.125 0.453125 -0.390625q0.15625 -0.265625 0.171875 -0.75l-0.546875 0zm6.0700226 0l-0.96875 0l0 -6.15625q-0.34375 0.328125 -0.90625 0.671875q-0.5625 0.328125 -1.015625 0.484375l0 -0.9375q0.8125 -0.375 1.40625 -0.90625q0.609375 -0.546875 0.859375 -1.0625l0.625 0l0 7.90625z" fill-rule="nonzero"></path><path fill="#000000" fill-opacity="0.0" d="m115.89239 241.2231l0 -70.110245" fill-rule="nonzero"></path><path stroke="#0b5394" stroke-width="1.0" stroke-linejoin="round" stroke-linecap="butt" d="m115.89239 241.2231l0 -70.110245" fill-rule="nonzero"></path><path fill="#ffffff" d="m211.6588 187.5433l95.68504 0l0 27.02362l-95.68504 0z" fill-rule="nonzero"></path><path stroke="#0b5394" stroke-width="1.0" stroke-linejoin="round" stroke-linecap="butt" d="m211.6588 187.5433l95.68504 0l0 27.02362l-95.68504 0z" fill-rule="nonzero"></path><path fill="#c27ba0" d="m225.97498 204.79512l0 -7.875l3.34375 0q1.265625 0 1.828125 0.21875q0.578125 0.203125 0.921875 0.75q0.34375 0.546875 0.34375 1.234375q0 0.890625 -0.53125 1.46875q-0.515625 0.578125 -1.546875 0.734375q0.515625 0.296875 0.84375 0.65625q0.34375 0.359375 0.90625 1.28125l0.96875 1.53125l-1.90625 0l-1.15625 -1.71875q-0.609375 -0.90625 -0.84375 -1.140625q-0.21875 -0.25 -0.46875 -0.328125q-0.25 -0.09375 -0.796875 -0.09375l-0.328125 0l0 3.28125l-1.578125 0zm1.578125 -4.546875l1.1875 0q1.140625 0 1.421875 -0.09375q0.28125 -0.09375 0.4375 -0.328125q0.171875 -0.234375 0.171875 -0.59375q0 -0.40625 -0.21875 -0.640625q-0.203125 -0.25 -0.59375 -0.3125q-0.1875 -0.03125 -1.15625 -0.03125l-1.25 0l0 2.0zm9.398727 2.734375l1.5 0.25q-0.28125 0.828125 -0.90625 1.265625q-0.625 0.421875 -1.578125 0.421875q-1.484375 0 -2.203125 -0.96875q-0.5625 -0.78125 -0.5625 -1.96875q0 -1.421875 0.734375 -2.21875q0.75 -0.796875 1.890625 -0.796875q1.265625 0 2.0 0.84375q0.734375 0.828125 0.703125 2.5625l-3.78125 0q0.015625 0.671875 0.359375 1.046875q0.359375 0.375 0.875 0.375q0.359375 0 0.59375 -0.1875q0.25 -0.203125 0.375 -0.625zm0.078125 -1.53125q-0.015625 -0.65625 -0.34375 -0.984375q-0.3125 -0.34375 -0.765625 -0.34375q-0.5 0 -0.828125 0.359375q-0.3125 0.359375 -0.3125 0.96875l2.25 0zm7.7389984 3.34375l-1.515625 0l0 -2.90625q0 -0.921875 -0.09375 -1.1875q-0.09375 -0.28125 -0.3125 -0.421875q-0.21875 -0.15625 -0.53125 -0.15625q-0.390625 0 -0.703125 0.21875q-0.3125 0.203125 -0.4375 0.5625q-0.109375 0.34375 -0.109375 1.3125l0 2.578125l-1.5 0l0 -5.703125l1.40625 0l0 0.84375q0.734375 -0.96875 1.875 -0.96875q0.5 0 0.90625 0.1875q0.421875 0.171875 0.625 0.453125q0.21875 0.265625 0.296875 0.625q0.09375 0.359375 0.09375 1.015625l0 3.546875zm6.540512 0l-1.390625 0l0 -0.84375q-0.359375 0.5 -0.84375 0.734375q-0.46875 0.234375 -0.9375 0.234375q-0.984375 0 -1.6875 -0.78125q-0.703125 -0.796875 -0.703125 -2.21875q0 -1.453125 0.671875 -2.203125q0.6875 -0.75 1.734375 -0.75q0.953125 0 1.65625 0.796875l0 -2.84375l1.5 0l0 7.875zm-4.015625 -2.96875q0 0.90625 0.25 1.3125q0.359375 0.59375 1.015625 0.59375q0.515625 0 0.875 -0.4375q0.375 -0.453125 0.375 -1.328125q0 -0.984375 -0.359375 -1.40625q-0.34375 -0.4375 -0.90625 -0.4375q-0.53125 0 -0.890625 0.421875q-0.359375 0.421875 -0.359375 1.28125zm8.603012 1.15625l1.5 0.25q-0.28125 0.828125 -0.90625 1.265625q-0.625 0.421875 -1.578125 0.421875q-1.484375 0 -2.203125 -0.96875q-0.5625 -0.78125 -0.5625 -1.96875q0 -1.421875 0.734375 -2.21875q0.75 -0.796875 1.890625 -0.796875q1.265625 0 2.0 0.84375q0.734375 0.828125 0.703125 2.5625l-3.78125 0q0.015625 0.671875 0.359375 1.046875q0.359375 0.375 0.875 0.375q0.359375 0 0.59375 -0.1875q0.25 -0.203125 0.375 -0.625zm0.078125 -1.53125q-0.015625 -0.65625 -0.34375 -0.984375q-0.3125 -0.34375 -0.765625 -0.34375q-0.5 0 -0.828125 0.359375q-0.3125 0.359375 -0.3125 0.96875l2.25 0zm3.9890137 3.34375l-1.515625 0l0 -5.703125l1.40625 0l0 0.8125q0.359375 -0.578125 0.640625 -0.75q0.296875 -0.1875 0.65625 -0.1875q0.515625 0 1.0 0.28125l-0.46875 1.3125q-0.375 -0.25 -0.703125 -0.25q-0.328125 0 -0.546875 0.1875q-0.21875 0.171875 -0.34375 0.625q-0.125 0.453125 -0.125 1.90625l0 1.765625zm6.3813477 -2.890625l0 -1.328125l3.421875 0l0 3.140625q-0.5 0.46875 -1.453125 0.84375q-0.9375 0.375 -1.921875 0.375q-1.234375 0 -2.15625 -0.515625q-0.90625 -0.53125 -1.375 -1.484375q-0.453125 -0.96875 -0.453125 -2.109375q0 -1.21875 0.515625 -2.171875q0.515625 -0.96875 1.5 -1.46875q0.765625 -0.40625 1.890625 -0.40625q1.46875 0 2.28125 0.625q0.828125 0.609375 1.0625 1.703125l-1.578125 0.296875q-0.15625 -0.59375 -0.625 -0.921875q-0.453125 -0.34375 -1.140625 -0.34375q-1.046875 0 -1.65625 0.671875q-0.609375 0.65625 -0.609375 1.953125q0 1.40625 0.609375 2.109375q0.625 0.703125 1.640625 0.703125q0.5 0 1.0 -0.1875q0.5 -0.203125 0.859375 -0.484375l0 -1.0l-1.8125 0zm6.054413 2.890625l-1.515625 0l0 -5.703125l1.40625 0l0 0.8125q0.359375 -0.578125 0.640625 -0.75q0.296875 -0.1875 0.65625 -0.1875q0.515625 0 1.0 0.28125l-0.46875 1.3125q-0.375 -0.25 -0.703125 -0.25q-0.328125 0 -0.546875 0.1875q-0.21875 0.171875 -0.34375 0.625q-0.125 0.453125 -0.125 1.90625l0 1.765625zm2.3500977 -2.9375q0 -0.75 0.375 -1.453125q0.375 -0.703125 1.046875 -1.0625q0.6875 -0.375 1.515625 -0.375q1.296875 0 2.125 0.84375q0.828125 0.828125 0.828125 2.109375q0 1.296875 -0.84375 2.15625q-0.828125 0.84375 -2.09375 0.84375q-0.78125 0 -1.5 -0.34375q-0.703125 -0.359375 -1.078125 -1.046875q-0.375 -0.6875 -0.375 -1.671875zm1.546875 0.078125q0 0.859375 0.40625 1.3125q0.40625 0.453125 1.0 0.453125q0.578125 0 0.984375 -0.453125q0.40625 -0.453125 0.40625 -1.3125q0 -0.84375 -0.40625 -1.296875q-0.40625 -0.453125 -0.984375 -0.453125q-0.59375 0 -1.0 0.453125q-0.40625 0.453125 -0.40625 1.296875zm9.071777 2.859375l0 -0.859375q-0.3125 0.46875 -0.828125 0.734375q-0.5 0.25 -1.0625 0.25q-0.578125 0 -1.03125 -0.25q-0.453125 -0.25 -0.671875 -0.703125q-0.203125 -0.46875 -0.203125 -1.265625l0 -3.609375l1.515625 0l0 2.625q0 1.203125 0.078125 1.46875q0.09375 0.265625 0.3125 0.4375q0.21875 0.15625 0.5625 0.15625q0.375 0 0.6875 -0.203125q0.3125 -0.21875 0.421875 -0.53125q0.109375 -0.328125 0.109375 -1.546875l0 -2.40625l1.515625 0l0 5.703125l-1.40625 0zm2.7123718 -5.703125l1.40625 0l0 0.84375q0.265625 -0.4375 0.734375 -0.703125q0.46875 -0.265625 1.046875 -0.265625q0.984375 0 1.671875 0.78125q0.703125 0.765625 0.703125 2.15625q0 1.4375 -0.703125 2.234375q-0.6875 0.78125 -1.6875 0.78125q-0.46875 0 -0.859375 -0.1875q-0.375 -0.1875 -0.8125 -0.640625l0 2.875l-1.5 0l0 -7.875zm1.484375 2.75q0 0.96875 0.375 1.4375q0.390625 0.453125 0.9375 0.453125q0.53125 0 0.875 -0.421875q0.359375 -0.421875 0.359375 -1.390625q0 -0.890625 -0.359375 -1.328125q-0.359375 -0.4375 -0.890625 -0.4375q-0.5625 0 -0.9375 0.4375q-0.359375 0.421875 -0.359375 1.25z" fill-rule="nonzero"></path><path fill="#ffffff" d="m211.18636 227.14436l260.8819 0l0 27.02362l-260.8819 0z" fill-rule="nonzero"></path><path stroke="#0b5394" stroke-width="1.0" stroke-linejoin="round" stroke-linecap="butt" d="m211.18636 227.14436l260.8819 0l0 27.02362l-260.8819 0z" fill-rule="nonzero"></path><path fill="#c27ba0" d="m307.51822 226.52116l3.140625 0q0.9375 0 1.390625 0.078125q0.46875 0.078125 0.828125 0.328125q0.359375 0.25 0.59375 0.65625q0.25 0.40625 0.25 0.921875q0 0.546875 -0.296875 1.015625q-0.296875 0.453125 -0.8125 0.6875q0.71875 0.21875 1.109375 0.71875q0.390625 0.5 0.390625 1.1875q0 0.53125 -0.25 1.046875q-0.25 0.5 -0.6875 0.8125q-0.4375 0.296875 -1.0625 0.375q-0.40625 0.03125 -1.921875 0.046875l-2.671875 0l0 -7.875zm1.578125 1.3125l0 1.8125l1.046875 0q0.921875 0 1.15625 -0.015625q0.40625 -0.046875 0.640625 -0.28125q0.234375 -0.234375 0.234375 -0.625q0 -0.359375 -0.203125 -0.578125q-0.203125 -0.234375 -0.59375 -0.28125q-0.234375 -0.03125 -1.359375 -0.03125l-0.921875 0zm0 3.125l0 2.109375l1.484375 0q0.859375 0 1.078125 -0.046875q0.359375 -0.0625 0.578125 -0.3125q0.234375 -0.25 0.234375 -0.671875q0 -0.359375 -0.171875 -0.59375q-0.171875 -0.25 -0.5 -0.359375q-0.328125 -0.125 -1.421875 -0.125l-1.28125 0zm5.742462 0.5q0 -0.75 0.375 -1.453125q0.375 -0.703125 1.046875 -1.0625q0.6875 -0.375 1.515625 -0.375q1.296875 0 2.125 0.84375q0.828125 0.828125 0.828125 2.109375q0 1.296875 -0.84375 2.15625q-0.828125 0.84375 -2.09375 0.84375q-0.78125 0 -1.5 -0.34375q-0.703125 -0.359375 -1.078125 -1.046875q-0.375 -0.6875 -0.375 -1.671875zm1.546875 0.078125q0 0.859375 0.40625 1.3125q0.40625 0.453125 1.0 0.453125q0.578125 0 0.984375 -0.453125q0.40625 -0.453125 0.40625 -1.3125q0 -0.84375 -0.40625 -1.296875q-0.40625 -0.453125 -0.984375 -0.453125q-0.59375 0 -1.0 0.453125q-0.40625 0.453125 -0.40625 1.296875zm9.071777 2.859375l0 -0.859375q-0.3125 0.46875 -0.828125 0.734375q-0.5 0.25 -1.0625 0.25q-0.578125 0 -1.03125 -0.25q-0.453125 -0.25 -0.671875 -0.703125q-0.203125 -0.46875 -0.203125 -1.265625l0 -3.609375l1.515625 0l0 2.625q0 1.203125 0.078125 1.46875q0.09375 0.265625 0.3125 0.4375q0.21875 0.15625 0.5625 0.15625q0.375 0 0.6875 -0.203125q0.3125 -0.21875 0.421875 -0.53125q0.109375 -0.328125 0.109375 -1.546875l0 -2.40625l1.515625 0l0 5.703125l-1.40625 0zm7.946747 0l-1.515625 0l0 -2.90625q0 -0.921875 -0.09375 -1.1875q-0.09375 -0.28125 -0.3125 -0.421875q-0.21875 -0.15625 -0.53125 -0.15625q-0.390625 0 -0.703125 0.21875q-0.3125 0.203125 -0.4375 0.5625q-0.109375 0.34375 -0.109375 1.3125l0 2.578125l-1.5 0l0 -5.703125l1.40625 0l0 0.84375q0.734375 -0.96875 1.875 -0.96875q0.5 0 0.90625 0.1875q0.421875 0.171875 0.625 0.453125q0.21875 0.265625 0.296875 0.625q0.09375 0.359375 0.09375 1.015625l0 3.546875zm6.540497 0l-1.3905945 0l0 -0.84375q-0.359375 0.5 -0.84375 0.734375q-0.46875 0.234375 -0.9375 0.234375q-0.984375 0 -1.6875 -0.78125q-0.703125 -0.796875 -0.703125 -2.21875q0 -1.453125 0.671875 -2.203125q0.6875 -0.75 1.734375 -0.75q0.953125 0 1.65625 0.796875l0 -2.84375l1.4999695 0l0 7.875zm-4.0155945 -2.96875q0 0.90625 0.25 1.3125q0.359375 0.59375 1.015625 0.59375q0.515625 0 0.875 -0.4375q0.375 -0.453125 0.375 -1.328125q0 -0.984375 -0.359375 -1.40625q-0.34375 -0.4375 -0.90625 -0.4375q-0.53125 0 -0.890625 0.421875q-0.359375 0.421875 -0.359375 1.28125zm5.306122 -3.515625l0 -1.390625l1.5 0l0 1.390625l-1.5 0zm0 6.484375l0 -5.703125l1.5 0l0 5.703125l-1.5 0zm8.148132 0l-1.515625 0l0 -2.90625q0 -0.921875 -0.09375 -1.1875q-0.09375 -0.28125 -0.3125 -0.421875q-0.21875 -0.15625 -0.53125 -0.15625q-0.390625 0 -0.703125 0.21875q-0.3125 0.203125 -0.4375 0.5625q-0.109375 0.34375 -0.109375 1.3125l0 2.578125l-1.5 0l0 -5.703125l1.40625 0l0 0.84375q0.734375 -0.96875 1.875 -0.96875q0.5 0 0.90625 0.1875q0.421875 0.171875 0.625 0.453125q0.21875 0.265625 0.296875 0.625q0.09375 0.359375 0.09375 1.015625l0 3.546875zm1.1811523 0.375l1.71875 0.203125q0.046875 0.3125 0.203125 0.421875q0.203125 0.15625 0.671875 0.15625q0.59375 0 0.890625 -0.171875q0.1875 -0.125 0.296875 -0.375q0.0625 -0.203125 0.0625 -0.703125l0 -0.828125q-0.671875 0.921875 -1.703125 0.921875q-1.140625 0 -1.8125 -0.96875q-0.53125 -0.765625 -0.53125 -1.921875q0 -1.421875 0.6875 -2.171875q0.6875 -0.765625 1.71875 -0.765625q1.0625 0 1.75 0.921875l0 -0.796875l1.40625 0l0 5.125q0 1.0 -0.171875 1.5q-0.15625 0.5 -0.46875 0.78125q-0.296875 0.296875 -0.796875 0.453125q-0.5 0.15625 -1.265625 0.15625q-1.453125 0 -2.0625 -0.5q-0.609375 -0.484375 -0.609375 -1.25q0 -0.078125 0.015625 -0.1875zm1.34375 -3.34375q0 0.90625 0.34375 1.328125q0.359375 0.421875 0.875 0.421875q0.546875 0 0.921875 -0.421875q0.390625 -0.4375 0.390625 -1.296875q0 -0.875 -0.375 -1.296875q-0.359375 -0.4375 -0.90625 -0.4375q-0.546875 0 -0.90625 0.421875q-0.34375 0.421875 -0.34375 1.28125zm5.321747 -4.90625l3.140625 0q0.9375 0 1.390625 0.078125q0.46875 0.078125 0.828125 0.328125q0.359375 0.25 0.59375 0.65625q0.25 0.40625 0.25 0.921875q0 0.546875 -0.296875 1.015625q-0.296875 0.453125 -0.8125 0.6875q0.71875 0.21875 1.109375 0.71875q0.390625 0.5 0.390625 1.1875q0 0.53125 -0.25 1.046875q-0.25 0.5 -0.6875 0.8125q-0.4375 0.296875 -1.0625 0.375q-0.40625 0.03125 -1.921875 0.046875l-2.671875 0l0 -7.875zm1.578125 1.3125l0 1.8125l1.046875 0q0.921875 0 1.15625 -0.015625q0.40625 -0.046875 0.640625 -0.28125q0.234375 -0.234375 0.234375 -0.625q0 -0.359375 -0.203125 -0.578125q-0.203125 -0.234375 -0.59375 -0.28125q-0.234375 -0.03125 -1.359375 -0.03125l-0.921875 0zm0 3.125l0 2.109375l1.484375 0q0.859375 0 1.078125 -0.046875q0.359375 -0.0625 0.578125 -0.3125q0.234375 -0.25 0.234375 -0.671875q0 -0.359375 -0.171875 -0.59375q-0.171875 -0.25 -0.5 -0.359375q-0.328125 -0.125 -1.421875 -0.125l-1.28125 0zm5.7424927 0.5q0 -0.75 0.375 -1.453125q0.375 -0.703125 1.046875 -1.0625q0.6875 -0.375 1.515625 -0.375q1.296875 0 2.125 0.84375q0.828125 0.828125 0.828125 2.109375q0 1.296875 -0.84375 2.15625q-0.828125 0.84375 -2.09375 0.84375q-0.78125 0 -1.5 -0.34375q-0.703125 -0.359375 -1.078125 -1.046875q-0.375 -0.6875 -0.375 -1.671875zm1.546875 0.078125q0 0.859375 0.40625 1.3125q0.40625 0.453125 1.0 0.453125q0.578125 0 0.984375 -0.453125q0.40625 -0.453125 0.40625 -1.3125q0 -0.84375 -0.40625 -1.296875q-0.40625 -0.453125 -0.984375 -0.453125q-0.59375 0 -1.0 0.453125q-0.40625 0.453125 -0.40625 1.296875zm4.587372 2.859375l2.0625 -2.9375l-1.96875 -2.765625l1.84375 0l1.0 1.5625l1.0625 -1.5625l1.78125 0l-1.9375 2.703125l2.109375 3.0l-1.859375 0l-1.15625 -1.765625l-1.171875 1.765625l-1.765625 0z" fill-rule="nonzero"></path><path fill="#c27ba0" d="m297.79526 246.52367l-0.75 0q-0.59375 -0.90625 -0.90625 -1.875q-0.3125 -0.984375 -0.3125 -1.890625q0 -1.125 0.390625 -2.140625q0.328125 -0.875 0.84375 -1.609375l0.75 0q-0.53125 1.1875 -0.734375 2.015625q-0.203125 0.828125 -0.203125 1.765625q0 0.640625 0.109375 1.3125q0.125 0.671875 0.34375 1.28125q0.125 0.390625 0.46875 1.140625zm0.3203125 -1.6875l1.5 -2.140625l-1.4375 -2.015625l1.34375 0l0.734375 1.140625l0.765625 -1.140625l1.296875 0l-1.40625 1.96875l1.53125 2.1875l-1.34375 0l-0.84375 -1.28125l-0.859375 1.28125l-1.28125 0zm4.9023438 -4.15625l1.0 0l0 0.578125q0.546875 -0.671875 1.296875 -0.671875q0.40625 0 0.6875 0.171875q0.296875 0.15625 0.484375 0.5q0.28125 -0.34375 0.59375 -0.5q0.3125 -0.171875 0.671875 -0.171875q0.453125 0 0.765625 0.1875q0.328125 0.1875 0.484375 0.546875q0.109375 0.265625 0.109375 0.859375l0 2.65625l-1.09375 0l0 -2.375q0 -0.609375 -0.109375 -0.796875q-0.15625 -0.234375 -0.46875 -0.234375q-0.234375 0 -0.4375 0.140625q-0.203125 0.140625 -0.296875 0.421875q-0.09375 0.265625 -0.09375 0.84375l0 2.0l-1.09375 0l0 -2.28125q0 -0.59375 -0.0625 -0.765625q-0.046875 -0.1875 -0.171875 -0.265625q-0.125 -0.09375 -0.34375 -0.09375q-0.25 0 -0.453125 0.140625q-0.203125 0.140625 -0.296875 0.40625q-0.078125 0.25 -0.078125 0.84375l0 2.015625l-1.09375 0l0 -4.15625zm7.1914062 4.15625l0 -5.734375l1.09375 0l0 5.734375l-1.09375 0zm5.9882812 0l-1.09375 0l0 -2.125q0 -0.671875 -0.078125 -0.859375q-0.0625 -0.203125 -0.21875 -0.3125q-0.15625 -0.109375 -0.375 -0.109375q-0.296875 0 -0.53125 0.15625q-0.21875 0.15625 -0.296875 0.421875q-0.078125 0.25 -0.078125 0.953125l0 1.875l-1.109375 0l0 -4.15625l1.03125 0l0 0.609375q0.53125 -0.703125 1.359375 -0.703125q0.359375 0 0.65625 0.140625q0.3125 0.125 0.46875 0.328125q0.15625 0.203125 0.203125 0.46875q0.0625 0.25 0.0625 0.734375l0 2.578125zm0.73046875 -1.1875l1.109375 -0.171875q0.0625 0.328125 0.28125 0.5q0.21875 0.15625 0.59375 0.15625q0.4375 0 0.640625 -0.15625q0.15625 -0.109375 0.15625 -0.296875q0 -0.125 -0.078125 -0.203125q-0.09375 -0.078125 -0.375 -0.140625q-1.328125 -0.296875 -1.6875 -0.53125q-0.484375 -0.34375 -0.484375 -0.9375q0 -0.546875 0.421875 -0.90625q0.421875 -0.375 1.328125 -0.375q0.84375 0 1.25 0.28125q0.421875 0.28125 0.578125 0.828125l-1.03125 0.1875q-0.0625 -0.25 -0.25 -0.375q-0.1875 -0.125 -0.53125 -0.125q-0.4375 0 -0.625 0.125q-0.125 0.078125 -0.125 0.21875q0 0.109375 0.109375 0.203125q0.15625 0.109375 1.03125 0.3125q0.875 0.1875 1.21875 0.484375q0.34375 0.28125 0.34375 0.8125q0 0.5625 -0.484375 0.984375q-0.46875 0.40625 -1.40625 0.40625q-0.84375 0 -1.34375 -0.34375q-0.484375 -0.34375 -0.640625 -0.9375zm5.0429688 -1.859375l0 -1.109375l1.109375 0l0 1.109375l-1.109375 0zm0 3.046875l0 -1.09375l1.109375 0l0 1.09375l-1.109375 0zm3.5546875 -5.734375l0 2.109375q0.53125 -0.625 1.265625 -0.625q0.375 0 0.671875 0.140625q0.3125 0.140625 0.46875 0.359375q0.15625 0.21875 0.203125 0.484375q0.0625 0.265625 0.0625 0.828125l0 2.4375l-1.09375 0l0 -2.1875q0 -0.65625 -0.0625 -0.828125q-0.0625 -0.1875 -0.21875 -0.28125q-0.15625 -0.109375 -0.390625 -0.109375q-0.28125 0 -0.5 0.140625q-0.203125 0.125 -0.3125 0.390625q-0.09375 0.265625 -0.09375 0.796875l0 2.078125l-1.09375 0l0 -5.734375l1.09375 0zm5.6992188 1.578125l0 0.875l-0.75 0l0 1.671875q0 0.515625 0.015625 0.609375q0.015625 0.078125 0.09375 0.140625q0.078125 0.046875 0.1875 0.046875q0.15625 0 0.4375 -0.109375l0.09375 0.84375q-0.375 0.171875 -0.859375 0.171875q-0.296875 0 -0.546875 -0.09375q-0.234375 -0.109375 -0.34375 -0.265625q-0.109375 -0.15625 -0.15625 -0.421875q-0.03125 -0.203125 -0.03125 -0.78125l0 -1.8125l-0.5 0l0 -0.875l0.5 0l0 -0.8125l1.109375 -0.640625l0 1.453125l0.75 0zm2.6640625 0l0 0.875l-0.75 0l0 1.671875q0 0.515625 0.015625 0.609375q0.015625 0.078125 0.09375 0.140625q0.078125 0.046875 0.1875 0.046875q0.15625 0 0.4375 -0.109375l0.09375 0.84375q-0.375 0.171875 -0.859375 0.171875q-0.296875 0 -0.546875 -0.09375q-0.234375 -0.109375 -0.34375 -0.265625q-0.109375 -0.15625 -0.15625 -0.421875q-0.03125 -0.203125 -0.03125 -0.78125l0 -1.8125l-0.5 0l0 -0.875l0.5 0l0 -0.8125l1.109375 -0.640625l0 1.453125l0.75 0zm0.7265625 0l1.015625 0l0 0.609375q0.203125 -0.3125 0.546875 -0.5q0.34375 -0.203125 0.75 -0.203125q0.71875 0 1.21875 0.578125q0.515625 0.5625 0.515625 1.578125q0 1.03125 -0.515625 1.609375q-0.5 0.578125 -1.21875 0.578125q-0.34375 0 -0.625 -0.140625q-0.28125 -0.140625 -0.59375 -0.46875l0 2.09375l-1.09375 0l0 -5.734375zm1.078125 2.015625q0 0.6875 0.28125 1.03125q0.28125 0.328125 0.671875 0.328125q0.390625 0 0.640625 -0.296875q0.25 -0.3125 0.25 -1.015625q0 -0.65625 -0.265625 -0.96875q-0.25 -0.3125 -0.640625 -0.3125q-0.40625 0 -0.671875 0.3125q-0.265625 0.3125 -0.265625 0.921875zm4.0429688 -0.90625l0 -1.109375l1.109375 0l0 1.109375l-1.109375 0zm0 3.046875l0 -1.09375l1.109375 0l0 1.09375l-1.109375 0zm1.8671875 0.09375l1.421875 -5.921875l0.828125 0l-1.4375 5.921875l-0.8125 0zm2.2226562 0l1.421875 -5.921875l0.828125 0l-1.4375 5.921875l-0.8125 0zm3.5820312 -0.09375l-1.3125 -4.15625l1.078125 0l0.765625 2.71875l0.71875 -2.71875l1.0625 0l0.6875 2.71875l0.796875 -2.71875l1.078125 0l-1.328125 4.15625l-1.0625 0l-0.703125 -2.671875l-0.703125 2.671875l-1.078125 0zm6.2226562 0l-1.3125 -4.15625l1.078125 0l0.765625 2.71875l0.71875 -2.71875l1.0625 0l0.6875 2.71875l0.796875 -2.71875l1.078125 0l-1.328125 4.15625l-1.0625 0l-0.703125 -2.671875l-0.703125 2.671875l-1.078125 0zm6.2226562 0l-1.3125 -4.15625l1.078125 0l0.765625 2.71875l0.71875 -2.71875l1.0625 0l0.6875 2.71875l0.796875 -2.71875l1.078125 0l-1.328125 4.15625l-1.0625 0l-0.703125 -2.671875l-0.703125 2.671875l-1.078125 0zm5.4570312 0l0 -1.09375l1.09375 0l0 1.09375l-1.09375 0zm1.8320312 -1.1875l1.109375 -0.171875q0.0625 0.328125 0.28125 0.5q0.21875 0.15625 0.59375 0.15625q0.4375 0 0.640625 -0.15625q0.15625 -0.109375 0.15625 -0.296875q0 -0.125 -0.078125 -0.203125q-0.09375 -0.078125 -0.375 -0.140625q-1.328125 -0.296875 -1.6875 -0.53125q-0.484375 -0.34375 -0.484375 -0.9375q0 -0.546875 0.421875 -0.90625q0.421875 -0.375 1.328125 -0.375q0.84375 0 1.25 0.28125q0.421875 0.28125 0.578125 0.828125l-1.03125 0.1875q-0.0625 -0.25 -0.25 -0.375q-0.1875 -0.125 -0.53125 -0.125q-0.4375 0 -0.625 0.125q-0.125 0.078125 -0.125 0.21875q0 0.109375 0.109375 0.203125q0.15625 0.109375 1.03125 0.3125q0.875 0.1875 1.21875 0.484375q0.34375 0.28125 0.34375 0.8125q0 0.5625 -0.484375 0.984375q-0.46875 0.40625 -1.40625 0.40625q-0.84375 0 -1.34375 -0.34375q-0.484375 -0.34375 -0.640625 -0.9375zm4.7929688 1.1875l0 -5.734375l1.09375 0l0 2.0625q0.515625 -0.578125 1.203125 -0.578125q0.765625 0 1.25 0.5625q0.5 0.546875 0.5 1.5625q0 1.0625 -0.515625 1.640625q-0.5 0.578125 -1.21875 0.578125q-0.359375 0 -0.703125 -0.171875q-0.34375 -0.1875 -0.59375 -0.53125l0 0.609375l-1.015625 0zm1.09375 -2.171875q0 0.65625 0.203125 0.953125q0.28125 0.4375 0.75 0.4375q0.359375 0 0.609375 -0.296875q0.265625 -0.3125 0.265625 -0.984375q0 -0.71875 -0.265625 -1.03125q-0.25 -0.3125 -0.65625 -0.3125q-0.390625 0 -0.65625 0.3125q-0.25 0.296875 -0.25 0.921875zm3.7617188 -1.984375l1.0 0l0 0.578125q0.546875 -0.671875 1.296875 -0.671875q0.40625 0 0.6875 0.171875q0.296875 0.15625 0.484375 0.5q0.28125 -0.34375 0.59375 -0.5q0.3125 -0.171875 0.671875 -0.171875q0.453125 0 0.765625 0.1875q0.328125 0.1875 0.484375 0.546875q0.109375 0.265625 0.109375 0.859375l0 2.65625l-1.09375 0l0 -2.375q0 -0.609375 -0.109375 -0.796875q-0.15625 -0.234375 -0.46875 -0.234375q-0.234375 0 -0.4375 0.140625q-0.203125 0.140625 -0.296875 0.421875q-0.09375 0.265625 -0.09375 0.84375l0 2.0l-1.09375 0l0 -2.28125q0 -0.59375 -0.0625 -0.765625q-0.046875 -0.1875 -0.171875 -0.265625q-0.125 -0.09375 -0.34375 -0.09375q-0.25 0 -0.453125 0.140625q-0.203125 0.140625 -0.296875 0.40625q-0.078125 0.25 -0.078125 0.84375l0 2.015625l-1.09375 0l0 -4.15625zm7.1914062 4.15625l0 -5.734375l1.09375 0l0 5.734375l-1.09375 0zm2.2226562 0l0 -1.09375l1.09375 0l0 1.09375l-1.09375 0z" fill-rule="nonzero"></path><path fill="#c27ba0" d="m263.4808 252.69554q0 -0.546875 0.265625 -1.046875q0.265625 -0.515625 0.75 -0.78125q0.5 -0.28125 1.109375 -0.28125q0.953125 0 1.546875 0.625q0.609375 0.609375 0.609375 1.53125q0 0.953125 -0.609375 1.578125q-0.609375 0.609375 -1.53125 0.609375q-0.578125 0 -1.09375 -0.25q-0.515625 -0.265625 -0.78125 -0.765625q-0.265625 -0.5 -0.265625 -1.21875zm1.125 0.0625q0 0.625 0.28125 0.953125q0.296875 0.328125 0.734375 0.328125q0.421875 0 0.703125 -0.328125q0.296875 -0.328125 0.296875 -0.953125q0 -0.609375 -0.296875 -0.9375q-0.28125 -0.328125 -0.703125 -0.328125q-0.4375 0 -0.734375 0.328125q-0.28125 0.328125 -0.28125 0.9375zm5.0585938 2.078125l-1.09375 0l0 -4.15625l1.015625 0l0 0.59375q0.265625 -0.421875 0.46875 -0.546875q0.21875 -0.140625 0.484375 -0.140625q0.375 0 0.71875 0.21875l-0.34375 0.953125q-0.28125 -0.1875 -0.515625 -0.1875q-0.234375 0 -0.390625 0.140625q-0.15625 0.125 -0.25 0.453125q-0.09375 0.328125 -0.09375 1.390625l0 1.28125zm1.9570312 0.28125l1.265625 0.140625q0.03125 0.21875 0.140625 0.3125q0.15625 0.109375 0.484375 0.109375q0.4375 0 0.65625 -0.125q0.140625 -0.09375 0.21875 -0.28125q0.046875 -0.140625 0.046875 -0.5l0 -0.609375q-0.5 0.671875 -1.25 0.671875q-0.828125 0 -1.3125 -0.703125q-0.390625 -0.5625 -0.390625 -1.390625q0 -1.046875 0.5 -1.59375q0.5 -0.5625 1.25 -0.5625q0.765625 0 1.265625 0.6875l0 -0.59375l1.03125 0l0 3.734375q0 0.734375 -0.125 1.09375q-0.109375 0.359375 -0.328125 0.56251526q-0.21875 0.21875 -0.59375 0.328125q-0.359375 0.125 -0.921875 0.125q-1.046875 0 -1.5 -0.359375q-0.4375 -0.35939026 -0.4375 -0.92189026q0 -0.046875 0 -0.125zm0.984375 -2.4375q0 0.65625 0.25 0.96875q0.265625 0.296875 0.640625 0.296875q0.40625 0 0.671875 -0.3125q0.28125 -0.3125 0.28125 -0.9375q0 -0.640625 -0.265625 -0.953125q-0.265625 -0.3125 -0.671875 -0.3125q-0.390625 0 -0.65625 0.3125q-0.25 0.296875 -0.25 0.9375zm3.4179688 2.25l1.421875 -5.921875l0.828125 0l-1.4375 5.921875l-0.8125 0zm2.4257812 -1.28125l1.109375 -0.171875q0.0625 0.328125 0.28125 0.5q0.21875 0.15625 0.59375 0.15625q0.4375 0 0.640625 -0.15625q0.15625 -0.109375 0.15625 -0.296875q0 -0.125 -0.078125 -0.203125q-0.09375 -0.078125 -0.375 -0.140625q-1.328125 -0.296875 -1.6875 -0.53125q-0.484375 -0.34375 -0.484375 -0.9375q0 -0.546875 0.421875 -0.90625q0.421875 -0.375 1.328125 -0.375q0.84375 0 1.25 0.28125q0.421875 0.28125 0.578125 0.828125l-1.03125 0.1875q-0.0625 -0.25 -0.25 -0.375q-0.1875 -0.125 -0.53125 -0.125q-0.4375 0 -0.625 0.125q-0.125 0.078125 -0.125 0.21875q0 0.109375 0.109375 0.203125q0.15625 0.109375 1.03125 0.3125q0.875 0.1875 1.21875 0.484375q0.34375 0.28125 0.34375 0.8125q0 0.5625 -0.484375 0.984375q-0.46875 0.40625 -1.40625 0.40625q-0.84375 0 -1.34375 -0.34375q-0.484375 -0.34375 -0.640625 -0.9375zm4.7929688 1.1875l0 -5.734375l1.09375 0l0 2.0625q0.515625 -0.578125 1.203125 -0.578125q0.765625 0 1.25 0.5625q0.5 0.546875 0.5 1.5625q0 1.0625 -0.515625 1.640625q-0.5 0.578125 -1.21875 0.578125q-0.359375 0 -0.703125 -0.171875q-0.34375 -0.1875 -0.59375 -0.53125l0 0.609375l-1.015625 0zm1.09375 -2.171875q0 0.65625 0.203125 0.953125q0.28125 0.4375 0.75 0.4375q0.359375 0 0.609375 -0.296875q0.265625 -0.3125 0.265625 -0.984375q0 -0.71875 -0.265625 -1.03125q-0.25 -0.3125 -0.65625 -0.3125q-0.390625 0 -0.65625 0.3125q-0.25 0.296875 -0.25 0.921875zm3.7617188 -1.984375l1.0 0l0 0.578125q0.546875 -0.671875 1.296875 -0.671875q0.40625 0 0.6875 0.171875q0.296875 0.15625 0.484375 0.5q0.28125 -0.34375 0.59375 -0.5q0.3125 -0.171875 0.671875 -0.171875q0.453125 0 0.765625 0.1875q0.328125 0.1875 0.484375 0.546875q0.109375 0.265625 0.109375 0.859375l0 2.65625l-1.09375 0l0 -2.375q0 -0.609375 -0.109375 -0.796875q-0.15625 -0.234375 -0.46875 -0.234375q-0.234375 0 -0.4375 0.140625q-0.203125 0.140625 -0.296875 0.421875q-0.09375 0.265625 -0.09375 0.84375l0 2.0l-1.09375 0l0 -2.28125q0 -0.59375 -0.0625 -0.765625q-0.046875 -0.1875 -0.171875 -0.265625q-0.125 -0.09375 -0.34375 -0.09375q-0.25 0 -0.453125 0.140625q-0.203125 0.140625 -0.296875 0.40625q-0.078125 0.25 -0.078125 0.84375l0 2.015625l-1.09375 0l0 -4.15625zm7.1914062 4.15625l0 -5.734375l1.09375 0l0 5.734375l-1.09375 0zm1.6289062 0.09375l1.421875 -5.921875l0.828125 0l-1.4375 5.921875l-0.8125 0zm2.8164062 -0.09375l0 -5.734375l1.09375 0l0 5.734375l-1.09375 0zm4.6289062 -1.328125l1.09375 0.1875q-0.21875 0.609375 -0.671875 0.921875q-0.453125 0.3125 -1.140625 0.3125q-1.078125 0 -1.59375 -0.703125q-0.421875 -0.578125 -0.421875 -1.4375q0 -1.03125 0.53125 -1.609375q0.546875 -0.59375 1.375 -0.59375q0.921875 0 1.453125 0.625q0.546875 0.609375 0.515625 1.859375l-2.75 0q0.015625 0.5 0.265625 0.765625q0.265625 0.265625 0.640625 0.265625q0.25 0 0.421875 -0.140625q0.1875 -0.140625 0.28125 -0.453125zm0.0625 -1.109375q-0.015625 -0.46875 -0.25 -0.71875q-0.234375 -0.25 -0.578125 -0.25q-0.359375 0 -0.59375 0.265625q-0.234375 0.265625 -0.21875 0.703125l1.640625 0zm3.1210938 2.4375l-1.671875 -4.15625l1.15625 0l0.78125 2.125l0.21875 0.703125q0.09375 -0.265625 0.109375 -0.359375q0.0625 -0.171875 0.125 -0.34375l0.78125 -2.125l1.140625 0l-1.65625 4.15625l-0.984375 0zm5.7148438 -1.328125l1.09375 0.1875q-0.21875 0.609375 -0.671875 0.921875q-0.453125 0.3125 -1.140625 0.3125q-1.078125 0 -1.59375 -0.703125q-0.421875 -0.578125 -0.421875 -1.4375q0 -1.03125 0.53125 -1.609375q0.546875 -0.59375 1.375 -0.59375q0.921875 0 1.453125 0.625q0.546875 0.609375 0.515625 1.859375l-2.75 0q0.015625 0.5 0.265625 0.765625q0.265625 0.265625 0.640625 0.265625q0.25 0 0.421875 -0.140625q0.1875 -0.140625 0.28125 -0.453125zm0.0625 -1.109375q-0.015625 -0.46875 -0.25 -0.71875q-0.234375 -0.25 -0.578125 -0.25q-0.359375 0 -0.59375 0.265625q-0.234375 0.265625 -0.21875 0.703125l1.640625 0zm1.9804688 2.4375l0 -5.734375l1.09375 0l0 5.734375l-1.09375 0zm1.9414062 -1.515625l1.0625 -0.140625q0.0625 0.40625 0.28125 0.625q0.21875 0.21875 0.53125 0.21875q0.34375 0 0.578125 -0.25q0.234375 -0.265625 0.234375 -0.703125q0 -0.421875 -0.234375 -0.65625q-0.21875 -0.25 -0.53125 -0.25q-0.21875 0 -0.5 0.09375l0.109375 -0.90625q0.453125 0.015625 0.6875 -0.1875q0.234375 -0.203125 0.234375 -0.546875q0 -0.28125 -0.171875 -0.453125q-0.171875 -0.171875 -0.453125 -0.171875q-0.28125 0 -0.484375 0.203125q-0.203125 0.1875 -0.25 0.5625l-1.0 -0.171875q0.09375 -0.53125 0.3125 -0.828125q0.21875 -0.3125 0.59375 -0.484375q0.375 -0.1875 0.859375 -0.1875q0.796875 0 1.296875 0.515625q0.390625 0.421875 0.390625 0.953125q0 0.75 -0.8125 1.203125q0.484375 0.109375 0.78125 0.484375q0.296875 0.359375 0.296875 0.875q0 0.75 -0.5625 1.28125q-0.546875 0.53125 -1.359375 0.53125q-0.78125 0 -1.296875 -0.4375q-0.5 -0.453125 -0.59375 -1.171875zm4.1367188 1.609375l1.421875 -5.921875l0.828125 0l-1.4375 5.921875l-0.8125 0zm3.9570312 -0.09375l-1.671875 -4.15625l1.15625 0l0.78125 2.125l0.21875 0.703125q0.09375 -0.265625 0.109375 -0.359375q0.0625 -0.171875 0.125 -0.34375l0.78125 -2.125l1.140625 0l-1.65625 4.15625l-0.984375 0zm5.7148438 -1.328125l1.09375 0.1875q-0.21875 0.609375 -0.671875 0.921875q-0.453125 0.3125 -1.140625 0.3125q-1.078125 0 -1.59375 -0.703125q-0.421875 -0.578125 -0.421875 -1.4375q0 -1.03125 0.53125 -1.609375q0.546875 -0.59375 1.375 -0.59375q0.921875 0 1.453125 0.625q0.546875 0.609375 0.515625 1.859375l-2.75 0q0.015625 0.5 0.265625 0.765625q0.265625 0.265625 0.640625 0.265625q0.25 0 0.421875 -0.140625q0.1875 -0.140625 0.28125 -0.453125zm0.0625 -1.109375q-0.015625 -0.46875 -0.25 -0.71875q-0.234375 -0.25 -0.578125 -0.25q-0.359375 0 -0.59375 0.265625q-0.234375 0.265625 -0.21875 0.703125l1.640625 0zm3.0273438 2.4375l-1.09375 0l0 -4.15625l1.015625 0l0 0.59375q0.265625 -0.421875 0.46875 -0.546875q0.21875 -0.140625 0.484375 -0.140625q0.375 0 0.71875 0.21875l-0.34375 0.953125q-0.28125 -0.1875 -0.515625 -0.1875q-0.234375 0 -0.390625 0.140625q-0.15625 0.125 -0.25 0.453125q-0.09375 0.328125 -0.09375 1.390625l0 1.28125zm1.6757812 -1.1875l1.109375 -0.171875q0.0625 0.328125 0.28125 0.5q0.21875 0.15625 0.59375 0.15625q0.4375 0 0.640625 -0.15625q0.15625 -0.109375 0.15625 -0.296875q0 -0.125 -0.078125 -0.203125q-0.09375 -0.078125 -0.375 -0.140625q-1.328125 -0.296875 -1.6875 -0.53125q-0.484375 -0.34375 -0.484375 -0.9375q0 -0.546875 0.421875 -0.90625q0.421875 -0.375 1.328125 -0.375q0.84375 0 1.25 0.28125q0.421875 0.28125 0.578125 0.828125l-1.03125 0.1875q-0.0625 -0.25 -0.25 -0.375q-0.1875 -0.125 -0.53125 -0.125q-0.4375 0 -0.625 0.125q-0.125 0.078125 -0.125 0.21875q0 0.109375 0.109375 0.203125q0.15625 0.109375 1.03125 0.3125q0.875 0.1875 1.21875 0.484375q0.34375 0.28125 0.34375 0.8125q0 0.5625 -0.484375 0.984375q-0.46875 0.40625 -1.40625 0.40625q-0.84375 0 -1.34375 -0.34375q-0.484375 -0.34375 -0.640625 -0.9375zm4.8398438 -3.53125l0 -1.015625l1.09375 0l0 1.015625l-1.09375 0zm0 4.71875l0 -4.15625l1.09375 0l0 4.15625l-1.09375 0zm1.9726562 -2.140625q0 -0.546875 0.265625 -1.046875q0.265625 -0.515625 0.75 -0.78125q0.5 -0.28125 1.109375 -0.28125q0.953125 0 1.546875 0.625q0.609375 0.609375 0.609375 1.53125q0 0.953125 -0.609375 1.578125q-0.609375 0.609375 -1.53125 0.609375q-0.578125 0 -1.09375 -0.25q-0.515625 -0.265625 -0.78125 -0.765625q-0.265625 -0.5 -0.265625 -1.21875zm1.125 0.0625q0 0.625 0.28125 0.953125q0.296875 0.328125 0.734375 0.328125q0.421875 0 0.703125 -0.328125q0.296875 -0.328125 0.296875 -0.953125q0 -0.609375 -0.296875 -0.9375q-0.28125 -0.328125 -0.703125 -0.328125q-0.4375 0 -0.734375 0.328125q-0.28125 0.328125 -0.28125 0.9375zm7.7773438 2.078125l-1.09375 0l0 -2.125q0 -0.671875 -0.078125 -0.859375q-0.0625 -0.203125 -0.21875 -0.3125q-0.15625 -0.109375 -0.375 -0.109375q-0.296875 0 -0.53125 0.15625q-0.21875 0.15625 -0.296875 0.421875q-0.078125 0.25 -0.078125 0.953125l0 1.875l-1.109375 0l0 -4.15625l1.03125 0l0 0.609375q0.53125 -0.703125 1.359375 -0.703125q0.359375 0 0.65625 0.140625q0.3125 0.125 0.46875 0.328125q0.15625 0.203125 0.203125 0.46875q0.0625 0.25 0.0625 0.734375l0 2.578125zm3.6992188 0l-1.109375 0l0 -4.140625q-0.59375 0.5625 -1.40625 0.828125l0 -0.984375q0.421875 -0.140625 0.921875 -0.53125q0.515625 -0.40625 0.703125 -0.921875l0.890625 0l0 5.75zm1.2773438 0.09375l1.421875 -5.921875l0.828125 0l-1.4375 5.921875l-0.8125 0zm2.8164062 -0.09375l0 -5.734375l1.09375 0l0 5.734375l-1.09375 0zm3.0351562 -2.890625l-0.984375 -0.171875q0.15625 -0.609375 0.5625 -0.890625q0.421875 -0.296875 1.234375 -0.296875q0.734375 0 1.09375 0.1875q0.359375 0.171875 0.5 0.4375q0.140625 0.265625 0.140625 0.984375l0 1.28125q0 0.546875 0.046875 0.8125q0.046875 0.25 0.203125 0.546875l-1.09375 0q-0.046875 -0.109375 -0.109375 -0.328125q-0.015625 -0.09375 -0.03125 -0.125q-0.28125 0.265625 -0.609375 0.40625q-0.3125 0.140625 -0.671875 0.140625q-0.640625 0 -1.015625 -0.34375q-0.375 -0.359375 -0.375 -0.890625q0 -0.34375 0.171875 -0.609375q0.171875 -0.28125 0.46875 -0.421875q0.3125 -0.15625 0.875 -0.265625q0.765625 -0.140625 1.0625 -0.265625l0 -0.109375q0 -0.328125 -0.15625 -0.453125q-0.15625 -0.140625 -0.578125 -0.140625q-0.296875 0 -0.46875 0.125q-0.15625 0.109375 -0.265625 0.390625zm1.46875 0.890625q-0.203125 0.078125 -0.671875 0.171875q-0.453125 0.09375 -0.59375 0.1875q-0.203125 0.15625 -0.203125 0.390625q0 0.234375 0.171875 0.40625q0.171875 0.15625 0.4375 0.15625q0.296875 0 0.5625 -0.1875q0.203125 -0.15625 0.265625 -0.359375q0.03125 -0.140625 0.03125 -0.546875l0 -0.21875zm1.6523438 -2.15625l1.15625 0l1.0 2.953125l0.96875 -2.953125l1.140625 0l-1.46875 4.0l-0.265625 0.71875q-0.140625 0.375 -0.28125 0.5625q-0.125 0.18751526 -0.296875 0.29689026q-0.171875 0.125 -0.421875 0.1875q-0.234375 0.078125 -0.546875 0.078125q-0.328125 0 -0.625 -0.0625l-0.09375 -0.85939026q0.25 0.046875 0.453125 0.046875q0.390625 0 0.5625 -0.234375q0.1875 -0.21875 0.296875 -0.5625l-1.578125 -4.171875zm4.7148438 2.015625q0 -0.546875 0.265625 -1.046875q0.265625 -0.515625 0.75 -0.78125q0.5 -0.28125 1.109375 -0.28125q0.953125 0 1.546875 0.625q0.609375 0.609375 0.609375 1.53125q0 0.953125 -0.609375 1.578125q-0.609375 0.609375 -1.53125 0.609375q-0.578125 0 -1.09375 -0.25q-0.515625 -0.265625 -0.78125 -0.765625q-0.265625 -0.5 -0.265625 -1.21875zm1.125 0.0625q0 0.625 0.28125 0.953125q0.296875 0.328125 0.734375 0.328125q0.421875 0 0.703125 -0.328125q0.296875 -0.328125 0.296875 -0.953125q0 -0.609375 -0.296875 -0.9375q-0.28125 -0.328125 -0.703125 -0.328125q-0.4375 0 -0.734375 0.328125q-0.28125 0.328125 -0.28125 0.9375zm6.7460938 2.078125l0 -0.625q-0.234375 0.328125 -0.609375 0.53125q-0.359375 0.1875 -0.765625 0.1875q-0.421875 0 -0.765625 -0.1875q-0.328125 -0.1875 -0.484375 -0.515625q-0.140625 -0.328125 -0.140625 -0.921875l0 -2.625l1.109375 0l0 1.90625q0 0.875 0.046875 1.078125q0.0625 0.203125 0.21875 0.3125q0.171875 0.109375 0.421875 0.109375q0.28125 0 0.5 -0.140625q0.21875 -0.15625 0.296875 -0.390625q0.09375 -0.234375 0.09375 -1.125l0 -1.75l1.09375 0l0 4.15625l-1.015625 0zm4.0585938 -4.15625l0 0.875l-0.75 0l0 1.671875q0 0.515625 0.015625 0.609375q0.015625 0.078125 0.09375 0.140625q0.078125 0.046875 0.1875 0.046875q0.15625 0 0.4375 -0.109375l0.09375 0.84375q-0.375 0.171875 -0.859375 0.171875q-0.296875 0 -0.546875 -0.09375q-0.234375 -0.109375 -0.34375 -0.265625q-0.109375 -0.15625 -0.15625 -0.421875q-0.03125 -0.203125 -0.03125 -0.78125l0 -1.8125l-0.5 0l0 -0.875l0.5 0l0 -0.8125l1.109375 -0.640625l0 1.453125l0.75 0zm0.1640625 4.25l1.421875 -5.921875l0.828125 0l-1.4375 5.921875l-0.8125 0zm3.9570312 -0.09375l-1.671875 -4.15625l1.15625 0l0.78125 2.125l0.21875 0.703125q0.09375 -0.265625 0.109375 -0.359375q0.0625 -0.171875 0.125 -0.34375l0.78125 -2.125l1.140625 0l-1.65625 4.15625l-0.984375 0zm5.7148438 -1.328125l1.09375 0.1875q-0.21875 0.609375 -0.671875 0.921875q-0.453125 0.3125 -1.140625 0.3125q-1.078125 0 -1.59375 -0.703125q-0.421875 -0.578125 -0.421875 -1.4375q0 -1.03125 0.53125 -1.609375q0.546875 -0.59375 1.375 -0.59375q0.921875 0 1.453125 0.625q0.546875 0.609375 0.515625 1.859375l-2.75 0q0.015625 0.5 0.265625 0.765625q0.265625 0.265625 0.640625 0.265625q0.25 0 0.421875 -0.140625q0.1875 -0.140625 0.28125 -0.453125zm0.0625 -1.109375q-0.015625 -0.46875 -0.25 -0.71875q-0.234375 -0.25 -0.578125 -0.25q-0.359375 0 -0.59375 0.265625q-0.234375 0.265625 -0.21875 0.703125l1.640625 0zm3.0273438 2.4375l-1.09375 0l0 -4.15625l1.015625 0l0 0.59375q0.265625 -0.421875 0.46875 -0.546875q0.21875 -0.140625 0.484375 -0.140625q0.375 0 0.71875 0.21875l-0.34375 0.953125q-0.28125 -0.1875 -0.515625 -0.1875q-0.234375 0 -0.390625 0.140625q-0.15625 0.125 -0.25 0.453125q-0.09375 0.328125 -0.09375 1.390625l0 1.28125zm1.6757812 -1.1875l1.109375 -0.171875q0.0625 0.328125 0.28125 0.5q0.21875 0.15625 0.59375 0.15625q0.4375 0 0.640625 -0.15625q0.15625 -0.109375 0.15625 -0.296875q0 -0.125 -0.078125 -0.203125q-0.09375 -0.078125 -0.375 -0.140625q-1.328125 -0.296875 -1.6875 -0.53125q-0.484375 -0.34375 -0.484375 -0.9375q0 -0.546875 0.421875 -0.90625q0.421875 -0.375 1.328125 -0.375q0.84375 0 1.25 0.28125q0.421875 0.28125 0.578125 0.828125l-1.03125 0.1875q-0.0625 -0.25 -0.25 -0.375q-0.1875 -0.125 -0.53125 -0.125q-0.4375 0 -0.625 0.125q-0.125 0.078125 -0.125 0.21875q0 0.109375 0.109375 0.203125q0.15625 0.109375 1.03125 0.3125q0.875 0.1875 1.21875 0.484375q0.34375 0.28125 0.34375 0.8125q0 0.5625 -0.484375 0.984375q-0.46875 0.40625 -1.40625 0.40625q-0.84375 0 -1.34375 -0.34375q-0.484375 -0.34375 -0.640625 -0.9375zm4.8398438 -3.53125l0 -1.015625l1.09375 0l0 1.015625l-1.09375 0zm0 4.71875l0 -4.15625l1.09375 0l0 4.15625l-1.09375 0zm1.9726562 -2.140625q0 -0.546875 0.265625 -1.046875q0.265625 -0.515625 0.75 -0.78125q0.5 -0.28125 1.109375 -0.28125q0.953125 0 1.546875 0.625q0.609375 0.609375 0.609375 1.53125q0 0.953125 -0.609375 1.578125q-0.609375 0.609375 -1.53125 0.609375q-0.578125 0 -1.09375 -0.25q-0.515625 -0.265625 -0.78125 -0.765625q-0.265625 -0.5 -0.265625 -1.21875zm1.125 0.0625q0 0.625 0.28125 0.953125q0.296875 0.328125 0.734375 0.328125q0.421875 0 0.703125 -0.328125q0.296875 -0.328125 0.296875 -0.953125q0 -0.609375 -0.296875 -0.9375q-0.28125 -0.328125 -0.703125 -0.328125q-0.4375 0 -0.734375 0.328125q-0.28125 0.328125 -0.28125 0.9375zm7.7773438 2.078125l-1.09375 0l0 -2.125q0 -0.671875 -0.078125 -0.859375q-0.0625 -0.203125 -0.21875 -0.3125q-0.15625 -0.109375 -0.375 -0.109375q-0.296875 0 -0.53125 0.15625q-0.21875 0.15625 -0.296875 0.421875q-0.078125 0.25 -0.078125 0.953125l0 1.875l-1.109375 0l0 -4.15625l1.03125 0l0 0.609375q0.53125 -0.703125 1.359375 -0.703125q0.359375 0 0.65625 0.140625q0.3125 0.125 0.46875 0.328125q0.15625 0.203125 0.203125 0.46875q0.0625 0.25 0.0625 0.734375l0 2.578125zm3.6992188 0l-1.109375 0l0 -4.140625q-0.59375 0.5625 -1.40625 0.828125l0 -0.984375q0.421875 -0.140625 0.921875 -0.53125q0.515625 -0.40625 0.703125 -0.921875l0.890625 0l0 5.75zm1.5585938 1.6875153q0.328125 -0.70314026 0.453125 -1.0781403q0.140625 -0.359375 0.25 -0.84375q0.125 -0.484375 0.171875 -0.921875q0.0625 -0.4375 0.0625 -0.890625q0 -0.9375 -0.203125 -1.765625q-0.203125 -0.828125 -0.734375 -2.015625l0.75 0q0.578125 0.84375 0.90625 1.78125q0.328125 0.9375 0.328125 1.90625q0 0.828125 -0.25 1.75q-0.296875 1.0625 -0.96875 2.0781403l-0.765625 0z" fill-rule="nonzero"></path><path fill="#000000" fill-opacity="0.0" d="m107.698166 226.85564l86.39371 0l0 14.992126l-86.39371 0z" fill-rule="nonzero"></path><path fill="#0b5394" d="m118.30754 238.0917l-0.890625 0l0 -7.875l0.96875 0l0 2.8125q0.609375 -0.765625 1.5625 -0.765625q0.53125 0 1.0 0.21875q0.46875 0.203125 0.765625 0.59375q0.3125 0.375 0.484375 0.921875q0.171875 0.53125 0.171875 1.15625q0 1.46875 -0.734375 2.265625q-0.71875 0.796875 -1.734375 0.796875q-1.015625 0 -1.59375 -0.84375l0 0.71875zm0 -2.890625q0 1.015625 0.28125 1.484375q0.453125 0.734375 1.234375 0.734375q0.625 0 1.078125 -0.546875q0.46875 -0.546875 0.46875 -1.640625q0 -1.109375 -0.4375 -1.640625q-0.4375 -0.53125 -1.078125 -0.53125q-0.625 0 -1.09375 0.546875q-0.453125 0.546875 -0.453125 1.59375zm4.6764984 0.03125q0 -1.578125 0.890625 -2.34375q0.734375 -0.625 1.796875 -0.625q1.171875 0 1.90625 0.765625q0.75 0.765625 0.75 2.125q0 1.109375 -0.328125 1.75q-0.328125 0.625 -0.96875 0.96875q-0.625 0.34375 -1.359375 0.34375q-1.203125 0 -1.953125 -0.765625q-0.734375 -0.765625 -0.734375 -2.21875zm1.0 0q0 1.109375 0.46875 1.65625q0.484375 0.53125 1.21875 0.53125q0.71875 0 1.1875 -0.546875q0.484375 -0.546875 0.484375 -1.671875q0 -1.046875 -0.484375 -1.59375q-0.484375 -0.546875 -1.1875 -0.546875q-0.734375 0 -1.21875 0.546875q-0.46875 0.53125 -0.46875 1.625zm9.035873 2.859375l0 -0.84375q-0.671875 0.96875 -1.8125 0.96875q-0.5 0 -0.953125 -0.1875q-0.4375 -0.203125 -0.65625 -0.484375q-0.203125 -0.296875 -0.28125 -0.71875q-0.0625 -0.28125 -0.0625 -0.90625l0 -3.53125l0.96875 0l0 3.15625q0 0.765625 0.0625 1.03125q0.09375 0.375 0.375 0.59375q0.296875 0.21875 0.734375 0.21875q0.4375 0 0.8125 -0.21875q0.390625 -0.234375 0.546875 -0.609375q0.15625 -0.390625 0.15625 -1.109375l0 -3.0625l0.96875 0l0 5.703125l-0.859375 0zm2.1764984 0l0 -5.703125l0.875 0l0 0.8125q0.625 -0.9375 1.8125 -0.9375q0.515625 0 0.953125 0.1875q0.4375 0.171875 0.640625 0.484375q0.21875 0.296875 0.3125 0.703125q0.046875 0.28125 0.046875 0.953125l0 3.5l-0.96875 0l0 -3.46875q0 -0.59375 -0.109375 -0.875q-0.109375 -0.296875 -0.40625 -0.46875q-0.28125 -0.1875 -0.671875 -0.1875q-0.609375 0 -1.0625 0.390625q-0.453125 0.390625 -0.453125 1.5l0 3.109375l-0.96875 0zm9.629623 0l0 -0.71875q-0.53125 0.84375 -1.59375 0.84375q-0.671875 0 -1.25 -0.375q-0.578125 -0.375 -0.890625 -1.046875q-0.3125 -0.671875 -0.3125 -1.546875q0 -0.859375 0.28125 -1.546875q0.296875 -0.703125 0.859375 -1.0625q0.5625 -0.375 1.265625 -0.375q0.515625 0 0.921875 0.21875q0.40625 0.21875 0.65625 0.5625l0 -2.828125l0.96875 0l0 7.875l-0.90625 0zm-3.046875 -2.84375q0 1.09375 0.453125 1.640625q0.46875 0.53125 1.09375 0.53125q0.640625 0 1.078125 -0.515625q0.4375 -0.515625 0.4375 -1.578125q0 -1.171875 -0.453125 -1.71875q-0.4375 -0.546875 -1.109375 -0.546875q-0.640625 0 -1.078125 0.53125q-0.421875 0.515625 -0.421875 1.65625zm5.2858734 -3.921875l0 -1.109375l0.96875 0l0 1.109375l-0.96875 0zm0 6.765625l0 -5.703125l0.96875 0l0 5.703125l-0.96875 0zm2.3518524 0l0 -5.703125l0.875 0l0 0.8125q0.625 -0.9375 1.8125 -0.9375q0.515625 0 0.953125 0.1875q0.4375 0.171875 0.640625 0.484375q0.21875 0.296875 0.3125 0.703125q0.046875 0.28125 0.046875 0.953125l0 3.5l-0.96875 0l0 -3.46875q0 -0.59375 -0.109375 -0.875q-0.109375 -0.296875 -0.40625 -0.46875q-0.28125 -0.1875 -0.671875 -0.1875q-0.609375 0 -1.0625 0.390625q-0.453125 0.390625 -0.453125 1.5l0 3.109375l-0.96875 0zm5.7546234 0.46875l0.9375 0.140625q0.0625 0.4375 0.328125 0.640625q0.359375 0.265625 0.984375 0.265625q0.671875 0 1.03125 -0.265625q0.375 -0.265625 0.5 -0.75q0.078125 -0.296875 0.078125 -1.25q-0.640625 0.75 -1.59375 0.75q-1.171875 0 -1.8125 -0.84375q-0.640625 -0.859375 -0.640625 -2.046875q0 -0.8125 0.296875 -1.5q0.296875 -0.6875 0.84375 -1.0625q0.5625 -0.375 1.328125 -0.375q1.0 0 1.65625 0.8125l0 -0.6875l0.890625 0l0 4.921875q0 1.34375 -0.265625 1.890625q-0.265625 0.5625 -0.859375 0.875q-0.59375 0.328125 -1.453125 0.328125q-1.015625 0 -1.640625 -0.46875q-0.625 -0.453125 -0.609375 -1.375zm0.796875 -3.421875q0 1.125 0.4375 1.640625q0.453125 0.515625 1.125 0.515625q0.671875 0 1.125 -0.515625q0.453125 -0.515625 0.453125 -1.609375q0 -1.046875 -0.46875 -1.578125q-0.46875 -0.53125 -1.125 -0.53125q-0.640625 0 -1.09375 0.53125q-0.453125 0.515625 -0.453125 1.546875zm5.3952484 2.953125l0 -7.875l2.953125 0q0.890625 0 1.4375 0.25q0.546875 0.234375 0.859375 0.734375q0.3125 0.484375 0.3125 1.03125q0 0.5 -0.28125 0.953125q-0.265625 0.4375 -0.828125 0.71875q0.71875 0.203125 1.09375 0.71875q0.390625 0.5 0.390625 1.1875q0 0.546875 -0.234375 1.03125q-0.234375 0.46875 -0.578125 0.734375q-0.34375 0.25 -0.859375 0.390625q-0.515625 0.125 -1.265625 0.125l-3.0 0zm1.03125 -4.5625l1.703125 0q0.703125 0 1.0 -0.09375q0.390625 -0.125 0.59375 -0.390625q0.203125 -0.28125 0.203125 -0.6875q0 -0.390625 -0.1875 -0.6875q-0.1875 -0.296875 -0.546875 -0.40625q-0.34375 -0.109375 -1.1875 -0.109375l-1.578125 0l0 2.375zm0 3.640625l1.96875 0q0.5 0 0.703125 -0.046875q0.359375 -0.0625 0.59375 -0.203125q0.25 -0.15625 0.40625 -0.4375q0.15625 -0.296875 0.15625 -0.671875q0 -0.4375 -0.234375 -0.765625q-0.21875 -0.328125 -0.625 -0.453125q-0.390625 -0.140625 -1.140625 -0.140625l-1.828125 0l0 2.71875zm5.6232605 -1.9375q0 -1.578125 0.890625 -2.34375q0.734375 -0.625 1.796875 -0.625q1.171875 0 1.90625 0.765625q0.75 0.765625 0.75 2.125q0 1.109375 -0.328125 1.75q-0.328125 0.625 -0.96875 0.96875q-0.625 0.34375 -1.359375 0.34375q-1.203125 0 -1.953125 -0.765625q-0.734375 -0.765625 -0.734375 -2.21875zm1.0 0q0 1.109375 0.46875 1.65625q0.484375 0.53125 1.21875 0.53125q0.71875 0 1.1875 -0.546875q0.484375 -0.546875 0.484375 -1.671875q0 -1.046875 -0.484375 -1.59375q-0.484375 -0.546875 -1.1875 -0.546875q-0.734375 0 -1.21875 0.546875q-0.46875 0.53125 -0.46875 1.625zm4.6452484 2.859375l2.09375 -2.96875l-1.9375 -2.734375l1.203125 0l0.890625 1.34375q0.234375 0.375 0.390625 0.625q0.234375 -0.34375 0.4375 -0.625l0.953125 -1.34375l1.15625 0l-1.96875 2.6875l2.125 3.015625l-1.1875 0l-1.171875 -1.765625l-0.3125 -0.484375l-1.5 2.25l-1.171875 0z" fill-rule="nonzero"></path><path fill="#000000" fill-opacity="0.0" d="m181.46727 186.85432l39.716537 0l0 14.992126l-39.716537 0z" fill-rule="nonzero"></path><path fill="#0b5394" d="m194.37184 194.19977q0 -1.390625 0.28125 -2.234375q0.296875 -0.859375 0.859375 -1.3125q0.578125 -0.46875 1.4375 -0.46875q0.625 0 1.09375 0.265625q0.484375 0.25 0.796875 0.734375q0.3125 0.46875 0.484375 1.171875q0.1875 0.6875 0.1875 1.84375q0 1.390625 -0.296875 2.25q-0.28125 0.84375 -0.84375 1.3125q-0.5625 0.46875 -1.421875 0.46875q-1.140625 0 -1.796875 -0.828125q-0.78125 -0.984375 -0.78125 -3.203125zm1.0 0q0 1.953125 0.453125 2.59375q0.453125 0.640625 1.125 0.640625q0.65625 0 1.109375 -0.640625q0.453125 -0.65625 0.453125 -2.59375q0 -1.9375 -0.453125 -2.578125q-0.453125 -0.640625 -1.125 -0.640625q-0.671875 0 -1.0625 0.5625q-0.5 0.71875 -0.5 2.65625zm5.4577484 3.890625l0 -1.09375l1.09375 0l0 1.09375q0 0.609375 -0.21875 0.984375q-0.203125 0.375 -0.671875 0.578125l-0.28125 -0.421875q0.3125 -0.125 0.453125 -0.390625q0.15625 -0.265625 0.171875 -0.75l-0.546875 0zm6.0700226 0l-0.96875 0l0 -6.15625q-0.34375 0.328125 -0.90625 0.671875q-0.5625 0.328125 -1.015625 0.484375l0 -0.9375q0.8125 -0.375 1.40625 -0.90625q0.609375 -0.546875 0.859375 -1.0625l0.625 0l0 7.90625z" fill-rule="nonzero"></path><path fill="#000000" fill-opacity="0.0" d="m115.6273 201.05511l95.55906 0" fill-rule="nonzero"></path><path stroke="#0b5394" stroke-width="1.0" stroke-linejoin="round" stroke-linecap="butt" d="m115.6273 201.05511l95.55906 0" fill-rule="nonzero"></path><path fill="#000000" fill-opacity="0.0" d="m115.6273 240.65617l95.55906 0" fill-rule="nonzero"></path><path stroke="#0b5394" stroke-width="1.0" stroke-linejoin="round" stroke-linecap="butt" d="m115.6273 240.65617l95.55906 0" fill-rule="nonzero"></path></g></svg>

