<?xml version="1.0" encoding="UTF-8" standalone="no"?>
<svg
   xmlns:dc="http://purl.org/dc/elements/1.1/"
   xmlns:cc="http://creativecommons.org/ns#"
   xmlns:rdf="http://www.w3.org/1999/02/22-rdf-syntax-ns#"
   xmlns:svg="http://www.w3.org/2000/svg"
   xmlns="http://www.w3.org/2000/svg"
   xmlns:sodipodi="http://sodipodi.sourceforge.net/DTD/sodipodi-0.dtd"
   xmlns:inkscape="http://www.inkscape.org/namespaces/inkscape"
   version="1.1"
   viewBox="0.0 0.0 484.0 435.0"
   fill="none"
   stroke="none"
   stroke-linecap="square"
   stroke-miterlimit="10"
   id="svg2"
   inkscape:version="0.91 r13725"
   sodipodi:docname="render-gradient-definitions-uml.svg">
  <metadata
     id="metadata189">
    <rdf:RDF>
      <cc:Work
         rdf:about="">
        <dc:format>image/svg+xml</dc:format>
        <dc:type
           rdf:resource="http://purl.org/dc/dcmitype/StillImage" />
        <dc:title></dc:title>
      </cc:Work>
    </rdf:RDF>
  </metadata>
  <defs
     id="defs187" />
  <sodipodi:namedview
     pagecolor="#ffffff"
     bordercolor="#666666"
     borderopacity="1"
     objecttolerance="10"
     gridtolerance="10"
     guidetolerance="10"
     inkscape:pageopacity="0"
     inkscape:pageshadow="2"
     inkscape:window-width="1680"
     inkscape:window-height="987"
     id="namedview185"
     showgrid="false"
     inkscape:zoom="1.4142136"
     inkscape:cx="113.48474"
     inkscape:cy="230.50094"
     inkscape:window-x="1272"
     inkscape:window-y="-8"
     inkscape:window-maximized="1"
     inkscape:current-layer="svg2" />
  <clipPath
     id="p.0">
    <path
       d="m0 0l484.0 0l0 435.0l-484.0 0l0 -435.0z"
       clip-rule="nonzero"
       id="path5" />
  </clipPath>
  <path
     style="fill:#000000;fill-opacity:0;fill-rule:nonzero"
     inkscape:connector-curvature="0"
     id="path9"
     d="m 0,0 484.2467,0 0,435.1496 -484.2467,0 z" />
  <path
     style="fill:#000000;fill-opacity:0;fill-rule:nonzero"
     inkscape:connector-curvature="0"
     id="path11"
     d="m 19.874016,241.68242 119.275584,0" />
  <path
     style="fill-rule:nonzero;stroke:#0b5394;stroke-width:0.99999988;stroke-linecap:butt;stroke-linejoin:round"
     inkscape:connector-curvature="0"
     id="path13"
     d="m 19.39453,142.49999 204.60114,0" />
  <path
     style="fill:#ffffff;fill-rule:nonzero"
     inkscape:connector-curvature="0"
     id="path15"
     d="m 163.46194,8.490813 86.39371,0 0,27.02362 -86.39371,0 z" />
  <path
     style="fill-rule:nonzero;stroke:#000000;stroke-width:1;stroke-linecap:butt;stroke-linejoin:round"
     inkscape:connector-curvature="0"
     id="path17"
     d="m 163.46194,8.490813 86.39371,0 0,27.02362 -86.39371,0 z" />
  <path
     style="fill:#000000;fill-rule:nonzero"
     inkscape:connector-curvature="0"
     id="path19"
     d="m 191.07056,23.19575 1.53125,-0.07813 q 0.0312,0.734375 0.26562,0.984375 0.34375,0.421875 1.29688,0.421875 0.79687,0 1.15625,-0.28125 0.35937,-0.28125 0.35937,-0.6875 0,-0.359375 -0.29687,-0.59375 -0.20313,-0.171875 -1.125,-0.5625 -0.90625,-0.40625 -1.32813,-0.671875 -0.42187,-0.265625 -0.67187,-0.6875 -0.23438,-0.4375 -0.23438,-1 0,-1 0.71875,-1.65625 0.71875,-0.65625 2.07813,-0.65625 1.39062,0 2.14062,0.65625 0.76563,0.65625 0.84375,1.734375 l -1.54687,0.0625 q -0.0625,-0.5625 -0.42188,-0.859375 -0.34375,-0.296875 -1.01562,-0.296875 -0.67188,0 -0.96875,0.234375 -0.28125,0.234375 -0.28125,0.59375 0,0.34375 0.26562,0.5625 0.26563,0.21875 1.15625,0.609375 1.35938,0.59375 1.73438,0.953125 0.54687,0.53125 0.54687,1.375 0,1.046875 -0.82812,1.796875 -0.8125,0.734375 -2.28125,0.734375 -1.01563,0 -1.76563,-0.34375 -0.73437,-0.34375 -1.04687,-0.953125 -0.3125,-0.609375 -0.28125,-1.390625 z m 6.84201,2.546875 1.65625,-7.875 2.6875,0 q 0.875,0 1.21875,0.04687 0.57813,0.09375 0.98438,0.34375 0.40625,0.234375 0.60937,0.640625 0.21875,0.390625 0.21875,0.875 0,0.65625 -0.375,1.140625 -0.35937,0.484375 -1.125,0.734375 0.60938,0.15625 0.95313,0.59375 0.34375,0.421875 0.34375,0.953125 0,0.71875 -0.40625,1.359375 -0.40625,0.625 -1.125,0.90625 -0.70313,0.28125 -1.92188,0.28125 l -3.71875,0 z m 2.60938,-4.6875 1.23437,0 q 0.82813,0 1.1875,-0.125 0.375,-0.125 0.54688,-0.390625 0.1875,-0.265625 0.1875,-0.578125 0,-0.296875 -0.17188,-0.484375 -0.17187,-0.203125 -0.48437,-0.265625 -0.1875,-0.03125 -0.85938,-0.03125 l -1.25,0 -0.39062,1.875 z m -0.71875,3.421875 1.5625,0 q 0.98437,0 1.3125,-0.125 0.34375,-0.125 0.54687,-0.40625 0.20313,-0.296875 0.20313,-0.625 0,-0.390625 -0.29688,-0.640625 -0.29687,-0.265625 -0.96875,-0.265625 l -1.9375,0 -0.42187,2.0625 z m 7.97685,-2.828125 -1.5,-0.125 q 0.26562,-0.765625 0.90625,-1.1875 0.64062,-0.4375 1.70312,-0.4375 1.09375,0 1.60938,0.453125 0.53125,0.4375 0.53125,1.078125 0,0.25 -0.0469,0.546875 -0.0312,0.296875 -0.3125,1.53125 -0.21875,1.015625 -0.21875,1.421875 0,0.359375 0.125,0.8125 l -1.5,0 q -0.0937,-0.3125 -0.10937,-0.640625 -0.34375,0.375 -0.78125,0.578125 -0.4375,0.203125 -0.89063,0.203125 -0.70312,0 -1.17187,-0.46875 -0.45313,-0.46875 -0.45313,-1.203125 0,-0.8125 0.5,-1.296875 0.51563,-0.484375 1.8125,-0.59375 1.10938,-0.09375 1.46875,-0.21875 0.10938,-0.328125 0.10938,-0.515625 0,-0.25 -0.20313,-0.40625 -0.20312,-0.171875 -0.59375,-0.171875 -0.40625,0 -0.65625,0.171875 -0.23437,0.15625 -0.32812,0.46875 z m 1.46875,1.4375 q -0.14063,0.03125 -0.35938,0.0625 -1.17187,0.140625 -1.51562,0.40625 -0.26563,0.203125 -0.26563,0.53125 0,0.265625 0.1875,0.453125 0.20313,0.1875 0.51563,0.1875 0.35937,0 0.65625,-0.171875 0.3125,-0.171875 0.46875,-0.4375 0.15625,-0.265625 0.28125,-0.828125 l 0.0312,-0.203125 z m 2.08275,1.0625 1.5,-0.234375 q 0.20312,0.46875 0.5,0.671875 0.29687,0.1875 0.79687,0.1875 0.53125,0 0.84375,-0.234375 0.21875,-0.15625 0.21875,-0.390625 0,-0.15625 -0.10937,-0.28125 -0.10938,-0.125 -0.64063,-0.296875 -1.39062,-0.453125 -1.73437,-0.71875 -0.51563,-0.421875 -0.51563,-1.09375 0,-0.6875 0.5,-1.171875 0.70313,-0.6875 2.09375,-0.6875 1.10938,0 1.67188,0.40625 0.5625,0.40625 0.70312,1.09375 l -1.42187,0.25 q -0.10938,-0.3125 -0.35938,-0.46875 -0.34375,-0.21875 -0.82812,-0.21875 -0.48438,0 -0.70313,0.171875 -0.20312,0.15625 -0.20312,0.359375 0,0.21875 0.21875,0.359375 0.125,0.09375 0.85937,0.296875 1.125,0.328125 1.51563,0.65625 0.53125,0.4375 0.53125,1.0625 0,0.8125 -0.6875,1.421875 -0.67188,0.59375 -1.92188,0.59375 -1.23437,0 -1.90625,-0.453125 -0.67187,-0.46875 -0.92187,-1.28125 z m 11.69212,-0.78125 -3.875,0 q 0,0.09375 0,0.140625 0,0.5625 0.3125,0.921875 0.32812,0.34375 0.79687,0.34375 0.76563,0 1.20313,-0.796875 l 1.375,0.234375 q -0.39063,0.828125 -1.07813,1.25 -0.67187,0.421875 -1.5,0.421875 -1.15625,0 -1.875,-0.734375 -0.71875,-0.734375 -0.71875,-1.921875 0,-1.171875 0.65625,-2.09375 0.875,-1.234375 2.51563,-1.234375 1.04687,0 1.67187,0.65625 0.625,0.640625 0.625,1.8125 0,0.5625 -0.10937,1 z m -1.3125,-0.9375 q 0.0156,-0.109375 0.0156,-0.15625 0,-0.640625 -0.29687,-0.953125 -0.28125,-0.3125 -0.75,-0.3125 -0.48438,0 -0.85938,0.359375 -0.375,0.359375 -0.51562,1.0625 l 2.40625,0 z" />
  <path
     style="fill:#ffffff;fill-rule:nonzero"
     inkscape:connector-curvature="0"
     id="path21"
     d="m 200.5953,48.144356 6.06299,-12.629921 6.063,12.629921 z" />
  <path
     style="fill-rule:nonzero;stroke:#0b5394;stroke-width:1;stroke-linecap:butt;stroke-linejoin:round"
     inkscape:connector-curvature="0"
     id="path23"
     d="m 200.5953,48.144356 6.06299,-12.629921 6.063,12.629921 z" />
  <path
     style="fill:#000000;fill-opacity:0;fill-rule:nonzero"
     inkscape:connector-curvature="0"
     id="path25"
     d="m 19.89239,323.3189 0,-202.89764" />
  <path
     style="fill-rule:nonzero;stroke:#0b5394;stroke-width:1;stroke-linecap:butt;stroke-linejoin:round"
     inkscape:connector-curvature="0"
     id="path27"
     d="m 19.89239,142.99468 0,-22.57342" />
  <path
     style="fill:#000000;fill-opacity:0;fill-rule:nonzero"
     inkscape:connector-curvature="0"
     id="path29"
     d="m 11.698163,228.17061 102.204717,0 0,14.99213 -102.204717,0 z" />
  <g
     id="g4409"
     transform="translate(1.9999864e-6,0)">
    <path
       d="m 15.120735,115.36614 4.771654,-5.05512 4.771652,5.05512 -4.771652,5.05511 z"
       id="path33"
       inkscape:connector-curvature="0"
       style="fill:#0b5394;fill-rule:nonzero" />
    <path
       d="m 15.120735,115.36614 4.771654,-5.05512 4.771652,5.05512 -4.771652,5.05511 z"
       id="path35"
       inkscape:connector-curvature="0"
       style="fill-rule:nonzero;stroke:#0b5394;stroke-width:2;stroke-linecap:butt;stroke-linejoin:round" />
  </g>
  <path
     style="fill:#ffffff;fill-rule:nonzero"
     inkscape:connector-curvature="0"
     id="path37"
     d="m 5.0656166,81.83202 158.3937034,0 0,27.02362 -158.3937034,0 z" />
  <path
     style="fill-rule:nonzero;stroke:#0b5394;stroke-width:1;stroke-linecap:butt;stroke-linejoin:round"
     inkscape:connector-curvature="0"
     id="path39"
     d="m 5.0656166,81.83202 158.3937034,0 0,27.02362 -158.3937034,0 z" />
  <path
     style="fill:#0b5394;fill-rule:nonzero"
     inkscape:connector-curvature="0"
     id="path41"
     d="m 20.278965,99.08383 0,-7.8125 1.59375,0 0,6.484375 3.953125,0 0,1.328125 -5.546875,0 z m 6.462387,-6.484375 0,-1.390625 1.5,0 0,1.390625 -1.5,0 z m 0,6.484375 0,-5.703125 1.5,0 0,5.703125 -1.5,0 z m 2.429398,-1.625 1.5,-0.234375 q 0.109375,0.4375 0.390625,0.671875 0.296875,0.21875 0.828125,0.21875 0.59375,0 0.890625,-0.203125 0.203125,-0.15625 0.203125,-0.40625 0,-0.171875 -0.109375,-0.28125 -0.125,-0.109375 -0.515625,-0.203125 -1.8125,-0.40625 -2.3125,-0.734375 -0.671875,-0.46875 -0.671875,-1.28125 0,-0.75 0.578125,-1.25 0.59375,-0.5 1.828125,-0.5 1.171875,0 1.734375,0.375 0.5625,0.375 0.78125,1.125 l -1.421875,0.265625 q -0.09375,-0.328125 -0.34375,-0.5 -0.25,-0.1875 -0.734375,-0.1875 -0.59375,0 -0.84375,0.171875 -0.171875,0.109375 -0.171875,0.296875 0,0.171875 0.140625,0.28125 0.203125,0.15625 1.40625,0.4375 1.21875,0.265625 1.6875,0.65625 0.484375,0.40625 0.484375,1.125 0,0.78125 -0.65625,1.34375 -0.65625,0.5625 -1.953125,0.5625 -1.15625,0 -1.84375,-0.46875 -0.671875,-0.46875 -0.875,-1.28125 z m 9.067123,-4.078125 0,1.203125 -1.03125,0 0,2.296875 q 0,0.703125 0.03125,0.828125 0.03125,0.109375 0.125,0.1875 0.109375,0.0625 0.265625,0.0625 0.203125,0 0.609375,-0.140625 l 0.125,1.171875 q -0.53125,0.21875 -1.1875,0.21875 -0.421875,0 -0.75,-0.125 -0.328125,-0.140625 -0.484375,-0.359375 -0.140625,-0.21875 -0.203125,-0.59375 -0.04687,-0.265625 -0.04687,-1.0625 l 0,-2.484375 -0.6875,0 0,-1.203125 0.6875,0 0,-1.140625 1.515625,-0.875 0,2.015625 1.03125,0 z m 0.626739,1.8125 q 0,-1.203125 0.359375,-2.015625 0.265625,-0.609375 0.71875,-1.078125 0.46875,-0.484375 1.03125,-0.71875 0.734375,-0.3125 1.6875,-0.3125 1.75,0 2.78125,1.09375 1.046875,1.078125 1.046875,3 0,1.90625 -1.03125,2.984375 -1.03125,1.078125 -2.765625,1.078125 -1.765625,0 -2.796875,-1.078125 -1.03125,-1.078125 -1.03125,-2.953125 z m 1.625,-0.04687 q 0,1.328125 0.625,2.03125 0.625,0.6875 1.5625,0.6875 0.953125,0 1.5625,-0.6875 0.609375,-0.6875 0.609375,-2.0625 0,-1.34375 -0.59375,-2.015625 -0.59375,-0.671875 -1.578125,-0.671875 -0.984375,0 -1.59375,0.6875 -0.59375,0.671875 -0.59375,2.03125 z m 6.304398,-1.765625 0.84375,0 0,-0.4375 q 0,-0.71875 0.140625,-1.0625 0.15625,-0.359375 0.5625,-0.578125 0.421875,-0.234375 1.046875,-0.234375 0.65625,0 1.265625,0.203125 L 50.45026,92.31821 q -0.359375,-0.07813 -0.6875,-0.07813 -0.328125,0 -0.484375,0.15625 -0.140625,0.140625 -0.140625,0.578125 l 0,0.40625 1.140625,0 0,1.1875 -1.140625,0 0,4.515625 -1.5,0 0,-4.515625 -0.84375,0 0,-1.1875 z m 7.892364,2.8125 0,-1.328125 3.421875,0 0,3.140625 q -0.5,0.46875 -1.453125,0.84375 -0.9375,0.375 -1.921875,0.375 -1.234375,0 -2.15625,-0.515625 -0.90625,-0.53125 -1.375,-1.484375 -0.453125,-0.96875 -0.453125,-2.109375 0,-1.21875 0.515625,-2.171875 0.515625,-0.96875 1.5,-1.46875 0.765625,-0.40625 1.890625,-0.40625 1.46875,0 2.28125,0.625 0.828125,0.609375 1.0625,1.703125 l -1.578125,0.296875 q -0.15625,-0.59375 -0.625,-0.921875 -0.453125,-0.34375 -1.140625,-0.34375 -1.046875,0 -1.65625,0.671875 -0.609375,0.65625 -0.609375,1.953125 0,1.40625 0.609375,2.109375 0.625,0.703125 1.640625,0.703125 0.5,0 1,-0.1875 0.5,-0.203125 0.859375,-0.484375 l 0,-1 -1.8125,0 z m 6.054398,2.890625 -1.515625,0 0,-5.703125 1.40625,0 0,0.8125 q 0.359375,-0.578125 0.640625,-0.75 0.296875,-0.1875 0.65625,-0.1875 0.515625,0 1,0.28125 l -0.46875,1.3125 q -0.375,-0.25 -0.703125,-0.25 -0.328125,0 -0.546875,0.1875 -0.21875,0.171875 -0.34375,0.625 -0.125,0.453125 -0.125,1.90625 l 0,1.765625 z m 3.834492,-3.96875 -1.375004,-0.25 q 0.234375,-0.8125 0.796875,-1.203125 0.562504,-0.40625 1.671879,-0.40625 1.015625,0 1.5,0.234375 0.5,0.234375 0.703125,0.609375 0.203125,0.359375 0.203125,1.34375 l -0.01563,1.765625 q 0,0.75 0.0625,1.109375 0.07813,0.359375 0.28125,0.765625 l -1.5,0 q -0.0625,-0.15625 -0.140625,-0.453125 -0.03125,-0.125 -0.04687,-0.171875 -0.390625,0.375 -0.84375,0.5625 -0.4375,0.1875 -0.9375,0.1875 -0.875,0 -1.390629,-0.46875 -0.5,-0.484375 -0.5,-1.21875 0,-0.484375 0.234375,-0.859375 0.234375,-0.375 0.640625,-0.578125 0.421879,-0.203125 1.203129,-0.359375 1.0625,-0.1875 1.46875,-0.359375 l 0,-0.15625 q 0,-0.4375 -0.21875,-0.609375 -0.21875,-0.1875 -0.8125,-0.1875 -0.390625,0 -0.625,0.15625 -0.21875,0.15625 -0.359375,0.546875 z m 2.015625,1.234375 q -0.296875,0.09375 -0.921875,0.234375 -0.625,0.125 -0.8125,0.25 -0.296875,0.21875 -0.296875,0.53125 0,0.328125 0.234375,0.5625 0.234375,0.21875 0.59375,0.21875 0.40625,0 0.78125,-0.265625 0.28125,-0.203125 0.359375,-0.5 0.0625,-0.1875 0.0625,-0.734375 l 0,-0.296875 z m 8.004622,2.734375 -1.390625,0 0,-0.84375 q -0.359375,0.5 -0.84375,0.734375 -0.46875,0.234375 -0.9375,0.234375 -0.984375,0 -1.6875,-0.78125 -0.703125,-0.796875 -0.703125,-2.21875 0,-1.453125 0.671875,-2.203125 0.6875,-0.75 1.734375,-0.75 0.953125,0 1.65625,0.796875 l 0,-2.84375 1.5,0 0,7.875 z m -4.015625,-2.96875 q 0,0.90625 0.25,1.3125 0.359375,0.59375 1.015625,0.59375 0.515625,0 0.875,-0.4375 0.375,-0.453125 0.375,-1.328125 0,-0.984375 -0.359375,-1.40625 -0.34375,-0.4375 -0.90625,-0.4375 -0.53125,0 -0.890625,0.421875 -0.359375,0.421875 -0.359375,1.28125 z m 5.306137,-3.515625 0,-1.390625 1.5,0 0,1.390625 -1.5,0 z m 0,6.484375 0,-5.703125 1.5,0 0,5.703125 -1.5,0 z m 6.257523,-1.8125 1.5,0.25 q -0.28125,0.828125 -0.90625,1.265625 -0.625,0.421875 -1.578125,0.421875 -1.484375,0 -2.203125,-0.96875 -0.5625,-0.78125 -0.5625,-1.96875 0,-1.421875 0.734375,-2.21875 0.75,-0.796875 1.890625,-0.796875 1.265625,0 2,0.84375 0.734375,0.828125 0.703125,2.5625 l -3.78125,0 q 0.01563,0.671875 0.359375,1.046875 0.359375,0.375 0.875,0.375 0.359375,0 0.59375,-0.1875 0.25,-0.203125 0.375,-0.625 z m 0.07813,-1.53125 q -0.01563,-0.65625 -0.34375,-0.984375 -0.3125,-0.34375 -0.765625,-0.34375 -0.5,0 -0.828125,0.359375 -0.3125,0.359375 -0.3125,0.96875 l 2.25,0 z m 7.738998,3.34375 -1.515625,0 0,-2.90625 q 0,-0.921875 -0.09375,-1.1875 -0.09375,-0.28125 -0.3125,-0.421875 -0.21875,-0.15625 -0.53125,-0.15625 -0.390625,0 -0.703125,0.21875 -0.3125,0.203125 -0.4375,0.5625 -0.109375,0.34375 -0.109375,1.3125 l 0,2.578125 -1.5,0 0,-5.703125 1.40625,0 0,0.84375 q 0.734375,-0.96875 1.875,-0.96875 0.5,0 0.90625,0.1875 0.421875,0.171875 0.625,0.453125 0.21875,0.265625 0.296875,0.625 0.09375,0.359375 0.09375,1.015625 l 0,3.546875 z m 3.931138,-5.703125 0,1.203125 -1.03125,0 0,2.296875 q 0,0.703125 0.03125,0.828125 0.03125,0.109375 0.125,0.1875 0.109375,0.0625 0.265625,0.0625 0.203125,0 0.609375,-0.140625 l 0.125,1.171875 q -0.53125,0.21875 -1.1875,0.21875 -0.421875,0 -0.75,-0.125 -0.328125,-0.140625 -0.484375,-0.359375 -0.140625,-0.21875 -0.203125,-0.59375 -0.04687,-0.265625 -0.04687,-1.0625 l 0,-2.484375 -0.6875,0 0,-1.203125 0.6875,0 0,-1.140625 1.515625,-0.875 0,2.015625 1.03125,0 z m 0.939239,-2.171875 2.90625,0 q 0.984375,0 1.5,0.15625 0.6875,0.203125 1.171879,0.71875 0.5,0.515625 0.75,1.28125 0.26563,0.75 0.26563,1.859375 0,0.96875 -0.23438,1.671875 -0.29687,0.859375 -0.84375,1.390625 -0.421879,0.40625 -1.125004,0.625 -0.515625,0.171875 -1.40625,0.171875 l -2.984375,0 0,-7.875 z m 1.59375,1.328125 0,5.21875 1.1875,0 q 0.65625,0 0.953125,-0.07813 0.390625,-0.09375 0.640625,-0.3125 0.265625,-0.234375 0.421875,-0.765625 0.15625,-0.53125 0.15625,-1.453125 0,-0.90625 -0.15625,-1.390625 -0.15625,-0.5 -0.453125,-0.765625 -0.296875,-0.28125 -0.734375,-0.375 -0.328125,-0.07813 -1.3125,-0.07813 l -0.703125,0 z m 9.398729,4.734375 1.5,0.25 q -0.28125,0.828125 -0.90625,1.265625 -0.625,0.421875 -1.57812,0.421875 -1.48438,0 -2.20313,-0.96875 -0.5625,-0.78125 -0.5625,-1.96875 0,-1.421875 0.73438,-2.21875 0.75,-0.796875 1.89062,-0.796875 1.26563,0 2,0.84375 0.73438,0.828125 0.70313,2.5625 l -3.78125,0 q 0.0156,0.671875 0.35937,1.046875 0.35938,0.375 0.875,0.375 0.35938,0 0.59375,-0.1875 0.25,-0.203125 0.375,-0.625 z m 0.0781,-1.53125 q -0.0156,-0.65625 -0.34375,-0.984375 -0.3125,-0.34375 -0.76563,-0.34375 -0.5,0 -0.82812,0.359375 -0.3125,0.359375 -0.3125,0.96875 l 2.25,0 z m 1.87962,-2.359375 0.84375,0 0,-0.4375 q 0,-0.71875 0.14063,-1.0625 0.15625,-0.359375 0.5625,-0.578125 0.42187,-0.234375 1.04687,-0.234375 0.65625,0 1.26563,0.203125 l -0.20313,1.046875 q -0.35937,-0.07813 -0.6875,-0.07813 -0.32812,0 -0.48437,0.15625 -0.14063,0.140625 -0.14063,0.578125 l 0,0.40625 1.14063,0 0,1.1875 -1.14063,0 0,4.515625 -1.5,0 0,-4.515625 -0.84375,0 0,-1.1875 z m 4.22049,-0.78125 0,-1.390625 1.5,0 0,1.390625 -1.5,0 z m 0,6.484375 0,-5.703125 1.5,0 0,5.703125 -1.5,0 z m 8.14815,0 -1.51563,0 0,-2.90625 q 0,-0.921875 -0.0937,-1.1875 -0.0937,-0.28125 -0.3125,-0.421875 -0.21875,-0.15625 -0.53125,-0.15625 -0.39062,0 -0.70312,0.21875 -0.3125,0.203125 -0.4375,0.5625 -0.10938,0.34375 -0.10938,1.3125 l 0,2.578125 -1.5,0 0,-5.703125 1.40625,0 0,0.84375 q 0.73438,-0.96875 1.875,-0.96875 0.5,0 0.90625,0.1875 0.42188,0.171875 0.625,0.453125 0.21875,0.265625 0.29688,0.625 0.0937,0.359375 0.0937,1.015625 l 0,3.546875 z m 1.32176,-6.484375 0,-1.390625 1.5,0 0,1.390625 -1.5,0 z m 0,6.484375 0,-5.703125 1.5,0 0,5.703125 -1.5,0 z m 5.57002,-5.703125 0,1.203125 -1.03125,0 0,2.296875 q 0,0.703125 0.0312,0.828125 0.0312,0.109375 0.125,0.1875 0.10938,0.0625 0.26563,0.0625 0.20312,0 0.60937,-0.140625 l 0.125,1.171875 q -0.53125,0.21875 -1.1875,0.21875 -0.42187,0 -0.75,-0.125 -0.32812,-0.140625 -0.48437,-0.359375 -0.14063,-0.21875 -0.20313,-0.59375 -0.0469,-0.265625 -0.0469,-1.0625 l 0,-2.484375 -0.6875,0 0,-1.203125 0.6875,0 0,-1.140625 1.51562,-0.875 0,2.015625 1.03125,0 z m 0.93924,-0.78125 0,-1.390625 1.49999,0 0,1.390625 -1.49999,0 z m 0,6.484375 0,-5.703125 1.49999,0 0,5.703125 -1.49999,0 z m 2.60126,-2.9375 q 0,-0.75 0.375,-1.453125 0.375,-0.703125 1.04688,-1.0625 0.6875,-0.375 1.51562,-0.375 1.29688,0 2.125,0.84375 0.82813,0.828125 0.82813,2.109375 0,1.296875 -0.84375,2.15625 -0.82813,0.84375 -2.09375,0.84375 -0.78125,0 -1.5,-0.34375 -0.70313,-0.359375 -1.07813,-1.046875 -0.375,-0.6875 -0.375,-1.671875 z m 1.54688,0.07813 q 0,0.859375 0.40625,1.3125 0.40625,0.453125 1,0.453125 0.57812,0 0.98437,-0.453125 0.40625,-0.453125 0.40625,-1.3125 0,-0.84375 -0.40625,-1.296875 -0.40625,-0.453125 -0.98437,-0.453125 -0.59375,0 -1,0.453125 -0.40625,0.453125 -0.40625,1.296875 z m 10.50927,2.859375 -1.51563,0 0,-2.90625 q 0,-0.921875 -0.0937,-1.1875 -0.0937,-0.28125 -0.3125,-0.421875 -0.21875,-0.15625 -0.53125,-0.15625 -0.39062,0 -0.70312,0.21875 -0.3125,0.203125 -0.4375,0.5625 -0.10938,0.34375 -0.10938,1.3125 l 0,2.578125 -1.5,0 0,-5.703125 1.40625,0 0,0.84375 q 0.73438,-0.96875 1.875,-0.96875 0.5,0 0.90625,0.1875 0.42188,0.171875 0.625,0.453125 0.21875,0.265625 0.29688,0.625 0.0937,0.359375 0.0937,1.015625 l 0,3.546875 z m 0.79051,-1.625 1.5,-0.234375 q 0.10937,0.4375 0.39062,0.671875 0.29688,0.21875 0.82813,0.21875 0.59375,0 0.89062,-0.203125 0.20313,-0.15625 0.20313,-0.40625 0,-0.171875 -0.10938,-0.28125 -0.125,-0.109375 -0.51562,-0.203125 -1.8125,-0.40625 -2.3125,-0.734375 -0.67188,-0.46875 -0.67188,-1.28125 0,-0.75 0.57813,-1.25 0.59375,-0.5 1.82812,-0.5 1.17188,0 1.73438,0.375 0.5625,0.375 0.78125,1.125 l -1.42188,0.265625 q -0.0937,-0.328125 -0.34375,-0.5 -0.25,-0.1875 -0.73437,-0.1875 -0.59375,0 -0.84375,0.171875 -0.17188,0.109375 -0.17188,0.296875 0,0.171875 0.14063,0.28125 0.20312,0.15625 1.40625,0.4375 1.21875,0.265625 1.6875,0.65625 0.48437,0.40625 0.48437,1.125 0,0.78125 -0.65625,1.34375 -0.65625,0.5625 -1.95312,0.5625 -1.15625,0 -1.84375,-0.46875 -0.67188,-0.46875 -0.875,-1.28125 z" />
  <path
     style="fill:#000000;fill-opacity:0;fill-rule:nonzero"
     inkscape:connector-curvature="0"
     id="path43"
     d="m 109.46637,228.17032 36,0 0,14.99213 -36,0 z" />
  <path
     style="fill:#0b5394;fill-rule:nonzero"
     inkscape:connector-curvature="0"
     id="path45"
     d="m 207.50133,137.91878 -0.96875,0 0,-6.15625 q -0.34375,0.32812 -0.90625,0.67187 -0.5625,0.32813 -1.01562,0.48438 l 0,-0.9375 q 0.8125,-0.375 1.40625,-0.90625 0.60937,-0.54688 0.85937,-1.0625 l 0.625,0 0,7.90625 z m 2.83275,0 0,-1.09375 1.09375,0 0,1.09375 -1.09375,0 z m 2.96065,0 0,-1.09375 1.09375,0 0,1.09375 -1.09375,0 z m 2.30439,-6.42188 0.25,-0.76562 q 0.84375,0.29687 1.23438,0.51562 -0.0937,-0.96875 -0.10938,-1.34375 l 0.78125,0 q -0.0156,0.53125 -0.125,1.34375 0.5625,-0.28125 1.26563,-0.51562 l 0.25,0.76562 q -0.67188,0.21875 -1.32813,0.29688 0.32813,0.28125 0.92188,1.01562 l -0.64063,0.45313 q -0.3125,-0.42188 -0.75,-1.15625 -0.39062,0.76562 -0.6875,1.15625 L 216.021,132.8094 q 0.625,-0.76562 0.89062,-1.01562 -0.6875,-0.14063 -1.3125,-0.29688 z" />
  <path
     style="fill:#000000;fill-opacity:0;fill-rule:nonzero"
     inkscape:connector-curvature="0"
     id="path47"
     d="m 206.6608,48.43307 0,12.346458" />
  <path
     style="fill-rule:nonzero;stroke:#0b5394;stroke-width:1;stroke-linecap:butt;stroke-linejoin:round"
     inkscape:connector-curvature="0"
     id="path49"
     d="m 206.6608,48.43307 0,12.346458" />
  <path
     style="fill:#000000;fill-opacity:0;fill-rule:nonzero"
     inkscape:connector-curvature="0"
     id="path51"
     d="m 86.58268,60.7979 0,21.952755" />
  <path
     style="fill-rule:nonzero;stroke:#0b5394;stroke-width:1;stroke-linecap:butt;stroke-linejoin:round"
     inkscape:connector-curvature="0"
     id="path53"
     d="m 86.58268,60.7979 0,21.952755" />
  <path
     style="fill:#000000;fill-opacity:0;fill-rule:nonzero"
     inkscape:connector-curvature="0"
     id="path55"
     d="m 86.83727,61.06824 245.79526,0" />
  <path
     style="fill-rule:nonzero;stroke:#0b5394;stroke-width:1;stroke-miterlimit:8"
     inkscape:connector-curvature="0"
     id="path57"
     d="m 86.83727,61.06824 245.79526,0"
     stroke-miterlimit="8.0" />
  <path
     style="fill:#ffffff;fill-rule:nonzero"
     inkscape:connector-curvature="0"
     id="path59"
     d="m 211.1873,68.67191 248.09764,0 0,27.023628 -248.09764,0 z" />
  <path
     style="fill-rule:nonzero;stroke:#0b5394;stroke-width:1;stroke-linecap:butt;stroke-linejoin:round"
     inkscape:connector-curvature="0"
     id="path61"
     d="m 211.1873,68.67191 248.09764,0 0,27.023628 -248.09764,0 z" />
  <path
     style="fill:#0b5394;fill-rule:nonzero"
     inkscape:connector-curvature="0"
     id="path63"
     d="m 305.05905,83.033104 0,-1.328125 3.42188,0 0,3.140625 q -0.5,0.46875 -1.45313,0.84375 -0.9375,0.375 -1.92187,0.375 -1.23438,0 -2.15625,-0.515625 -0.90625,-0.53125 -1.375,-1.484375 -0.45313,-0.96875 -0.45313,-2.109375 0,-1.21875 0.51563,-2.171875 0.51562,-0.96875 1.5,-1.46875 0.76562,-0.40625 1.89062,-0.40625 1.46875,0 2.28125,0.625 0.82813,0.609375 1.0625,1.703125 l -1.57812,0.296875 q -0.15625,-0.59375 -0.625,-0.921875 -0.45313,-0.34375 -1.14063,-0.34375 -1.04687,0 -1.65625,0.671875 -0.60937,0.65625 -0.60937,1.953125 0,1.40625 0.60937,2.109375 0.625,0.703125 1.64063,0.703125 0.5,0 1,-0.1875 0.5,-0.203125 0.85937,-0.484375 l 0,-1 -1.8125,0 z m 6.05438,2.890625 -1.51562,0 0,-5.703125 1.40625,0 0,0.8125 q 0.35937,-0.578125 0.64062,-0.75 0.29688,-0.1875 0.65625,-0.1875 0.51563,0 1,0.28125 l -0.46875,1.3125 q -0.375,-0.25 -0.70312,-0.25 -0.32813,0 -0.54688,0.1875 -0.21875,0.171875 -0.34375,0.625 -0.125,0.453125 -0.125,1.90625 l 0,1.765625 z m 3.83451,-3.96875 -1.375,-0.25 q 0.23437,-0.8125 0.79687,-1.203125 0.5625,-0.40625 1.67188,-0.40625 1.01562,0 1.5,0.234375 0.5,0.234375 0.70312,0.609375 0.20313,0.359375 0.20313,1.34375 l -0.0156,1.765625 q 0,0.75 0.0625,1.109375 0.0781,0.359375 0.28125,0.765625 l -1.5,0 q -0.0625,-0.15625 -0.14062,-0.453125 -0.0312,-0.125 -0.0469,-0.171875 -0.39062,0.375 -0.84375,0.5625 -0.4375,0.1875 -0.9375,0.1875 -0.875,0 -1.39062,-0.46875 -0.5,-0.484375 -0.5,-1.21875 0,-0.484375 0.23437,-0.859375 0.23438,-0.375 0.64063,-0.578125 0.42187,-0.203125 1.20312,-0.359375 1.0625,-0.1875 1.46875,-0.359375 l 0,-0.15625 q 0,-0.4375 -0.21875,-0.609375 -0.21875,-0.1875 -0.8125,-0.1875 -0.39062,0 -0.625,0.15625 -0.21875,0.15625 -0.35937,0.546875 z m 2.01562,1.234375 q -0.29687,0.09375 -0.92187,0.234375 -0.625,0.125 -0.8125,0.25 -0.29688,0.21875 -0.29688,0.53125 0,0.328125 0.23438,0.5625 0.23437,0.21875 0.59375,0.21875 0.40625,0 0.78125,-0.265625 0.28125,-0.203125 0.35937,-0.5 0.0625,-0.1875 0.0625,-0.734375 l 0,-0.296875 z m 8.00461,2.734375 -1.39063,0 0,-0.84375 q -0.35937,0.5 -0.84375,0.734375 -0.46875,0.234375 -0.9375,0.234375 -0.98437,0 -1.6875,-0.78125 -0.70312,-0.796875 -0.70312,-2.21875 0,-1.453125 0.67187,-2.203125 0.6875,-0.75 1.73438,-0.75 0.95312,0 1.65625,0.796875 l 0,-2.84375 1.5,0 0,7.875 z m -4.01563,-2.96875 q 0,0.90625 0.25,1.3125 0.35938,0.59375 1.01563,0.59375 0.51562,0 0.875,-0.4375 0.375,-0.453125 0.375,-1.328125 0,-0.984375 -0.35938,-1.40625 -0.34375,-0.4375 -0.90625,-0.4375 -0.53125,0 -0.89062,0.421875 -0.35938,0.421875 -0.35938,1.28125 z m 5.30616,-3.515625 0,-1.390625 1.5,0 0,1.390625 -1.5,0 z m 0,6.484375 0,-5.703125 1.5,0 0,5.703125 -1.5,0 z m 6.2575,-1.8125 1.5,0.25 q -0.28125,0.828125 -0.90625,1.265625 -0.625,0.421875 -1.57812,0.421875 -1.48438,0 -2.20313,-0.96875 -0.5625,-0.78125 -0.5625,-1.96875 0,-1.421875 0.73438,-2.21875 0.75,-0.796875 1.89062,-0.796875 1.26563,0 2,0.84375 0.73438,0.828125 0.70313,2.5625 l -3.78125,0 q 0.0156,0.671875 0.35937,1.046875 0.35938,0.375 0.875,0.375 0.35938,0 0.59375,-0.1875 0.25,-0.203125 0.375,-0.625 z m 0.0781,-1.53125 q -0.0156,-0.65625 -0.34375,-0.984375 -0.3125,-0.34375 -0.76563,-0.34375 -0.5,0 -0.82812,0.359375 -0.3125,0.359375 -0.3125,0.96875 l 2.25,0 z m 7.73901,3.34375 -1.51562,0 0,-2.90625 q 0,-0.921875 -0.0937,-1.1875 -0.0937,-0.28125 -0.3125,-0.421875 -0.21875,-0.15625 -0.53125,-0.15625 -0.39063,0 -0.70313,0.21875 -0.3125,0.203125 -0.4375,0.5625 -0.10937,0.34375 -0.10937,1.3125 l 0,2.578125 -1.5,0 0,-5.703125 1.40625,0 0,0.84375 q 0.73437,-0.96875 1.875,-0.96875 0.5,0 0.90625,0.1875 0.42187,0.171875 0.625,0.453125 0.21875,0.265625 0.29687,0.625 0.0937,0.359375 0.0937,1.015625 l 0,3.546875 z m 3.93112,-5.703125 0,1.203125 -1.03125,0 0,2.296875 q 0,0.703125 0.0312,0.828125 0.0312,0.109375 0.125,0.1875 0.10938,0.0625 0.26563,0.0625 0.20312,0 0.60937,-0.140625 l 0.125,1.171875 q -0.53125,0.21875 -1.1875,0.21875 -0.42187,0 -0.75,-0.125 -0.32812,-0.140625 -0.48437,-0.359375 -0.14063,-0.21875 -0.20313,-0.59375 -0.0469,-0.265625 -0.0469,-1.0625 l 0,-2.484375 -0.6875,0 0,-1.203125 0.6875,0 0,-1.140625 1.51562,-0.875 0,2.015625 1.03125,0 z m 0.95487,-2.171875 3.14062,0 q 0.9375,0 1.39063,0.07813 0.46875,0.07813 0.82812,0.328125 0.35938,0.25 0.59375,0.65625 0.25,0.40625 0.25,0.921875 0,0.546875 -0.29687,1.015625 -0.29688,0.453125 -0.8125,0.6875 0.71875,0.21875 1.10937,0.71875 0.39063,0.5 0.39063,1.1875 0,0.53125 -0.25,1.046875 -0.25,0.5 -0.6875,0.8125 -0.4375,0.296875 -1.0625,0.375 -0.40625,0.03125 -1.92188,0.04687 l -2.67187,0 0,-7.875 z m 1.57812,1.3125 0,1.8125 1.04688,0 q 0.92187,0 1.15625,-0.01563 0.40625,-0.04687 0.64062,-0.28125 0.23438,-0.234375 0.23438,-0.625 0,-0.359375 -0.20313,-0.578125 -0.20312,-0.234375 -0.59375,-0.28125 -0.23437,-0.03125 -1.35937,-0.03125 l -0.92188,0 z m 0,3.125 0,2.109375 1.48438,0 q 0.85937,0 1.07812,-0.04687 0.35938,-0.0625 0.57813,-0.3125 0.23437,-0.25 0.23437,-0.671875 0,-0.359375 -0.17187,-0.59375 -0.17188,-0.25 -0.5,-0.359375 -0.32813,-0.125 -1.42188,-0.125 l -1.28125,0 z m 7.22687,-0.53125 -1.375,-0.25 q 0.23438,-0.8125 0.79688,-1.203125 0.5625,-0.40625 1.67187,-0.40625 1.01563,0 1.5,0.234375 0.5,0.234375 0.70313,0.609375 0.20312,0.359375 0.20312,1.34375 l -0.0156,1.765625 q 0,0.75 0.0625,1.109375 0.0781,0.359375 0.28125,0.765625 l -1.5,0 q -0.0625,-0.15625 -0.14063,-0.453125 -0.0312,-0.125 -0.0469,-0.171875 -0.39063,0.375 -0.84375,0.5625 -0.4375,0.1875 -0.9375,0.1875 -0.875,0 -1.39063,-0.46875 -0.5,-0.484375 -0.5,-1.21875 0,-0.484375 0.23438,-0.859375 0.23437,-0.375 0.64062,-0.578125 0.42188,-0.203125 1.20313,-0.359375 1.0625,-0.1875 1.46875,-0.359375 l 0,-0.15625 q 0,-0.4375 -0.21875,-0.609375 -0.21875,-0.1875 -0.8125,-0.1875 -0.39063,0 -0.625,0.15625 -0.21875,0.15625 -0.35938,0.546875 z m 2.01563,1.234375 q -0.29688,0.09375 -0.92188,0.234375 -0.625,0.125 -0.8125,0.25 -0.29687,0.21875 -0.29687,0.53125 0,0.328125 0.23437,0.5625 0.23438,0.21875 0.59375,0.21875 0.40625,0 0.78125,-0.265625 0.28125,-0.203125 0.35938,-0.5 0.0625,-0.1875 0.0625,-0.734375 l 0,-0.296875 z m 2.2546,1.109375 1.5,-0.234375 q 0.10938,0.4375 0.39063,0.671875 0.29687,0.21875 0.82812,0.21875 0.59375,0 0.89063,-0.203125 0.20312,-0.15625 0.20312,-0.40625 0,-0.171875 -0.10937,-0.28125 -0.125,-0.109375 -0.51563,-0.203125 -1.8125,-0.40625 -2.3125,-0.734375 -0.67187,-0.46875 -0.67187,-1.28125 0,-0.75 0.57812,-1.25 0.59375,-0.5 1.82813,-0.5 1.17187,0 1.73437,0.375 0.5625,0.375 0.78125,1.125 l -1.42187,0.265625 q -0.0937,-0.328125 -0.34375,-0.5 -0.25,-0.1875 -0.73438,-0.1875 -0.59375,0 -0.84375,0.171875 -0.17187,0.109375 -0.17187,0.296875 0,0.171875 0.14062,0.28125 0.20313,0.15625 1.40625,0.4375 1.21875,0.265625 1.6875,0.65625 0.48438,0.40625 0.48438,1.125 0,0.78125 -0.65625,1.34375 -0.65625,0.5625 -1.95313,0.5625 -1.15625,0 -1.84375,-0.46875 -0.67187,-0.46875 -0.875,-1.28125 z m 9.75464,-0.1875 1.5,0.25 q -0.28125,0.828125 -0.90625,1.265625 -0.625,0.421875 -1.57812,0.421875 -1.48438,0 -2.20313,-0.96875 -0.5625,-0.78125 -0.5625,-1.96875 0,-1.421875 0.73438,-2.21875 0.75,-0.796875 1.89062,-0.796875 1.26563,0 2,0.84375 0.73438,0.828125 0.70313,2.5625 l -3.78125,0 q 0.0156,0.671875 0.35937,1.046875 0.35938,0.375 0.875,0.375 0.35938,0 0.59375,-0.1875 0.25,-0.203125 0.375,-0.625 z m 0.0781,-1.53125 q -0.0156,-0.65625 -0.34375,-0.984375 -0.3125,-0.34375 -0.76563,-0.34375 -0.5,0 -0.82812,0.359375 -0.3125,0.359375 -0.3125,0.96875 l 2.25,0 z" />
  <path
     style="fill:#ffffff;fill-rule:nonzero"
     inkscape:connector-curvature="0"
     id="path65"
     d="m 211.1873,92.67191 248.09764,0 0,27.02363 -248.09764,0 z" />
  <path
     style="fill-rule:nonzero;stroke:#0b5394;stroke-width:1;stroke-linecap:butt;stroke-linejoin:round"
     inkscape:connector-curvature="0"
     id="path67"
     d="m 211.1873,92.67191 248.09764,0 0,27.02363 -248.09764,0 z" />
  <path
     style="fill:#0b5394;fill-rule:nonzero"
     inkscape:connector-curvature="0"
     id="path69"
     d="m 220.92168,96.658104 0,-1.109375 0.96875,0 0,1.109375 -0.96875,0 z m 0,6.765626 0,-5.703126 0.96875,0 0,5.703126 -0.96875,0 z m 6.05498,0 0,-0.71875 q -0.53125,0.84375 -1.59375,0.84375 -0.67188,0 -1.25,-0.375 -0.57813,-0.375 -0.89063,-1.04688 -0.3125,-0.67187 -0.3125,-1.54687 0,-0.859376 0.28125,-1.546876 0.29688,-0.703125 0.85938,-1.0625 0.5625,-0.375 1.26562,-0.375 0.51563,0 0.92188,0.21875 0.40625,0.21875 0.65625,0.5625 l 0,-2.828125 0.96875,0 0,7.875001 -0.90625,0 z m -3.04688,-2.84375 q 0,1.09375 0.45313,1.64062 0.46875,0.53125 1.09375,0.53125 0.64062,0 1.07812,-0.51562 0.4375,-0.51563 0.4375,-1.57813 0,-1.171871 -0.45312,-1.718746 -0.4375,-0.546875 -1.10938,-0.546875 -0.64062,0 -1.07812,0.53125 -0.42188,0.515625 -0.42188,1.656251 z m 5.5515,-1.765626 0,-1.09375 1.09375,0 0,1.09375 -1.09375,0 z m 0,4.609376 0,-1.09375 1.09375,0 0,1.09375 -1.09375,0 z m 5.4213,-2.53125 0.98437,-0.0781 q 0.0625,0.57813 0.3125,0.96875 0.26563,0.375 0.79688,0.60938 0.53125,0.23437 1.20312,0.23437 0.60938,0 1.0625,-0.17187 0.45313,-0.1875 0.67188,-0.48438 0.23437,-0.3125 0.23437,-0.6875 0,-0.375 -0.21875,-0.64062 -0.21875,-0.28125 -0.71875,-0.46875 -0.3125,-0.125 -1.40625,-0.375001 -1.07812,-0.265625 -1.51562,-0.5 -0.5625,-0.296875 -0.84375,-0.734375 -0.26563,-0.4375 -0.26563,-0.984375 0,-0.59375 0.32813,-1.109375 0.34375,-0.515625 0.98437,-0.78125 0.65625,-0.28125 1.45313,-0.28125 0.875,0 1.54687,0.296875 0.67188,0.28125 1.03125,0.828125 0.35938,0.546875 0.39063,1.234375 l -1,0.07813 q -0.0781,-0.75 -0.54688,-1.125 -0.46875,-0.390625 -1.375,-0.390625 -0.9375,0 -1.375,0.359375 -0.4375,0.34375 -0.4375,0.828125 0,0.421875 0.3125,0.703125 0.29688,0.265625 1.5625,0.5625 1.28125,0.28125 1.75,0.5 0.6875,0.3125 1.01563,0.796871 0.32812,0.48437 0.32812,1.125 0,0.625 -0.35937,1.1875 -0.35938,0.54687 -1.04688,0.85937 -0.67187,0.3125 -1.51562,0.3125 -1.0625,0 -1.78125,-0.3125 -0.71875,-0.3125 -1.14063,-0.9375 -0.40625,-0.625 -0.42187,-1.42187 z m 7.63888,2.53125 0,-7.875001 1.03125,0 0,7.875001 -1.03125,0 z m 6.35127,0 0,-0.71875 q -0.53125,0.84375 -1.59375,0.84375 -0.67187,0 -1.25,-0.375 -0.57812,-0.375 -0.89062,-1.04688 -0.3125,-0.67187 -0.3125,-1.54687 0,-0.859376 0.28125,-1.546876 0.29687,-0.703125 0.85937,-1.0625 0.5625,-0.375 1.26563,-0.375 0.51562,0 0.92187,0.21875 0.40625,0.21875 0.65625,0.5625 l 0,-2.828125 0.96875,0 0,7.875001 -0.90625,0 z m -3.04687,-2.84375 q 0,1.09375 0.45312,1.64062 0.46875,0.53125 1.09375,0.53125 0.64063,0 1.07813,-0.51562 0.4375,-0.51563 0.4375,-1.57813 0,-1.171871 -0.45313,-1.718746 -0.4375,-0.546875 -1.10937,-0.546875 -0.64063,0 -1.07813,0.53125 -0.42187,0.515625 -0.42187,1.656251 z" />
  <path
     style="fill:#0b5394;fill-rule:nonzero"
     inkscape:connector-curvature="0"
     id="path71"
     d="m 220.53105,114.7206 0.95312,-0.15625 q 0.0781,0.57813 0.4375,0.89063 0.375,0.29687 1.03125,0.29687 0.67188,0 0.98438,-0.26562 0.32812,-0.26563 0.32812,-0.64063 0,-0.32812 -0.28125,-0.51562 -0.20312,-0.125 -0.98437,-0.32813 -1.0625,-0.26562 -1.48438,-0.45312 -0.40625,-0.20313 -0.625,-0.54688 -0.20312,-0.34375 -0.20312,-0.76562 0,-0.39063 0.17187,-0.70313 0.17188,-0.32812 0.48438,-0.54687 0.21875,-0.17188 0.60937,-0.28125 0.39063,-0.10938 0.82813,-0.10938 0.67187,0 1.17187,0.1875 0.51563,0.1875 0.75,0.53125 0.25,0.32813 0.34375,0.875 l -0.9375,0.125 q -0.0781,-0.4375 -0.39062,-0.67187 -0.29688,-0.25 -0.85938,-0.25 -0.67187,0 -0.95312,0.21875 -0.28125,0.21875 -0.28125,0.51562 0,0.1875 0.10937,0.32813 0.125,0.15625 0.375,0.26562 0.14063,0.0469 0.85938,0.25 1.01562,0.26563 1.42187,0.4375 0.40625,0.17188 0.64063,0.51563 0.23437,0.32812 0.23437,0.82812 0,0.48438 -0.28125,0.90625 -0.28125,0.42188 -0.8125,0.65625 -0.53125,0.23438 -1.20312,0.23438 -1.10938,0 -1.70313,-0.45313 -0.57812,-0.46875 -0.73437,-1.375 z m 5.70312,3.89063 0,-7.89063 0.89063,0 0,0.73438 q 0.3125,-0.42188 0.70312,-0.64063 0.39063,-0.21875 0.95313,-0.21875 0.71875,0 1.28125,0.375 0.5625,0.375 0.84375,1.0625 0.28125,0.67188 0.28125,1.5 0,0.875 -0.3125,1.57813 -0.3125,0.6875 -0.92188,1.0625 -0.59375,0.375 -1.25,0.375 -0.48437,0 -0.875,-0.20313 -0.375,-0.20312 -0.625,-0.51562 l 0,2.78125 -0.96875,0 z m 0.875,-5 q 0,1.09375 0.45313,1.625 0.45312,0.51562 1.07812,0.51562 0.64063,0 1.09375,-0.53125 0.46875,-0.54687 0.46875,-1.70312 0,-1.07813 -0.45312,-1.625 -0.4375,-0.54688 -1.0625,-0.54688 -0.625,0 -1.10938,0.57813 -0.46875,0.57812 -0.46875,1.6875 z m 5.0515,2.8125 0,-5.70313 0.85938,0 0,0.85938 q 0.34375,-0.60938 0.625,-0.79688 0.28125,-0.1875 0.60937,-0.1875 0.5,0 1,0.3125 l -0.32812,0.89063 q -0.35938,-0.20313 -0.71875,-0.20313 -0.3125,0 -0.5625,0.1875 -0.25,0.1875 -0.35938,0.53125 -0.15625,0.51563 -0.15625,1.125 l 0,2.98438 -0.96875,0 z m 7.45487,-1.84375 1,0.125 q -0.23438,0.875 -0.875,1.35937 -0.64063,0.48438 -1.625,0.48438 -1.25,0 -1.98438,-0.76563 -0.73437,-0.76562 -0.73437,-2.15625 0,-1.45312 0.73437,-2.23437 0.75,-0.79688 1.92188,-0.79688 1.15625,0 1.875,0.78125 0.71875,0.76563 0.71875,2.1875 0,0.0781 0,0.25 l -4.25,0 q 0.0469,0.9375 0.51562,1.4375 0.48438,0.5 1.20313,0.5 0.53125,0 0.90625,-0.26562 0.375,-0.28125 0.59375,-0.90625 z m -3.17188,-1.5625 3.1875,0 q -0.0625,-0.71875 -0.35937,-1.07813 -0.46875,-0.54687 -1.20313,-0.54687 -0.67187,0 -1.125,0.45312 -0.45312,0.4375 -0.5,1.17188 z m 8.9265,2.70312 q -0.54687,0.45313 -1.04687,0.64063 -0.48438,0.1875 -1.0625,0.1875 -0.9375,0 -1.45313,-0.45313 -0.5,-0.46875 -0.5,-1.17187 0,-0.42188 0.1875,-0.76563 0.20313,-0.34375 0.5,-0.54687 0.3125,-0.21875 0.70313,-0.32813 0.28125,-0.0781 0.85937,-0.14062 1.17188,-0.14063 1.71875,-0.34375 0.0156,-0.1875 0.0156,-0.25 0,-0.59375 -0.28125,-0.82813 -0.35938,-0.32812 -1.09375,-0.32812 -0.6875,0 -1.01563,0.23437 -0.3125,0.23438 -0.46875,0.84375 l -0.95312,-0.125 q 0.125,-0.60937 0.42187,-0.98437 0.29688,-0.375 0.85938,-0.5625 0.5625,-0.20313 1.29687,-0.20313 0.73438,0 1.1875,0.17188 0.45313,0.17187 0.65625,0.4375 0.21875,0.25 0.3125,0.64062 0.0469,0.25 0.0469,0.90625 l 0,1.28125 q 0,1.34375 0.0625,1.70313 0.0625,0.35937 0.25,0.6875 l -1.01563,0 q -0.15625,-0.29688 -0.1875,-0.70313 z m -0.0937,-2.15625 q -0.51562,0.21875 -1.57812,0.35938 -0.59375,0.0937 -0.84375,0.20312 -0.23438,0.0937 -0.375,0.3125 -0.14063,0.20313 -0.14063,0.45313 0,0.39062 0.29688,0.65625 0.29687,0.25 0.85937,0.25 0.5625,0 0.98438,-0.25 0.4375,-0.25 0.65625,-0.67188 0.14062,-0.32812 0.14062,-0.96875 l 0,-0.34375 z m 5.989,2.85938 0,-0.71875 q -0.53125,0.84375 -1.59375,0.84375 -0.67188,0 -1.25,-0.375 -0.57813,-0.375 -0.89063,-1.04688 -0.3125,-0.67187 -0.3125,-1.54687 0,-0.85938 0.28125,-1.54688 0.29688,-0.70312 0.85938,-1.0625 0.5625,-0.375 1.26562,-0.375 0.51563,0 0.92188,0.21875 0.40625,0.21875 0.65625,0.5625 l 0,-2.82812 0.96875,0 0,7.875 -0.90625,0 z m -3.04688,-2.84375 q 0,1.09375 0.45313,1.64062 0.46875,0.53125 1.09375,0.53125 0.64062,0 1.07812,-0.51562 0.4375,-0.51563 0.4375,-1.57813 0,-1.17187 -0.45312,-1.71875 -0.4375,-0.54687 -1.10938,-0.54687 -0.64062,0 -1.07812,0.53125 -0.42188,0.51562 -0.42188,1.65625 z m 5.364,2.84375 0,-7.875 1.57813,0 1.85936,5.57812 q 0.25,0.78125 0.375,1.15625 0.14062,-0.42187 0.42187,-1.25 l 1.875,-5.48437 1.40625,0 0,7.875 -1,0 0,-6.59375 -2.29687,6.59375 -0.9375,0 -2.26561,-6.70313 0,6.70313 -1.01563,0 z m 12.68923,-1.84375 1,0.125 q -0.23438,0.875 -0.875,1.35937 -0.64063,0.48438 -1.625,0.48438 -1.25,0 -1.98438,-0.76563 -0.73437,-0.76562 -0.73437,-2.15625 0,-1.45312 0.73437,-2.23437 0.75,-0.79688 1.92188,-0.79688 1.15625,0 1.875,0.78125 0.71875,0.76563 0.71875,2.1875 0,0.0781 0,0.25 l -4.25,0 q 0.0469,0.9375 0.51562,1.4375 0.48438,0.5 1.20313,0.5 0.53125,0 0.90625,-0.26562 0.375,-0.28125 0.59375,-0.90625 z m -3.17188,-1.5625 3.1875,0 q -0.0625,-0.71875 -0.35937,-1.07813 -0.46875,-0.54687 -1.20313,-0.54687 -0.67187,0 -1.125,0.45312 -0.45312,0.4375 -0.5,1.17188 z m 7.31714,2.54687 0.125,0.84375 q -0.40625,0.0937 -0.71875,0.0937 -0.53125,0 -0.82812,-0.17187 -0.28125,-0.17188 -0.40625,-0.4375 -0.10938,-0.26563 -0.10938,-1.14063 l 0,-3.28125 -0.71875,0 0,-0.75 0.71875,0 0,-1.40625 0.95313,-0.59375 0,2 0.98437,0 0,0.75 -0.98437,0 0,3.34375 q 0,0.40625 0.0469,0.53125 0.0625,0.10938 0.17188,0.1875 0.125,0.0625 0.32812,0.0625 0.17188,0 0.4375,-0.0312 z m 0.83563,0.85938 0,-7.875 0.96875,0 0,2.82812 q 0.6875,-0.78125 1.71875,-0.78125 0.625,0 1.09375,0.25 0.46875,0.25 0.67188,0.6875 0.20312,0.4375 0.20312,1.28125 l 0,3.60938 -0.96875,0 0,-3.60938 q 0,-0.73437 -0.3125,-1.0625 -0.3125,-0.32812 -0.89062,-0.32812 -0.4375,0 -0.8125,0.21875 -0.375,0.21875 -0.54688,0.60937 -0.15625,0.375 -0.15625,1.04688 l 0,3.125 -0.96875,0 z m 5.56714,-2.85938 q 0,-1.57812 0.89063,-2.34375 0.73437,-0.625 1.79687,-0.625 1.17188,0 1.90625,0.76563 0.75,0.76562 0.75,2.125 0,1.10937 -0.32812,1.75 -0.32813,0.625 -0.96875,0.96875 -0.625,0.34375 -1.35938,0.34375 -1.20312,0 -1.95312,-0.76563 -0.73438,-0.76562 -0.73438,-2.21875 z m 1,0 q 0,1.10938 0.46875,1.65625 0.48438,0.53125 1.21875,0.53125 0.71875,0 1.1875,-0.54687 0.48438,-0.54688 0.48438,-1.67188 0,-1.04687 -0.48438,-1.59375 -0.48437,-0.54687 -1.1875,-0.54687 -0.73437,0 -1.21875,0.54687 -0.46875,0.53125 -0.46875,1.625 z m 8.98898,2.85938 0,-0.71875 q -0.53125,0.84375 -1.59375,0.84375 -0.67187,0 -1.25,-0.375 -0.57812,-0.375 -0.89062,-1.04688 -0.3125,-0.67187 -0.3125,-1.54687 0,-0.85938 0.28125,-1.54688 0.29687,-0.70312 0.85937,-1.0625 0.5625,-0.375 1.26563,-0.375 0.51562,0 0.92187,0.21875 0.40625,0.21875 0.65625,0.5625 l 0,-2.82812 0.96875,0 0,7.875 -0.90625,0 z m -3.04687,-2.84375 q 0,1.09375 0.45312,1.64062 0.46875,0.53125 1.09375,0.53125 0.64063,0 1.07813,-0.51562 0.4375,-0.51563 0.4375,-1.57813 0,-1.17187 -0.45313,-1.71875 -0.4375,-0.54687 -1.10937,-0.54687 -0.64063,0 -1.07813,0.53125 -0.42187,0.51562 -0.42187,1.65625 z m 5.55151,-1.76563 0,-1.09375 1.09375,0 0,1.09375 -1.09375,0 z m 0,4.60938 0,-1.09375 1.09375,0 0,1.09375 -1.09375,0 z m 5.26505,-1.70313 0.95312,-0.15625 q 0.0781,0.57813 0.4375,0.89063 0.375,0.29687 1.03125,0.29687 0.67188,0 0.98438,-0.26562 0.32812,-0.26563 0.32812,-0.64063 0,-0.32812 -0.28125,-0.51562 -0.20312,-0.125 -0.98437,-0.32813 -1.0625,-0.26562 -1.48438,-0.45312 -0.40625,-0.20313 -0.625,-0.54688 -0.20312,-0.34375 -0.20312,-0.76562 0,-0.39063 0.17187,-0.70313 0.17188,-0.32812 0.48438,-0.54687 0.21875,-0.17188 0.60937,-0.28125 0.39063,-0.10938 0.82813,-0.10938 0.67187,0 1.17187,0.1875 0.51563,0.1875 0.75,0.53125 0.25,0.32813 0.34375,0.875 l -0.9375,0.125 q -0.0781,-0.4375 -0.39062,-0.67187 -0.29688,-0.25 -0.85938,-0.25 -0.67187,0 -0.95312,0.21875 -0.28125,0.21875 -0.28125,0.51562 0,0.1875 0.10937,0.32813 0.125,0.15625 0.375,0.26562 0.14063,0.0469 0.85938,0.25 1.01562,0.26563 1.42187,0.4375 0.40625,0.17188 0.64063,0.51563 0.23437,0.32812 0.23437,0.82812 0,0.48438 -0.28125,0.90625 -0.28125,0.42188 -0.8125,0.65625 -0.53125,0.23438 -1.20312,0.23438 -1.10938,0 -1.70313,-0.45313 -0.57812,-0.46875 -0.73437,-1.375 z m 5.70312,3.89063 0,-7.89063 0.89063,0 0,0.73438 q 0.3125,-0.42188 0.70312,-0.64063 0.39063,-0.21875 0.95313,-0.21875 0.71875,0 1.28125,0.375 0.5625,0.375 0.84375,1.0625 0.28125,0.67188 0.28125,1.5 0,0.875 -0.3125,1.57813 -0.3125,0.6875 -0.92188,1.0625 -0.59375,0.375 -1.25,0.375 -0.48437,0 -0.875,-0.20313 -0.375,-0.20312 -0.625,-0.51562 l 0,2.78125 -0.96875,0 z m 0.875,-5 q 0,1.09375 0.45313,1.625 0.45312,0.51562 1.07812,0.51562 0.64063,0 1.09375,-0.53125 0.46875,-0.54687 0.46875,-1.70312 0,-1.07813 -0.45312,-1.625 -0.4375,-0.54688 -1.0625,-0.54688 -0.625,0 -1.10938,0.57813 -0.46875,0.57812 -0.46875,1.6875 z m 5.05149,2.8125 0,-5.70313 0.85937,0 0,0.85938 q 0.34375,-0.60938 0.625,-0.79688 0.28125,-0.1875 0.60938,-0.1875 0.5,0 1,0.3125 l -0.32813,0.89063 q -0.35937,-0.20313 -0.71875,-0.20313 -0.3125,0 -0.5625,0.1875 -0.25,0.1875 -0.35937,0.53125 -0.15625,0.51563 -0.15625,1.125 l 0,2.98438 -0.96875,0 z m 7.45486,-1.84375 1,0.125 q -0.23437,0.875 -0.875,1.35937 -0.64062,0.48438 -1.625,0.48438 -1.25,0 -1.98437,-0.76563 -0.73438,-0.76562 -0.73438,-2.15625 0,-1.45312 0.73438,-2.23437 0.75,-0.79688 1.92187,-0.79688 1.15625,0 1.875,0.78125 0.71875,0.76563 0.71875,2.1875 0,0.0781 0,0.25 l -4.25,0 q 0.0469,0.9375 0.51563,1.4375 0.48437,0.5 1.20312,0.5 0.53125,0 0.90625,-0.26562 0.375,-0.28125 0.59375,-0.90625 z m -3.17187,-1.5625 3.1875,0 q -0.0625,-0.71875 -0.35938,-1.07813 -0.46875,-0.54687 -1.20312,-0.54687 -0.67188,0 -1.125,0.45312 -0.45313,0.4375 -0.5,1.17188 z m 8.92651,2.70312 q -0.54688,0.45313 -1.04688,0.64063 -0.48437,0.1875 -1.0625,0.1875 -0.9375,0 -1.45312,-0.45313 -0.5,-0.46875 -0.5,-1.17187 0,-0.42188 0.1875,-0.76563 0.20312,-0.34375 0.5,-0.54687 0.3125,-0.21875 0.70312,-0.32813 0.28125,-0.0781 0.85938,-0.14062 1.17187,-0.14063 1.71875,-0.34375 0.0156,-0.1875 0.0156,-0.25 0,-0.59375 -0.28125,-0.82813 -0.35937,-0.32812 -1.09375,-0.32812 -0.6875,0 -1.01562,0.23437 -0.3125,0.23438 -0.46875,0.84375 l -0.95313,-0.125 q 0.125,-0.60937 0.42188,-0.98437 0.29687,-0.375 0.85937,-0.5625 0.5625,-0.20313 1.29688,-0.20313 0.73437,0 1.1875,0.17188 0.45312,0.17187 0.65625,0.4375 0.21875,0.25 0.3125,0.64062 0.0469,0.25 0.0469,0.90625 l 0,1.28125 q 0,1.34375 0.0625,1.70313 0.0625,0.35937 0.25,0.6875 l -1.01562,0 q -0.15625,-0.29688 -0.1875,-0.70313 z m -0.0937,-2.15625 q -0.51563,0.21875 -1.57813,0.35938 -0.59375,0.0937 -0.84375,0.20312 -0.23437,0.0937 -0.375,0.3125 -0.14062,0.20313 -0.14062,0.45313 0,0.39062 0.29687,0.65625 0.29688,0.25 0.85938,0.25 0.5625,0 0.98437,-0.25 0.4375,-0.25 0.65625,-0.67188 0.14063,-0.32812 0.14063,-0.96875 l 0,-0.34375 z m 5.98898,2.85938 0,-0.71875 q -0.53125,0.84375 -1.59375,0.84375 -0.67187,0 -1.25,-0.375 -0.57812,-0.375 -0.89062,-1.04688 -0.3125,-0.67187 -0.3125,-1.54687 0,-0.85938 0.28125,-1.54688 0.29687,-0.70312 0.85937,-1.0625 0.5625,-0.375 1.26563,-0.375 0.51562,0 0.92187,0.21875 0.40625,0.21875 0.65625,0.5625 l 0,-2.82812 0.96875,0 0,7.875 -0.90625,0 z m -3.04687,-2.84375 q 0,1.09375 0.45312,1.64062 0.46875,0.53125 1.09375,0.53125 0.64063,0 1.07813,-0.51562 0.4375,-0.51563 0.4375,-1.57813 0,-1.17187 -0.45313,-1.71875 -0.4375,-0.54687 -1.10937,-0.54687 -0.64063,0 -1.07813,0.53125 -0.42187,0.51562 -0.42187,1.65625 z m 5.36401,2.84375 0,-7.875 1.57813,0 1.85937,5.57812 q 0.25,0.78125 0.375,1.15625 0.14063,-0.42187 0.42188,-1.25 l 1.875,-5.48437 1.40625,0 0,7.875 -1,0 0,-6.59375 -2.29688,6.59375 -0.9375,0 -2.26562,-6.70313 0,6.70313 -1.01563,0 z m 12.68924,-1.84375 1,0.125 q -0.23437,0.875 -0.875,1.35937 -0.64062,0.48438 -1.625,0.48438 -1.25,0 -1.98437,-0.76563 -0.73438,-0.76562 -0.73438,-2.15625 0,-1.45312 0.73438,-2.23437 0.75,-0.79688 1.92187,-0.79688 1.15625,0 1.875,0.78125 0.71875,0.76563 0.71875,2.1875 0,0.0781 0,0.25 l -4.25,0 q 0.0469,0.9375 0.51563,1.4375 0.48437,0.5 1.20312,0.5 0.53125,0 0.90625,-0.26562 0.375,-0.28125 0.59375,-0.90625 z m -3.17187,-1.5625 3.1875,0 q -0.0625,-0.71875 -0.35938,-1.07813 -0.46875,-0.54687 -1.20312,-0.54687 -0.67188,0 -1.125,0.45312 -0.45313,0.4375 -0.5,1.17188 z m 7.3171,2.54687 0.125,0.84375 q -0.40625,0.0937 -0.71875,0.0937 -0.53125,0 -0.82812,-0.17187 -0.28125,-0.17188 -0.40625,-0.4375 -0.10938,-0.26563 -0.10938,-1.14063 l 0,-3.28125 -0.71875,0 0,-0.75 0.71875,0 0,-1.40625 0.95313,-0.59375 0,2 0.98437,0 0,0.75 -0.98437,0 0,3.34375 q 0,0.40625 0.0469,0.53125 0.0625,0.10938 0.17188,0.1875 0.125,0.0625 0.32812,0.0625 0.17188,0 0.4375,-0.0312 z m 0.83567,0.85938 0,-7.875 0.96875,0 0,2.82812 q 0.6875,-0.78125 1.71875,-0.78125 0.625,0 1.09375,0.25 0.46875,0.25 0.67187,0.6875 0.20313,0.4375 0.20313,1.28125 l 0,3.60938 -0.96875,0 0,-3.60938 q 0,-0.73437 -0.3125,-1.0625 -0.3125,-0.32812 -0.89063,-0.32812 -0.4375,0 -0.8125,0.21875 -0.375,0.21875 -0.54687,0.60937 -0.15625,0.375 -0.15625,1.04688 l 0,3.125 -0.96875,0 z m 5.5671,-2.85938 q 0,-1.57812 0.89063,-2.34375 0.73437,-0.625 1.79687,-0.625 1.17188,0 1.90625,0.76563 0.75,0.76562 0.75,2.125 0,1.10937 -0.32812,1.75 -0.32813,0.625 -0.96875,0.96875 -0.625,0.34375 -1.35938,0.34375 -1.20312,0 -1.95312,-0.76563 -0.73438,-0.76562 -0.73438,-2.21875 z m 1,0 q 0,1.10938 0.46875,1.65625 0.48438,0.53125 1.21875,0.53125 0.71875,0 1.1875,-0.54687 0.48438,-0.54688 0.48438,-1.67188 0,-1.04687 -0.48438,-1.59375 -0.48437,-0.54687 -1.1875,-0.54687 -0.73437,0 -1.21875,0.54687 -0.46875,0.53125 -0.46875,1.625 z m 8.98902,2.85938 0,-0.71875 q -0.53125,0.84375 -1.59375,0.84375 -0.67188,0 -1.25,-0.375 -0.57813,-0.375 -0.89063,-1.04688 -0.3125,-0.67187 -0.3125,-1.54687 0,-0.85938 0.28125,-1.54688 0.29688,-0.70312 0.85938,-1.0625 0.5625,-0.375 1.26562,-0.375 0.51563,0 0.92188,0.21875 0.40625,0.21875 0.65625,0.5625 l 0,-2.82812 0.96875,0 0,7.875 -0.90625,0 z m -3.04688,-2.84375 q 0,1.09375 0.45313,1.64062 0.46875,0.53125 1.09375,0.53125 0.64062,0 1.07812,-0.51562 0.4375,-0.51563 0.4375,-1.57813 0,-1.17187 -0.45312,-1.71875 -0.4375,-0.54687 -1.10938,-0.54687 -0.64062,0 -1.07812,0.53125 -0.42188,0.51562 -0.42188,1.65625 z m 7.82465,-0.4375 q 0.40625,-0.0156 0.65625,-0.21875 0.26562,-0.21875 0.34375,-0.59375 0.0937,-0.375 0.0937,-1.26563 0.0156,-0.89062 0.0469,-1.1875 0.0469,-0.45312 0.17188,-0.71875 0.14062,-0.28125 0.32812,-0.4375 0.20313,-0.17187 0.5,-0.25 0.20313,-0.0625 0.65625,-0.0625 l 0.3125,0 0,0.84375 -0.17187,0 q -0.5625,0 -0.75,0.20313 -0.17188,0.20312 -0.17188,0.90625 0,1.40625 -0.0625,1.78125 -0.0937,0.5625 -0.32812,0.875 -0.23438,0.3125 -0.73438,0.5625 0.59375,0.25 0.85938,0.76562 0.26562,0.5 0.26562,1.64063 0,1.0625 0.0156,1.25 0.0469,0.375 0.21875,0.51562 0.17187,0.14063 0.6875,0.14063 l 0.17187,0 0,0.84375 -0.3125,0 q -0.51562,0 -0.75,-0.0781 -0.34375,-0.125 -0.57812,-0.40625 -0.21875,-0.28125 -0.29688,-0.70312 -0.0625,-0.42188 -0.0781,-1.39063 0,-0.96875 -0.0937,-1.32812 -0.0781,-0.375 -0.34375,-0.59375 -0.25,-0.21875 -0.65625,-0.21875 l 0,-0.875 z m 10.6759,3.28125 0,-0.84375 q -0.67187,0.96875 -1.8125,0.96875 -0.5,0 -0.95312,-0.1875 -0.4375,-0.20313 -0.65625,-0.48438 -0.20313,-0.29687 -0.28125,-0.71875 -0.0625,-0.28125 -0.0625,-0.90625 l 0,-3.53125 0.96875,0 0,3.15625 q 0,0.76563 0.0625,1.03125 0.0937,0.375 0.375,0.59375 0.29687,0.21875 0.73437,0.21875 0.4375,0 0.8125,-0.21875 0.39063,-0.23437 0.54688,-0.60937 0.15625,-0.39063 0.15625,-1.10938 l 0,-3.0625 0.96875,0 0,5.70313 -0.85938,0 z m 1.80152,-1.70313 0.95312,-0.15625 q 0.0781,0.57813 0.4375,0.89063 0.375,0.29687 1.03125,0.29687 0.67188,0 0.98438,-0.26562 0.32812,-0.26563 0.32812,-0.64063 0,-0.32812 -0.28125,-0.51562 -0.20312,-0.125 -0.98437,-0.32813 -1.0625,-0.26562 -1.48438,-0.45312 -0.40625,-0.20313 -0.625,-0.54688 -0.20312,-0.34375 -0.20312,-0.76562 0,-0.39063 0.17187,-0.70313 0.17188,-0.32812 0.48438,-0.54687 0.21875,-0.17188 0.60937,-0.28125 0.39063,-0.10938 0.82813,-0.10938 0.67187,0 1.17187,0.1875 0.51563,0.1875 0.75,0.53125 0.25,0.32813 0.34375,0.875 l -0.9375,0.125 q -0.0781,-0.4375 -0.39062,-0.67187 -0.29688,-0.25 -0.85938,-0.25 -0.67187,0 -0.95312,0.21875 -0.28125,0.21875 -0.28125,0.51562 0,0.1875 0.10937,0.32813 0.125,0.15625 0.375,0.26562 0.14063,0.0469 0.85938,0.25 1.01562,0.26563 1.42187,0.4375 0.40625,0.17188 0.64063,0.51563 0.23437,0.32812 0.23437,0.82812 0,0.48438 -0.28125,0.90625 -0.28125,0.42188 -0.8125,0.65625 -0.53125,0.23438 -1.20312,0.23438 -1.10938,0 -1.70313,-0.45313 -0.57812,-0.46875 -0.73437,-1.375 z m 9.60937,-0.14062 1,0.125 q -0.23437,0.875 -0.875,1.35937 -0.64062,0.48438 -1.625,0.48438 -1.25,0 -1.98437,-0.76563 -0.73438,-0.76562 -0.73438,-2.15625 0,-1.45312 0.73438,-2.23437 0.75,-0.79688 1.92187,-0.79688 1.15625,0 1.875,0.78125 0.71875,0.76563 0.71875,2.1875 0,0.0781 0,0.25 l -4.25,0 q 0.0469,0.9375 0.51563,1.4375 0.48437,0.5 1.20312,0.5 0.53125,0 0.90625,-0.26562 0.375,-0.28125 0.59375,-0.90625 z m -3.17187,-1.5625 3.1875,0 q -0.0625,-0.71875 -0.35938,-1.07813 -0.46875,-0.54687 -1.20312,-0.54687 -0.67188,0 -1.125,0.45312 -0.45313,0.4375 -0.5,1.17188 z m 10.28585,-1.21875 -5.20312,0 0,-0.90625 5.20312,0 0,0.90625 z m 0,2.39062 -5.20312,0 0,-0.90625 5.20312,0 0,0.90625 z m 0.87934,-4.59375 0,-1.125 1.03125,0 0,0.89063 q 0,0.71875 -0.15625,1.03125 -0.23438,0.4375 -0.71875,0.65625 l -0.25,-0.39063 q 0.29687,-0.10937 0.4375,-0.35937 0.14062,-0.26563 0.15625,-0.70313 l -0.5,0 z m 1.65625,0 0,-1.125 1.04687,0 0,0.89063 q 0,0.71875 -0.17187,1.03125 -0.23438,0.4375 -0.71875,0.65625 l -0.23438,-0.39063 q 0.29688,-0.10937 0.4375,-0.35937 0.14063,-0.26563 0.15625,-0.70313 l -0.51562,0 z m 1.78299,3.96875 q 0,-1.57812 0.89062,-2.34375 0.73438,-0.625 1.79688,-0.625 1.17187,0 1.90625,0.76563 0.75,0.76562 0.75,2.125 0,1.10937 -0.32813,1.75 -0.32812,0.625 -0.96875,0.96875 -0.625,0.34375 -1.35937,0.34375 -1.20313,0 -1.95313,-0.76563 -0.73437,-0.76562 -0.73437,-2.21875 z m 1,0 q 0,1.10938 0.46875,1.65625 0.48437,0.53125 1.21875,0.53125 0.71875,0 1.1875,-0.54687 0.48437,-0.54688 0.48437,-1.67188 0,-1.04687 -0.48437,-1.59375 -0.48438,-0.54687 -1.1875,-0.54687 -0.73438,0 -1.21875,0.54687 -0.46875,0.53125 -0.46875,1.625 z m 5.28589,5.04688 0,-7.89063 0.89062,0 0,0.73438 q 0.3125,-0.42188 0.70313,-0.64063 0.39062,-0.21875 0.95312,-0.21875 0.71875,0 1.28125,0.375 0.5625,0.375 0.84375,1.0625 0.28125,0.67188 0.28125,1.5 0,0.875 -0.3125,1.57813 -0.3125,0.6875 -0.92187,1.0625 -0.59375,0.375 -1.25,0.375 -0.48438,0 -0.875,-0.20313 -0.375,-0.20312 -0.625,-0.51562 l 0,2.78125 -0.96875,0 z m 0.875,-5 q 0,1.09375 0.45312,1.625 0.45313,0.51562 1.07813,0.51562 0.64062,0 1.09375,-0.53125 0.46875,-0.54687 0.46875,-1.70312 0,-1.07813 -0.45313,-1.625 -0.4375,-0.54688 -1.0625,-0.54688 -0.625,0 -1.10937,0.57813 -0.46875,0.57812 -0.46875,1.6875 z m 7.17648,1.95312 0.125,0.84375 q -0.40625,0.0937 -0.71875,0.0937 -0.53125,0 -0.82813,-0.17187 -0.28125,-0.17188 -0.40625,-0.4375 -0.10937,-0.26563 -0.10937,-1.14063 l 0,-3.28125 -0.71875,0 0,-0.75 0.71875,0 0,-1.40625 0.95312,-0.59375 0,2 0.98438,0 0,0.75 -0.98438,0 0,3.34375 q 0,0.40625 0.0469,0.53125 0.0625,0.10938 0.17187,0.1875 0.125,0.0625 0.32813,0.0625 0.17187,0 0.4375,-0.0312 z m 0.85129,-5.90625 0,-1.10937 0.96875,0 0,1.10937 -0.96875,0 z m 0,6.76563 0,-5.70313 0.96875,0 0,5.70313 -0.96875,0 z m 1.99246,-2.85938 q 0,-1.57812 0.89062,-2.34375 0.73438,-0.625 1.79688,-0.625 1.17187,0 1.90625,0.76563 0.75,0.76562 0.75,2.125 0,1.10937 -0.32813,1.75 -0.32812,0.625 -0.96875,0.96875 -0.625,0.34375 -1.35937,0.34375 -1.20313,0 -1.95313,-0.76563 -0.73437,-0.76562 -0.73437,-2.21875 z m 1,0 q 0,1.10938 0.46875,1.65625 0.48437,0.53125 1.21875,0.53125 0.71875,0 1.1875,-0.54687 0.48437,-0.54688 0.48437,-1.67188 0,-1.04687 -0.48437,-1.59375 -0.48438,-0.54687 -1.1875,-0.54687 -0.73438,0 -1.21875,0.54687 -0.46875,0.53125 -0.46875,1.625 z m 5.28589,2.85938 0,-5.70313 0.875,0 0,0.8125 q 0.625,-0.9375 1.8125,-0.9375 0.51562,0 0.95312,0.1875 0.4375,0.17188 0.64063,0.48438 0.21875,0.29687 0.3125,0.70312 0.0469,0.28125 0.0469,0.95313 l 0,3.5 -0.96875,0 0,-3.46875 q 0,-0.59375 -0.10937,-0.875 -0.10938,-0.29688 -0.40625,-0.46875 -0.28125,-0.1875 -0.67188,-0.1875 -0.60937,0 -1.0625,0.39062 -0.45312,0.39063 -0.45312,1.5 l 0,3.10938 -0.96875,0 z m 9.66086,-0.70313 q -0.54688,0.45313 -1.04688,0.64063 -0.48437,0.1875 -1.0625,0.1875 -0.9375,0 -1.45312,-0.45313 -0.5,-0.46875 -0.5,-1.17187 0,-0.42188 0.1875,-0.76563 0.20312,-0.34375 0.5,-0.54687 0.3125,-0.21875 0.70312,-0.32813 0.28125,-0.0781 0.85938,-0.14062 1.17187,-0.14063 1.71875,-0.34375 0.0156,-0.1875 0.0156,-0.25 0,-0.59375 -0.28125,-0.82813 -0.35937,-0.32812 -1.09375,-0.32812 -0.6875,0 -1.01562,0.23437 -0.3125,0.23438 -0.46875,0.84375 l -0.95313,-0.125 q 0.125,-0.60937 0.42188,-0.98437 0.29687,-0.375 0.85937,-0.5625 0.5625,-0.20313 1.29688,-0.20313 0.73437,0 1.1875,0.17188 0.45312,0.17187 0.65625,0.4375 0.21875,0.25 0.3125,0.64062 0.0469,0.25 0.0469,0.90625 l 0,1.28125 q 0,1.34375 0.0625,1.70313 0.0625,0.35937 0.25,0.6875 l -1.01562,0 q -0.15625,-0.29688 -0.1875,-0.70313 z m -0.0937,-2.15625 q -0.51563,0.21875 -1.57813,0.35938 -0.59375,0.0937 -0.84375,0.20312 -0.23437,0.0937 -0.375,0.3125 -0.14062,0.20313 -0.14062,0.45313 0,0.39062 0.29687,0.65625 0.29688,0.25 0.85938,0.25 0.5625,0 0.98437,-0.25 0.4375,-0.25 0.65625,-0.67188 0.14063,-0.32812 0.14063,-0.96875 l 0,-0.34375 z m 2.27026,2.85938 0,-7.875 0.96875,0 0,7.875 -0.96875,0 z m 2.13309,-6.82813 0,-1.125 1.03125,0 0,0.89063 q 0,0.71875 -0.15625,1.03125 -0.23438,0.4375 -0.71875,0.65625 l -0.25,-0.39063 q 0.29687,-0.10937 0.4375,-0.35937 0.14062,-0.26563 0.15625,-0.70313 l -0.5,0 z m 1.65625,0 0,-1.125 1.04687,0 0,0.89063 q 0,0.71875 -0.17187,1.03125 -0.23438,0.4375 -0.71875,0.65625 l -0.23438,-0.39063 q 0.29688,-0.10937 0.4375,-0.35937 0.14063,-0.26563 0.15625,-0.70313 l -0.51562,0 z m 4.78299,3.54688 0,0.875 q -0.40625,0 -0.67188,0.21875 -0.26562,0.21875 -0.35937,0.59375 -0.0781,0.35937 -0.0781,1.26562 0,0.89063 -0.0312,1.17188 -0.0469,0.45312 -0.1875,0.71875 -0.125,0.28125 -0.32812,0.4375 -0.1875,0.17187 -0.48438,0.25 -0.20312,0.0625 -0.67187,0.0625 l -0.29688,0 0,-0.84375 0.17188,0 q 0.5625,0 0.73437,-0.20313 0.1875,-0.20312 0.1875,-0.90625 0,-1.34375 0.0469,-1.70312 0.0937,-0.59375 0.34375,-0.9375 0.26562,-0.35938 0.73437,-0.5625 -0.625,-0.29688 -0.875,-0.78125 -0.25,-0.48438 -0.25,-1.64063 0,-1.04687 -0.0312,-1.25 -0.0312,-0.35937 -0.21875,-0.5 -0.17187,-0.15625 -0.67187,-0.15625 l -0.17188,0 0,-0.84375 0.29688,0 q 0.53125,0 0.76562,0.0937 0.34375,0.125 0.5625,0.40625 0.23438,0.26563 0.29688,0.70313 0.0781,0.42187 0.0781,1.39062 0,0.95313 0.0781,1.32813 0.0937,0.35937 0.35937,0.57812 0.26563,0.21875 0.67188,0.23438 z" />
  <path
     style="fill:#000000;fill-opacity:0;fill-rule:nonzero"
     inkscape:connector-curvature="0"
     id="path73"
     d="m 332.73227,60.88714 0,7.779526" />
  <path
     style="fill-rule:nonzero;stroke:#0b5394;stroke-width:1;stroke-linecap:butt;stroke-linejoin:round"
     inkscape:connector-curvature="0"
     id="path75"
     d="m 332.73227,60.88714 0,7.779526" />
  <path
     style="fill:#000000;fill-opacity:0;fill-rule:nonzero"
     inkscape:connector-curvature="0"
     id="path77"
     d="m 307.69815,154.85432 121.25986,0 0,14.99213 -121.25986,0 z" />
  <path
     style="fill:#0b5394;fill-rule:nonzero"
     inkscape:connector-curvature="0"
     id="path79"
     d="m 317.0419,164.38727 0.95312,-0.15625 q 0.0781,0.57812 0.4375,0.89062 0.375,0.29688 1.03125,0.29688 0.67188,0 0.98438,-0.26563 0.32812,-0.26562 0.32812,-0.64062 0,-0.32813 -0.28125,-0.51563 -0.20312,-0.125 -0.98437,-0.32812 -1.0625,-0.26563 -1.48438,-0.45313 -0.40625,-0.20312 -0.625,-0.54687 -0.20312,-0.34375 -0.20312,-0.76563 0,-0.39062 0.17187,-0.70312 0.17188,-0.32813 0.48438,-0.54688 0.21875,-0.17187 0.60937,-0.28125 0.39063,-0.10937 0.82813,-0.10937 0.67187,0 1.17187,0.1875 0.51563,0.1875 0.75,0.53125 0.25,0.32812 0.34375,0.875 l -0.9375,0.125 q -0.0781,-0.4375 -0.39062,-0.67188 -0.29688,-0.25 -0.85938,-0.25 -0.67187,0 -0.95312,0.21875 -0.28125,0.21875 -0.28125,0.51563 0,0.1875 0.10937,0.32812 0.125,0.15625 0.375,0.26563 0.14063,0.0469 0.85938,0.25 1.01562,0.26562 1.42187,0.4375 0.40625,0.17187 0.64063,0.51562 0.23437,0.32813 0.23437,0.82813 0,0.48437 -0.28125,0.90625 -0.28125,0.42187 -0.8125,0.65625 -0.53125,0.23437 -1.20312,0.23437 -1.10938,0 -1.70313,-0.45312 -0.57812,-0.46875 -0.73437,-1.375 z m 7.82812,0.84375 0.125,0.84375 q -0.40625,0.0937 -0.71875,0.0937 -0.53125,0 -0.82812,-0.17188 -0.28125,-0.17187 -0.40625,-0.4375 -0.10938,-0.26562 -0.10938,-1.14062 l 0,-3.28125 -0.71875,0 0,-0.75 0.71875,0 0,-1.40625 0.95313,-0.59375 0,2 0.98437,0 0,0.75 -0.98437,0 0,3.34375 q 0,0.40625 0.0469,0.53125 0.0625,0.10937 0.17188,0.1875 0.125,0.0625 0.32812,0.0625 0.17188,0 0.4375,-0.0312 z m 0.47629,-2 q 0,-1.57813 0.89063,-2.34375 0.73437,-0.625 1.79687,-0.625 1.17188,0 1.90625,0.76562 0.75,0.76563 0.75,2.125 0,1.10938 -0.32812,1.75 -0.32813,0.625 -0.96875,0.96875 -0.625,0.34375 -1.35938,0.34375 -1.20312,0 -1.95312,-0.76562 -0.73438,-0.76563 -0.73438,-2.21875 z m 1,0 q 0,1.10937 0.46875,1.65625 0.48438,0.53125 1.21875,0.53125 0.71875,0 1.1875,-0.54688 0.48438,-0.54687 0.48438,-1.67187 0,-1.04688 -0.48438,-1.59375 -0.48437,-0.54688 -1.1875,-0.54688 -0.73437,0 -1.21875,0.54688 -0.46875,0.53125 -0.46875,1.625 z m 5.28586,5.04687 0,-7.89062 0.89063,0 0,0.73437 q 0.3125,-0.42187 0.70312,-0.64062 0.39063,-0.21875 0.95313,-0.21875 0.71875,0 1.28125,0.375 0.5625,0.375 0.84375,1.0625 0.28125,0.67187 0.28125,1.5 0,0.875 -0.3125,1.57812 -0.3125,0.6875 -0.92188,1.0625 -0.59375,0.375 -1.25,0.375 -0.48437,0 -0.875,-0.20312 -0.375,-0.20313 -0.625,-0.51563 l 0,2.78125 -0.96875,0 z m 0.875,-5 q 0,1.09375 0.45313,1.625 0.45312,0.51563 1.07812,0.51563 0.64063,0 1.09375,-0.53125 0.46875,-0.54688 0.46875,-1.70313 0,-1.07812 -0.45312,-1.625 -0.4375,-0.54687 -1.0625,-0.54687 -0.625,0 -1.10938,0.57812 -0.46875,0.57813 -0.46875,1.6875 z" />
  <path
     style="fill:#0b5394;fill-rule:nonzero"
     inkscape:connector-curvature="0"
     id="path81"
     d="m 311.12073,126.26115 4.77167,-5.05511 4.77163,5.05511 -4.77163,5.05512 z" />
  <path
     style="fill-rule:nonzero;stroke:#0b5394;stroke-width:2;stroke-linecap:butt;stroke-linejoin:round"
     inkscape:connector-curvature="0"
     id="path83"
     d="m 311.12073,126.26115 4.77167,-5.05511 4.77163,5.05511 -4.77163,5.05512 z" />
  <path
     style="fill:#000000;fill-opacity:0;fill-rule:nonzero"
     inkscape:connector-curvature="0"
     id="path85"
     d="m 315.8924,169.38321 0,-46.26772" />
  <path
     style="fill-rule:nonzero;stroke:#0b5394;stroke-width:1;stroke-linecap:butt;stroke-linejoin:round"
     inkscape:connector-curvature="0"
     id="path87"
     d="m 315.8924,169.38321 0,-46.26772" />
  <path
     style="fill:#000000;fill-opacity:0;fill-rule:nonzero"
     inkscape:connector-curvature="0"
     id="path95"
     d="m 341.4673,154.85432 39.71652,0 0,14.99213 -39.71652,0 z" />
  <path
     style="fill:#0b5394;fill-rule:nonzero"
     inkscape:connector-curvature="0"
     id="path97"
     d="m 357.4219,166.0904 -0.96875,0 0,-6.15625 q -0.34375,0.32812 -0.90625,0.67187 -0.5625,0.32813 -1.01563,0.48438 l 0,-0.9375 q 0.8125,-0.375 1.40625,-0.90625 0.60938,-0.54688 0.85938,-1.0625 l 0.625,0 0,7.90625 z m 2.83273,0 0,-1.09375 1.09375,0 0,1.09375 -1.09375,0 z m 2.96067,0 0,-1.09375 1.09375,0 0,1.09375 -1.09375,0 z m 2.30438,-6.42188 0.25,-0.76562 q 0.84375,0.29687 1.23437,0.51562 -0.0937,-0.96875 -0.10937,-1.34375 l 0.78125,0 q -0.0156,0.53125 -0.125,1.34375 0.5625,-0.28125 1.26562,-0.51562 l 0.25,0.76562 q -0.67187,0.21875 -1.32812,0.29688 0.32812,0.28125 0.92187,1.01562 l -0.64062,0.45313 q -0.3125,-0.42188 -0.75,-1.15625 -0.39063,0.76562 -0.6875,1.15625 l -0.64063,-0.45313 q 0.625,-0.76562 0.89063,-1.01562 -0.6875,-0.14063 -1.3125,-0.29688 z" />
  <path
     style="fill:#000000;fill-opacity:0;fill-rule:nonzero"
     inkscape:connector-curvature="0"
     id="path99"
     d="m 315.6273,169.05511 95.55905,0" />
  <path
     style="fill-rule:nonzero;stroke:#0b5394;stroke-width:1;stroke-linecap:butt;stroke-linejoin:round"
     inkscape:connector-curvature="0"
     id="path101"
     d="m 315.6273,169.05511 95.55905,0" />
  <path
     style="fill:#ffffff;fill-rule:nonzero"
     inkscape:connector-curvature="0"
     id="path89"
     d="m 371.65878,142.02767 102.20474,0 0,27.02362 -102.20474,0 z" />
  <path
     style="fill-rule:nonzero;stroke:#0b5394;stroke-width:1;stroke-linecap:butt;stroke-linejoin:round"
     inkscape:connector-curvature="0"
     id="path91"
     d="m 371.65878,142.02767 102.20474,0 0,27.02362 -102.20474,0 z" />
  <path
     style="fill:#0b5394;fill-rule:nonzero"
     inkscape:connector-curvature="0"
     id="path93"
     d="m 411.3144,156.71699 1.54687,-0.15625 q 0.14063,0.78125 0.5625,1.15625 0.4375,0.35937 1.15625,0.35937 0.78125,0 1.15625,-0.32812 0.39063,-0.32813 0.39063,-0.75 0,-0.28125 -0.17188,-0.46875 -0.15625,-0.20313 -0.5625,-0.35938 -0.28125,-0.0937 -1.26562,-0.34375 -1.28125,-0.3125 -1.79688,-0.78125 -0.71875,-0.64062 -0.71875,-1.57812 0,-0.59375 0.32813,-1.10938 0.34375,-0.53125 0.98437,-0.8125 0.64063,-0.28125 1.5625,-0.28125 1.46875,0 2.21875,0.65625 0.75,0.65625 0.79688,1.73438 l -1.59375,0.0781 q -0.10938,-0.60937 -0.4375,-0.875 -0.32813,-0.26562 -1,-0.26562 -0.70313,0 -1.09375,0.28125 -0.25,0.1875 -0.25,0.48437 0,0.28125 0.23437,0.48438 0.29688,0.25 1.45313,0.53125 1.17187,0.26562 1.71875,0.5625 0.5625,0.28125 0.875,0.79687 0.3125,0.5 0.3125,1.25 0,0.6875 -0.375,1.28125 -0.375,0.57813 -1.0625,0.875 -0.6875,0.28125 -1.71875,0.28125 -1.48438,0 -2.29688,-0.6875 -0.79687,-0.6875 -0.95312,-2.01562 z m 10.12326,-3.14063 0,1.20313 -1.03125,0 0,2.29687 q 0,0.70313 0.0312,0.82813 0.0312,0.10937 0.125,0.1875 0.10938,0.0625 0.26563,0.0625 0.20312,0 0.60937,-0.14063 l 0.125,1.17188 q -0.53125,0.21875 -1.1875,0.21875 -0.42187,0 -0.75,-0.125 -0.32812,-0.14063 -0.48437,-0.35938 -0.14063,-0.21875 -0.20313,-0.59375 -0.0469,-0.26562 -0.0469,-1.0625 l 0,-2.48437 -0.6875,0 0,-1.20313 0.6875,0 0,-1.14062 1.51562,-0.875 0,2.01562 1.03125,0 z m 0.57986,2.76563 q 0,-0.75 0.375,-1.45313 0.375,-0.70312 1.04688,-1.0625 0.6875,-0.375 1.51562,-0.375 1.29688,0 2.125,0.84375 0.82813,0.82813 0.82813,2.10938 0,1.29687 -0.84375,2.15625 -0.82813,0.84375 -2.09375,0.84375 -0.78125,0 -1.5,-0.34375 -0.70313,-0.35938 -1.07813,-1.04688 -0.375,-0.6875 -0.375,-1.67187 z m 1.54688,0.0781 q 0,0.85938 0.40625,1.3125 0.40625,0.45313 1,0.45313 0.57812,0 0.98437,-0.45313 0.40625,-0.45312 0.40625,-1.3125 0,-0.84375 -0.40625,-1.29687 -0.40625,-0.45313 -0.98437,-0.45313 -0.59375,0 -1,0.45313 -0.40625,0.45312 -0.40625,1.29687 z m 5.27487,-2.84375 1.40625,0 0,0.84375 q 0.26563,-0.4375 0.73438,-0.70312 0.46875,-0.26563 1.04687,-0.26563 0.98438,0 1.67188,0.78125 0.70312,0.76563 0.70312,2.15625 0,1.4375 -0.70312,2.23438 -0.6875,0.78125 -1.6875,0.78125 -0.46875,0 -0.85938,-0.1875 -0.375,-0.1875 -0.8125,-0.64063 l 0,2.875 -1.5,0 0,-7.875 z m 1.48438,2.75 q 0,0.96875 0.375,1.4375 0.39062,0.45313 0.9375,0.45313 0.53125,0 0.875,-0.42188 0.35937,-0.42187 0.35937,-1.39062 0,-0.89063 -0.35937,-1.32813 -0.35938,-0.4375 -0.89063,-0.4375 -0.5625,0 -0.9375,0.4375 -0.35937,0.42188 -0.35937,1.25 z" />
  <path
     style="fill:#ffffff;fill-rule:nonzero"
     inkscape:connector-curvature="0"
     id="path103"
     d="m 371.65878,169.05131 102.20474,0 0,27.02361 -102.20474,0 z" />
  <path
     style="fill-rule:nonzero;stroke:#0b5394;stroke-width:1;stroke-linecap:butt;stroke-linejoin:round"
     inkscape:connector-curvature="0"
     id="path105"
     d="m 371.65878,169.05131 102.20474,0 0,27.02361 -102.20474,0 z" />
  <path
     style="fill:#ffffff;fill-rule:nonzero"
     inkscape:connector-curvature="0"
     id="path111"
     d="m 139.56467,182.13649 152.31494,0 0,27.02362 -152.31494,0 z" />
  <path
     style="fill-rule:nonzero;stroke:#0b5394;stroke-width:1;stroke-linecap:butt;stroke-linejoin:round"
     inkscape:connector-curvature="0"
     id="path113"
     d="m 139.56467,182.13649 152.31494,0 0,27.02362 -152.31494,0 z" />
  <path
     style="fill:#0b5394;fill-rule:nonzero"
     inkscape:connector-curvature="0"
     id="path115"
     d="m 178.66805,199.38829 0,-7.8125 1.59375,0 0,6.48437 3.95312,0 0,1.32813 -5.54687,0 z m 6.46239,-6.48438 0,-1.39062 1.5,0 0,1.39062 -1.5,0 z m 0,6.48438 0,-5.70313 1.5,0 0,5.70313 -1.5,0 z m 8.14814,0 -1.51562,0 0,-2.90625 q 0,-0.92188 -0.0937,-1.1875 -0.0937,-0.28125 -0.3125,-0.42188 -0.21875,-0.15625 -0.53125,-0.15625 -0.39063,0 -0.70313,0.21875 -0.3125,0.20313 -0.4375,0.5625 -0.10937,0.34375 -0.10937,1.3125 l 0,2.57813 -1.5,0 0,-5.70313 1.40625,0 0,0.84375 q 0.73437,-0.96875 1.875,-0.96875 0.5,0 0.90625,0.1875 0.42187,0.17188 0.625,0.45313 0.21875,0.26562 0.29687,0.625 0.0937,0.35937 0.0937,1.01562 l 0,3.54688 z m 4.61864,-1.8125 1.5,0.25 q -0.28125,0.82812 -0.90625,1.26562 -0.625,0.42188 -1.57812,0.42188 -1.48438,0 -2.20313,-0.96875 -0.5625,-0.78125 -0.5625,-1.96875 0,-1.42188 0.73438,-2.21875 0.75,-0.79688 1.89062,-0.79688 1.26563,0 2,0.84375 0.73438,0.82813 0.70313,2.5625 l -3.78125,0 q 0.0156,0.67188 0.35937,1.04688 0.35938,0.375 0.875,0.375 0.35938,0 0.59375,-0.1875 0.25,-0.20313 0.375,-0.625 z m 0.0781,-1.53125 q -0.0156,-0.65625 -0.34375,-0.98438 -0.3125,-0.34375 -0.76563,-0.34375 -0.5,0 -0.82812,0.35938 -0.3125,0.35937 -0.3125,0.96875 l 2.25,0 z m 3.6765,-0.625 -1.375,-0.25 q 0.23437,-0.8125 0.79687,-1.20313 0.5625,-0.40625 1.67188,-0.40625 1.01562,0 1.5,0.23438 0.5,0.23437 0.70312,0.60937 0.20313,0.35938 0.20313,1.34375 l -0.0156,1.76563 q 0,0.75 0.0625,1.10937 0.0781,0.35938 0.28125,0.76563 l -1.5,0 q -0.0625,-0.15625 -0.14062,-0.45313 -0.0312,-0.125 -0.0469,-0.17187 -0.39062,0.375 -0.84375,0.5625 -0.4375,0.1875 -0.9375,0.1875 -0.875,0 -1.39062,-0.46875 -0.5,-0.48438 -0.5,-1.21875 0,-0.48438 0.23437,-0.85938 0.23438,-0.375 0.64063,-0.57812 0.42187,-0.20313 1.20312,-0.35938 1.0625,-0.1875 1.46875,-0.35937 l 0,-0.15625 q 0,-0.4375 -0.21875,-0.60938 -0.21875,-0.1875 -0.8125,-0.1875 -0.39062,0 -0.625,0.15625 -0.21875,0.15625 -0.35937,0.54688 z m 2.01562,1.23437 q -0.29687,0.0937 -0.92187,0.23438 -0.625,0.125 -0.8125,0.25 -0.29688,0.21875 -0.29688,0.53125 0,0.32812 0.23438,0.5625 0.23437,0.21875 0.59375,0.21875 0.40625,0 0.78125,-0.26563 0.28125,-0.20312 0.35937,-0.5 0.0625,-0.1875 0.0625,-0.73437 l 0,-0.29688 z m 4.22337,2.73438 -1.51562,0 0,-5.70313 1.40625,0 0,0.8125 q 0.35937,-0.57812 0.64062,-0.75 0.29688,-0.1875 0.65625,-0.1875 0.51563,0 1,0.28125 l -0.46875,1.3125 q -0.375,-0.25 -0.70312,-0.25 -0.32813,0 -0.54688,0.1875 -0.21875,0.17188 -0.34375,0.625 -0.125,0.45313 -0.125,1.90625 l 0,1.76563 z m 6.38137,-2.89063 0,-1.32812 3.42187,0 0,3.14062 q -0.5,0.46875 -1.45312,0.84375 -0.9375,0.375 -1.92188,0.375 -1.23437,0 -2.15625,-0.51562 -0.90625,-0.53125 -1.375,-1.48438 -0.45312,-0.96875 -0.45312,-2.10937 0,-1.21875 0.51562,-2.17188 0.51563,-0.96875 1.5,-1.46875 0.76563,-0.40625 1.89063,-0.40625 1.46875,0 2.28125,0.625 0.82812,0.60938 1.0625,1.70313 l -1.57813,0.29687 q -0.15625,-0.59375 -0.625,-0.92187 -0.45312,-0.34375 -1.14062,-0.34375 -1.04688,0 -1.65625,0.67187 -0.60938,0.65625 -0.60938,1.95313 0,1.40625 0.60938,2.10937 0.625,0.70313 1.64062,0.70313 0.5,0 1,-0.1875 0.5,-0.20313 0.85938,-0.48438 l 0,-1 -1.8125,0 z m 6.05439,2.89063 -1.51562,0 0,-5.70313 1.40625,0 0,0.8125 q 0.35937,-0.57812 0.64062,-0.75 0.29688,-0.1875 0.65625,-0.1875 0.51563,0 1,0.28125 l -0.46875,1.3125 q -0.375,-0.25 -0.70312,-0.25 -0.32813,0 -0.54688,0.1875 -0.21875,0.17188 -0.34375,0.625 -0.125,0.45313 -0.125,1.90625 l 0,1.76563 z m 3.83449,-3.96875 -1.375,-0.25 q 0.23438,-0.8125 0.79688,-1.20313 0.5625,-0.40625 1.67187,-0.40625 1.01563,0 1.5,0.23438 0.5,0.23437 0.70313,0.60937 0.20312,0.35938 0.20312,1.34375 l -0.0156,1.76563 q 0,0.75 0.0625,1.10937 0.0781,0.35938 0.28125,0.76563 l -1.5,0 q -0.0625,-0.15625 -0.14063,-0.45313 -0.0312,-0.125 -0.0469,-0.17187 -0.39063,0.375 -0.84375,0.5625 -0.4375,0.1875 -0.9375,0.1875 -0.875,0 -1.39063,-0.46875 -0.5,-0.48438 -0.5,-1.21875 0,-0.48438 0.23438,-0.85938 0.23437,-0.375 0.64062,-0.57812 0.42188,-0.20313 1.20313,-0.35938 1.0625,-0.1875 1.46875,-0.35937 l 0,-0.15625 q 0,-0.4375 -0.21875,-0.60938 -0.21875,-0.1875 -0.8125,-0.1875 -0.39063,0 -0.625,0.15625 -0.21875,0.15625 -0.35938,0.54688 z m 2.01563,1.23437 q -0.29688,0.0937 -0.92188,0.23438 -0.625,0.125 -0.8125,0.25 -0.29687,0.21875 -0.29687,0.53125 0,0.32812 0.23437,0.5625 0.23438,0.21875 0.59375,0.21875 0.40625,0 0.78125,-0.26563 0.28125,-0.20312 0.35938,-0.5 0.0625,-0.1875 0.0625,-0.73437 l 0,-0.29688 z m 8.00462,2.73438 -1.39062,0 0,-0.84375 q -0.35938,0.5 -0.84375,0.73437 -0.46875,0.23438 -0.9375,0.23438 -0.98438,0 -1.6875,-0.78125 -0.70313,-0.79688 -0.70313,-2.21875 0,-1.45313 0.67188,-2.20313 0.6875,-0.75 1.73437,-0.75 0.95313,0 1.65625,0.79688 l 0,-2.84375 1.5,0 0,7.875 z m -4.01562,-2.96875 q 0,0.90625 0.25,1.3125 0.35937,0.59375 1.01562,0.59375 0.51563,0 0.875,-0.4375 0.375,-0.45313 0.375,-1.32813 0,-0.98437 -0.35937,-1.40625 -0.34375,-0.4375 -0.90625,-0.4375 -0.53125,0 -0.89063,0.42188 -0.35937,0.42187 -0.35937,1.28125 z m 5.30613,-3.51563 0,-1.39062 1.5,0 0,1.39062 -1.5,0 z m 0,6.48438 0,-5.70313 1.5,0 0,5.70313 -1.5,0 z m 6.25752,-1.8125 1.5,0.25 q -0.28125,0.82812 -0.90625,1.26562 -0.625,0.42188 -1.57812,0.42188 -1.48438,0 -2.20313,-0.96875 -0.5625,-0.78125 -0.5625,-1.96875 0,-1.42188 0.73438,-2.21875 0.75,-0.79688 1.89062,-0.79688 1.26563,0 2,0.84375 0.73438,0.82813 0.70313,2.5625 l -3.78125,0 q 0.0156,0.67188 0.35937,1.04688 0.35938,0.375 0.875,0.375 0.35938,0 0.59375,-0.1875 0.25,-0.20313 0.375,-0.625 z m 0.0781,-1.53125 q -0.0156,-0.65625 -0.34375,-0.98438 -0.3125,-0.34375 -0.76563,-0.34375 -0.5,0 -0.82812,0.35938 -0.3125,0.35937 -0.3125,0.96875 l 2.25,0 z m 7.739,3.34375 -1.51563,0 0,-2.90625 q 0,-0.92188 -0.0937,-1.1875 -0.0937,-0.28125 -0.3125,-0.42188 -0.21875,-0.15625 -0.53125,-0.15625 -0.39062,0 -0.70312,0.21875 -0.3125,0.20313 -0.4375,0.5625 -0.10938,0.34375 -0.10938,1.3125 l 0,2.57813 -1.5,0 0,-5.70313 1.40625,0 0,0.84375 q 0.73438,-0.96875 1.875,-0.96875 0.5,0 0.90625,0.1875 0.42188,0.17188 0.625,0.45313 0.21875,0.26562 0.29688,0.625 0.0937,0.35937 0.0937,1.01562 l 0,3.54688 z m 3.93114,-5.70313 0,1.20313 -1.03125,0 0,2.29687 q 0,0.70313 0.0312,0.82813 0.0312,0.10937 0.125,0.1875 0.10937,0.0625 0.26562,0.0625 0.20313,0 0.60938,-0.14063 l 0.125,1.17188 q -0.53125,0.21875 -1.1875,0.21875 -0.42188,0 -0.75,-0.125 -0.32813,-0.14063 -0.48438,-0.35938 -0.14062,-0.21875 -0.20312,-0.59375 -0.0469,-0.26562 -0.0469,-1.0625 l 0,-2.48437 -0.6875,0 0,-1.20313 0.6875,0 0,-1.14062 1.51563,-0.875 0,2.01562 1.03125,0 z" />
  <path
     style="fill:#ffffff;fill-rule:nonzero"
     inkscape:connector-curvature="0"
     id="path117"
     d="m 139.5643,206.13649 152.31497,0 0,86.3307 -152.31497,0 z" />
  <path
     style="fill-rule:nonzero;stroke:#0b5394;stroke-width:1;stroke-linecap:butt;stroke-linejoin:round"
     inkscape:connector-curvature="0"
     id="path119"
     d="m 139.5643,206.13649 152.31497,0 0,86.3307 -152.31497,0 z" />
  <path
     style="fill:#ffffff;fill-rule:nonzero"
     inkscape:connector-curvature="0"
     id="path133"
     d="m 169.70377,309.69028 152.31497,0 0,27.02362 -152.31497,0 z" />
  <path
     style="fill-rule:nonzero;stroke:#0b5394;stroke-width:1;stroke-linecap:butt;stroke-linejoin:round"
     inkscape:connector-curvature="0"
     id="path135"
     d="m 169.70377,309.69028 152.31497,0 0,27.02362 -152.31497,0 z" />
  <path
     style="fill:#0b5394;fill-rule:nonzero"
     inkscape:connector-curvature="0"
     id="path137"
     d="m 208.7759,326.9421 0,-7.875 3.34375,0 q 1.26562,0 1.82812,0.21875 0.57813,0.20312 0.92188,0.75 0.34375,0.54687 0.34375,1.23437 0,0.89063 -0.53125,1.46875 -0.51563,0.57813 -1.54688,0.73438 0.51563,0.29687 0.84375,0.65625 0.34375,0.35937 0.90625,1.28125 l 0.96875,1.53125 -1.90625,0 -1.15625,-1.71875 q -0.60937,-0.90625 -0.84375,-1.14063 -0.21875,-0.25 -0.46875,-0.32812 -0.25,-0.0937 -0.79687,-0.0937 l -0.32813,0 0,3.28125 -1.57812,0 z m 1.57812,-4.54688 1.1875,0 q 1.14063,0 1.42188,-0.0937 0.28125,-0.0937 0.4375,-0.32812 0.17187,-0.23438 0.17187,-0.59375 0,-0.40625 -0.21875,-0.64063 -0.20312,-0.25 -0.59375,-0.3125 -0.1875,-0.0312 -1.15625,-0.0312 l -1.25,0 0,2 z m 7.22686,0.57813 -1.375,-0.25 q 0.23437,-0.8125 0.79687,-1.20313 0.5625,-0.40625 1.67188,-0.40625 1.01562,0 1.5,0.23438 0.5,0.23437 0.70312,0.60937 0.20313,0.35938 0.20313,1.34375 l -0.0156,1.76563 q 0,0.75 0.0625,1.10937 0.0781,0.35938 0.28125,0.76563 l -1.5,0 q -0.0625,-0.15625 -0.14062,-0.45313 -0.0312,-0.125 -0.0469,-0.17187 -0.39062,0.375 -0.84375,0.5625 -0.4375,0.1875 -0.9375,0.1875 -0.875,0 -1.39062,-0.46875 -0.5,-0.48438 -0.5,-1.21875 0,-0.48438 0.23437,-0.85938 0.23438,-0.375 0.64063,-0.57812 0.42187,-0.20313 1.20312,-0.35938 1.0625,-0.1875 1.46875,-0.35937 l 0,-0.15625 q 0,-0.4375 -0.21875,-0.60938 -0.21875,-0.1875 -0.8125,-0.1875 -0.39062,0 -0.625,0.15625 -0.21875,0.15625 -0.35937,0.54688 z m 2.01562,1.23437 q -0.29687,0.0937 -0.92187,0.23438 -0.625,0.125 -0.8125,0.25 -0.29688,0.21875 -0.29688,0.53125 0,0.32812 0.23438,0.5625 0.23437,0.21875 0.59375,0.21875 0.40625,0 0.78125,-0.26563 0.28125,-0.20312 0.35937,-0.5 0.0625,-0.1875 0.0625,-0.73437 l 0,-0.29688 z m 8.00463,2.73438 -1.39063,0 0,-0.84375 q -0.35937,0.5 -0.84375,0.73437 -0.46875,0.23438 -0.9375,0.23438 -0.98437,0 -1.6875,-0.78125 -0.70312,-0.79688 -0.70312,-2.21875 0,-1.45313 0.67187,-2.20313 0.6875,-0.75 1.73438,-0.75 0.95312,0 1.65625,0.79688 l 0,-2.84375 1.5,0 0,7.875 z m -4.01563,-2.96875 q 0,0.90625 0.25,1.3125 0.35938,0.59375 1.01563,0.59375 0.51562,0 0.875,-0.4375 0.375,-0.45313 0.375,-1.32813 0,-0.98437 -0.35938,-1.40625 -0.34375,-0.4375 -0.90625,-0.4375 -0.53125,0 -0.89062,0.42188 -0.35938,0.42187 -0.35938,1.28125 z m 5.30614,-3.51563 0,-1.39062 1.5,0 0,1.39062 -1.5,0 z m 0,6.48438 0,-5.70313 1.5,0 0,5.70313 -1.5,0 z m 4.08565,-3.96875 -1.375,-0.25 q 0.23437,-0.8125 0.79687,-1.20313 0.5625,-0.40625 1.67188,-0.40625 1.01562,0 1.5,0.23438 0.5,0.23437 0.70312,0.60937 0.20313,0.35938 0.20313,1.34375 l -0.0156,1.76563 q 0,0.75 0.0625,1.10937 0.0781,0.35938 0.28125,0.76563 l -1.5,0 q -0.0625,-0.15625 -0.14062,-0.45313 -0.0312,-0.125 -0.0469,-0.17187 -0.39062,0.375 -0.84375,0.5625 -0.4375,0.1875 -0.9375,0.1875 -0.875,0 -1.39062,-0.46875 -0.5,-0.48438 -0.5,-1.21875 0,-0.48438 0.23437,-0.85938 0.23438,-0.375 0.64063,-0.57812 0.42187,-0.20313 1.20312,-0.35938 1.0625,-0.1875 1.46875,-0.35937 l 0,-0.15625 q 0,-0.4375 -0.21875,-0.60938 -0.21875,-0.1875 -0.8125,-0.1875 -0.39062,0 -0.625,0.15625 -0.21875,0.15625 -0.35937,0.54688 z m 2.01562,1.23437 q -0.29687,0.0937 -0.92187,0.23438 -0.625,0.125 -0.8125,0.25 -0.29688,0.21875 -0.29688,0.53125 0,0.32812 0.23438,0.5625 0.23437,0.21875 0.59375,0.21875 0.40625,0 0.78125,-0.26563 0.28125,-0.20312 0.35937,-0.5 0.0625,-0.1875 0.0625,-0.73437 l 0,-0.29688 z m 2.78587,2.73438 0,-7.875 1.5,0 0,7.875 -1.5,0 z m 6.63253,-2.89063 0,-1.32812 3.42187,0 0,3.14062 q -0.5,0.46875 -1.45312,0.84375 -0.9375,0.375 -1.92188,0.375 -1.23437,0 -2.15625,-0.51562 -0.90625,-0.53125 -1.375,-1.48438 -0.45312,-0.96875 -0.45312,-2.10937 0,-1.21875 0.51562,-2.17188 0.51563,-0.96875 1.5,-1.46875 0.76563,-0.40625 1.89063,-0.40625 1.46875,0 2.28125,0.625 0.82812,0.60938 1.0625,1.70313 l -1.57813,0.29687 q -0.15625,-0.59375 -0.625,-0.92187 -0.45312,-0.34375 -1.14062,-0.34375 -1.04688,0 -1.65625,0.67187 -0.60938,0.65625 -0.60938,1.95313 0,1.40625 0.60938,2.10937 0.625,0.70313 1.64062,0.70313 0.5,0 1,-0.1875 0.5,-0.20313 0.85938,-0.48438 l 0,-1 -1.8125,0 z m 6.05439,2.89063 -1.51562,0 0,-5.70313 1.40625,0 0,0.8125 q 0.35937,-0.57812 0.64062,-0.75 0.29688,-0.1875 0.65625,-0.1875 0.51563,0 1,0.28125 l -0.46875,1.3125 q -0.375,-0.25 -0.70312,-0.25 -0.32813,0 -0.54688,0.1875 -0.21875,0.17188 -0.34375,0.625 -0.125,0.45313 -0.125,1.90625 l 0,1.76563 z m 3.83449,-3.96875 -1.375,-0.25 q 0.23438,-0.8125 0.79688,-1.20313 0.5625,-0.40625 1.67187,-0.40625 1.01564,0 1.50002,0.23438 0.5,0.23437 0.70312,0.60937 0.20313,0.35938 0.20313,1.34375 l -0.0156,1.76563 q 0,0.75 0.0625,1.10937 0.0781,0.35938 0.28125,0.76563 l -1.5,0 q -0.0625,-0.15625 -0.14062,-0.45313 -0.0312,-0.125 -0.0469,-0.17187 -0.39062,0.375 -0.84376,0.5625 -0.4375,0.1875 -0.9375,0.1875 -0.875,0 -1.39063,-0.46875 -0.5,-0.48438 -0.5,-1.21875 0,-0.48438 0.23438,-0.85938 0.23437,-0.375 0.64062,-0.57812 0.42188,-0.20313 1.20313,-0.35938 1.0625,-0.1875 1.46876,-0.35937 l 0,-0.15625 q 0,-0.4375 -0.21875,-0.60938 -0.21876,-0.1875 -0.81251,-0.1875 -0.39063,0 -0.625,0.15625 -0.21875,0.15625 -0.35938,0.54688 z m 2.01564,1.23437 q -0.29687,0.0937 -0.92189,0.23438 -0.625,0.125 -0.8125,0.25 -0.29687,0.21875 -0.29687,0.53125 0,0.32812 0.23437,0.5625 0.23438,0.21875 0.59375,0.21875 0.40625,0 0.78125,-0.26563 0.28127,-0.20312 0.35939,-0.5 0.0625,-0.1875 0.0625,-0.73437 l 0,-0.29688 z m 8.00461,2.73438 -1.39063,0 0,-0.84375 q -0.35937,0.5 -0.84375,0.73437 -0.46875,0.23438 -0.9375,0.23438 -0.98437,0 -1.6875,-0.78125 -0.70312,-0.79688 -0.70312,-2.21875 0,-1.45313 0.67187,-2.20313 0.6875,-0.75 1.73438,-0.75 0.95312,0 1.65625,0.79688 l 0,-2.84375 1.5,0 0,7.875 z m -4.01563,-2.96875 q 0,0.90625 0.25,1.3125 0.35938,0.59375 1.01563,0.59375 0.51562,0 0.875,-0.4375 0.375,-0.45313 0.375,-1.32813 0,-0.98437 -0.35938,-1.40625 -0.34375,-0.4375 -0.90625,-0.4375 -0.53125,0 -0.89062,0.42188 -0.35938,0.42187 -0.35938,1.28125 z m 5.30616,-3.51563 0,-1.39062 1.5,0 0,1.39062 -1.5,0 z m 0,6.48438 0,-5.70313 1.5,0 0,5.70313 -1.5,0 z m 6.2575,-1.8125 1.5,0.25 q -0.28125,0.82812 -0.90625,1.26562 -0.625,0.42188 -1.57812,0.42188 -1.48438,0 -2.20313,-0.96875 -0.5625,-0.78125 -0.5625,-1.96875 0,-1.42188 0.73438,-2.21875 0.75,-0.79688 1.89062,-0.79688 1.26563,0 2,0.84375 0.73438,0.82813 0.70313,2.5625 l -3.78125,0 q 0.0156,0.67188 0.35937,1.04688 0.35938,0.375 0.875,0.375 0.35938,0 0.59375,-0.1875 0.25,-0.20313 0.375,-0.625 z m 0.0781,-1.53125 q -0.0156,-0.65625 -0.34375,-0.98438 -0.3125,-0.34375 -0.76563,-0.34375 -0.5,0 -0.82812,0.35938 -0.3125,0.35937 -0.3125,0.96875 l 2.25,0 z m 7.73901,3.34375 -1.51562,0 0,-2.90625 q 0,-0.92188 -0.0937,-1.1875 -0.0937,-0.28125 -0.3125,-0.42188 -0.21875,-0.15625 -0.53125,-0.15625 -0.39063,0 -0.70313,0.21875 -0.3125,0.20313 -0.4375,0.5625 -0.10937,0.34375 -0.10937,1.3125 l 0,2.57813 -1.5,0 0,-5.70313 1.40625,0 0,0.84375 q 0.73437,-0.96875 1.875,-0.96875 0.5,0 0.90625,0.1875 0.42187,0.17188 0.625,0.45313 0.21875,0.26562 0.29687,0.625 0.0937,0.35937 0.0937,1.01562 l 0,3.54688 z m 3.93112,-5.70313 0,1.20313 -1.03125,0 0,2.29687 q 0,0.70313 0.0312,0.82813 0.0312,0.10937 0.125,0.1875 0.10938,0.0625 0.26563,0.0625 0.20312,0 0.60937,-0.14063 l 0.125,1.17188 q -0.53125,0.21875 -1.1875,0.21875 -0.42187,0 -0.75,-0.125 -0.32812,-0.14063 -0.48437,-0.35938 -0.14063,-0.21875 -0.20313,-0.59375 -0.0469,-0.26562 -0.0469,-1.0625 l 0,-2.48437 -0.6875,0 0,-1.20313 0.6875,0 0,-1.14062 1.51562,-0.875 0,2.01562 1.03125,0 z" />
  <path
     style="fill:#ffffff;fill-rule:nonzero"
     inkscape:connector-curvature="0"
     id="path139"
     d="m 169.70341,333.69028 152.31496,0 0,95.1181 -152.31496,0 z" />
  <path
     style="fill-rule:nonzero;stroke:#0b5394;stroke-width:1;stroke-linecap:butt;stroke-linejoin:round"
     inkscape:connector-curvature="0"
     id="path141"
     d="m 169.70341,333.69028 152.31496,0 0,95.1181 -152.31496,0 z" />
  <path
     style="fill:#000000;fill-opacity:0;fill-rule:nonzero"
     inkscape:connector-curvature="0"
     id="path157"
     d="m 19.874016,377.6824 149.984254,0" />
  <path
     style="fill:#000000;fill-opacity:0;fill-rule:nonzero"
     inkscape:connector-curvature="0"
     id="path161"
     d="m 19.89239,378.00262 0,-56.06299" />
  <path
     style="fill-rule:nonzero;stroke:#0b5394;stroke-width:1;stroke-linecap:butt;stroke-linejoin:round"
     inkscape:connector-curvature="0"
     id="path163"
     d="m 223.5,142.99609 0,-23.53551" />
  <path
     style="fill:#000000;fill-opacity:0;fill-rule:nonzero"
     inkscape:connector-curvature="0"
     id="path165"
     d="m 11.698163,364.1706 102.204717,0 0,14.99213 -102.204717,0 z" />
  <path
     style="fill:#000000;fill-opacity:0;fill-rule:nonzero"
     inkscape:connector-curvature="0"
     id="path169"
     d="m 141.46637,364.17032 36,0 0,14.99213 -36,0 z" />
  <path
     style="fill:#ffffff;fill-rule:nonzero"
     inkscape:connector-curvature="0"
     id="path173"
     d="m 296.59793,133.04199 6.06299,-12.62992 6.06299,12.62992 z" />
  <path
     style="fill-rule:nonzero;stroke:#0b5394;stroke-width:1;stroke-linecap:butt;stroke-linejoin:round"
     inkscape:connector-curvature="0"
     id="path175"
     d="m 296.59793,133.04199 6.06299,-12.62992 6.06299,12.62992 z" />
  <path
     style="fill:#000000;fill-opacity:0;fill-rule:nonzero"
     inkscape:connector-curvature="0"
     id="path177"
     d="m 302.66092,133.04199 0,176.75592" />
  <path
     style="fill-rule:nonzero;stroke:#0b5394;stroke-width:1;stroke-linecap:butt;stroke-linejoin:round"
     inkscape:connector-curvature="0"
     id="path179"
     d="m 302.66092,133.04199 0,176.75592" />
  <path
     style="fill:#000000;fill-opacity:0;fill-rule:nonzero"
     inkscape:connector-curvature="0"
     id="path181"
     d="m 292.0551,247.53018 10.61417,0" />
  <path
     style="fill-rule:nonzero;stroke:#0b5394;stroke-width:1;stroke-linecap:butt;stroke-linejoin:round"
     inkscape:connector-curvature="0"
     id="path183"
     d="m 292.0551,247.53018 10.61417,0" />
  <text
     xml:space="preserve"
     style="font-style:italic;font-variant:normal;font-weight:normal;font-stretch:normal;font-size:10px;line-height:125%;font-family:'Segoe UI';-inkscape-font-specification:'Segoe UI, Italic';text-align:start;letter-spacing:0px;word-spacing:0px;writing-mode:lr-tb;text-anchor:start;fill:#0b5394;fill-opacity:1;stroke:none;stroke-width:1px;stroke-linecap:butt;stroke-linejoin:miter;stroke-opacity:1"
     x="21.866486"
     y="136.5206"
     id="text4405"
     sodipodi:linespacing="125%"><tspan
       sodipodi:role="line"
       id="tspan4407"
       x="21.866486"
       y="136.5206">[gradientDefinition]</tspan></text>
  <text
     xml:space="preserve"
     style="font-style:normal;font-variant:normal;font-weight:normal;font-stretch:normal;font-size:10px;line-height:125%;font-family:Arial;-inkscape-font-specification:'Arial, Normal';text-align:start;letter-spacing:0px;word-spacing:0px;writing-mode:lr-tb;text-anchor:start;fill:#0b5394;fill-opacity:1;stroke:none;stroke-width:1px;stroke-linecap:butt;stroke-linejoin:miter;stroke-opacity:1"
     x="171.06352"
     y="346.33722"
     id="text4302-9"
     sodipodi:linespacing="125%"><tspan
       sodipodi:role="line"
       x="171.06352"
       y="346.33722"
       id="tspan4398">cx: RelAbsVector {use=&quot;optional&quot;}</tspan><tspan
       sodipodi:role="line"
       x="171.06352"
       y="358.83722"
       id="tspan4394">cy: RelAbsVector {use=&quot;optional&quot;}</tspan><tspan
       sodipodi:role="line"
       x="171.06352"
       y="371.33722"
       id="tspan4396">cz: RelAbsVector {use=&quot;optional&quot;}</tspan><tspan
       sodipodi:role="line"
       x="171.06352"
       y="383.83722"
       id="tspan4240">r: RelAbsVector {use=&quot;optional&quot;}</tspan><tspan
       sodipodi:role="line"
       x="171.06352"
       y="396.33722"
       id="tspan4406">fx: RelAbsVector {use=&quot;optional&quot;}</tspan><tspan
       sodipodi:role="line"
       x="171.06352"
       y="408.83722"
       id="tspan4408">fy: RelAbsVector {use=&quot;optional&quot;}</tspan><tspan
       sodipodi:role="line"
       x="171.06352"
       y="421.33722"
       id="tspan4410">fz: RelAbsVector {use=&quot;optional&quot;}</tspan></text>
  <text
     xml:space="preserve"
     style="font-style:normal;font-variant:normal;font-weight:normal;font-stretch:normal;font-size:10px;line-height:125%;font-family:Arial;-inkscape-font-specification:'Arial, Normal';text-align:start;letter-spacing:0px;word-spacing:0px;writing-mode:lr-tb;text-anchor:start;fill:#0b5394;fill-opacity:1;stroke:none;stroke-width:1px;stroke-linecap:butt;stroke-linejoin:miter;stroke-opacity:1"
     x="140.65099"
     y="220.63972"
     id="text4302-9-4"
     sodipodi:linespacing="125%"><tspan
       sodipodi:role="line"
       x="140.65099"
       y="220.63972"
       id="tspan4398-0">x1: RelAbsVector {use=&quot;optional&quot;}</tspan><tspan
       sodipodi:role="line"
       x="140.65099"
       y="233.13972"
       id="tspan4394-7">y1: RelAbsVector {use=&quot;optional&quot;}</tspan><tspan
       sodipodi:role="line"
       x="140.65099"
       y="245.63972"
       id="tspan4396-1">z1: RelAbsVector {use=&quot;optional&quot;}</tspan><tspan
       sodipodi:role="line"
       x="140.65099"
       y="258.13974"
       id="tspan4406-6">x2: RelAbsVector {use=&quot;optional&quot;}</tspan><tspan
       sodipodi:role="line"
       x="140.65099"
       y="270.63974"
       id="tspan4408-0">y2: RelAbsVector {use=&quot;optional&quot;}</tspan><tspan
       sodipodi:role="line"
       x="140.65099"
       y="283.13974"
       id="tspan4410-4">z2: RelAbsVector {use=&quot;optional&quot;}</tspan></text>
  <text
     xml:space="preserve"
     style="font-style:normal;font-variant:normal;font-weight:normal;font-stretch:normal;font-size:10px;line-height:125%;font-family:Arial;-inkscape-font-specification:'Arial, Normal';text-align:start;letter-spacing:0px;word-spacing:0px;writing-mode:lr-tb;text-anchor:start;fill:#0b5394;fill-opacity:1;stroke:none;stroke-width:1px;stroke-linecap:butt;stroke-linejoin:miter;stroke-opacity:1"
     x="377.30948"
     y="178.901"
     id="text4302-9-4-0"
     sodipodi:linespacing="125%"><tspan
       sodipodi:role="line"
       x="377.30948"
       y="178.901"
       id="tspan4398-0-4">offset: RelAbsVector</tspan><tspan
       sodipodi:role="line"
       x="377.30948"
       y="191.401"
       id="tspan4410-4-6">stop-color: string</tspan></text>
</svg>
