<?xml version="1.0" encoding="utf-8"?>
<!-- Generator: Adobe Illustrator 12.0.1, SVG Export Plug-In . SVG Version: 6.00 Build 51448)  -->
<!DOCTYPE svg PUBLIC "-//W3C//DTD SVG 1.1//EN" "http://www.w3.org/Graphics/SVG/1.1/DTD/svg11.dtd" [
	<!ENTITY ns_svg "http://www.w3.org/2000/svg">
	<!ENTITY ns_xlink "http://www.w3.org/1999/xlink">
]>
<svg  version="1.1"
	 id="svg2" xmlns:cc="http://web.resource.org/cc/" xmlns:rdf="http://www.w3.org/1999/02/22-rdf-syntax-ns#" xmlns:svg="http://www.w3.org/2000/svg" xmlns:sodipodi="http://sodipodi.sourceforge.net/DTD/sodipodi-0.dtd" sodipodi:modified="true" sodipodi:docbase="/home/lenov/SBML/cvs/specifications/sbml-level-2/version-3/spec/figs" xmlns:inkscape="http://www.inkscape.org/namespaces/inkscape" inkscape:output_extension="org.inkscape.output.svg.inkscape" sodipodi:docname="sbo-event.svg" sodipodi:version="0.32" inkscape:version="0.45" inkscape:dataloss="true" xmlns:dc="http://purl.org/dc/elements/1.1/"
	 xmlns="&ns_svg;" xmlns:xlink="&ns_xlink;" width="612" height="792" viewBox="0 0 612 792"
	 overflow="visible" enable-background="new 0 0 612 792" xml:space="preserve">
<sodipodi:namedview  inkscape:window-width="1392" showgrid="true" inkscape:current-layer="layer1" inkscape:document-units="px" inkscape:cy="748.47872" inkscape:cx="311.26616" inkscape:zoom="1.979899" inkscape:pageshadow="2" inkscape:pageopacity="0.0" objecttolerance="10" guidetolerance="10" gridtolerance="10000" borderopacity="1.0" bordercolor="#666666" pagecolor="#ffffff" inkscape:window-y="0" inkscape:window-x="0" inkscape:window-height="1022" id="base">
	</sodipodi:namedview>
<text transform="matrix(1 0 0 1 342.8457 223.4131)" fill="#231F20" font-family="'Arial-BoldMT'" font-size="10">event</text>
<text transform="matrix(1 0 0 1 323.5664 291.3721)" fill="#231F20" font-family="'ArialMT'" font-size="10">binding</text>
<text transform="matrix(1 0 0 1 232.8394 257.293)" fill="#231F20" font-family="'ArialMT'" font-size="10">biochemical reaction</text>
<path id="path2202" sodipodi:nodetypes="cc" fill="none" stroke="#231F20" d="M193.546,298.425l-57.074,18.99"/>
<path id="path2204" sodipodi:nodetypes="cc" fill="none" stroke="#231F20" d="M218.472,298.425l51.518,18.99"/>
<text transform="matrix(1 0 0 1 109.1367 327.3516)" fill="#231F20" font-family="'ArialMT'" font-size="10">addition of a</text>
<text transform="matrix(1 0 0 1 102.4717 339.8516)" fill="#231F20" font-family="'ArialMT'" font-size="10">chemical group </text>
<path id="path2218" fill="none" stroke="#231F20" d="M134.173,345.009v20"/>
<path id="path2220" sodipodi:nodetypes="cc" fill="none" stroke="#231F20" d="M121.627,345.009l-57.074,18.99"/>
<text transform="matrix(1 0 0 1 423.0918 252.3623)" fill="#231F20" font-family="'ArialMT'" font-size="10">. . .</text>
<text transform="matrix(1 0 0 1 183.3867 291.3721)" fill="#231F20" font-family="'ArialMT'" font-size="10">conversion</text>
<path id="path2374" sodipodi:nodetypes="cc" fill="none" stroke="#231F20" d="M347.076,228.418l-57.074,18.99"/>
<path id="path2376" sodipodi:nodetypes="cc" fill="none" stroke="#231F20" d="M372.003,228.418l51.518,18.99"/>
<path id="path2378" sodipodi:nodetypes="cc" fill="none" stroke="#231F20" d="M288.906,262.867l51.518,18.99"/>
<text transform="matrix(1 0 0 1 248.3633 327.3516)" fill="#231F20" font-family="'ArialMT'" font-size="10">cleavage </text>
<path id="path2608" sodipodi:nodetypes="cc" fill="none" stroke="#231F20" d="M146.906,345.373l51.518,18.99"/>
<text transform="matrix(1 0 0 1 38.8091 375.3516)" fill="#231F20" font-family="'ArialMT'" font-size="10">methylation </text>
<text transform="matrix(1 0 0 1 163.0752 375.3516)" fill="#231F20" font-family="'ArialMT'" font-size="10">phosphorylation </text>
<text transform="matrix(1 0 0 1 127.1021 372.3623)" fill="#231F20" font-family="'ArialMT'" font-size="10">. . .</text>
<path id="path2626" sodipodi:nodetypes="cc" fill="none" stroke="#231F20" d="M265.076,262.418l-57.074,18.99"/>
<path id="path2322" fill="none" stroke="#231F20" d="M275.943,263.215v20"/>
<text transform="matrix(1 0 0 1 249.5664 291.3721)" fill="#231F20" font-family="'ArialMT'" font-size="10">degradation</text>
<path id="path2339" fill="none" stroke="#231F20" d="M204.449,297.862v20"/>
<text transform="matrix(1 0 0 1 196.9971 325.2148)" fill="#231F20" font-family="'ArialMT'" font-size="10">. . .</text>
<text transform="matrix(1 0 0 1 491.5664 291.3721)" fill="#231F20" font-family="'ArialMT'" font-size="10">stimulation</text>
<text transform="matrix(1 0 0 1 416.8398 257.293)" fill="#231F20" font-family="'ArialMT'" font-size="10">control</text>
<path id="path2357" sodipodi:nodetypes="cc" fill="none" stroke="#231F20" d="M456.906,262.867l51.518,18.99"/>
<path id="path2359" sodipodi:nodetypes="cc" fill="none" stroke="#231F20" d="M433.076,262.418l-57.073,18.99"/>
<path id="path2361" fill="none" stroke="#231F20" d="M443.943,263.215v20"/>
<text transform="matrix(1 0 0 1 417.5664 291.3721)" fill="#231F20" font-family="'ArialMT'" font-size="10">inhibition</text>
<text transform="matrix(1 0 0 1 369.0918 289.332)" fill="#231F20" font-family="'ArialMT'" font-size="10">. . .</text>
<text transform="matrix(1 0 0 1 553.8418 326.3672)" fill="#231F20" font-family="'ArialMT'" font-size="10">catalysis</text>
<path id="path2375" sodipodi:nodetypes="cc" fill="none" stroke="#231F20" d="M519.182,297.862l51.518,18.99"/>
<path id="path2377" fill="none" stroke="#231F20" d="M509.543,298.009v20"/>
<text transform="matrix(1 0 0 1 502.0918 325.3623)" fill="#231F20" font-family="'ArialMT'" font-size="10">. . .</text>
</svg>
