<?xml version="1.0" encoding="UTF-8" standalone="no"?>
<!-- Created with Bouml (http://bouml.free.fr/) -->
<!DOCTYPE svg PUBLIC "-//W3C//DTD SVG 1.1//EN" "http://www.w3.org/Graphics/SVG/1.1/DTD/svg11.dtd">
<svg width="727" height="445" version="1.1" xmlns="http://www.w3.org/2000/svg">
<g>
	<rect fill="#90e990" stroke="black" stroke-width="1" stroke-opacity="1" x="37" y="184" width="124" height="48" />
	<text font-family="Helvetica" font-size="13" fill="#000000" xml:space="preserve" font-weight="bold" text-anchor="middle" x="99" y="199">functionDefinition</text>
	<line stroke="black" stroke-opacity="1" x1="37" y1="202" x2="161" y2="202" />
	<line stroke="black" stroke-opacity="1" x1="37" y1="210" x2="161" y2="210" />
</g>
<g>
	<rect fill="none" stroke="black" stroke-width="1" stroke-opacity="1" x="361" y="192" width="94" height="34" />
	<text font-family="Helvetica" font-size="13" fill="#000000" xml:space="preserve" font-weight="bold" text-anchor="middle" x="408" y="207">MathML::Math</text>
	<line stroke="black" stroke-opacity="1" x1="361" y1="210" x2="455" y2="210" />
	<line stroke="black" stroke-opacity="1" x1="361" y1="218" x2="455" y2="218" />
</g>
<g>
	<rect fill="#90ccff" stroke="black" stroke-width="1" stroke-opacity="1" x="365" y="389" width="126" height="44" />
	<text font-family="Helvetica" font-size="13" fill="#000000" xml:space="preserve" font-weight="bold" text-anchor="middle" x="428" y="404">distrib::explicitPDF</text>
	<line stroke="black" stroke-opacity="1" x1="365" y1="407" x2="491" y2="407" />
	<text font-family="Helvetica" font-size="13" fill="#000000" xml:space="preserve" x="369" y="422">truncated : bool [1]</text>
	<line stroke="black" stroke-opacity="1" x1="365" y1="425" x2="491" y2="425" />
</g>
<g>
	<rect fill="#90ccff" stroke="black" stroke-width="1" stroke-opacity="1" x="362" y="292" width="126" height="34" />
	<text font-family="Helvetica" font-size="13" fill="#000000" xml:space="preserve" font-weight="bold" text-anchor="middle" x="425" y="307">distrib::explicitPMF</text>
	<line stroke="black" stroke-opacity="1" x1="362" y1="310" x2="488" y2="310" />
	<line stroke="black" stroke-opacity="1" x1="362" y1="318" x2="488" y2="318" />
</g>
<g>
	<rect fill="#90ccff" stroke="black" stroke-width="1" stroke-opacity="1" x="619" y="76" width="96" height="60" />
	<text font-family="Helvetica" font-size="13" fill="#000000" xml:space="preserve" font-weight="bold" text-anchor="middle" x="667" y="91">distrib::arg</text>
	<line stroke="black" stroke-opacity="1" x1="619" y1="94" x2="715" y2="94" />
	<text font-family="Helvetica" font-size="13" fill="#000000" xml:space="preserve" x="623" y="109">name : string [1]</text>
	<text font-family="Helvetica" font-size="13" fill="#000000" xml:space="preserve" x="623" y="125">type : enum [1]</text>
	<line stroke="black" stroke-opacity="1" x1="619" y1="128" x2="715" y2="128" />
</g>
<g>
	<line stroke="black" stroke-opacity="1" x1="161" y1="208" x2="260" y2="208" />
	<polygon fill="#000000" stroke="black" stroke-opacity="1" points="161,208 167,202 173,208 167,214" />
</g>
<g>
	<line stroke="black" stroke-opacity="1" x1="161" y1="208" x2="260" y2="208" />
	<polygon fill="#000000" stroke="black" stroke-opacity="1" points="161,208 167,202 173,208 167,214" />
</g>
<g>
	<line stroke="black" stroke-opacity="1" x1="161" y1="208" x2="261" y2="208" />
	<polygon fill="#000000" stroke="black" stroke-opacity="1" points="161,208 167,202 173,208 167,214" />
</g>
<g>
	<line stroke="black" stroke-opacity="1" x1="360" y1="208" x2="354" y2="202" />
	<line stroke="black" stroke-opacity="1" x1="360" y1="208" x2="354" y2="214" />
	<line stroke="black" stroke-opacity="1" x1="261" y1="208" x2="360" y2="208" />
</g>
<g>
	<line stroke="black" stroke-opacity="1" x1="408" y1="292" x2="408" y2="224" />
</g>
<g>
	<line stroke="black" stroke-opacity="1" x1="408" y1="224" x2="408" y2="226" />
</g>
<g>
	<line stroke="black" stroke-opacity="1" x1="491" y1="411" x2="618" y2="411" />
	<polygon fill="#000000" stroke="black" stroke-opacity="1" points="491,411 497,405 503,411 497,417" />
</g>
<g>
	<line stroke="black" stroke-opacity="1" x1="618" y1="411" x2="618" y2="208" />
</g>
<g>
	<line stroke="black" stroke-opacity="1" x1="455" y1="208" x2="461" y2="214" />
	<line stroke="black" stroke-opacity="1" x1="455" y1="208" x2="461" y2="202" />
	<line stroke="black" stroke-opacity="1" x1="618" y1="208" x2="455" y2="208" />
</g>
<g>
	<line stroke="black" stroke-opacity="1" x1="260" y1="208" x2="260" y2="411" />
</g>
<g>
	<line stroke="black" stroke-opacity="1" x1="260" y1="208" x2="260" y2="309" />
</g>
<g>
	<line stroke="black" stroke-opacity="1" x1="364" y1="411" x2="358" y2="405" />
	<line stroke="black" stroke-opacity="1" x1="364" y1="411" x2="358" y2="417" />
	<line stroke="black" stroke-opacity="1" x1="260" y1="411" x2="364" y2="411" />
</g>
<g>
	<line stroke="black" stroke-opacity="1" x1="361" y1="309" x2="355" y2="303" />
	<line stroke="black" stroke-opacity="1" x1="361" y1="309" x2="355" y2="315" />
	<line stroke="black" stroke-opacity="1" x1="260" y1="309" x2="361" y2="309" />
</g>
<g>
	<text font-family="Helvetica" font-size="13" fill="#000000" xml:space="preserve" x="334" y="431">0..1</text>
</g>
<g>
	<text font-family="Helvetica" font-size="13" fill="#000000" xml:space="preserve" x="331" y="329">0..1</text>
</g>
<g>
	<text font-family="Helvetica" font-size="13" fill="#000000" xml:space="preserve" x="343" y="228">1</text>
</g>
<g>
	<text font-family="Helvetica" font-size="13" fill="#000000" xml:space="preserve" x="171" y="228">1</text>
</g>
<g>
	<text font-family="Helvetica" font-size="13" fill="#000000" xml:space="preserve" x="602" y="125">*</text>
</g>
<g>
	<text font-family="Helvetica" font-size="13" fill="#000000" xml:space="preserve" x="465" y="228">1</text>
</g>
<g>
	<text font-family="Helvetica" font-size="13" fill="#000000" xml:space="preserve" x="328" y="125">0..1</text>
</g>
<g>
	<rect fill="#90ccff" stroke="black" stroke-width="1" stroke-opacity="1" x="359" y="75" width="162" height="60" />
	<text font-family="Helvetica" font-size="13" fill="#000000" xml:space="preserve" font-weight="bold" text-anchor="middle" x="440" y="90">distrib::externalDefinition</text>
	<line stroke="black" stroke-opacity="1" x1="359" y1="93" x2="521" y2="93" />
	<text font-family="Helvetica" font-size="13" fill="#000000" xml:space="preserve" x="363" y="108">uri : string [1]</text>
	<text font-family="Helvetica" font-size="13" fill="#000000" xml:space="preserve" x="363" y="124">truncated : bool [1]</text>
	<line stroke="black" stroke-opacity="1" x1="359" y1="127" x2="521" y2="127" />
</g>
<g>
	<line stroke="black" stroke-opacity="1" x1="161" y1="208" x2="260" y2="208" />
	<polygon fill="#000000" stroke="black" stroke-opacity="1" points="161,208 167,202 173,208 167,214" />
</g>
<g>
	<line stroke="black" stroke-opacity="1" x1="618" y1="105" x2="612" y2="99" />
	<line stroke="black" stroke-opacity="1" x1="618" y1="105" x2="612" y2="111" />
	<line stroke="black" stroke-opacity="1" x1="521" y1="105" x2="618" y2="105" />
	<polygon fill="#000000" stroke="black" stroke-opacity="1" points="521,105 527,99 533,105 527,111" />
</g>
<g>
	<line stroke="black" stroke-opacity="1" x1="260" y1="208" x2="260" y2="105" />
</g>
<g>
	<line stroke="black" stroke-opacity="1" x1="358" y1="105" x2="352" y2="99" />
	<line stroke="black" stroke-opacity="1" x1="358" y1="105" x2="352" y2="111" />
	<line stroke="black" stroke-opacity="1" x1="260" y1="105" x2="358" y2="105" />
</g>
</svg>
