<?xml version="1.0" encoding="UTF-8" standalone="no"?>
<!-- Created with Bouml (http://bouml.free.fr/) -->
<!DOCTYPE svg PUBLIC "-//W3C//DTD SVG 1.1//EN" "http://www.w3.org/Graphics/SVG/1.1/DTD/svg11.dtd">
<svg width="706" height="603" version="1.1" xmlns="http://www.w3.org/2000/svg">
<g>
	<rect fill="none" stroke="black" stroke-width="1" stroke-opacity="1" x="361" y="192" width="94" height="34" />
	<text font-family="Helvetica" font-size="13" fill="#000000" xml:space="preserve" font-weight="bold" text-anchor="middle" x="408" y="207">MathML::Math</text>
	<line stroke="black" stroke-opacity="1" x1="361" y1="210" x2="455" y2="210" />
	<line stroke="black" stroke-opacity="1" x1="361" y1="218" x2="455" y2="218" />
</g>
<g>
	<rect fill="#90ccff" stroke="black" stroke-width="1" stroke-opacity="1" x="358" y="272" width="126" height="44" />
	<text font-family="Helvetica" font-size="13" fill="#000000" xml:space="preserve" font-weight="bold" text-anchor="middle" x="421" y="287">distrib::explicitPDF</text>
	<line stroke="black" stroke-opacity="1" x1="358" y1="290" x2="484" y2="290" />
	<text font-family="Helvetica" font-size="13" fill="#000000" xml:space="preserve" x="362" y="305">truncated : bool [1]</text>
	<line stroke="black" stroke-opacity="1" x1="358" y1="308" x2="484" y2="308" />
</g>
<g>
	<rect fill="#90ccff" stroke="black" stroke-width="1" stroke-opacity="1" x="362" y="376" width="126" height="34" />
	<text font-family="Helvetica" font-size="13" fill="#000000" xml:space="preserve" font-weight="bold" text-anchor="middle" x="425" y="391">distrib::explicitPMF</text>
	<line stroke="black" stroke-opacity="1" x1="362" y1="394" x2="488" y2="394" />
	<line stroke="black" stroke-opacity="1" x1="362" y1="402" x2="488" y2="402" />
</g>
<g>
	<rect fill="#90ccff" stroke="black" stroke-width="1" stroke-opacity="1" x="362" y="459" width="110" height="60" />
	<text font-family="Helvetica" font-size="13" fill="#000000" xml:space="preserve" font-weight="bold" text-anchor="middle" x="417" y="474">distrib::category</text>
	<line stroke="black" stroke-opacity="1" x1="362" y1="477" x2="472" y2="477" />
	<text font-family="Helvetica" font-size="13" fill="#000000" xml:space="preserve" x="366" y="492">id : SId [1]</text>
	<text font-family="Helvetica" font-size="13" fill="#000000" xml:space="preserve" x="366" y="508">name : string [0..1]</text>
	<line stroke="black" stroke-opacity="1" x1="362" y1="511" x2="472" y2="511" />
</g>
<g>
	<rect fill="#90ccff" stroke="black" stroke-width="1" stroke-opacity="1" x="362" y="557" width="118" height="34" />
	<text font-family="Helvetica" font-size="13" fill="#000000" xml:space="preserve" font-weight="bold" text-anchor="middle" x="421" y="572">distrib::probability</text>
	<line stroke="black" stroke-opacity="1" x1="362" y1="575" x2="480" y2="575" />
	<line stroke="black" stroke-opacity="1" x1="362" y1="583" x2="480" y2="583" />
</g>
<g>
	<rect fill="#90e990" stroke="black" stroke-width="1" stroke-opacity="1" x="37" y="184" width="124" height="48" />
	<text font-family="Helvetica" font-size="13" fill="#000000" xml:space="preserve" font-weight="bold" text-anchor="middle" x="99" y="199">functionDefinition</text>
	<line stroke="black" stroke-opacity="1" x1="37" y1="202" x2="161" y2="202" />
	<line stroke="black" stroke-opacity="1" x1="37" y1="210" x2="161" y2="210" />
</g>
<g>
	<line stroke="black" stroke-opacity="1" x1="161" y1="208" x2="261" y2="208" />
	<polygon fill="#000000" stroke="black" stroke-opacity="1" points="161,208 167,202 173,208 167,214" />
</g>
<g>
	<line stroke="black" stroke-opacity="1" x1="360" y1="208" x2="354" y2="202" />
	<line stroke="black" stroke-opacity="1" x1="360" y1="208" x2="354" y2="214" />
	<line stroke="black" stroke-opacity="1" x1="261" y1="208" x2="360" y2="208" />
</g>
<g>
	<line stroke="black" stroke-opacity="1" x1="484" y1="294" x2="618" y2="294" />
	<polygon fill="#000000" stroke="black" stroke-opacity="1" points="484,294 490,288 496,294 490,300" />
</g>
<g>
	<line stroke="black" stroke-opacity="1" x1="618" y1="294" x2="618" y2="217" />
</g>
<g>
	<line stroke="black" stroke-opacity="1" x1="455" y1="217" x2="461" y2="223" />
	<line stroke="black" stroke-opacity="1" x1="455" y1="217" x2="461" y2="211" />
	<line stroke="black" stroke-opacity="1" x1="618" y1="217" x2="455" y2="217" />
</g>
<g>
	<line stroke="black" stroke-opacity="1" x1="161" y1="208" x2="260" y2="208" />
	<polygon fill="#000000" stroke="black" stroke-opacity="1" points="161,208 167,202 173,208 167,214" />
</g>
<g>
	<line stroke="black" stroke-opacity="1" x1="260" y1="208" x2="260" y2="294" />
</g>
<g>
	<line stroke="black" stroke-opacity="1" x1="357" y1="294" x2="351" y2="288" />
	<line stroke="black" stroke-opacity="1" x1="357" y1="294" x2="351" y2="300" />
	<line stroke="black" stroke-opacity="1" x1="260" y1="294" x2="357" y2="294" />
</g>
<g>
	<line stroke="black" stroke-opacity="1" x1="161" y1="208" x2="260" y2="208" />
	<polygon fill="#000000" stroke="black" stroke-opacity="1" points="161,208 167,202 173,208 167,214" />
</g>
<g>
	<line stroke="black" stroke-opacity="1" x1="260" y1="208" x2="260" y2="393" />
</g>
<g>
	<line stroke="black" stroke-opacity="1" x1="361" y1="393" x2="355" y2="387" />
	<line stroke="black" stroke-opacity="1" x1="361" y1="393" x2="355" y2="399" />
	<line stroke="black" stroke-opacity="1" x1="260" y1="393" x2="361" y2="393" />
</g>
<g>
	<line stroke="black" stroke-opacity="1" x1="488" y1="393" x2="547" y2="393" />
	<polygon fill="#000000" stroke="black" stroke-opacity="1" points="488,393 494,387 500,393 494,399" />
</g>
<g>
	<line stroke="black" stroke-opacity="1" x1="547" y1="393" x2="547" y2="488" />
</g>
<g>
	<line stroke="black" stroke-opacity="1" x1="472" y1="488" x2="478" y2="494" />
	<line stroke="black" stroke-opacity="1" x1="472" y1="488" x2="478" y2="482" />
	<line stroke="black" stroke-opacity="1" x1="547" y1="488" x2="472" y2="488" />
</g>
<g>
	<line stroke="black" stroke-opacity="1" x1="361" y1="488" x2="296" y2="488" />
	<polygon fill="#000000" stroke="black" stroke-opacity="1" points="361,488 355,494 349,488 355,482" />
</g>
<g>
	<line stroke="black" stroke-opacity="1" x1="296" y1="488" x2="296" y2="573" />
</g>
<g>
	<line stroke="black" stroke-opacity="1" x1="361" y1="573" x2="355" y2="567" />
	<line stroke="black" stroke-opacity="1" x1="361" y1="573" x2="355" y2="579" />
	<line stroke="black" stroke-opacity="1" x1="296" y1="573" x2="361" y2="573" />
</g>
<g>
	<line stroke="black" stroke-opacity="1" x1="480" y1="573" x2="686" y2="573" />
	<polygon fill="#000000" stroke="black" stroke-opacity="1" points="480,573 486,567 492,573 486,579" />
</g>
<g>
	<line stroke="black" stroke-opacity="1" x1="686" y1="573" x2="686" y2="200" />
</g>
<g>
	<line stroke="black" stroke-opacity="1" x1="455" y1="200" x2="461" y2="206" />
	<line stroke="black" stroke-opacity="1" x1="455" y1="200" x2="461" y2="194" />
	<line stroke="black" stroke-opacity="1" x1="686" y1="200" x2="455" y2="200" />
</g>
<g>
	<text font-family="Helvetica" font-size="13" fill="#000000" xml:space="preserve" x="343" y="228">1</text>
</g>
<g>
	<text font-family="Helvetica" font-size="13" fill="#000000" xml:space="preserve" x="171" y="228">1</text>
</g>
<g>
	<text font-family="Helvetica" font-size="13" fill="#000000" xml:space="preserve" x="465" y="237">1</text>
</g>
<g>
	<text font-family="Helvetica" font-size="13" fill="#000000" xml:space="preserve" x="328" y="125">0..1</text>
</g>
<g>
	<text font-family="Helvetica" font-size="13" fill="#000000" xml:space="preserve" x="327" y="314">0..1</text>
</g>
<g>
	<text font-family="Helvetica" font-size="13" fill="#000000" xml:space="preserve" x="331" y="413">0..1</text>
</g>
<g>
	<text font-family="Helvetica" font-size="13" fill="#000000" xml:space="preserve" x="482" y="508">1..*</text>
</g>
<g>
	<text font-family="Helvetica" font-size="13" fill="#000000" xml:space="preserve" x="344" y="593">1</text>
</g>
<g>
	<rect fill="#90ccff" stroke="black" stroke-width="1" stroke-opacity="1" x="359" y="75" width="162" height="60" />
	<text font-family="Helvetica" font-size="13" fill="#000000" xml:space="preserve" font-weight="bold" text-anchor="middle" x="440" y="90">distrib::externalDefinition</text>
	<line stroke="black" stroke-opacity="1" x1="359" y1="93" x2="521" y2="93" />
	<text font-family="Helvetica" font-size="13" fill="#000000" xml:space="preserve" x="363" y="108">uri : string [1]</text>
	<text font-family="Helvetica" font-size="13" fill="#000000" xml:space="preserve" x="363" y="124">truncated : bool [1]</text>
	<line stroke="black" stroke-opacity="1" x1="359" y1="127" x2="521" y2="127" />
</g>
<g>
	<line stroke="black" stroke-opacity="1" x1="161" y1="208" x2="260" y2="208" />
	<polygon fill="#000000" stroke="black" stroke-opacity="1" points="161,208 167,202 173,208 167,214" />
</g>
<g>
	<line stroke="black" stroke-opacity="1" x1="260" y1="208" x2="260" y2="105" />
</g>
<g>
	<line stroke="black" stroke-opacity="1" x1="358" y1="105" x2="352" y2="99" />
	<line stroke="black" stroke-opacity="1" x1="358" y1="105" x2="352" y2="111" />
	<line stroke="black" stroke-opacity="1" x1="260" y1="105" x2="358" y2="105" />
</g>
</svg>
