<?xml version="1.0" encoding="UTF-8" standalone="no"?>
<!-- Created with Bouml (http://bouml.free.fr/) -->
<!DOCTYPE svg PUBLIC "-//W3C//DTD SVG 1.1//EN" "http://www.w3.org/Graphics/SVG/1.1/DTD/svg11.dtd">
<svg width="648" height="286" version="1.1" xmlns="http://www.w3.org/2000/svg">
<g>
	<rect fill="none" stroke="black" stroke-width="1" stroke-opacity="1" x="532" y="72" width="94" height="34" />
	<text font-family="Helvetica" font-size="13" fill="#000000" xml:space="preserve" font-weight="bold" text-anchor="middle" x="579" y="87">MathML::Math</text>
	<line stroke="black" stroke-opacity="1" x1="532" y1="90" x2="626" y2="90" />
	<line stroke="black" stroke-opacity="1" x1="532" y1="98" x2="626" y2="98" />
</g>
<g>
	<rect fill="#90e990" stroke="black" stroke-width="1" stroke-opacity="1" x="164" y="79" width="124" height="48" />
	<text font-family="Helvetica" font-size="13" fill="#000000" xml:space="preserve" font-weight="bold" text-anchor="middle" x="226" y="94">FunctionDefinition</text>
	<line stroke="black" stroke-opacity="1" x1="164" y1="97" x2="288" y2="97" />
	<line stroke="black" stroke-opacity="1" x1="164" y1="105" x2="288" y2="105" />
</g>
<g>
	<line stroke="black" stroke-opacity="1" x1="288" y1="88" x2="410" y2="88" />
	<polygon fill="#000000" stroke="black" stroke-opacity="1" points="288,88 294,82 300,88 294,94" />
</g>
<g>
	<line stroke="black" stroke-opacity="1" x1="531" y1="88" x2="525" y2="82" />
	<line stroke="black" stroke-opacity="1" x1="531" y1="88" x2="525" y2="94" />
	<line stroke="black" stroke-opacity="1" x1="410" y1="88" x2="531" y2="88" />
</g>
<g>
	<rect fill="none" stroke="black" stroke-width="1" stroke-opacity="1" x="522" y="214" width="114" height="34" />
	<text font-family="Helvetica" font-size="13" fill="#000000" xml:space="preserve" font-weight="bold" text-anchor="middle" x="579" y="229">MathML::Lambda</text>
	<line stroke="black" stroke-opacity="1" x1="522" y1="232" x2="636" y2="232" />
	<line stroke="black" stroke-opacity="1" x1="522" y1="240" x2="636" y2="240" />
</g>
<g>
	<line stroke="black" stroke-opacity="1" x1="579" y1="106" x2="579" y2="213" />
	<polygon fill="#000000" stroke="black" stroke-opacity="1" points="579,106 585,112 579,118 573,112" />
</g>
<g>
	<text font-family="Helvetica" font-size="13" fill="#000000" xml:space="preserve" x="514" y="108">1</text>
</g>
<g>
	<text font-family="Helvetica" font-size="13" fill="#000000" xml:space="preserve" x="298" y="108">1</text>
</g>
<g>
	<text font-family="Helvetica" font-size="13" fill="#000000" xml:space="preserve" x="563" y="208">*</text>
</g>
<g>
	<text font-family="Helvetica" font-size="13" fill="#000000" xml:space="preserve" x="562" y="126">1</text>
</g>
<g>
	<rect fill="#90ccff" stroke="black" stroke-width="1" stroke-opacity="1" x="113" y="214" width="224" height="60" />
	<text font-family="Helvetica" font-size="13" fill="#000000" xml:space="preserve" font-weight="bold" text-anchor="middle" x="225" y="229">distrib::ExtendedFunctionDefinition</text>
	<line stroke="black" stroke-opacity="1" x1="113" y1="232" x2="337" y2="232" />
	<text font-family="Helvetica" font-size="13" fill="#000000" xml:space="preserve" x="117" y="247">function : string [0..1]</text>
	<text font-family="Helvetica" font-size="13" fill="#000000" xml:space="preserve" x="117" y="263">explicit : bool [0..1] = false</text>
	<line stroke="black" stroke-opacity="1" x1="113" y1="266" x2="337" y2="266" />
</g>
<g>
	<line stroke="black" stroke-opacity="1" x1="225" y1="213" x2="225" y2="133" />
	<line stroke="black" stroke-opacity="1" x1="225" y1="127" x2="219" y2="133" />
	<line stroke="black" stroke-opacity="1" x1="225" y1="127" x2="231" y2="133" />
	<line stroke="black" stroke-opacity="1" x1="219" y1="133" x2="231" y2="133" />
</g>
</svg>
