<?xml version="1.0" encoding="UTF-8" standalone="no"?>
<!-- Created with Bouml (http://bouml.free.fr/) -->
<!DOCTYPE svg PUBLIC "-//W3C//DTD SVG 1.1//EN" "http://www.w3.org/Graphics/SVG/1.1/DTD/svg11.dtd">
<svg width="821" height="351" version="1.1" xmlns="http://www.w3.org/2000/svg">
<g>
	<rect fill="#90e990" stroke="black" stroke-width="1" stroke-opacity="1" x="20" y="86" width="122" height="78" />
	<text font-family="Helvetica" font-size="13" fill="#000000" xml:space="preserve" font-weight="bold" text-anchor="middle" x="81" y="101">FunctionDefinition</text>
	<line stroke="black" stroke-opacity="1" x1="20" y1="104" x2="142" y2="104" />
	<line stroke="black" stroke-opacity="1" x1="20" y1="112" x2="142" y2="112" />
</g>
<g>
	<rect fill="none" stroke="black" stroke-width="1" stroke-opacity="1" x="333" y="55" width="94" height="34" />
	<text font-family="Helvetica" font-size="13" fill="#000000" xml:space="preserve" font-weight="bold" text-anchor="middle" x="380" y="70">MathML::Math</text>
	<line stroke="black" stroke-opacity="1" x1="333" y1="73" x2="427" y2="73" />
	<line stroke="black" stroke-opacity="1" x1="333" y1="81" x2="427" y2="81" />
</g>
<g>
	<rect fill="#90ccff" stroke="black" stroke-width="1" stroke-opacity="1" x="286" y="231" width="192" height="108" />
	<text font-family="Helvetica" font-size="13" fill="#000000" xml:space="preserve" font-weight="bold" text-anchor="middle" x="382" y="246">distrib::Distribution</text>
	<line stroke="black" stroke-opacity="1" x1="286" y1="249" x2="478" y2="249" />
	<text font-family="Helvetica" font-size="13" fill="#000000" xml:space="preserve" x="290" y="264">id : Sid</text>
	<text font-family="Helvetica" font-size="13" fill="#000000" xml:space="preserve" x="290" y="280">mandatoryEvalRuntime : bool [1]</text>
	<text font-family="Helvetica" font-size="13" fill="#000000" xml:space="preserve" x="290" y="296">truncated : bool [1]</text>
	<text font-family="Helvetica" font-size="13" fill="#000000" xml:space="preserve" x="290" y="312">lowerBound : double [0..1]</text>
	<text font-family="Helvetica" font-size="13" fill="#000000" xml:space="preserve" x="290" y="328">upperBound : double [0..1]</text>
	<line stroke="black" stroke-opacity="1" x1="286" y1="331" x2="478" y2="331" />
</g>
<g>
	<rect fill="none" stroke="black" stroke-width="1" stroke-opacity="1" x="661" y="224" width="148" height="34" />
	<text font-family="Helvetica" font-size="13" fill="#000000" xml:space="preserve" font-weight="bold" font-style="italic" text-anchor="middle" x="735" y="239">UncertML::IUncertainty</text>
	<line stroke="black" stroke-opacity="1" x1="661" y1="242" x2="809" y2="242" />
	<line stroke="black" stroke-opacity="1" x1="661" y1="250" x2="809" y2="250" />
</g>
<g>
	<line stroke="black" stroke-opacity="1" x1="478" y1="329" x2="569" y2="329" />
	<polygon fill="#ffffff" stroke="black" stroke-opacity="1" points="478,329 484,323 490,329 484,335" />
</g>
<g>
	<line stroke="black" stroke-opacity="1" x1="478" y1="256" x2="533" y2="256" />
	<polygon fill="#000000" stroke="black" stroke-opacity="1" points="478,256 484,250 490,256 484,262" />
</g>
<g>
	<line stroke="black" stroke-opacity="1" x1="142" y1="100" x2="237" y2="100" />
	<polygon fill="#000000" stroke="black" stroke-opacity="1" points="142,100 148,94 154,100 148,106" />
</g>
<g>
	<line stroke="black" stroke-opacity="1" x1="142" y1="152" x2="214" y2="152" />
	<polygon fill="#000000" stroke="black" stroke-opacity="1" points="142,152 148,146 154,152 148,158" />
</g>
<g>
	<line stroke="black" stroke-opacity="1" x1="569" y1="329" x2="569" y2="241" />
</g>
<g>
	<line stroke="black" stroke-opacity="1" x1="214" y1="152" x2="214" y2="284" />
</g>
<g>
	<line stroke="black" stroke-opacity="1" x1="533" y1="256" x2="533" y2="72" />
</g>
<g>
	<line stroke="black" stroke-opacity="1" x1="237" y1="100" x2="237" y2="72" />
</g>
<g>
	<line stroke="black" stroke-opacity="1" x1="332" y1="72" x2="326" y2="66" />
	<line stroke="black" stroke-opacity="1" x1="332" y1="72" x2="326" y2="78" />
	<line stroke="black" stroke-opacity="1" x1="237" y1="72" x2="332" y2="72" />
</g>
<g>
	<line stroke="black" stroke-opacity="1" x1="660" y1="241" x2="654" y2="235" />
	<line stroke="black" stroke-opacity="1" x1="660" y1="241" x2="654" y2="247" />
	<line stroke="black" stroke-opacity="1" x1="569" y1="241" x2="660" y2="241" />
</g>
<g>
	<line stroke="black" stroke-opacity="1" x1="285" y1="284" x2="279" y2="278" />
	<line stroke="black" stroke-opacity="1" x1="285" y1="284" x2="279" y2="290" />
	<line stroke="black" stroke-opacity="1" x1="214" y1="284" x2="285" y2="284" />
</g>
<g>
	<line stroke="black" stroke-opacity="1" x1="427" y1="72" x2="433" y2="78" />
	<line stroke="black" stroke-opacity="1" x1="427" y1="72" x2="433" y2="66" />
	<line stroke="black" stroke-opacity="1" x1="533" y1="72" x2="427" y2="72" />
</g>
<g>
	<rect fill="none" stroke="black" stroke-width="1" stroke-opacity="1" x="324" y="161" width="114" height="34" />
	<text font-family="Helvetica" font-size="13" fill="#000000" xml:space="preserve" font-weight="bold" text-anchor="middle" x="381" y="176">MathML::Lambda</text>
	<line stroke="black" stroke-opacity="1" x1="324" y1="179" x2="438" y2="179" />
	<line stroke="black" stroke-opacity="1" x1="324" y1="187" x2="438" y2="187" />
</g>
<g>
	<line stroke="black" stroke-opacity="1" x1="380" y1="89" x2="380" y2="160" />
	<polygon fill="#000000" stroke="black" stroke-opacity="1" points="380,89 386,95 380,101 374,95" />
</g>
<g>
	<text font-family="Helvetica" font-size="13" fill="#000000" xml:space="preserve" x="152" y="120">1</text>
</g>
<g>
	<text font-family="Helvetica" font-size="13" fill="#000000" xml:space="preserve" x="302" y="92">0..1</text>
</g>
<g>
	<text font-family="Helvetica" font-size="13" fill="#000000" xml:space="preserve" x="364" y="155">*</text>
</g>
<g>
	<text font-family="Helvetica" font-size="13" fill="#000000" xml:space="preserve" x="586" y="236">uncert_defn</text>
</g>
<g>
	<text font-family="Helvetica" font-size="13" fill="#000000" xml:space="preserve" x="363" y="109">1</text>
</g>
<g>
	<text font-family="Helvetica" font-size="13" fill="#000000" xml:space="preserve" x="630" y="261">0..1</text>
</g>
<g>
	<text font-family="Helvetica" font-size="13" fill="#000000" xml:space="preserve" x="437" y="92">0..1</text>
</g>
<g>
	<text font-family="Helvetica" font-size="13" fill="#000000" xml:space="preserve" x="231" y="67">explicit_definition</text>
</g>
<g>
	<text font-family="Helvetica" font-size="13" fill="#000000" xml:space="preserve" x="189" y="279">distrib_definition</text>
</g>
<g>
	<text font-family="Helvetica" font-size="13" fill="#000000" xml:space="preserve" x="255" y="304">0..1</text>
</g>
<g>
	<text font-family="Helvetica" font-size="13" fill="#000000" xml:space="preserve" x="488" y="276">1</text>
</g>
<g>
	<text font-family="Helvetica" font-size="13" fill="#000000" xml:space="preserve" x="437" y="67">explicit_definition</text>
</g>
<g>
	<text font-family="Helvetica" font-size="13" fill="#000000" xml:space="preserve" x="152" y="172">1</text>
</g>
</svg>
