<?xml version="1.0" encoding="UTF-8" standalone="no"?>
<!-- Created with Bouml (http://bouml.free.fr/) -->
<!DOCTYPE svg PUBLIC "-//W3C//DTD SVG 1.1//EN" "http://www.w3.org/Graphics/SVG/1.1/DTD/svg11.dtd">
<svg width="630" height="282" version="1.1" xmlns="http://www.w3.org/2000/svg">
<g>
	<rect fill="#808080" stroke="none" stroke-opacity="1" x="241" y="251" width="3" height="17" />
	<rect fill="#808080" stroke="none" stroke-opacity="1" x="173" y="265" width="71" height="3" />
	<rect fill="#ffffc0" stroke="black" stroke-width="1" stroke-opacity="1" x="169" y="247" width="72" height="18" />
	<text font-family="Helvetica" font-size="13" fill="#000000" xml:space="preserve" text-decoration="underline" text-anchor="middle" x="205" y="262">:Distribution</text>
</g>
<g>
	<rect fill="#808080" stroke="none" stroke-opacity="1" x="614" y="252" width="3" height="17" />
	<rect fill="#808080" stroke="none" stroke-opacity="1" x="434" y="266" width="183" height="3" />
	<rect fill="#ffffc0" stroke="black" stroke-width="1" stroke-opacity="1" x="430" y="248" width="184" height="18" />
	<text font-family="Helvetica" font-size="13" fill="#000000" xml:space="preserve" text-decoration="underline" text-anchor="middle" x="522" y="263">explicit distribution function:Math</text>
</g>
<g>
	<rect fill="#808080" stroke="none" stroke-opacity="1" x="454" y="143" width="3" height="17" />
	<rect fill="#808080" stroke="none" stroke-opacity="1" x="330" y="157" width="127" height="3" />
	<rect fill="#ffffc0" stroke="black" stroke-width="1" stroke-opacity="1" x="326" y="139" width="128" height="18" />
	<text font-family="Helvetica" font-size="13" fill="#000000" xml:space="preserve" text-decoration="underline" text-anchor="middle" x="390" y="154">fallback function:Math</text>
</g>
<g>
	<rect fill="#808080" stroke="none" stroke-opacity="1" x="196" y="142" width="3" height="17" />
	<rect fill="#808080" stroke="none" stroke-opacity="1" x="94" y="156" width="105" height="3" />
	<rect fill="#ffffc0" stroke="black" stroke-width="1" stroke-opacity="1" x="90" y="138" width="106" height="18" />
	<text font-family="Helvetica" font-size="13" fill="#000000" xml:space="preserve" text-decoration="underline" text-anchor="middle" x="143" y="153">:FunctionDefinition</text>
</g>
<g>
	<line stroke="black" stroke-opacity="1" x1="245" y1="258" x2="429" y2="258" />
</g>
<g>
	<line stroke="black" stroke-opacity="1" x1="200" y1="149" x2="325" y2="149" />
</g>
<g>
	<line stroke="black" stroke-opacity="1" x1="151" y1="160" x2="200" y2="246" />
</g>
</svg>
