<?xml version="1.0" encoding="UTF-8" standalone="no"?>
<!-- Created with Bouml (http://bouml.free.fr/) -->
<!DOCTYPE svg PUBLIC "-//W3C//DTD SVG 1.1//EN" "http://www.w3.org/Graphics/SVG/1.1/DTD/svg11.dtd">
<svg width="737" height="469" version="1.1" xmlns="http://www.w3.org/2000/svg">
<g>
	<rect fill="#808080" stroke="none" stroke-opacity="1" x="278" y="304" width="3" height="33" />
	<rect fill="#808080" stroke="none" stroke-opacity="1" x="156" y="334" width="125" height="3" />
	<rect fill="#90ccff" stroke="black" stroke-width="1" stroke-opacity="1" x="152" y="300" width="126" height="34" />
	<text font-family="Helvetica" font-size="13" fill="#000000" xml:space="preserve" font-weight="bold" text-anchor="middle" x="215" y="315">distrib::explicitPMF</text>
	<line stroke="black" stroke-opacity="1" x1="152" y1="318" x2="278" y2="318" />
	<line stroke="black" stroke-opacity="1" x1="152" y1="326" x2="278" y2="326" />
</g>
<g>
	<rect fill="#808080" stroke="none" stroke-opacity="1" x="503" y="292" width="3" height="59" />
	<rect fill="#808080" stroke="none" stroke-opacity="1" x="397" y="348" width="109" height="3" />
	<rect fill="#90ccff" stroke="black" stroke-width="1" stroke-opacity="1" x="393" y="288" width="110" height="60" />
	<text font-family="Helvetica" font-size="13" fill="#000000" xml:space="preserve" font-weight="bold" text-anchor="middle" x="448" y="303">distrib::category</text>
	<line stroke="black" stroke-opacity="1" x1="393" y1="306" x2="503" y2="306" />
	<text font-family="Helvetica" font-size="13" fill="#000000" xml:space="preserve" x="397" y="321">id : SId [1]</text>
	<text font-family="Helvetica" font-size="13" fill="#000000" xml:space="preserve" x="397" y="337">name : string [0..1]</text>
	<line stroke="black" stroke-opacity="1" x1="393" y1="340" x2="503" y2="340" />
</g>
<g>
	<line stroke="black" stroke-opacity="1" x1="392" y1="319" x2="386" y2="313" />
	<line stroke="black" stroke-opacity="1" x1="392" y1="319" x2="386" y2="325" />
	<line stroke="black" stroke-opacity="1" x1="282" y1="319" x2="392" y2="319" />
	<polygon fill="#000000" stroke="black" stroke-opacity="1" points="282,319 288,313 294,319 288,325" />
</g>
<g>
	<rect fill="#808080" stroke="none" stroke-opacity="1" x="721" y="306" width="3" height="33" />
	<rect fill="#808080" stroke="none" stroke-opacity="1" x="607" y="336" width="117" height="3" />
	<rect fill="#90ccff" stroke="black" stroke-width="1" stroke-opacity="1" x="603" y="302" width="118" height="34" />
	<text font-family="Helvetica" font-size="13" fill="#000000" xml:space="preserve" font-weight="bold" text-anchor="middle" x="662" y="317">distrib::probability</text>
	<line stroke="black" stroke-opacity="1" x1="603" y1="320" x2="721" y2="320" />
	<line stroke="black" stroke-opacity="1" x1="603" y1="328" x2="721" y2="328" />
</g>
<g>
	<line stroke="black" stroke-opacity="1" x1="602" y1="320" x2="596" y2="314" />
	<line stroke="black" stroke-opacity="1" x1="602" y1="320" x2="596" y2="326" />
	<line stroke="black" stroke-opacity="1" x1="507" y1="320" x2="602" y2="320" />
	<polygon fill="#000000" stroke="black" stroke-opacity="1" points="507,320 513,314 519,320 513,326" />
</g>
<g>
	<rect fill="#808080" stroke="none" stroke-opacity="1" x="708" y="423" width="3" height="33" />
	<rect fill="#808080" stroke="none" stroke-opacity="1" x="618" y="453" width="93" height="3" />
	<rect fill="#ffffff" stroke="black" stroke-width="1" stroke-opacity="1" x="614" y="419" width="94" height="34" />
	<text font-family="Helvetica" font-size="13" fill="#000000" xml:space="preserve" font-weight="bold" text-anchor="middle" x="661" y="434">MathML::Math</text>
	<line stroke="black" stroke-opacity="1" x1="614" y1="437" x2="708" y2="437" />
	<line stroke="black" stroke-opacity="1" x1="614" y1="445" x2="708" y2="445" />
</g>
<g>
	<line stroke="black" stroke-opacity="1" x1="663" y1="418" x2="669" y2="412" />
	<line stroke="black" stroke-opacity="1" x1="663" y1="418" x2="657" y2="412" />
	<line stroke="black" stroke-opacity="1" x1="663" y1="340" x2="663" y2="418" />
	<polygon fill="#000000" stroke="black" stroke-opacity="1" points="663,340 669,346 663,352 657,346" />
</g>
<g>
	<text font-family="Helvetica" font-size="13" fill="#000000" xml:space="preserve" x="363" y="339">1..*</text>
</g>
<g>
	<text font-family="Helvetica" font-size="13" fill="#000000" xml:space="preserve" x="585" y="340">1</text>
</g>
</svg>
