<?xml version="1.0" encoding="UTF-8" standalone="no"?>
<!-- Created with Bouml (http://bouml.free.fr/) -->
<!DOCTYPE svg PUBLIC "-//W3C//DTD SVG 1.1//EN" "http://www.w3.org/Graphics/SVG/1.1/DTD/svg11.dtd">
<svg width="477" height="407" version="1.1" xmlns="http://www.w3.org/2000/svg">
<g>
	<rect fill="#808080" stroke="none" stroke-opacity="1" x="154" y="229" width="3" height="33" />
	<rect fill="#808080" stroke="none" stroke-opacity="1" x="44" y="259" width="113" height="3" />
	<rect fill="#90e990" stroke="black" stroke-width="1" stroke-opacity="1" x="40" y="225" width="114" height="34" />
	<text font-family="Helvetica" font-size="13" fill="#000000" xml:space="preserve" font-weight="bold" text-anchor="middle" x="97" y="240">functionDefinition</text>
	<line stroke="black" stroke-opacity="1" x1="40" y1="243" x2="154" y2="243" />
	<line stroke="black" stroke-opacity="1" x1="40" y1="251" x2="154" y2="251" />
</g>
<g>
	<rect fill="#808080" stroke="none" stroke-opacity="1" x="461" y="215" width="3" height="59" />
	<rect fill="#808080" stroke="none" stroke-opacity="1" x="303" y="271" width="161" height="3" />
	<rect fill="#90ccff" stroke="black" stroke-width="1" stroke-opacity="1" x="299" y="211" width="162" height="60" />
	<text font-family="Helvetica" font-size="13" fill="#000000" xml:space="preserve" font-weight="bold" text-anchor="middle" x="380" y="226">distrib::externalDefinition</text>
	<line stroke="black" stroke-opacity="1" x1="299" y1="229" x2="461" y2="229" />
	<text font-family="Helvetica" font-size="13" fill="#000000" xml:space="preserve" x="303" y="244">uri</text>
	<text font-family="Helvetica" font-size="13" fill="#000000" xml:space="preserve" x="303" y="260">truncated</text>
	<line stroke="black" stroke-opacity="1" x1="299" y1="263" x2="461" y2="263" />
</g>
<g>
	<line stroke="black" stroke-opacity="1" x1="298" y1="243" x2="292" y2="237" />
	<line stroke="black" stroke-opacity="1" x1="298" y1="243" x2="292" y2="249" />
	<line stroke="black" stroke-opacity="1" x1="158" y1="243" x2="298" y2="243" />
	<polygon fill="#000000" stroke="black" stroke-opacity="1" points="158,243 164,237 170,243 164,249" />
</g>
<g>
	<text font-family="Helvetica" font-size="13" fill="#000000" xml:space="preserve" x="268" y="263">0..1</text>
</g>
<g>
	<text font-family="Helvetica" font-size="13" fill="#000000" xml:space="preserve" x="82" y="351">1</text>
</g>
<g>
	<text font-family="Helvetica" font-size="13" fill="#000000" xml:space="preserve" x="82" y="283">1</text>
</g>
<g>
	<text font-family="Helvetica" font-size="13" fill="#000000" xml:space="preserve" x="246" y="396">*</text>
</g>
<g>
	<text font-family="Helvetica" font-size="13" fill="#000000" xml:space="preserve" x="158" y="396">1</text>
</g>
<g>
	<rect fill="#808080" stroke="none" stroke-opacity="1" x="144" y="361" width="3" height="33" />
	<rect fill="#808080" stroke="none" stroke-opacity="1" x="54" y="391" width="93" height="3" />
	<rect fill="#ffffff" stroke="black" stroke-width="1" stroke-opacity="1" x="50" y="357" width="94" height="34" />
	<text font-family="Helvetica" font-size="13" fill="#000000" xml:space="preserve" font-weight="bold" text-anchor="middle" x="97" y="372">MathML::Math</text>
	<line stroke="black" stroke-opacity="1" x1="50" y1="375" x2="144" y2="375" />
	<line stroke="black" stroke-opacity="1" x1="50" y1="383" x2="144" y2="383" />
</g>
<g>
	<line stroke="black" stroke-opacity="1" x1="99" y1="356" x2="105" y2="350" />
	<line stroke="black" stroke-opacity="1" x1="99" y1="356" x2="93" y2="350" />
	<line stroke="black" stroke-opacity="1" x1="99" y1="263" x2="99" y2="356" />
	<polygon fill="#000000" stroke="black" stroke-opacity="1" points="99,263 105,269 99,275 93,269" />
</g>
<g>
	<rect fill="#808080" stroke="none" stroke-opacity="1" x="377" y="361" width="3" height="33" />
	<rect fill="#808080" stroke="none" stroke-opacity="1" x="267" y="391" width="113" height="3" />
	<rect fill="#ffffff" stroke="black" stroke-width="1" stroke-opacity="1" x="263" y="357" width="114" height="34" />
	<text font-family="Helvetica" font-size="13" fill="#000000" xml:space="preserve" font-weight="bold" text-anchor="middle" x="320" y="372">MathML::Lambda</text>
	<line stroke="black" stroke-opacity="1" x1="263" y1="375" x2="377" y2="375" />
	<line stroke="black" stroke-opacity="1" x1="263" y1="383" x2="377" y2="383" />
</g>
<g>
	<line stroke="black" stroke-opacity="1" x1="148" y1="376" x2="262" y2="376" />
	<polygon fill="#000000" stroke="black" stroke-opacity="1" points="148,376 154,370 160,376 154,382" />
</g>
</svg>
