<?xml version="1.0" encoding="UTF-8" standalone="no"?>
<!-- Created with Bouml (http://bouml.free.fr/) -->
<!DOCTYPE svg PUBLIC "-//W3C//DTD SVG 1.1//EN" "http://www.w3.org/Graphics/SVG/1.1/DTD/svg11.dtd">
<svg width="626" height="263" version="1.1" xmlns="http://www.w3.org/2000/svg">
<g>
	<rect fill="#808080" stroke="none" stroke-opacity="1" x="258" y="90" width="3" height="17" />
	<rect fill="#808080" stroke="none" stroke-opacity="1" x="156" y="104" width="105" height="3" />
	<rect fill="#ffffc0" stroke="black" stroke-width="1" stroke-opacity="1" x="152" y="86" width="106" height="18" />
	<text font-family="Helvetica" font-size="13" fill="#000000" xml:space="preserve" text-decoration="underline" text-anchor="middle" x="205" y="101">:FunctionDefinition</text>
</g>
<g>
	<rect fill="#808080" stroke="none" stroke-opacity="1" x="492" y="89" width="3" height="17" />
	<rect fill="#808080" stroke="none" stroke-opacity="1" x="368" y="103" width="127" height="3" />
	<rect fill="#ffffc0" stroke="black" stroke-width="1" stroke-opacity="1" x="364" y="85" width="128" height="18" />
	<text font-family="Helvetica" font-size="13" fill="#000000" xml:space="preserve" text-decoration="underline" text-anchor="middle" x="428" y="100">fallback function:Math</text>
</g>
<g>
	<rect fill="#808080" stroke="none" stroke-opacity="1" x="610" y="90" width="3" height="17" />
	<rect fill="#808080" stroke="none" stroke-opacity="1" x="556" y="104" width="57" height="3" />
	<rect fill="#ffffc0" stroke="black" stroke-width="1" stroke-opacity="1" x="552" y="86" width="58" height="18" />
	<text font-family="Helvetica" font-size="13" fill="#000000" xml:space="preserve" text-decoration="underline" text-anchor="middle" x="581" y="101">:Lambda</text>
</g>
<g>
	<rect fill="#808080" stroke="none" stroke-opacity="1" x="297" y="232" width="3" height="17" />
	<rect fill="#808080" stroke="none" stroke-opacity="1" x="229" y="246" width="71" height="3" />
	<rect fill="#ffffc0" stroke="black" stroke-width="1" stroke-opacity="1" x="225" y="228" width="72" height="18" />
	<text font-family="Helvetica" font-size="13" fill="#000000" xml:space="preserve" text-decoration="underline" text-anchor="middle" x="261" y="243">:Distribution</text>
</g>
<g>
	<rect fill="#808080" stroke="none" stroke-opacity="1" x="608" y="233" width="3" height="17" />
	<rect fill="#808080" stroke="none" stroke-opacity="1" x="488" y="247" width="123" height="3" />
	<rect fill="#ffffc0" stroke="black" stroke-width="1" stroke-opacity="1" x="484" y="229" width="124" height="18" />
	<text font-family="Helvetica" font-size="13" fill="#000000" xml:space="preserve" text-decoration="underline" text-anchor="middle" x="546" y="244">definition:IUncertainty</text>
</g>
<g>
	<line stroke="black" stroke-opacity="1" x1="262" y1="96" x2="363" y2="96" />
</g>
<g>
	<line stroke="black" stroke-opacity="1" x1="496" y1="96" x2="551" y2="96" />
</g>
<g>
	<line stroke="black" stroke-opacity="1" x1="301" y1="239" x2="483" y2="239" />
</g>
<g>
	<line stroke="black" stroke-opacity="1" x1="211" y1="108" x2="246" y2="227" />
</g>
</svg>
