<?xml version="1.0" encoding="utf-8"?>
<!-- Generator: Adobe Illustrator 12.0.1, SVG Export Plug-In . SVG Version: 6.00 Build 51448)  -->
<!DOCTYPE svg PUBLIC "-//W3C//DTD SVG 1.1//EN" "http://www.w3.org/Graphics/SVG/1.1/DTD/svg11.dtd" [
	<!ENTITY ns_svg "http://www.w3.org/2000/svg">
	<!ENTITY ns_xlink "http://www.w3.org/1999/xlink">
]>
<svg  version="1.1"
	 id="svg2" xmlns:cc="http://web.resource.org/cc/" xmlns:rdf="http://www.w3.org/1999/02/22-rdf-syntax-ns#" xmlns:svg="http://www.w3.org/2000/svg" xmlns:sodipodi="http://sodipodi.sourceforge.net/DTD/sodipodi-0.dtd" sodipodi:modified="true" sodipodi:docbase="/home/lenov/SBML/cvs/specifications/sbml-level-2/version-3/spec/figs" xmlns:inkscape="http://www.inkscape.org/namespaces/inkscape" inkscape:output_extension="org.inkscape.output.svg.inkscape" sodipodi:docname="sbo-math-expression.svg" sodipodi:version="0.32" inkscape:version="0.45" inkscape:dataloss="true" xmlns:dc="http://purl.org/dc/elements/1.1/"
	 xmlns="&ns_svg;" xmlns:xlink="&ns_xlink;" width="612" height="792" viewBox="0 0 612 792"
	 overflow="visible" enable-background="new 0 0 612 792" xml:space="preserve">
<sodipodi:namedview  inkscape:window-width="1392" showgrid="true" inkscape:current-layer="layer1" inkscape:document-units="px" inkscape:cy="734.81453" inkscape:cx="171.08159" inkscape:zoom="1.979899" inkscape:pageshadow="2" inkscape:pageopacity="0.0" objecttolerance="10" guidetolerance="10" gridtolerance="10000" borderopacity="1.0" bordercolor="#666666" pagecolor="#ffffff" inkscape:window-y="0" inkscape:window-x="0" inkscape:window-height="1022" id="base">
	</sodipodi:namedview>
<text transform="matrix(1 0 0 1 292.8452 223.4131)" font-family="'Arial-BoldMT'" font-size="10">mathematical expression</text>
<text transform="matrix(1 0 0 1 303.5664 291.3721)" fill="#231F20" font-family="'ArialMT'" font-size="10">enzyme kinetics</text>
<text transform="matrix(1 0 0 1 258.8394 257.293)" font-family="'ArialMT'" font-size="10">rate-law</text>
<path id="path2202" sodipodi:nodetypes="cc" fill="none" stroke="#000000" d="M193.546,298.425l-57.074,18.99"/>
<path id="path2204" sodipodi:nodetypes="cc" fill="none" stroke="#000000" d="M218.472,298.425l51.518,18.99"/>
<text transform="matrix(1 0 0 1 111.9297 327.3516)" font-family="'ArialMT'" font-size="10">irreversible</text>
<text transform="matrix(1 0 0 1 91.3633 339.8516)" font-family="'ArialMT'" font-size="10">mass-action kinetics </text>
<path id="path2218" fill="none" stroke="#231F20" d="M134.173,345.009v20"/>
<path id="path2220" sodipodi:nodetypes="cc" fill="none" stroke="#000000" d="M121.627,345.009l-57.074,18.99"/>
<text transform="matrix(1 0 0 1 405.0918 252.3623)" font-family="'ArialMT'" font-size="10">. . .</text>
<text transform="matrix(1 0 0 1 162.5518 291.3721)" font-family="'ArialMT'" font-size="10">mass-action kinetics</text>
<path id="path2374" sodipodi:nodetypes="cc" fill="none" stroke="#000000" d="M335.076,228.418l-57.074,18.99"/>
<path id="path2376" sodipodi:nodetypes="cc" fill="none" stroke="#000000" d="M360.003,228.418l51.518,18.99"/>
<path id="path2378" sodipodi:nodetypes="cc" fill="none" stroke="#231F20" d="M288.906,262.867l51.518,18.99"/>
<path id="path2380" fill="none" stroke="#231F20" d="M272.553,345.009v20"/>
<path id="path2382" sodipodi:nodetypes="cc" fill="none" stroke="#231F20" d="M285.099,345.009l57.074,18.99"/>
<text transform="matrix(1 0 0 1 265.1021 372.3623)" fill="#231F20" font-family="'ArialMT'" font-size="10">. . .</text>
<text transform="matrix(1 0 0 1 335.1016 372.3623)" fill="#231F20" font-family="'ArialMT'" font-size="10">. . .</text>
<text transform="matrix(1 0 0 1 246.7056 327.3516)" font-family="'ArialMT'" font-size="10">reversible</text>
<text transform="matrix(1 0 0 1 223.3633 339.8516)" font-family="'ArialMT'" font-size="10">mass-action kinetics </text>
<path id="path2608" sodipodi:nodetypes="cc" fill="none" stroke="#000000" d="M146.906,345.373l51.518,18.99"/>
<text transform="matrix(1 0 0 1 11.5825 375.3516)" font-family="'ArialMT'" font-size="10">zeroth order irreversible</text>
<text transform="matrix(1 0 0 1 19.3633 387.8516)" font-family="'ArialMT'" font-size="10">mass-action kinetics </text>
<text transform="matrix(1 0 0 1 151.4248 375.3516)" font-family="'ArialMT'" font-size="10">first order irreversible</text>
<text transform="matrix(1 0 0 1 153.3633 387.8516)" font-family="'ArialMT'" font-size="10">mass-action kinetics </text>
<text transform="matrix(1 0 0 1 127.1021 372.3623)" fill="#231F20" font-family="'ArialMT'" font-size="10">. . .</text>
<path id="path2626" sodipodi:nodetypes="cc" fill="none" stroke="#000000" d="M265.076,262.418l-57.074,18.99"/>
<text transform="matrix(1 0 0 1 383.332 325.3721)" font-family="'ArialMT'" font-size="10">kinetics of </text>
<text transform="matrix(1 0 0 1 359.4316 337.8721)" font-family="'ArialMT'" font-size="10">unireactant enzymes</text>
<path id="path2632" sodipodi:nodetypes="cc" fill="none" stroke="#000000" d="M354.906,296.867l51.518,18.99"/>
<path id="path2634" sodipodi:nodetypes="cc" fill="none" stroke="#000000" d="M407.099,343.009l57.074,18.99"/>
<text transform="matrix(1 0 0 1 457.1016 370.3623)" font-family="'ArialMT'" font-size="10">. . .</text>
<path id="path2648" fill="none" stroke="#231F20" d="M344.448,296.852v20"/>
<text transform="matrix(1 0 0 1 336.9971 324.2051)" fill="#7F0000" font-family="'ArialMT'" font-size="10">. . .</text>
</svg>
