<?xml version="1.0" encoding="utf-8"?>
<!-- Generator: Adobe Illustrator 12.0.1, SVG Export Plug-In . SVG Version: 6.00 Build 51448)  -->
<!DOCTYPE svg PUBLIC "-//W3C//DTD SVG 1.1//EN" "http://www.w3.org/Graphics/SVG/1.1/DTD/svg11.dtd" [
	<!ENTITY ns_svg "http://www.w3.org/2000/svg">
	<!ENTITY ns_xlink "http://www.w3.org/1999/xlink">
]>
<svg  version="1.1"
	 id="svg2" xmlns:cc="http://web.resource.org/cc/" xmlns:rdf="http://www.w3.org/1999/02/22-rdf-syntax-ns#" xmlns:svg="http://www.w3.org/2000/svg" xmlns:sodipodi="http://sodipodi.sourceforge.net/DTD/sodipodi-0.dtd" sodipodi:modified="true" sodipodi:docbase="/home/lenov/SBML/cvs/specifications/sbml-level-2/version-3/spec/figs" xmlns:inkscape="http://www.inkscape.org/namespaces/inkscape" inkscape:output_extension="org.inkscape.output.svg.inkscape" sodipodi:docname="sbo-participant-type.svg" sodipodi:version="0.32" inkscape:version="0.45" xmlns:dc="http://purl.org/dc/elements/1.1/"
	 xmlns="&ns_svg;" xmlns:xlink="&ns_xlink;" width="612" height="792" viewBox="0 0 612 792"
	 overflow="visible" enable-background="new 0 0 612 792" xml:space="preserve">
<sodipodi:namedview  inkscape:window-width="1392" showgrid="true" inkscape:current-layer="layer1" inkscape:document-units="px" inkscape:cy="754.87544" inkscape:cx="417.19811" inkscape:zoom="5.6568542" inkscape:pageshadow="2" inkscape:pageopacity="0.0" objecttolerance="10" guidetolerance="10" gridtolerance="10000" borderopacity="1.0" bordercolor="#666666" pagecolor="#ffffff" inkscape:window-y="0" inkscape:window-x="0" inkscape:window-height="1022" id="base">
	</sodipodi:namedview>
<text transform="matrix(1 0 0 1 257.3398 22.8975)" fill="#231F20" font-family="'Arial-BoldMT'" font-size="10">participant type</text>
<text transform="matrix(1 0 0 1 20.3506 96.3721)" fill="#231F20" font-family="'ArialMT'" font-size="10">reactant</text>
<text transform="matrix(1 0 0 1 71.8452 96.3721)" fill="#231F20" font-family="'ArialMT'" font-size="10">product</text>
<text transform="matrix(1 0 0 1 120.5664 96.3721)" fill="#231F20" font-family="'ArialMT'" font-size="10">modifier</text>
<text transform="matrix(1 0 0 1 172.2959 96.3721)" fill="#231F20" font-family="'ArialMT'" font-size="10">functional compartment</text>
<path id="path2184" fill="none" stroke="#000000" d="M141.525,67.362v20"/>
<path id="path3157" sodipodi:nodetypes="cc" fill="none" stroke="#000000" d="M128.979,67.867l-37.88,18.99"/>
<path id="path3159" sodipodi:nodetypes="cc" fill="none" stroke="#231F20" d="M153.906,67.867l51.518,18.99"/>
<path id="path3163" sodipodi:nodetypes="cc" fill="none" stroke="#000000" d="M116.015,67.403L42.274,85.888"/>
<text transform="matrix(1 0 0 1 85.3345 62.293)" fill="#231F20" font-family="'ArialMT'" font-size="10">participant functional type</text>
<text transform="matrix(1 0 0 1 388.8291 62.8379)" fill="#231F20" font-family="'ArialMT'" font-size="10">participant physical type</text>
<path id="path2200" fill="none" stroke="#000000" d="M141.091,102.92v20"/>
<path id="path2202" sodipodi:nodetypes="cc" fill="none" stroke="#000000" d="M128.546,103.425l-57.074,18.99"/>
<path id="path2204" sodipodi:nodetypes="cc" fill="none" stroke="#000000" d="M153.472,103.425l51.518,18.99"/>
<text transform="matrix(1 0 0 1 54.0073 132.3516)" fill="#231F20" font-family="'ArialMT'" font-size="10">catalyst</text>
<text transform="matrix(1 0 0 1 124.0073 132.3516)" fill="#231F20" font-family="'ArialMT'" font-size="10">inhibitor</text>
<text transform="matrix(1 0 0 1 188.0078 132.3516)" fill="#231F20" font-family="'ArialMT'" font-size="10">potentiator</text>
<path id="path2218" fill="none" stroke="#000000" d="M141.173,137.02v20"/>
<path id="path2220" sodipodi:nodetypes="cc" fill="none" stroke="#000000" d="M128.627,137.524l-57.074,18.99"/>
<path id="path2222" sodipodi:nodetypes="cc" fill="none" stroke="#000000" d="M153.553,137.524l51.518,18.99"/>
<text transform="matrix(1 0 0 1 134.0625 166.0986)" fill="#231F20" font-family="'ArialMT'" font-size="10">. . .</text>
<text transform="matrix(1 0 0 1 64.0625 166.0986)" fill="#231F20" font-family="'ArialMT'" font-size="10">. . .</text>
<text transform="matrix(1 0 0 1 198.0625 166.0986)" fill="#231F20" font-family="'ArialMT'" font-size="10">. . .</text>
<text transform="matrix(1 0 0 1 315.1162 96.8379)" fill="#231F20" font-family="'ArialMT'" font-size="10">material entity</text>
<text transform="matrix(1 0 0 1 497.1162 96.8379)" fill="#231F20" font-family="'ArialMT'" font-size="10">conceptual entity</text>
<text transform="matrix(1 0 0 1 257.8311 132.2139)" fill="#231F20" font-family="'ArialMT'" font-size="10">macromolecule</text>
<text transform="matrix(1 0 0 1 363.8311 132.2139)" fill="#231F20" font-family="'ArialMT'" font-size="10">simple chemical</text>
<text transform="matrix(1 0 0 1 451.8311 132.2139)" fill="#231F20" font-family="'ArialMT'" font-size="10">gene</text>
<text transform="matrix(1 0 0 1 488.998 132.2139)" fill="#231F20" font-family="'ArialMT'" font-size="10">enzyme</text>
<text transform="matrix(1 0 0 1 538.9336 132.2139)" fill="#231F20" font-family="'ArialMT'" font-size="10">channel</text>
<path id="path2266" sodipodi:nodetypes="cc" fill="none" stroke="#231F20" d="M428.979,67.867l-57.072,18.99"/>
<path id="path2268" sodipodi:nodetypes="cc" fill="none" stroke="#231F20" d="M453.906,67.867l51.518,18.99"/>
<path id="path2270" fill="none" stroke="#231F20" d="M345.173,102.514v20"/>
<path id="path2272" sodipodi:nodetypes="cc" fill="none" stroke="#231F20" d="M332.627,103.02l-39.396,18.99"/>
<path id="path2274" sodipodi:nodetypes="cc" fill="none" stroke="#231F20" d="M357.554,103.02l43.438,19.495"/>
<text transform="matrix(1 0 0 1 338.0625 130.0781)" fill="#231F20" font-family="'ArialMT'" font-size="10">. . .</text>
<path id="path2280" sodipodi:nodetypes="cc" fill="none" stroke="#231F20" d="M527.173,102.514l-19.698,19.495"/>
<path id="path2282" sodipodi:nodetypes="cc" fill="none" stroke="#231F20" d="M514.627,103.02l-51.518,20"/>
<path id="path2284" sodipodi:nodetypes="cc" fill="none" stroke="#231F20" d="M539.554,103.02l18.688,19.495"/>
<path id="path2286" sodipodi:nodetypes="cc" fill="none" stroke="#231F20" d="M552.919,103.403l41.921,18.99"/>
<text transform="matrix(1 0 0 1 588.0625 130.0781)" fill="#231F20" font-family="'ArialMT'" font-size="10">. . .</text>
<path id="path2292" sodipodi:nodetypes="cc" fill="none" stroke="#231F20" d="M280.979,27.867L140.568,52.413"/>
<path id="path2294" sodipodi:nodetypes="cc" fill="none" stroke="#231F20" d="M305.906,27.867l135.359,24.041"/>
</svg>
