<?xml version="1.0" encoding="utf-8"?>
<!-- Generator: Adobe Illustrator 12.0.1, SVG Export Plug-In . SVG Version: 6.00 Build 51448)  -->
<!DOCTYPE svg PUBLIC "-//W3C//DTD SVG 1.1//EN" "http://www.w3.org/Graphics/SVG/1.1/DTD/svg11.dtd" [
	<!ENTITY ns_svg "http://www.w3.org/2000/svg">
	<!ENTITY ns_xlink "http://www.w3.org/1999/xlink">
]>
<svg  version="1.1"
	 id="svg2" xmlns:cc="http://web.resource.org/cc/" xmlns:rdf="http://www.w3.org/1999/02/22-rdf-syntax-ns#" xmlns:svg="http://www.w3.org/2000/svg" xmlns:sodipodi="http://sodipodi.sourceforge.net/DTD/sodipodi-0.dtd" sodipodi:docbase="/home/lenov/SBML/cvs/specifications/sbml-level-2/version-3/spec/figs" xmlns:inkscape="http://www.inkscape.org/namespaces/inkscape" inkscape:output_extension="org.inkscape.output.svg.inkscape" sodipodi:docname="sbo-quantitative-parameter.svg" sodipodi:version="0.32" inkscape:version="0.45" xmlns:dc="http://purl.org/dc/elements/1.1/"
	 xmlns="&ns_svg;" xmlns:xlink="&ns_xlink;" width="612" height="792" viewBox="0 0 612 792"
	 overflow="visible" enable-background="new 0 0 612 792" xml:space="preserve">
<sodipodi:namedview  inkscape:window-width="1392" showgrid="true" inkscape:current-layer="layer1" inkscape:document-units="px" inkscape:cy="722.77799" inkscape:cx="370.25483" inkscape:zoom="1.4" inkscape:pageshadow="2" inkscape:pageopacity="0.0" objecttolerance="10" guidetolerance="10" gridtolerance="10000" borderopacity="1.0" bordercolor="#666666" pagecolor="#ffffff" inkscape:window-y="0" inkscape:window-x="0" inkscape:window-height="1022" id="base">
	</sodipodi:namedview>
<text transform="matrix(1 0 0 1 304.8452 223.4131)" font-family="'Arial-BoldMT'" font-size="10">quantitative parameter</text>
<text transform="matrix(1 0 0 1 239.5664 291.3721)" font-family="'ArialMT'" font-size="10">kinetic constant</text>
<path id="path2184" fill="none" stroke="#000000" d="M260.525,262.362v20"/>
<path id="path3163" sodipodi:nodetypes="cc" fill="none" stroke="#231F20" d="M247.015,262.403l-73.741,18.485"/>
<text transform="matrix(1 0 0 1 208.8394 257.293)" fill="#231F20" font-family="'ArialMT'" font-size="10">biochemical parameter</text>
<text transform="matrix(1 0 0 1 405.8291 257.8379)" fill="#231F20" font-family="'ArialMT'" font-size="10">physical parameter</text>
<path id="path2200" fill="none" stroke="#000000" d="M260.091,297.92v20"/>
<path id="path2202" sodipodi:nodetypes="cc" fill="none" stroke="#000000" d="M247.546,298.425l-57.074,18.99"/>
<path id="path2204" sodipodi:nodetypes="cc" fill="none" stroke="#000000" d="M272.472,298.425l51.518,18.99"/>
<text transform="matrix(1 0 0 1 230.3804 327.3516)" font-family="'ArialMT'" font-size="10">unimolecular </text>
<text transform="matrix(1 0 0 1 230.3804 339.8516)" font-family="'ArialMT'" font-size="10">rate-constant</text>
<path id="path2218" fill="none" stroke="#000000" d="M260.173,345.009v20"/>
<path id="path2220" sodipodi:nodetypes="cc" fill="none" stroke="#000000" d="M247.627,345.009l-57.074,18.99"/>
<text transform="matrix(1 0 0 1 184.0918 322.3623)" font-family="'ArialMT'" font-size="10">. . .</text>
<text transform="matrix(1 0 0 1 340.0938 291.8379)" fill="#231F20" font-family="'ArialMT'" font-size="10">thermodynamic</text>
<text transform="matrix(1 0 0 1 353.1582 304.3379)" fill="#231F20" font-family="'ArialMT'" font-size="10">temperature</text>
<text transform="matrix(1 0 0 1 423.1582 291.8379)" fill="#231F20" font-family="'ArialMT'" font-size="10">temperature</text>
<text transform="matrix(1 0 0 1 428.248 304.3379)" fill="#231F20" font-family="'ArialMT'" font-size="10">difference</text>
<text transform="matrix(1 0 0 1 486.8311 291.2139)" fill="#231F20" font-family="'ArialMT'" font-size="10">conductance</text>
<path id="path2266" sodipodi:nodetypes="cc" fill="none" stroke="#231F20" d="M437.979,262.867l-57.071,18.99"/>
<path id="path2268" sodipodi:nodetypes="cc" fill="none" stroke="#231F20" d="M462.906,262.867l51.518,18.99"/>
<path id="path2270" fill="none" stroke="#231F20" d="M450.173,262.989v20"/>
<text transform="matrix(1 0 0 1 563.0625 289.0781)" fill="#231F20" font-family="'ArialMT'" font-size="10">. . .</text>
<text transform="matrix(1 0 0 1 242.8398 376.8262)" font-family="'ArialMT'" font-size="10">forward</text>
<text transform="matrix(1 0 0 1 231.1626 389.3262)" font-family="'ArialMT'" font-size="10">unimolecular </text>
<text transform="matrix(1 0 0 1 230.3301 401.8262)" font-family="'ArialMT'" font-size="10">rate-constant</text>
<text transform="matrix(1 0 0 1 176.8398 376.8262)" font-family="'ArialMT'" font-size="10">reverse</text>
<text transform="matrix(1 0 0 1 165.1626 389.3262)" font-family="'ArialMT'" font-size="10">unimolecular </text>
<text transform="matrix(1 0 0 1 164.3301 401.8262)" font-family="'ArialMT'" font-size="10">rate-constant</text>
<text transform="matrix(1 0 0 1 298.8115 327.3516)" font-family="'ArialMT'" font-size="10">bimolecular </text>
<text transform="matrix(1 0 0 1 295.1982 339.8516)" font-family="'ArialMT'" font-size="10">rate-constan</text>
<text transform="matrix(1 0 0 1 350.7842 339.8516)" font-family="'ArialMT'" font-size="10">t</text>
<text transform="matrix(1 0 0 1 149.3892 291.3721)" fill="#231F20" font-family="'ArialMT'" font-size="10">equilibrium</text>
<text transform="matrix(1 0 0 1 144.1133 303.8721)" fill="#231F20" font-family="'ArialMT'" font-size="10">characteristic</text>
<text transform="matrix(1 0 0 1 62.5825 339.3516)" fill="#231F20" font-family="'ArialMT'" font-size="10">equilibrium or steady-</text>
<text transform="matrix(1 0 0 1 79.25 351.8516)" fill="#231F20" font-family="'ArialMT'" font-size="10">state constan</text>
<text transform="matrix(1 0 0 1 138.7324 351.8516)" fill="#231F20" font-family="'ArialMT'" font-size="10">t</text>
<text transform="matrix(1 0 0 1 67.25 387.3516)" font-family="'ArialMT'" font-size="10">Michaelis constant</text>
<path id="path2368" sodipodi:nodetypes="cc" fill="none" stroke="#231F20" d="M477.274,262.403l92.429,20"/>
<path id="path2370" sodipodi:nodetypes="cc" fill="none" stroke="#231F20" d="M167.546,308.425l-57.074,18.99"/>
<path id="path2372" fill="none" stroke="#000000" d="M110.173,359.009v20"/>
<path id="path2374" sodipodi:nodetypes="cc" fill="none" stroke="#231F20" d="M347.076,228.418l-57.074,18.99"/>
<path id="path2376" sodipodi:nodetypes="cc" fill="none" stroke="#231F20" d="M372.003,228.418l51.52,18.99"/>
<path id="path2378" sodipodi:nodetypes="cc" fill="none" stroke="#000000" d="M272.906,262.867l51.518,18.99"/>
<path id="path2380" fill="none" stroke="#000000" d="M326.554,345.009v20"/>
<path id="path2382" sodipodi:nodetypes="cc" fill="none" stroke="#000000" d="M339.099,345.009l57.074,18.99"/>
<text transform="matrix(1 0 0 1 319.1016 372.3623)" font-family="'ArialMT'" font-size="10">. . .</text>
<text transform="matrix(1 0 0 1 389.1016 372.3623)" font-family="'ArialMT'" font-size="10">. . .</text>
</svg>
