<?xml version="1.0" encoding="utf-8"?>
<!-- Generator: Adobe Illustrator 12.0.1, SVG Export Plug-In . SVG Version: 6.00 Build 51448)  -->
<!DOCTYPE svg PUBLIC "-//W3C//DTD SVG 1.1//EN" "http://www.w3.org/Graphics/SVG/1.1/DTD/svg11.dtd" [
	<!ENTITY ns_svg "http://www.w3.org/2000/svg">
	<!ENTITY ns_xlink "http://www.w3.org/1999/xlink">
]>
<svg  version="1.1"
	 id="svg2" xmlns:cc="http://web.resource.org/cc/" xmlns:rdf="http://www.w3.org/1999/02/22-rdf-syntax-ns#" xmlns:svg="http://www.w3.org/2000/svg" xmlns:sodipodi="http://sodipodi.sourceforge.net/DTD/sodipodi-0.dtd" sodipodi:modified="true" sodipodi:docbase="/home/lenov/SBML/cvs/specifications/sbml-level-2/version-3/spec/figs" xmlns:inkscape="http://www.inkscape.org/namespaces/inkscape" inkscape:output_extension="org.inkscape.output.svg.inkscape" sodipodi:docname="sbo-framework.svg" sodipodi:version="0.32" inkscape:version="0.45" xmlns:dc="http://purl.org/dc/elements/1.1/"
	 xmlns="&ns_svg;" xmlns:xlink="&ns_xlink;" width="612" height="792" viewBox="0 0 612 792"
	 overflow="visible" enable-background="new 0 0 612 792" xml:space="preserve">
<sodipodi:namedview  inkscape:window-width="1392" showgrid="true" inkscape:current-layer="layer1" inkscape:document-units="px" inkscape:cy="786.97289" inkscape:cx="452.61056" inkscape:zoom="5.6" inkscape:pageshadow="2" inkscape:pageopacity="0.0" objecttolerance="10" guidetolerance="10" gridtolerance="10000" borderopacity="1.0" bordercolor="#666666" pagecolor="#ffffff" inkscape:window-y="0" inkscape:window-x="0" inkscape:window-height="1022" id="base">
	</sodipodi:namedview>
<text transform="matrix(1 0 0 1 308.8457 223.4131)" font-family="'Arial-BoldMT'" font-size="10">modeling framework</text>
<text transform="matrix(1 0 0 1 208.8394 257.293)" font-family="'ArialMT'" font-size="10">continuous framework</text>
<text transform="matrix(1 0 0 1 405.8291 257.8379)" font-family="'ArialMT'" font-size="10">discrete framework</text>
<text transform="matrix(1 0 0 1 374.0918 287.3623)" fill="#231F20" font-family="'ArialMT'" font-size="10">. . .</text>
<path id="path2266" sodipodi:nodetypes="cc" fill="none" stroke="#231F20" d="M437.979,262.867l-57.072,18.99"/>
<path id="path2268" sodipodi:nodetypes="cc" fill="none" stroke="#231F20" d="M462.906,262.867l51.518,18.99"/>
<path id="path2374" sodipodi:nodetypes="cc" fill="none" stroke="#000000" d="M347.076,228.418l-57.074,18.99"/>
<path id="path2376" sodipodi:nodetypes="cc" fill="none" stroke="#000000" d="M372.003,228.418l51.519,18.99"/>
<path id="path2378" sodipodi:nodetypes="cc" fill="none" stroke="#231F20" d="M260.906,262.867l51.518,18.99"/>
<path id="path2392" fill="none" stroke="#231F20" d="M359.516,228.362v20"/>
<text transform="matrix(1 0 0 1 319.8291 257.8379)" fill="#231F20" font-family="'ArialMT'" font-size="10">logical framework</text>
<path id="path2398" sodipodi:nodetypes="cc" fill="none" stroke="#231F20" d="M248.424,262.867l-51.518,18.99"/>
<text transform="matrix(1 0 0 1 182.3838 291.293)" fill="#231F20" font-family="'ArialMT'" font-size="10">spatial </text>
<text transform="matrix(1 0 0 1 147.9282 303.793)" fill="#231F20" font-family="'ArialMT'" font-size="10">continuous framewor</text>
<text transform="matrix(1 0 0 1 240.7505 303.793)" fill="#231F20" font-family="'ArialMT'" font-size="10">k</text>
<text transform="matrix(1 0 0 1 288.3765 291.293)" fill="#231F20" font-family="'ArialMT'" font-size="10">non-spatial </text>
<text transform="matrix(1 0 0 1 263.9282 303.793)" fill="#231F20" font-family="'ArialMT'" font-size="10">continuous framework</text>
<text transform="matrix(1 0 0 1 506.9971 288.3633)" fill="#231F20" font-family="'ArialMT'" font-size="10">. . .</text>
</svg>
