<?xml version="1.0" encoding="UTF-8" standalone="no"?>
<!-- Created with Inkscape (http://www.inkscape.org/) -->
<svg
   xmlns:dc="http://purl.org/dc/elements/1.1/"
   xmlns:cc="http://creativecommons.org/ns#"
   xmlns:rdf="http://www.w3.org/1999/02/22-rdf-syntax-ns#"
   xmlns:svg="http://www.w3.org/2000/svg"
   xmlns="http://www.w3.org/2000/svg"
   xmlns:sodipodi="http://sodipodi.sourceforge.net/DTD/sodipodi-0.dtd"
   xmlns:inkscape="http://www.inkscape.org/namespaces/inkscape"
   id="svg5001"
   sodipodi:version="0.32"
   inkscape:version="0.46"
   width="764.375"
   height="989.375"
   xml:space="preserve"
   sodipodi:docname="sbo-quantitative-parameter.svg"
   inkscape:output_extension="org.inkscape.output.svg.inkscape"><metadata
     id="metadata5006"><rdf:RDF><cc:Work
         rdf:about=""><dc:format>image/svg+xml</dc:format><dc:type
           rdf:resource="http://purl.org/dc/dcmitype/StillImage" /></cc:Work></rdf:RDF></metadata><defs
     id="defs5004"><clipPath
       clipPathUnits="userSpaceOnUse"
       id="clipPath3267"><path
         d="M 338.562,670.004 L 352.454,670.004 L 352.454,658.175 L 338.562,658.175 L 338.562,670.004 z"
         id="path3269" /></clipPath><inkscape:perspective
       sodipodi:type="inkscape:persp3d"
       inkscape:vp_x="0 : 526.18109 : 1"
       inkscape:vp_y="0 : 1000 : 0"
       inkscape:vp_z="744.09448 : 526.18109 : 1"
       inkscape:persp3d-origin="372.04724 : 350.78739 : 1"
       id="perspective5008" /><clipPath
       clipPathUnits="userSpaceOnUse"
       id="clipPath5016"><path
         d="M 0,792 L 612,792 L 612,0 L 0,0 L 0,792 z"
         id="path5018" /></clipPath><clipPath
       clipPathUnits="userSpaceOnUse"
       id="clipPath5024"><path
         d="M 305.345,576.667 L 412.729,576.667 L 412.729,565.982 L 305.345,565.982 L 305.345,576.667 z"
         id="path5026" /></clipPath><clipPath
       clipPathUnits="userSpaceOnUse"
       id="clipPath5040"><path
         d="M 240.066,508.708 L 308.992,508.708 L 308.992,498.023 L 240.066,498.023 L 240.066,508.708 z"
         id="path5042" /></clipPath><clipPath
       clipPathUnits="userSpaceOnUse"
       id="clipPath5060"><path
         d="M 209.339,542.787 L 310.637,542.787 L 310.637,532.103 L 209.339,532.103 L 209.339,542.787 z"
         id="path5062" /></clipPath><clipPath
       clipPathUnits="userSpaceOnUse"
       id="clipPath5076"><path
         d="M 406.329,542.242 L 490.951,542.242 L 490.951,531.558 L 406.329,531.558 L 406.329,542.242 z"
         id="path5078" /></clipPath><clipPath
       clipPathUnits="userSpaceOnUse"
       id="clipPath5098"><path
         d="M 230.88,472.729 L 290.353,472.729 L 290.353,462.044 L 230.88,462.044 L 230.88,472.729 z"
         id="path5100" /></clipPath><clipPath
       clipPathUnits="userSpaceOnUse"
       id="clipPath5114"><path
         d="M 230.88,460.229 L 289.245,460.229 L 289.245,449.544 L 230.88,449.544 L 230.88,460.229 z"
         id="path5116" /></clipPath><clipPath
       clipPathUnits="userSpaceOnUse"
       id="clipPath5134"><path
         d="M 184.592,477.718 L 198.483,477.718 L 198.483,467.033 L 184.592,467.033 L 184.592,477.718 z"
         id="path5136" /></clipPath><clipPath
       clipPathUnits="userSpaceOnUse"
       id="clipPath5150"><path
         d="M 340.594,508.242 L 408.953,508.242 L 408.953,497.558 L 340.594,497.558 L 340.594,508.242 z"
         id="path5152" /></clipPath><clipPath
       clipPathUnits="userSpaceOnUse"
       id="clipPath5166"><path
         d="M 353.658,495.742 L 407.574,495.742 L 407.574,485.058 L 353.658,485.058 L 353.658,495.742 z"
         id="path5168" /></clipPath><clipPath
       clipPathUnits="userSpaceOnUse"
       id="clipPath5182"><path
         d="M 423.658,508.242 L 477.574,508.242 L 477.574,497.558 L 423.658,497.558 L 423.658,508.242 z"
         id="path5184" /></clipPath><clipPath
       clipPathUnits="userSpaceOnUse"
       id="clipPath5198"><path
         d="M 428.748,495.742 L 472.483,495.742 L 472.483,485.058 L 428.748,485.058 L 428.748,495.742 z"
         id="path5200" /></clipPath><clipPath
       clipPathUnits="userSpaceOnUse"
       id="clipPath5214"><path
         d="M 487.331,508.866 L 544.04,508.866 L 544.04,498.182 L 487.331,498.182 L 487.331,508.866 z"
         id="path5216" /></clipPath><clipPath
       clipPathUnits="userSpaceOnUse"
       id="clipPath5236"><path
         d="M 563.562,511.002 L 577.454,511.002 L 577.454,500.317 L 563.562,500.317 L 563.562,511.002 z"
         id="path5238" /></clipPath><clipPath
       clipPathUnits="userSpaceOnUse"
       id="clipPath5252"><path
         d="M 243.34,423.254 L 276.685,423.254 L 276.685,412.569 L 243.34,412.569 L 243.34,423.254 z"
         id="path5254" /></clipPath><clipPath
       clipPathUnits="userSpaceOnUse"
       id="clipPath5268"><path
         d="M 231.663,410.754 L 291.135,410.754 L 291.135,400.069 L 231.663,400.069 L 231.663,410.754 z"
         id="path5270" /></clipPath><clipPath
       clipPathUnits="userSpaceOnUse"
       id="clipPath5284"><path
         d="M 230.83,398.254 L 289.194,398.254 L 289.194,387.569 L 230.83,387.569 L 230.83,398.254 z"
         id="path5286" /></clipPath><clipPath
       clipPathUnits="userSpaceOnUse"
       id="clipPath5300"><path
         d="M 177.34,423.254 L 210.685,423.254 L 210.685,412.569 L 177.34,412.569 L 177.34,423.254 z"
         id="path5302" /></clipPath><clipPath
       clipPathUnits="userSpaceOnUse"
       id="clipPath5316"><path
         d="M 165.663,410.754 L 225.135,410.754 L 225.135,400.069 L 165.663,400.069 L 165.663,410.754 z"
         id="path5318" /></clipPath><clipPath
       clipPathUnits="userSpaceOnUse"
       id="clipPath5332"><path
         d="M 164.83,398.254 L 223.194,398.254 L 223.194,387.569 L 164.83,387.569 L 164.83,398.254 z"
         id="path5334" /></clipPath><clipPath
       clipPathUnits="userSpaceOnUse"
       id="clipPath5348"><path
         d="M 299.312,472.729 L 353.223,472.729 L 353.223,462.044 L 299.312,462.044 L 299.312,472.729 z"
         id="path5350" /></clipPath><clipPath
       clipPathUnits="userSpaceOnUse"
       id="clipPath5364"><path
         d="M 295.698,460.229 L 351.284,460.229 L 351.284,449.544 L 295.698,449.544 L 295.698,460.229 z"
         id="path5366" /></clipPath><clipPath
       clipPathUnits="userSpaceOnUse"
       id="clipPath5380"><path
         d="M 351.284,460.229 L 354.062,460.229 L 354.062,449.544 L 351.284,449.544 L 351.284,460.229 z"
         id="path5382" /></clipPath><clipPath
       clipPathUnits="userSpaceOnUse"
       id="clipPath5396"><path
         d="M 149.889,508.708 L 198.244,508.708 L 198.244,498.023 L 149.889,498.023 L 149.889,508.708 z"
         id="path5398" /></clipPath><clipPath
       clipPathUnits="userSpaceOnUse"
       id="clipPath5412"><path
         d="M 144.613,496.208 L 203.52,496.208 L 203.52,485.523 L 144.613,485.523 L 144.613,496.208 z"
         id="path5414" /></clipPath><clipPath
       clipPathUnits="userSpaceOnUse"
       id="clipPath5428"><path
         d="M 63.0825,460.729 L 158.678,460.729 L 158.678,450.044 L 63.0825,450.044 L 63.0825,460.729 z"
         id="path5430" /></clipPath><clipPath
       clipPathUnits="userSpaceOnUse"
       id="clipPath5444"><path
         d="M 79.75,448.229 L 139.232,448.229 L 139.232,437.544 L 79.75,437.544 L 79.75,448.229 z"
         id="path5446" /></clipPath><clipPath
       clipPathUnits="userSpaceOnUse"
       id="clipPath5460"><path
         d="M 139.232,448.229 L 142.011,448.229 L 142.011,437.544 L 139.232,437.544 L 139.232,448.229 z"
         id="path5462" /></clipPath><clipPath
       clipPathUnits="userSpaceOnUse"
       id="clipPath5476"><path
         d="M 67.75,412.729 L 150.011,412.729 L 150.011,402.044 L 67.75,402.044 L 67.75,412.729 z"
         id="path5478" /></clipPath><clipPath
       clipPathUnits="userSpaceOnUse"
       id="clipPath5508"><path
         d="M 319.602,427.718 L 333.493,427.718 L 333.493,417.033 L 319.602,417.033 L 319.602,427.718 z"
         id="path5510" /></clipPath><clipPath
       clipPathUnits="userSpaceOnUse"
       id="clipPath5524"><path
         d="M 389.602,427.718 L 403.493,427.718 L 403.493,417.033 L 389.602,417.033 L 389.602,427.718 z"
         id="path5526" /></clipPath></defs><sodipodi:namedview
     inkscape:window-height="1026"
     inkscape:window-width="1680"
     inkscape:pageshadow="2"
     inkscape:pageopacity="0.0"
     guidetolerance="10.0"
     gridtolerance="10.0"
     objecttolerance="10.0"
     borderopacity="1.0"
     bordercolor="#666666"
     pagecolor="#ffffff"
     id="base"
     showgrid="false"
     showguides="true"
     inkscape:guide-bbox="true"
     inkscape:zoom="1.3322017"
     inkscape:cx="368.37989"
     inkscape:cy="619.79886"
     inkscape:window-x="0"
     inkscape:window-y="0"
     inkscape:current-layer="g5010"><sodipodi:guide
       orientation="0,1"
       position="490.16602,633.53771"
       id="guide5952" /></sodipodi:namedview><g
     id="g5010"
     inkscape:groupmode="layer"
     inkscape:label="sbo-quantitative-parameter"
     transform="matrix(1.25,0,0,-1.25,-0.625,989.375)"
     style="display:inline"><g
       id="g5020"><g
         id="g5022" /><g
         id="g5028"><g
           clip-path="url(#clipPath5024)"
           id="g5030"><text
             transform="matrix(1,0,0,-1,305.3452,568.0869)"
             id="text5032"><tspan
               style="font-size:10px;font-variant:normal;font-weight:bold;font-stretch:normal;writing-mode:lr-tb;fill:#000000;fill-opacity:1;fill-rule:nonzero;stroke:none;font-family:Arial;-inkscape-font-specification:Arial-BoldMT"
               x="0 6.1100001 12.22 17.780001 23.889999 27.219999 30 33.330002 38.889999 42.220001 45 50.560001 56.119999 58.900002 65.010002 70.57 74.459999 80.019997 88.910004 94.470001 97.800003 103.36"
               y="0"
               sodipodi:role="line"
               id="tspan5034">quantitative parameter</tspan></text>
</g></g></g><g
       id="g5036"><g
         id="g5038" /><g
         id="g5044"><g
           clip-path="url(#clipPath5040)"
           id="g5046"><text
             transform="matrix(1,0,0,-1,240.0664,500.1279)"
             id="text5048"><tspan
               style="font-size:10px;font-variant:normal;font-weight:normal;font-stretch:normal;writing-mode:lr-tb;fill:#000000;fill-opacity:1;fill-rule:nonzero;stroke:none;font-family:Arial;-inkscape-font-specification:ArialMT"
               x="0 5 7.2199998 12.78 18.34 21.120001 23.34 28.34 31.120001 36.119999 41.68 47.240002 52.240002 55.02 60.580002 66.139999"
               y="0"
               sodipodi:role="line"
               id="tspan5050">kinetic constant</tspan></text>
</g></g></g><path
       d="M 261.025,529.138 L 261.025,509.138"
       style="fill:none;stroke:#000000;stroke-width:1;stroke-linecap:butt;stroke-linejoin:miter;stroke-miterlimit:4;stroke-dasharray:none;stroke-opacity:1"
       id="path5052" /><path
       d="M 247.515,529.097 L 173.774,510.612"
       style="fill:none;stroke:#231f20;stroke-width:1;stroke-linecap:butt;stroke-linejoin:miter;stroke-miterlimit:4;stroke-dasharray:none;stroke-opacity:1"
       id="path5054" /><g
       id="g5056"><g
         id="g5058" /><g
         id="g5064"><g
           clip-path="url(#clipPath5060)"
           id="g5066"><text
             transform="matrix(1,0,0,-1,209.3394,534.207)"
             id="text5068"><tspan
               style="font-size:10px;font-variant:normal;font-weight:normal;font-stretch:normal;writing-mode:lr-tb;fill:#231f20;fill-opacity:1;fill-rule:nonzero;stroke:none;font-family:Arial;-inkscape-font-specification:ArialMT"
               x="0 5.5599999 7.7800002 13.34 18.34 23.9 29.459999 37.790001 40.009998 45.009998 50.57 52.790001 55.57 61.130001 66.690002 70.019997 75.580002 83.910004 89.470001 92.25 97.809998"
               y="0"
               sodipodi:role="line"
               id="tspan5070">biochemical parameter</tspan></text>
</g></g></g><path
       d="M 260.591,493.58 L 260.591,473.58"
       style="fill:none;stroke:#000000;stroke-width:1;stroke-linecap:butt;stroke-linejoin:miter;stroke-miterlimit:4;stroke-dasharray:none;stroke-opacity:1"
       id="path5088" /><path
       d="M 248.046,493.075 L 190.972,474.085"
       style="fill:none;stroke:#000000;stroke-width:1;stroke-linecap:butt;stroke-linejoin:miter;stroke-miterlimit:4;stroke-dasharray:none;stroke-opacity:1"
       id="path5090" /><path
       d="M 272.972,493.075 L 324.49,474.085"
       style="fill:none;stroke:#000000;stroke-width:1;stroke-linecap:butt;stroke-linejoin:miter;stroke-miterlimit:4;stroke-dasharray:none;stroke-opacity:1"
       id="path5092" /><g
       id="g5094"><g
         id="g5096" /><g
         id="g5102"><g
           clip-path="url(#clipPath5098)"
           id="g5104"><text
             transform="matrix(1,0,0,-1,230.8804,464.1484)"
             id="text5106"><tspan
               style="font-size:10px;font-variant:normal;font-weight:normal;font-stretch:normal;writing-mode:lr-tb;fill:#000000;fill-opacity:1;fill-rule:nonzero;stroke:none;font-family:Arial;-inkscape-font-specification:ArialMT"
               x="0 5.5599999 11.12 13.34 21.67 27.23 29.450001 35.009998 40.009998 45.57 47.790001 53.349998 56.68"
               y="0"
               sodipodi:role="line"
               id="tspan5108">unimolecular </tspan></text>
</g></g></g><g
       id="g5110"><g
         id="g5112" /><g
         id="g5118"><g
           clip-path="url(#clipPath5114)"
           id="g5120"><text
             transform="matrix(1,0,0,-1,230.8804,451.6484)"
             id="text5122"><tspan
               style="font-size:10px;font-variant:normal;font-weight:normal;font-stretch:normal;writing-mode:lr-tb;fill:#000000;fill-opacity:1;fill-rule:nonzero;stroke:none;font-family:Arial;-inkscape-font-specification:ArialMT"
               x="0 3.3299999 8.8900003 11.67 17.23 20.559999 25.559999 31.120001 36.68 41.68 44.459999 50.02 55.580002"
               y="0"
               sodipodi:role="line"
               id="tspan5124">rate-constant</tspan></text>
</g></g></g><path
       d="M 260.673,446.491 L 260.673,426.491"
       style="fill:none;stroke:#000000;stroke-width:1;stroke-linecap:butt;stroke-linejoin:miter;stroke-miterlimit:4;stroke-dasharray:none;stroke-opacity:1"
       id="path5126" /><path
       d="M 248.127,446.491 L 191.053,427.501"
       style="fill:none;stroke:#000000;stroke-width:1;stroke-linecap:butt;stroke-linejoin:miter;stroke-miterlimit:4;stroke-dasharray:none;stroke-opacity:1"
       id="path5128" /><g
       id="g5130"><g
         id="g5132" /><g
         id="g5138"><g
           clip-path="url(#clipPath5134)"
           id="g5140"><text
             transform="matrix(1,0,0,-1,184.5918,469.1377)"
             id="text5142"><tspan
               style="font-size:10px;font-variant:normal;font-weight:normal;font-stretch:normal;writing-mode:lr-tb;fill:#000000;fill-opacity:1;fill-rule:nonzero;stroke:none;font-family:Arial;-inkscape-font-specification:ArialMT"
               x="0 2.78 5.5599999 8.3400002 11.12"
               y="0"
               sodipodi:role="line"
               id="tspan5144">. . .</tspan></text>
</g></g></g><g
       id="g5146"><g
         id="g5148" /><g
         id="g5156"
         clip-path="url(#clipPath5150)" /></g><g
       id="g5178"
       transform="translate(-3.5453048,0)"><g
         id="g5180" /><g
         id="g5186"><g
           clip-path="url(#clipPath5182)"
           id="g5188"><text
             transform="matrix(1,0,0,-1,423.6582,499.6621)"
             id="text5190"><tspan
               style="font-size:10px;font-variant:normal;font-weight:normal;font-stretch:normal;writing-mode:lr-tb;fill:#231f20;fill-opacity:1;fill-rule:nonzero;stroke:none;font-family:Arial;-inkscape-font-specification:ArialMT"
               x="0 2.78 8.3400002 16.67 22.23 27.790001 31.120001 36.68 39.459999 45.02 48.349998"
               y="0"
               sodipodi:role="line"
               id="tspan5192">temperature</tspan></text>
</g></g></g><g
       id="g5194"
       transform="translate(-4.8,0)"><g
         id="g5196" /><g
         id="g5202"><g
           clip-path="url(#clipPath5198)"
           id="g5204"><text
             transform="matrix(1,0,0,-1,428.748,487.1621)"
             id="text5206"><tspan
               style="font-size:10px;font-variant:normal;font-weight:normal;font-stretch:normal;writing-mode:lr-tb;fill:#231f20;fill-opacity:1;fill-rule:nonzero;stroke:none;font-family:Arial;-inkscape-font-specification:ArialMT"
               x="0 5.5599999 7.7800002 10.38 13.16 18.719999 22.049999 27.610001 33.169998 38.169998"
               y="0"
               sodipodi:role="line"
               id="tspan5208">difference</tspan></text>
</g></g></g><g
       id="g5210"
       transform="translate(-0.6296306,0)"><g
         id="g5212" /><g
         id="g5218"><g
           clip-path="url(#clipPath5214)"
           id="g5220"><text
             transform="matrix(1,0,0,-1,487.3311,500.2861)"
             id="text5222"><tspan
               style="font-size:10px;font-variant:normal;font-weight:normal;font-stretch:normal;writing-mode:lr-tb;fill:#231f20;fill-opacity:1;fill-rule:nonzero;stroke:none;font-family:Arial;-inkscape-font-specification:ArialMT"
               x="0 5 10.56 16.120001 21.68 27.24 32.240002 35.02 40.580002 46.139999 51.139999"
               y="0"
               sodipodi:role="line"
               id="tspan5224">conductance</tspan></text>
</g></g></g><path
       d="M 424.079,528.633 L 367.007,509.643"
       style="fill:none;stroke:#231f20;stroke-width:1;stroke-linecap:butt;stroke-linejoin:miter;stroke-miterlimit:4;stroke-dasharray:none;stroke-opacity:1"
       id="path5226" /><path
       d="M 444.273,528.511 L 444.273,508.511"
       style="fill:none;stroke:#231f20;stroke-width:1;stroke-linecap:butt;stroke-linejoin:miter;stroke-miterlimit:4;stroke-dasharray:none;stroke-opacity:1"
       id="path5230" /><g
       id="g5232"
       transform="translate(-8.0000443,0)"><g
         id="g5234" /><g
         id="g5240"><g
           clip-path="url(#clipPath5236)"
           id="g5242"><text
             transform="matrix(1,0,0,-1,563.5625,502.4219)"
             id="text5244"><tspan
               style="font-size:10px;font-variant:normal;font-weight:normal;font-stretch:normal;writing-mode:lr-tb;fill:#231f20;fill-opacity:1;fill-rule:nonzero;stroke:none;font-family:Arial;-inkscape-font-specification:ArialMT"
               x="0 2.78 5.5599999 8.3400002 11.12"
               y="0"
               sodipodi:role="line"
               id="tspan5246">. . .</tspan></text>
</g></g></g><g
       id="g5248"><g
         id="g5250" /><g
         id="g5256"><g
           clip-path="url(#clipPath5252)"
           id="g5258"><text
             transform="matrix(1,0,0,-1,243.3398,414.6738)"
             id="text5260"><tspan
               style="font-size:10px;font-variant:normal;font-weight:normal;font-stretch:normal;writing-mode:lr-tb;fill:#000000;fill-opacity:1;fill-rule:nonzero;stroke:none;font-family:Arial;-inkscape-font-specification:ArialMT"
               x="0 2.78 8.3400002 11.67 18.889999 24.450001 27.780001"
               y="0"
               sodipodi:role="line"
               id="tspan5262">forward</tspan></text>
</g></g></g><g
       id="g5264"><g
         id="g5266" /><g
         id="g5272"><g
           clip-path="url(#clipPath5268)"
           id="g5274"><text
             transform="matrix(1,0,0,-1,231.6626,402.1738)"
             id="text5276"><tspan
               style="font-size:10px;font-variant:normal;font-weight:normal;font-stretch:normal;writing-mode:lr-tb;fill:#000000;fill-opacity:1;fill-rule:nonzero;stroke:none;font-family:Arial;-inkscape-font-specification:ArialMT"
               x="0 5.5599999 11.12 13.34 21.67 27.23 29.450001 35.009998 40.009998 45.57 47.790001 53.349998 56.68"
               y="0"
               sodipodi:role="line"
               id="tspan5278">unimolecular </tspan></text>
</g></g></g><g
       id="g5280"><g
         id="g5282" /><g
         id="g5288"><g
           clip-path="url(#clipPath5284)"
           id="g5290"><text
             transform="matrix(1,0,0,-1,230.8301,389.6738)"
             id="text5292"><tspan
               style="font-size:10px;font-variant:normal;font-weight:normal;font-stretch:normal;writing-mode:lr-tb;fill:#000000;fill-opacity:1;fill-rule:nonzero;stroke:none;font-family:Arial;-inkscape-font-specification:ArialMT"
               x="0 3.3299999 8.8900003 11.67 17.23 20.559999 25.559999 31.120001 36.68 41.68 44.459999 50.02 55.580002"
               y="0"
               sodipodi:role="line"
               id="tspan5294">rate-constant</tspan></text>
</g></g></g><g
       id="g5296"><g
         id="g5298" /><g
         id="g5304"><g
           clip-path="url(#clipPath5300)"
           id="g5306"><text
             transform="matrix(1,0,0,-1,177.3398,414.6738)"
             id="text5308"><tspan
               style="font-size:10px;font-variant:normal;font-weight:normal;font-stretch:normal;writing-mode:lr-tb;fill:#000000;fill-opacity:1;fill-rule:nonzero;stroke:none;font-family:Arial;-inkscape-font-specification:ArialMT"
               x="0 3.3299999 8.8900003 13.89 19.450001 22.780001 27.780001"
               y="0"
               sodipodi:role="line"
               id="tspan5310">reverse</tspan></text>
</g></g></g><g
       id="g5312"><g
         id="g5314" /><g
         id="g5320"><g
           clip-path="url(#clipPath5316)"
           id="g5322"><text
             transform="matrix(1,0,0,-1,165.6626,402.1738)"
             id="text5324"><tspan
               style="font-size:10px;font-variant:normal;font-weight:normal;font-stretch:normal;writing-mode:lr-tb;fill:#000000;fill-opacity:1;fill-rule:nonzero;stroke:none;font-family:Arial;-inkscape-font-specification:ArialMT"
               x="0 5.5599999 11.12 13.34 21.67 27.23 29.450001 35.009998 40.009998 45.57 47.790001 53.349998 56.68"
               y="0"
               sodipodi:role="line"
               id="tspan5326">unimolecular </tspan></text>
</g></g></g><g
       id="g5328"><g
         id="g5330" /><g
         id="g5336"><g
           clip-path="url(#clipPath5332)"
           id="g5338"><text
             transform="matrix(1,0,0,-1,164.8301,389.6738)"
             id="text5340"><tspan
               style="font-size:10px;font-variant:normal;font-weight:normal;font-stretch:normal;writing-mode:lr-tb;fill:#000000;fill-opacity:1;fill-rule:nonzero;stroke:none;font-family:Arial;-inkscape-font-specification:ArialMT"
               x="0 3.3299999 8.8900003 11.67 17.23 20.559999 25.559999 31.120001 36.68 41.68 44.459999 50.02 55.580002"
               y="0"
               sodipodi:role="line"
               id="tspan5342">rate-constant</tspan></text>
</g></g></g><g
       id="g5344"><g
         id="g5346" /><g
         id="g5352"><g
           clip-path="url(#clipPath5348)"
           id="g5354"><text
             transform="matrix(1,0,0,-1,299.3115,464.1484)"
             id="text5356"><tspan
               style="font-size:10px;font-variant:normal;font-weight:normal;font-stretch:normal;writing-mode:lr-tb;fill:#000000;fill-opacity:1;fill-rule:nonzero;stroke:none;font-family:Arial;-inkscape-font-specification:ArialMT"
               x="0 5.5599999 7.7800002 16.110001 21.67 23.889999 29.450001 34.450001 40.009998 42.23 47.790001 51.119999"
               y="0"
               sodipodi:role="line"
               id="tspan5358">bimolecular </tspan></text>
</g></g></g><g
       id="g5360"><g
         id="g5362" /><g
         id="g5368"><g
           clip-path="url(#clipPath5364)"
           id="g5370"><text
             transform="matrix(1,0,0,-1,295.6982,451.6484)"
             id="text5372"><tspan
               style="font-size:10px;font-variant:normal;font-weight:normal;font-stretch:normal;writing-mode:lr-tb;fill:#000000;fill-opacity:1;fill-rule:nonzero;stroke:none;font-family:Arial;-inkscape-font-specification:ArialMT"
               x="0 3.3299999 8.8900003 11.67 17.23 20.559999 25.559999 31.120001 36.68 41.68 44.459999 50.02"
               y="0"
               sodipodi:role="line"
               id="tspan5374">rate-constan</tspan></text>
</g></g></g><g
       id="g5376"
       transform="translate(-8,0)"><g
         id="g5378" /><g
         id="g5384"><g
           clip-path="url(#clipPath5380)"
           id="g5386"><text
             transform="matrix(1,0,0,-1,351.2842,451.6484)"
             id="text5388"><tspan
               style="font-size:10px;font-variant:normal;font-weight:normal;font-stretch:normal;writing-mode:lr-tb;fill:#000000;fill-opacity:1;fill-rule:nonzero;stroke:none;font-family:Arial;-inkscape-font-specification:ArialMT"
               x="0"
               y="0"
               id="tspan5390">t</tspan></text>
</g></g></g><g
       id="g5424"><g
         id="g5426" /><g
         id="g5432"><g
           clip-path="url(#clipPath5428)"
           id="g5434"><text
             transform="matrix(1,0,0,-1,63.0825,452.1484)"
             id="text5436"><tspan
               style="font-size:10px;font-variant:normal;font-weight:normal;font-stretch:normal;writing-mode:lr-tb;fill:#231f20;fill-opacity:1;fill-rule:nonzero;stroke:none;font-family:Arial;-inkscape-font-specification:ArialMT"
               x="0 5.5599999 11.12 16.68 18.9 21.120001 23.34 28.9 32.23 34.450001 40.009998 48.34 51.119999 56.68 60.009998 62.790001 67.790001 70.57 76.129997 81.690002 87.25 92.25"
               y="0"
               sodipodi:role="line"
               id="tspan5438">equilibrium or steady-</tspan></text>
</g></g></g><g
       id="g5440"><g
         id="g5442" /><g
         id="g5448"><g
           clip-path="url(#clipPath5444)"
           id="g5450"><text
             transform="matrix(1,0,0,-1,79.75,439.6484)"
             id="text5452"><tspan
               style="font-size:10px;font-variant:normal;font-weight:normal;font-stretch:normal;writing-mode:lr-tb;fill:#231f20;fill-opacity:1;fill-rule:nonzero;stroke:none;font-family:Arial;-inkscape-font-specification:ArialMT"
               x="0 5 7.7800002 13.34 16.120001 21.68 24.459999 29.459999 35.02 40.580002 45.580002 48.360001 53.919998"
               y="0"
               sodipodi:role="line"
               id="tspan5454">state constan</tspan></text>
</g></g></g><g
       id="g5456"><g
         id="g5458" /><g
         id="g5464"><g
           clip-path="url(#clipPath5460)"
           id="g5466"><text
             transform="matrix(1,0,0,-1,139.2324,439.6484)"
             id="text5468"><tspan
               style="font-size:10px;font-variant:normal;font-weight:normal;font-stretch:normal;writing-mode:lr-tb;fill:#231f20;fill-opacity:1;fill-rule:nonzero;stroke:none;font-family:Arial;-inkscape-font-specification:ArialMT"
               x="0"
               y="0"
               id="tspan5470">t</tspan></text>
</g></g></g><g
       id="g5472"><g
         id="g5474" /><g
         id="g5480"><g
           clip-path="url(#clipPath5476)"
           id="g5482"><text
             transform="matrix(1,0,0,-1,67.75,404.1484)"
             id="text5484"><tspan
               style="font-size:10px;font-variant:normal;font-weight:normal;font-stretch:normal;writing-mode:lr-tb;fill:#000000;fill-opacity:1;fill-rule:nonzero;stroke:none;font-family:Arial;-inkscape-font-specification:ArialMT"
               x="0 8.3299999 10.55 15.55 21.110001 26.67 32.23 34.450001 36.669998 41.669998 44.450001 49.450001 55.009998 60.57 65.57 68.349998 73.910004 79.470001"
               y="0"
               sodipodi:role="line"
               id="tspan5486">Michaelis constant</tspan></text>
</g></g></g><path
       d="M 168.046,483.075 L 110.972,464.085"
       style="fill:none;stroke:#231f20;stroke-width:1;stroke-linecap:butt;stroke-linejoin:miter;stroke-miterlimit:4;stroke-dasharray:none;stroke-opacity:1"
       id="path5490" /><path
       d="M 110.673,432.491 L 110.673,412.491"
       style="fill:none;stroke:#000000;stroke-width:1;stroke-linecap:butt;stroke-linejoin:miter;stroke-miterlimit:4;stroke-dasharray:none;stroke-opacity:1"
       id="path5492" /><path
       d="M 347.576,563.082 L 290.502,544.092"
       style="fill:none;stroke:#231f20;stroke-width:1;stroke-linecap:butt;stroke-linejoin:miter;stroke-miterlimit:4;stroke-dasharray:none;stroke-opacity:1"
       id="path5494" /><path
       d="M 372.503,563.082 L 424.022,544.092"
       style="fill:none;stroke:#231f20;stroke-width:1;stroke-linecap:butt;stroke-linejoin:miter;stroke-miterlimit:4;stroke-dasharray:none;stroke-opacity:1"
       id="path5496" /><path
       d="M 273.406,528.633 L 324.924,509.643"
       style="fill:none;stroke:#000000;stroke-width:1;stroke-linecap:butt;stroke-linejoin:miter;stroke-miterlimit:4;stroke-dasharray:none;stroke-opacity:1"
       id="path5498" /><path
       d="M 327.054,446.491 L 327.054,426.491"
       style="fill:none;stroke:#000000;stroke-width:1;stroke-linecap:butt;stroke-linejoin:miter;stroke-miterlimit:4;stroke-dasharray:none;stroke-opacity:1"
       id="path5500" /><path
       d="M 339.599,446.491 L 396.673,427.501"
       style="fill:none;stroke:#000000;stroke-width:1;stroke-linecap:butt;stroke-linejoin:miter;stroke-miterlimit:4;stroke-dasharray:none;stroke-opacity:1"
       id="path5502" /><g
       id="g5504"><g
         id="g5506" /><g
         id="g5512"><g
           clip-path="url(#clipPath5508)"
           id="g5514"><text
             transform="matrix(1,0,0,-1,319.6016,419.1377)"
             id="text5516"><tspan
               style="font-size:10px;font-variant:normal;font-weight:normal;font-stretch:normal;writing-mode:lr-tb;fill:#000000;fill-opacity:1;fill-rule:nonzero;stroke:none;font-family:Arial;-inkscape-font-specification:ArialMT"
               x="0 2.78 5.5599999 8.3400002 11.12"
               y="0"
               sodipodi:role="line"
               id="tspan5518">. . .</tspan></text>
</g></g></g><g
       id="g5520"><g
         id="g5522" /><g
         id="g5528"><g
           clip-path="url(#clipPath5524)"
           id="g5530"><text
             transform="matrix(1,0,0,-1,389.6016,419.1377)"
             id="text5532"><tspan
               style="font-size:10px;font-variant:normal;font-weight:normal;font-stretch:normal;writing-mode:lr-tb;fill:#000000;fill-opacity:1;fill-rule:nonzero;stroke:none;font-family:Arial;-inkscape-font-specification:ArialMT"
               x="0 2.78 5.5599999 8.3400002 11.12"
               y="0"
               sodipodi:role="line"
               id="tspan5534">. . .</tspan></text>
</g></g></g><text
       y="-500.491"
       x="170.17079"
       transform="scale(1,-1)"
       id="text4795"><tspan
         style="font-size:10px;font-variant:normal;font-weight:normal;font-stretch:normal;text-align:center;writing-mode:lr-tb;text-anchor:middle;fill:#231f20;fill-opacity:1;fill-rule:nonzero;stroke:none;font-family:Arial;-inkscape-font-specification:ArialMT"
         x="170.17079"
         y="-500.491"
         sodipodi:role="line"
         id="tspan5946">equilibrium or steady-</tspan><tspan
         style="font-size:10px;font-variant:normal;font-weight:normal;font-stretch:normal;text-align:center;writing-mode:lr-tb;text-anchor:middle;fill:#231f20;fill-opacity:1;fill-rule:nonzero;stroke:none;font-family:Arial;-inkscape-font-specification:ArialMT"
         x="170.17079"
         y="-487.991"
         sodipodi:role="line"
         id="tspan5950">state characteristic</tspan></text>
<g
       id="g5957"
       transform="translate(190.4,0)"
       style="display:inline"><g
         id="g5959" /></g><g
       transform="translate(189.97681,-1.1377886)"
       style="display:inline"
       id="g5961"><text
         transform="scale(1,-1)"
         id="text5965"
         x="210.93941"
         y="-534.20697"><tspan
           style="font-size:10px;font-variant:normal;font-weight:normal;font-stretch:normal;writing-mode:lr-tb;fill:#231f20;fill-opacity:1;fill-rule:nonzero;stroke:none;font-family:Arial;-inkscape-font-specification:ArialMT"
           x="210.93941"
           y="-534.20697"
           sodipodi:role="line"
           id="tspan5967">physical characteristic</tspan></text>
</g><g
       transform="translate(132.93073,-34.679195)"
       style="display:inline"
       id="g5979"><text
         transform="scale(1,-1)"
         id="text5981"
         x="239.7395"
         y="-534.20697"><tspan
           style="font-size:10px;font-variant:normal;font-weight:normal;font-stretch:normal;text-align:center;writing-mode:lr-tb;text-anchor:middle;fill:#231f20;fill-opacity:1;fill-rule:nonzero;stroke:none;font-family:Arial;-inkscape-font-specification:ArialMT"
           x="239.7395"
           y="-534.20697"
           sodipodi:role="line"
           id="tspan5983">thermodynamic</tspan><tspan
           style="font-size:10px;font-variant:normal;font-weight:normal;font-stretch:normal;text-align:center;writing-mode:lr-tb;text-anchor:middle;fill:#231f20;fill-opacity:1;fill-rule:nonzero;stroke:none;font-family:Arial;-inkscape-font-specification:ArialMT"
           x="239.7395"
           y="-521.70697"
           sodipodi:role="line"
           id="tspan5985">temperature</tspan></text>
</g><path
       id="path5987"
       style="fill:none;stroke:#231f20;stroke-width:1;stroke-linecap:butt;stroke-linejoin:miter;stroke-miterlimit:4;stroke-dasharray:none;stroke-opacity:1"
       d="M 464.607,528.633 L 513.57212,510.24351"
       sodipodi:nodetypes="cc" /><path
       sodipodi:nodetypes="cc"
       d="M 488.89503,528.33274 L 561.88053,510.54376"
       style="fill:none;stroke:#231f20;stroke-width:1;stroke-linecap:butt;stroke-linejoin:miter;stroke-miterlimit:4;stroke-dasharray:none;stroke-opacity:1"
       id="path5989" /></g></svg>