<?xml version="1.0" encoding="UTF-8" standalone="no"?>
<!-- Created with Inkscape (http://www.inkscape.org/) -->

<svg
   xmlns:dc="http://purl.org/dc/elements/1.1/"
   xmlns:cc="http://creativecommons.org/ns#"
   xmlns:rdf="http://www.w3.org/1999/02/22-rdf-syntax-ns#"
   xmlns:svg="http://www.w3.org/2000/svg"
   xmlns="http://www.w3.org/2000/svg"
   xmlns:sodipodi="http://sodipodi.sourceforge.net/DTD/sodipodi-0.dtd"
   xmlns:inkscape="http://www.inkscape.org/namespaces/inkscape"
   id="svg2985"
   version="1.1"
   inkscape:version="0.48.0 r9654"
   width="744.09447"
   height="571.71997"
   xml:space="preserve"
   sodipodi:docname="fbc_uml.pdf"><metadata
     id="metadata2991"><rdf:RDF><cc:Work
         rdf:about=""><dc:format>image/svg+xml</dc:format><dc:type
           rdf:resource="http://purl.org/dc/dcmitype/StillImage" /><dc:title></dc:title></cc:Work></rdf:RDF></metadata><defs
     id="defs2989" /><sodipodi:namedview
     pagecolor="#ffffff"
     bordercolor="#666666"
     borderopacity="1"
     objecttolerance="10"
     gridtolerance="10"
     guidetolerance="10"
     inkscape:pageopacity="0"
     inkscape:pageshadow="2"
     inkscape:window-width="1920"
     inkscape:window-height="1018"
     id="namedview2987"
     showgrid="false"
     inkscape:zoom="2.0359618"
     inkscape:cx="653.54763"
     inkscape:cy="489.24151"
     inkscape:window-x="-8"
     inkscape:window-y="-8"
     inkscape:window-maximized="1"
     inkscape:current-layer="g2993" /><g
     id="g2993"
     inkscape:groupmode="layer"
     inkscape:label="fbc_uml"
     transform="matrix(1.25,0,0,-1.25,0,571.71997)"><path
       inkscape:connector-curvature="0"
       id="path2997"
       style="fill:none;stroke:#231f20;stroke-width:1;stroke-linecap:butt;stroke-linejoin:miter;stroke-miterlimit:4;stroke-opacity:1;stroke-dasharray:none"
       d="m 309.707,418.618 -131.75,0 0,21.36 131.75,0 0,-21.36 z" /><text
       id="text2999"
       transform="scale(1,-1)"
       x="228.5432"
       y="-425.89148"><tspan
         id="tspan3001"
         sodipodi:role="line"
         y="-425.89148"
         x="228.5432 235.2032 242.4232 247.9832 253.5432"
         style="font-size:10px;font-variant:normal;font-weight:normal;writing-mode:lr-tb;fill:#231f20;fill-opacity:1;fill-rule:nonzero;stroke:none;font-family:Arial;-inkscape-font-specification:ArialBold">SBase</tspan></text>
<path
       inkscape:connector-curvature="0"
       id="path3003"
       style="fill:none;stroke:#2ba543;stroke-width:1;stroke-linecap:butt;stroke-linejoin:miter;stroke-miterlimit:4;stroke-opacity:1;stroke-dasharray:3, 2;stroke-dashoffset:0"
       d="m 132.25,368.548 -131.75,0 0,21.359 131.75,0 0,-21.359 z" /><text
       id="text3005"
       transform="scale(1,-1)"
       x="24.417299"
       y="-375.82016"><tspan
         id="tspan3007"
         sodipodi:role="line"
         y="-375.82016"
         x="24.417299 32.747299 38.847301 44.9473 50.507301 53.277302 56.047298 59.3773 64.937302 70.497299 73.827301 79.387299 85.487297 91.587296 97.147301 103.2473"
         style="font-size:10px;font-variant:normal;font-weight:normal;writing-mode:lr-tb;fill:#2ba543;fill-opacity:1;fill-rule:nonzero;stroke:none;font-family:Arial;-inkscape-font-specification:ArialBold">Model (extended)</tspan></text>
<path
       inkscape:connector-curvature="0"
       id="path3009"
       style="fill:none;stroke:#293d9b;stroke-width:1;stroke-linecap:butt;stroke-linejoin:miter;stroke-miterlimit:4;stroke-opacity:1;stroke-dasharray:none"
       d="m 253.281,195.333 -131.75,0 0,21.359 131.75,0 0,-21.359 z" /><text
       id="text3011"
       transform="scale(1,-1)"
       x="147.67171"
       y="-202.60527"><tspan
         id="tspan3013"
         sodipodi:role="line"
         y="-202.60527"
         x="147.67171 153.7717 156.5417 162.1017 165.4317 173.20171 176.53171 184.3017 190.4017 193.17171 198.7317 204.2917 207.6217 210.39171 215.95171 221.5117"
         style="font-size:10px;font-variant:normal;font-weight:normal;writing-mode:lr-tb;fill:#293d9b;fill-opacity:1;fill-rule:nonzero;stroke:none;font-family:Arial;-inkscape-font-specification:ArialBold">ListOfObjectives</tspan></text>
<path
       inkscape:connector-curvature="0"
       id="path3015"
       style="fill:none;stroke:#293d9b;stroke-width:1;stroke-linecap:butt;stroke-linejoin:miter;stroke-miterlimit:4;stroke-opacity:1;stroke-dasharray:none"
       d="m 254.281,317.478 -131.75,0 0,21.355 131.75,0 0,-21.355 z" /><text
       id="text3017"
       transform="scale(1,-1)"
       x="145.0759"
       y="-324.74887"><tspan
         id="tspan3019"
         sodipodi:role="line"
         y="-324.74887"
         x="145.0759 151.1759 153.94589 159.50591 162.83591 170.6059 173.9359 180.0359 182.8159 188.91589 194.47591 201.6859 207.7959 213.8959 219.9959 226.0959"
         style="font-size:10px;font-variant:normal;font-weight:normal;writing-mode:lr-tb;fill:#293d9b;fill-opacity:1;fill-rule:nonzero;stroke:none;font-family:Arial;-inkscape-font-specification:ArialBold">ListOfFluxBounds</tspan></text>
<path
       inkscape:connector-curvature="0"
       id="path3021"
       style="fill:none;stroke:#293d9b;stroke-width:1;stroke-linecap:butt;stroke-linejoin:miter;stroke-miterlimit:4;stroke-opacity:1;stroke-dasharray:none"
       d="m 482.148,69.868 -131.75,0 0,21.36 131.75,0 0,-21.36 z" /><text
       id="text3023"
       transform="scale(1,-1)"
       x="362.18829"
       y="-77.805473"><tspan
         id="tspan3025"
         sodipodi:role="line"
         y="-77.805473"
         x="362.18829 368.2883 371.05829 376.61829 379.9483 387.71829 391.04831 397.14828 399.92831 406.02829 411.58829 419.35831 425.45831 428.2283 433.7883 439.3483 442.67828 445.4483 451.0083 456.5683"
         style="font-size:10px;font-variant:normal;font-weight:normal;writing-mode:lr-tb;fill:#293d9b;fill-opacity:1;fill-rule:nonzero;stroke:none;font-family:Arial;-inkscape-font-specification:ArialBold">ListOfFluxObjectives</tspan></text>
<path
       inkscape:connector-curvature="0"
       id="path3027"
       style="fill:none;stroke:#293d9b;stroke-width:1;stroke-linecap:butt;stroke-linejoin:miter;stroke-miterlimit:4;stroke-opacity:1;stroke-dasharray:none"
       d="m 364.039,139.099 -131.746,0 0,21.359 131.746,0 0,-21.359 z" /><text
       id="text3029"
       transform="scale(1,-1)"
       x="275.65701"
       y="-147.03886"><tspan
         id="tspan3031"
         sodipodi:role="line"
         y="-147.03886"
         x="275.65701 283.427 289.52701 292.297 297.85699 303.41699 306.74701 309.517 315.077"
         style="font-size:10px;font-variant:normal;font-weight:normal;writing-mode:lr-tb;fill:#293d9b;fill-opacity:1;fill-rule:nonzero;stroke:none;font-family:Arial;-inkscape-font-specification:ArialBold">Objective</tspan></text>
<path
       inkscape:connector-curvature="0"
       id="path3033"
       style="fill:none;stroke:#293d9b;stroke-width:1;stroke-linecap:butt;stroke-linejoin:miter;stroke-miterlimit:4;stroke-opacity:1;stroke-dasharray:none"
       d="m 594.844,27.481 -131.75,0 0,21.36 131.75,0 0,-21.36 z" /><text
       id="text3035"
       transform="scale(1,-1)"
       x="496.17905"
       y="-35.420773"><tspan
         id="tspan3037"
         sodipodi:role="line"
         y="-35.420773"
         x="496.17905 502.27905 505.04904 511.14905 516.70905 524.47906 530.57904 533.34906 538.90906 544.46906 547.79901 550.56903 556.12903"
         style="font-size:10px;font-variant:normal;font-weight:normal;writing-mode:lr-tb;fill:#293d9b;fill-opacity:1;fill-rule:nonzero;stroke:none;font-family:Arial;-inkscape-font-specification:ArialBold">FluxObjective</tspan></text>
<path
       inkscape:connector-curvature="0"
       id="path3039"
       style="fill:none;stroke:#293d9b;stroke-width:1;stroke-linecap:butt;stroke-linejoin:miter;stroke-miterlimit:4;stroke-opacity:1;stroke-dasharray:none"
       d="m 365.043,276.243 -131.75,0 0,21.36 131.75,0 0,-21.36 z" /><text
       id="text3041"
       transform="scale(1,-1)"
       x="273.06131"
       y="-284.18246"><tspan
         id="tspan3043"
         sodipodi:role="line"
         y="-284.18246"
         x="273.06131 279.16129 281.9313 288.03131 293.59131 300.81131 306.91129 313.01129 319.1113"
         style="font-size:10px;font-variant:normal;font-weight:normal;writing-mode:lr-tb;fill:#293d9b;fill-opacity:1;fill-rule:nonzero;stroke:none;font-family:Arial;-inkscape-font-specification:ArialBold">FluxBound</tspan></text>
<path
       inkscape:connector-curvature="0"
       id="path3045"
       style="fill:#293d9b;fill-opacity:1;fill-rule:nonzero;stroke:none"
       d="m 10.98,328.157 0,33.645 0,-33.645 z" /><path
       inkscape:connector-curvature="0"
       id="path3047"
       style="fill:none;stroke:#293d9b;stroke-width:1;stroke-linecap:butt;stroke-linejoin:miter;stroke-miterlimit:4;stroke-opacity:1;stroke-dasharray:none"
       d="m 10.98,361.802 0,-33.645" /><path
       inkscape:connector-curvature="0"
       id="path3049"
       style="fill:#293d9b;fill-opacity:1;fill-rule:nonzero;stroke:none"
       d="m 10.863,328.157 111.973,0 -111.973,0 z" /><path
       inkscape:connector-curvature="0"
       id="path3051"
       style="fill:none;stroke:#293d9b;stroke-width:1;stroke-linecap:butt;stroke-linejoin:miter;stroke-miterlimit:4;stroke-opacity:1;stroke-dasharray:none"
       d="m 10.863,328.157 111.973,0" /><path
       inkscape:connector-curvature="0"
       id="path3053"
       style="fill:#293d9b;fill-opacity:1;fill-rule:nonzero;stroke:#293d9b;stroke-width:1;stroke-linecap:butt;stroke-linejoin:miter;stroke-miterlimit:4;stroke-opacity:1;stroke-dasharray:none"
       d="m 14.543,362.942 -3.563,-4.25 -3.562,4.25 3.562,4.254 3.563,-4.254 z" /><path
       inkscape:connector-curvature="0"
       id="path3055"
       style="fill:#293d9b;fill-opacity:1;fill-rule:nonzero;stroke:none"
       d="m 10.98,205.013 0,123.144 0,-123.144 z" /><path
       inkscape:connector-curvature="0"
       id="path3057"
       style="fill:none;stroke:#293d9b;stroke-width:1;stroke-linecap:butt;stroke-linejoin:miter;stroke-miterlimit:4;stroke-opacity:1;stroke-dasharray:none"
       d="m 10.98,328.157 0,-123.144" /><path
       inkscape:connector-curvature="0"
       id="path3059"
       style="fill:#293d9b;fill-opacity:1;fill-rule:nonzero;stroke:none"
       d="m 10.574,205.013 111.262,0 -111.262,0 z" /><path
       inkscape:connector-curvature="0"
       id="path3061"
       style="fill:none;stroke:#293d9b;stroke-width:1;stroke-linecap:butt;stroke-linejoin:miter;stroke-miterlimit:4;stroke-opacity:1;stroke-dasharray:none"
       d="m 10.574,205.013 111.266,0" /><path
       inkscape:connector-curvature="0"
       id="path3063"
       style="fill:#24265d;fill-opacity:1;fill-rule:nonzero;stroke:none"
       d="m 65.375,401.618 456.137,0 -456.137,0 z" /><g
       transform="matrix(1,0,0,0.955748,0,457.37598)"
       id="g3065"><path
         inkscape:connector-curvature="0"
         id="path3067"
         style="fill:none;stroke:#24265d;stroke-width:1.04630101;stroke-linecap:butt;stroke-linejoin:miter;stroke-miterlimit:4;stroke-opacity:1;stroke-dasharray:none"
         d="m 65.375,-58.339 477.258,0" /></g><path
       inkscape:connector-curvature="0"
       id="path3069"
       style="fill:#24265d;fill-opacity:1;fill-rule:nonzero;stroke:none"
       d="m 65.793,389.368 0,12.75 0,-12.75 z" /><path
       inkscape:connector-curvature="0"
       id="path3071"
       style="fill:none;stroke:#24265d;stroke-width:1;stroke-linecap:butt;stroke-linejoin:miter;stroke-miterlimit:4;stroke-opacity:1;stroke-dasharray:none"
       d="m 65.793,402.118 0,-12.75" /><path
       inkscape:connector-curvature="0"
       id="path3073"
       style="fill:none;stroke:#24265d;stroke-width:1;stroke-linecap:butt;stroke-linejoin:miter;stroke-miterlimit:4;stroke-opacity:1;stroke-dasharray:none"
       d="m 239.809,408.114 4.254,8.504 4.25,-8.504 -8.504,0 z" /><path
       inkscape:connector-curvature="0"
       id="path3075"
       style="fill:#2ba543;fill-opacity:1;fill-rule:nonzero;stroke:none"
       d="m 244.063,401.618 0,6.656 0,-6.656 z" /><path
       inkscape:connector-curvature="0"
       id="path3077"
       style="fill:none;stroke:#24265d;stroke-width:1;stroke-linecap:butt;stroke-linejoin:miter;stroke-miterlimit:4;stroke-opacity:1;stroke-dasharray:none"
       d="m 244.063,408.274 0,-6.656" /><text
       id="text3079"
       transform="scale(1,-1)"
       x="13.7634"
       y="-331.01648"><tspan
         id="tspan3081"
         sodipodi:role="line"
         y="-331.01648"
         x="13.7634 15.9834 18.2034 23.2034 25.9734 33.743401 36.513401 42.6134 44.833401 50.393402 55.393402 62.053402 67.613396 73.173401 78.733398 84.293396"
         style="font-size:10px;font-variant:normal;font-weight:normal;writing-mode:lr-tb;fill:#293d9b;fill-opacity:1;fill-rule:nonzero;stroke:none;font-family:Arial;-inkscape-font-specification:Arial">listOfFluxBounds</tspan><tspan
         id="tspan3083"
         sodipodi:role="line"
         y="-207.93646"
         x="12.7634 14.9834 17.2034 22.2034 24.9734 32.743401 35.513401 43.283401 48.843403 51.0634 56.623402 61.623402 64.393402 66.613396 71.613396 77.173401"
         style="font-size:10px;font-variant:normal;font-weight:normal;writing-mode:lr-tb;fill:#293d9b;fill-opacity:1;fill-rule:nonzero;stroke:none;font-family:Arial;-inkscape-font-specification:Arial">listOfObjectives</tspan></text>
<path
       inkscape:connector-curvature="0"
       id="path3085"
       style="fill:#293d9b;fill-opacity:1;fill-rule:nonzero;stroke:none"
       d="m 135.504,285.923 0,25.301 0,-25.301 z" /><path
       inkscape:connector-curvature="0"
       id="path3087"
       style="fill:none;stroke:#293d9b;stroke-width:1;stroke-linecap:butt;stroke-linejoin:miter;stroke-miterlimit:4;stroke-opacity:1;stroke-dasharray:none"
       d="m 135.504,311.224 0,-25.301" /><path
       inkscape:connector-curvature="0"
       id="path3089"
       style="fill:#293d9b;fill-opacity:1;fill-rule:nonzero;stroke:none"
       d="m 135.504,285.923 97.242,0 -97.242,0 z" /><path
       inkscape:connector-curvature="0"
       id="path3091"
       style="fill:none;stroke:#293d9b;stroke-width:1;stroke-linecap:butt;stroke-linejoin:miter;stroke-miterlimit:4;stroke-opacity:1;stroke-dasharray:none"
       d="m 135.504,285.923 97.242,0" /><path
       inkscape:connector-curvature="0"
       id="path3093"
       style="fill:#293d9b;fill-opacity:1;fill-rule:nonzero;stroke:#293d9b;stroke-width:1;stroke-linecap:butt;stroke-linejoin:miter;stroke-miterlimit:4;stroke-opacity:1;stroke-dasharray:none"
       d="m 139.754,312.224 -4.25,-4.25 -4.254,4.25 4.254,4.254 4.25,-4.254 z" /><text
       id="text3095"
       transform="scale(1,-1)"
       x="139.7542"
       y="-288.76346"><tspan
         id="tspan3097"
         sodipodi:role="line"
         y="-288.76346"
         x="139.7542 142.5242 144.7442 150.3042 155.3042 161.9642 167.5242 173.0842 178.6442"
         style="font-size:10px;font-variant:normal;font-weight:normal;writing-mode:lr-tb;fill:#293d9b;fill-opacity:1;fill-rule:nonzero;stroke:none;font-family:Arial;-inkscape-font-specification:Arial">fluxBound</tspan><tspan
         id="tspan3099"
         sodipodi:role="line"
         y="-331.01346"
         x="104.0942 109.6542 112.4242 115.1942"
         style="font-size:10px;font-variant:normal;font-weight:normal;writing-mode:lr-tb;fill:#293d9b;fill-opacity:1;fill-rule:nonzero;stroke:none;font-family:Arial;-inkscape-font-specification:Arial">0, 1</tspan><tspan
         id="tspan3101"
         sodipodi:role="line"
         y="-207.93347"
         x="103.0942 108.6542 111.4242 114.1942"
         style="font-size:10px;font-variant:normal;font-weight:normal;writing-mode:lr-tb;fill:#293d9b;fill-opacity:1;fill-rule:nonzero;stroke:none;font-family:Arial;-inkscape-font-specification:Arial">0, 1</tspan><tspan
         id="tspan3103"
         sodipodi:role="line"
         y="-288.76346"
         x="210.1142 215.67419 218.4442 221.2142 223.98421 226.7542"
         style="font-size:10px;font-variant:normal;font-weight:normal;writing-mode:lr-tb;fill:#293d9b;fill-opacity:1;fill-rule:nonzero;stroke:none;font-family:Arial;-inkscape-font-specification:Arial">1 .. *</tspan></text>
<path
       inkscape:connector-curvature="0"
       id="path3105"
       style="fill:#293d9b;fill-opacity:1;fill-rule:nonzero;stroke:none"
       d="m 134.504,149.778 0,25.305 0,-25.305 z" /><path
       inkscape:connector-curvature="0"
       id="path3107"
       style="fill:none;stroke:#293d9b;stroke-width:1;stroke-linecap:butt;stroke-linejoin:miter;stroke-miterlimit:4;stroke-opacity:1;stroke-dasharray:none"
       d="m 134.504,175.083 0,-25.305" /><path
       inkscape:connector-curvature="0"
       id="path3109"
       style="fill:#293d9b;fill-opacity:1;fill-rule:nonzero;stroke:none"
       d="m 134.504,149.778 97.242,0 -97.242,0 z" /><path
       inkscape:connector-curvature="0"
       id="path3111"
       style="fill:none;stroke:#293d9b;stroke-width:1;stroke-linecap:butt;stroke-linejoin:miter;stroke-miterlimit:4;stroke-opacity:1;stroke-dasharray:none"
       d="m 134.504,149.778 97.242,0" /><path
       inkscape:connector-curvature="0"
       id="path3113"
       style="fill:#293d9b;fill-opacity:1;fill-rule:nonzero;stroke:#293d9b;stroke-width:1;stroke-linecap:butt;stroke-linejoin:miter;stroke-miterlimit:4;stroke-opacity:1;stroke-dasharray:none"
       d="m 138.754,176.083 -4.25,-4.254 -4.254,4.254 4.254,4.25 4.25,-4.25 z" /><text
       id="text3115"
       transform="scale(1,-1)"
       x="209.1111"
       y="-151.37387"><tspan
         id="tspan3117"
         sodipodi:role="line"
         y="-151.37387"
         x="209.1111 214.6711 217.4411 220.21111 222.98109 225.7511"
         style="font-size:10px;font-variant:normal;font-weight:normal;writing-mode:lr-tb;fill:#293d9b;fill-opacity:1;fill-rule:nonzero;stroke:none;font-family:Arial;-inkscape-font-specification:Arial">1 .. *</tspan><tspan
         id="tspan3119"
         sodipodi:role="line"
         y="-151.87387"
         x="138.7511 144.3111 149.87109 152.09109 157.65111 162.65111 165.4211 167.6411 172.6411"
         style="font-size:10px;font-variant:normal;font-weight:normal;writing-mode:lr-tb;fill:#293d9b;fill-opacity:1;fill-rule:nonzero;stroke:none;font-family:Arial;-inkscape-font-specification:Arial">objective</tspan></text>
<path
       inkscape:connector-curvature="0"
       id="path3121"
       style="fill:#293d9b;fill-opacity:1;fill-rule:nonzero;stroke:none"
       d="m 242.285,80.548 0,25.301 0,-25.301 z" /><path
       inkscape:connector-curvature="0"
       id="path3123"
       style="fill:none;stroke:#293d9b;stroke-width:1;stroke-linecap:butt;stroke-linejoin:miter;stroke-miterlimit:4;stroke-opacity:1;stroke-dasharray:none"
       d="m 242.285,105.849 0,-25.301" /><path
       inkscape:connector-curvature="0"
       id="path3125"
       style="fill:#293d9b;fill-opacity:1;fill-rule:nonzero;stroke:none"
       d="m 242.285,80.548 103.313,0 -103.313,0 z" /><path
       inkscape:connector-curvature="0"
       id="path3127"
       style="fill:none;stroke:#293d9b;stroke-width:1.0206058;stroke-linecap:butt;stroke-linejoin:miter;stroke-miterlimit:4;stroke-opacity:1;stroke-dasharray:none"
       d="m 242.285,80.548 107.61456,0" /><path
       inkscape:connector-curvature="0"
       id="path3129"
       style="fill:#293d9b;fill-opacity:1;fill-rule:nonzero;stroke:#293d9b;stroke-width:1;stroke-linecap:butt;stroke-linejoin:miter;stroke-miterlimit:4;stroke-opacity:1;stroke-dasharray:none"
       d="m 246.535,106.849 -4.25,-4.254 -4.254,4.254 4.254,4.25 4.25,-4.25 z" /><text
       id="text3131"
       transform="scale(1,-1)"
       x="243.10011"
       y="-84.572685"><tspan
         id="tspan3133"
         sodipodi:role="line"
         y="-84.572685"
         x="243.10011 245.32011 247.55013 252.55013 255.31012 263.08011 265.85013 271.95007 274.17007 279.74008 284.74008 292.50009 298.0701 300.2901 305.86008 310.86008 313.62009 315.8501 320.8501 326.4101 331.4101 334.18008 339.74008 342.5101"
         style="font-size:10px;font-variant:normal;font-weight:normal;writing-mode:lr-tb;fill:#293d9b;fill-opacity:1;fill-rule:nonzero;stroke:none;font-family:Arial;-inkscape-font-specification:Arial">listOfFluxObjectives 1,1</tspan></text>
<path
       inkscape:connector-curvature="0"
       id="path3135"
       style="fill:#293d9b;fill-opacity:1;fill-rule:nonzero;stroke:none"
       d="m 360.693,39.313 0,25.301 0,-25.301 z" /><path
       inkscape:connector-curvature="0"
       id="path3137"
       style="fill:none;stroke:#293d9b;stroke-width:1;stroke-linecap:butt;stroke-linejoin:miter;stroke-miterlimit:4;stroke-opacity:1;stroke-dasharray:none"
       d="m 360.693,64.614 0,-25.301" /><path
       inkscape:connector-curvature="0"
       id="path3139"
       style="fill:#293d9b;fill-opacity:1;fill-rule:nonzero;stroke:none"
       d="m 354.293,39.313 100.797,0 -100.797,0 z" /><g
       transform="matrix(0.94575984,0,0,0.931989,25.085206,457.37598)"
       id="g3141"><path
         inkscape:connector-curvature="0"
         id="path3143"
         style="fill:none;stroke:#293d9b;stroke-width:1.07297397;stroke-linecap:butt;stroke-linejoin:miter;stroke-miterlimit:4;stroke-opacity:1;stroke-dasharray:none"
         d="m 354.332,-448.57 108.152,0" /></g><path
       inkscape:connector-curvature="0"
       id="path3145"
       style="fill:#293d9b;fill-opacity:1;fill-rule:nonzero;stroke:#293d9b;stroke-width:1;stroke-linecap:butt;stroke-linejoin:miter;stroke-miterlimit:4;stroke-opacity:1;stroke-dasharray:none"
       d="m 364.947,65.614 -4.254,-4.25 -4.25,4.25 4.25,4.254 4.254,-4.254 z" /><text
       id="text3147"
       transform="scale(1,-1)"
       x="438.72403"
       y="-41.407074"><tspan
         id="tspan3149"
         sodipodi:role="line"
         y="-41.407074"
         x="438.72403 444.28403 447.05402 449.82404 452.59402 455.36401"
         style="font-size:10px;font-variant:normal;font-weight:normal;writing-mode:lr-tb;fill:#293d9b;fill-opacity:1;fill-rule:nonzero;stroke:none;font-family:Arial;-inkscape-font-specification:Arial">1 .. *</tspan><tspan
         id="tspan3151"
         sodipodi:role="line"
         y="-42.287075"
         x="364.94403 367.71402 369.93402 375.49402 380.49402 388.26404 393.82404 396.04404 401.60403 406.60403 409.37402 411.59402 416.59402"
         style="font-size:10px;font-variant:normal;font-weight:normal;writing-mode:lr-tb;fill:#293d9b;fill-opacity:1;fill-rule:nonzero;stroke:none;font-family:Arial;-inkscape-font-specification:Arial">fluxObjective</tspan></text>
<path
       inkscape:connector-curvature="0"
       id="path3155"
       style="fill:none;stroke:#293d9b;stroke-width:1;stroke-linecap:butt;stroke-linejoin:miter;stroke-miterlimit:4;stroke-opacity:1;stroke-dasharray:none"
       d="m 543.367,48.841 0,352.777" /><path
       inkscape:connector-curvature="0"
       id="path3157"
       style="fill:#293d9b;fill-opacity:1;fill-rule:nonzero;stroke:none"
       d="m 477.348,80.548 43.617,0 -43.617,0 z" /><g
       transform="matrix(0.92883069,0,0,0.664372,38.64522,457.37598)"
       id="g3159"><path
         inkscape:connector-curvature="0"
         id="path3161"
         style="fill:none;stroke:#293d9b;stroke-width:1.50518095;stroke-linecap:butt;stroke-linejoin:miter;stroke-miterlimit:4;stroke-opacity:1;stroke-dasharray:none"
         d="m 477.348,-567.194 65.656,0" /></g><path
       inkscape:connector-curvature="0"
       id="path3163"
       style="fill:#293d9b;fill-opacity:1;fill-rule:nonzero;stroke:none"
       d="m 363.727,149.446 157.242,0 -157.242,0 z" /><g
       transform="matrix(1,0,0,0.375665,0,457.37598)"
       id="g3165"><path
         inkscape:connector-curvature="0"
         id="path3167"
         style="fill:none;stroke:#293d9b;stroke-width:1.14083397;stroke-linecap:butt;stroke-linejoin:miter;stroke-miterlimit:4;stroke-opacity:1;stroke-dasharray:none"
         d="m 363.797,-818.933 179.387,0" /></g><path
       inkscape:connector-curvature="0"
       id="path3169"
       style="fill:#293d9b;fill-opacity:1;fill-rule:nonzero;stroke:none"
       d="m 253.281,206.013 267.684,0 -267.684,0 z" /><g
       transform="matrix(1,0,0,0.923277,0,457.37598)"
       id="g3171"><path
         inkscape:connector-curvature="0"
         id="path3173"
         style="fill:none;stroke:#293d9b;stroke-width:1.08309805;stroke-linecap:butt;stroke-linejoin:miter;stroke-miterlimit:4;stroke-opacity:1;stroke-dasharray:none"
         d="m 253.281,-272.251 289.93,0" /></g><path
       inkscape:connector-curvature="0"
       id="path3175"
       style="fill:#293d9b;fill-opacity:1;fill-rule:nonzero;stroke:none"
       d="m 365.313,286.923 155.652,0 -155.652,0 z" /><g
       transform="matrix(1,0,0,0.877917,0,457.37598)"
       id="g3177"><path
         inkscape:connector-curvature="0"
         id="path3179"
         style="fill:none;stroke:#293d9b;stroke-width:1.13906002;stroke-linecap:butt;stroke-linejoin:miter;stroke-miterlimit:4;stroke-opacity:1;stroke-dasharray:none"
         d="m 365.313,-194.156 177.296,0" /></g><path
       inkscape:connector-curvature="0"
       id="path3181"
       style="fill:#293d9b;fill-opacity:1;fill-rule:nonzero;stroke:none"
       d="m 254.281,328.157 266.684,0 -266.684,0 z" /><g
       transform="matrix(1,0,0,0.924838,0,457.37598)"
       id="g3183"><path
         inkscape:connector-curvature="0"
         id="path3185"
         style="fill:none;stroke:#293d9b;stroke-width:1.08126998;stroke-linecap:butt;stroke-linejoin:miter;stroke-miterlimit:4;stroke-opacity:1;stroke-dasharray:none"
         d="m 254.281,-139.72 288.36,0" /></g><path
       inkscape:connector-curvature="0"
       id="path3187"
       style="fill:none;stroke:#293d9b;stroke-width:1;stroke-linecap:butt;stroke-linejoin:miter;stroke-miterlimit:4;stroke-opacity:1;stroke-dasharray:none"
       d="m 365.043,226.118 -131.75,0 0,50.125 131.75,0 0,-50.125 z" /><path
       inkscape:connector-curvature="0"
       id="path3189"
       style="fill:none;stroke:#2ba543;stroke-width:0.80000001;stroke-linecap:butt;stroke-linejoin:miter;stroke-miterlimit:4;stroke-opacity:1;stroke-dasharray:3, 2;stroke-dashoffset:0"
       d="m 587.973,435.618 -182.985,0 0,21.36 182.985,0 0,-21.36 z" /><text
       id="text3191"
       transform="scale(1.0908941,-0.91667924)"
       x="405.39893"
       y="-483.14771"
       style="font-size:11.00015068px"><tspan
         id="tspan3193"
         sodipodi:role="line"
         y="-483.14771"
         x="405.39893 412.66428 419.31873 425.38409 431.44946 434.47125 440.53662 446.60199 449.62378 453.25644 459.32181 465.38718 469.01987 475.08524 481.73969 488.39413 494.45953 501.11398"
         style="font-size:10.90894127px;font-variant:normal;font-weight:normal;writing-mode:lr-tb;fill:#2ba543;fill-opacity:1;fill-rule:nonzero;stroke:none;font-family:Arial;-inkscape-font-specification:ArialBold">Species (extended)</tspan></text>
<path
       inkscape:connector-curvature="0"
       id="path3195"
       style="fill:none;stroke:#293d9b;stroke-width:1;stroke-linecap:butt;stroke-linejoin:miter;stroke-miterlimit:4;stroke-opacity:1;stroke-dasharray:none"
       d="m 587.973,408.403 -182.985,0 0,27.446 182.985,0 0,-27.446 z" /><text
       id="text3197"
       transform="scale(1,-1)"
       x="407.68781"
       y="-424.45978"><tspan
         id="tspan3199"
         sodipodi:role="line"
         y="-424.45978"
         x="407.68781 412.68781 418.2478 423.8078 427.13779 432.69781 438.2478 441.0278 443.79779 446.01779 451.56781 454.34781 459.8978 465.45779 471.01779 474.34781 477.1178 480.44781 486.00781 491.00781 496.56781 502.3978 505.72781 511.35779 516.91779 519.68781 521.90778 527.46777 533.02777 538.58777 540.8078 544.13782"
         style="font-size:10px;font-variant:normal;font-weight:normal;writing-mode:lr-tb;fill:#293d9b;fill-opacity:1;fill-rule:nonzero;stroke:none;font-family:Arial;-inkscape-font-specification:Arial">charge: integer {use=”optional”}</tspan><tspan
         id="tspan3201"
         sodipodi:role="line"
         y="-412.45978"
         x="407.68781 412.68781 418.2478 423.8078 432.13779 434.35779 439.35779 444.90781 447.12781 453.22781 458.78781 462.1178 470.44778 476.00781 478.22781 483.78781 486.5578 489.32779 494.32779 497.09781 500.4278 502.6478 508.25781 513.81781 516.58783 519.91779 525.47778 530.47778 536.03778 541.8678 545.19781 550.75781 556.3078 559.08777 561.29779 566.85779 572.41779 577.97778 580.19781 583.52777"
         style="font-size:10px;font-variant:normal;font-weight:normal;writing-mode:lr-tb;fill:#293d9b;fill-opacity:1;fill-rule:nonzero;stroke:none;font-family:Arial;-inkscape-font-specification:Arial">chemicalFormula: string {use=”optional”}</tspan></text>
<path
       inkscape:connector-curvature="0"
       id="path3203"
       style="fill:#24265d;fill-opacity:1;fill-rule:nonzero;stroke:none"
       d="m 492.48,402.114 0,6.16 0,-6.16 z" /><path
       inkscape:connector-curvature="0"
       id="path3205"
       style="fill:none;stroke:#24265d;stroke-width:1;stroke-linecap:butt;stroke-linejoin:miter;stroke-miterlimit:4;stroke-opacity:1;stroke-dasharray:none"
       d="m 492.48,408.274 0,-6.16" /><text
       id="text3207"
       transform="scale(0.92201952,-1.0845757)"
       x="255.7346"
       y="-245.09811"
       style="font-size:11.06423473px"><tspan
         id="tspan3209"
         sodipodi:role="line"
         y="-245.09811"
         x="255.7346 257.78149 262.90793 265.46191 270.57913 276.20343 281.32986 285.93997 292.08063 294.63461"
         style="font-size:9.22019482px;font-variant:normal;font-weight:normal;writing-mode:lr-tb;fill:#293d9b;fill-opacity:1;fill-rule:nonzero;stroke:none;font-family:Arial;-inkscape-font-specification:Arial">id: FbcSId</tspan><tspan
         id="tspan3211"
         sodipodi:role="line"
         y="-234.03389"
         x="255.7346 258.80493 263.93137 269.0578 273.66788 276.22189 278.26877 283.3952 288.51239 291.07562 296.19281 302.33347 304.88748 310.01389 316.67087 321.78809"
         style="font-size:9.22019482px;font-variant:normal;font-weight:normal;writing-mode:lr-tb;fill:#293d9b;fill-opacity:1;fill-rule:nonzero;stroke:none;font-family:Arial;-inkscape-font-specification:Arial">reaction: SIdRef</tspan><tspan
         id="tspan3213"
         sodipodi:role="line"
         y="-222.96965"
         x="255.7346 260.86102 265.98746 271.11389 274.1842 279.30142 281.86465 283.90231 289.02872 294.15515 296.70917 301.82635 306.95279 312.07922 317.20566"
         style="font-size:9.22019482px;font-variant:normal;font-weight:normal;writing-mode:lr-tb;fill:#293d9b;fill-opacity:1;fill-rule:nonzero;stroke:none;font-family:Arial;-inkscape-font-specification:Arial">operation: enum</tspan><tspan
         id="tspan3215"
         sodipodi:role="line"
         y="-211.90541"
         x="255.7346 260.3447 265.47113 267.51801 272.64444 277.76166 280.32486 285.44208 290.56851 295.6857 300.81213 305.93857 307.98544"
         style="font-size:9.22019482px;font-variant:normal;font-weight:normal;writing-mode:lr-tb;fill:#293d9b;fill-opacity:1;fill-rule:nonzero;stroke:none;font-family:Arial;-inkscape-font-specification:Arial">value: double</tspan></text>
<path
       inkscape:connector-curvature="0"
       id="path3217"
       style="fill:none;stroke:#293d9b;stroke-width:1;stroke-linecap:butt;stroke-linejoin:miter;stroke-miterlimit:4;stroke-opacity:1;stroke-dasharray:none"
       d="m 253.281,181.673 -131.75,0 0,13.66 131.75,0 0,-13.66 z" /><text
       id="text3219"
       transform="scale(0.92201952,-1.0845757)"
       x="134.52003"
       y="-170.49826"
       style="font-size:11.06423473px"><tspan
         id="tspan3221"
         sodipodi:role="line"
         y="-170.49826"
         x="134.52003 139.64647 144.25656 146.81056 148.85744 153.46754 158.59396 165.75806 170.88449 172.93137 178.04858 182.65868 185.22189 187.25955 191.86964 196.99608 199.55008 204.6765 210.30083 215.42725 220.03735 226.17799 228.80576 233.93217 240.58916 245.71559"
         style="font-size:9.22019482px;font-variant:normal;font-weight:normal;writing-mode:lr-tb;fill:#293d9b;fill-opacity:1;fill-rule:nonzero;stroke:none;font-family:Arial;-inkscape-font-specification:Arial">activeObjective: FbcSIdRef</tspan></text>
<path
       inkscape:connector-curvature="0"
       id="path3223"
       style="fill:none;stroke:#293d9b;stroke-width:1;stroke-linecap:butt;stroke-linejoin:miter;stroke-miterlimit:4;stroke-opacity:1;stroke-dasharray:none"
       d="m 364.039,112.118 -131.75,0 0,26.981 131.75,0 0,-26.981 z" /><text
       id="text3225"
       transform="scale(0.92201952,-1.0845757)"
       x="254.64786"
       y="-118.64996"
       style="font-size:11.06423473px"><tspan
         id="tspan3227"
         sodipodi:role="line"
         y="-118.64996"
         x="254.64786 256.69473 261.82117 264.37518 269.49237 275.1167 280.24313 284.85321 290.99387 293.54785"
         style="font-size:9.22019482px;font-variant:normal;font-weight:normal;writing-mode:lr-tb;fill:#293d9b;fill-opacity:1;fill-rule:nonzero;stroke:none;font-family:Arial;-inkscape-font-specification:Arial">id: FbcSId</tspan><tspan
         id="tspan3229"
         sodipodi:role="line"
         y="-107.58573"
         x="254.64786 257.20184 261.81195 266.93839 272.06482 274.6188 279.73602 284.86246 289.98886 295.1153"
         style="font-size:9.22019482px;font-variant:normal;font-weight:normal;writing-mode:lr-tb;fill:#293d9b;fill-opacity:1;fill-rule:nonzero;stroke:none;font-family:Arial;-inkscape-font-specification:Arial">type: enum</tspan></text>
<path
       inkscape:connector-curvature="0"
       id="path3231"
       style="fill:none;stroke:#293d9b;stroke-width:1;stroke-linecap:butt;stroke-linejoin:miter;stroke-miterlimit:4;stroke-opacity:1;stroke-dasharray:none"
       d="m 594.844,0.501 -131.75,0 0,26.98 131.75,0 0,-26.98 z" /><text
       id="text3233"
       transform="scale(0.92201957,-1.0845757)"
       x="504.96988"
       y="-15.734979"
       style="font-size:11.06423473px"><tspan
         id="tspan3235"
         sodipodi:role="line"
         y="-15.734979"
         x="504.96988 508.04022 513.16663 518.29309 522.9032 525.45715 527.50403 532.63049 537.74768 540.31091 545.4281 551.56873 554.12274 559.24915 565.90613 571.02338"
         style="font-size:9.22019482px;font-variant:normal;font-weight:normal;writing-mode:lr-tb;fill:#293d9b;fill-opacity:1;fill-rule:nonzero;stroke:none;font-family:Arial;-inkscape-font-specification:Arial">reaction: SIdRef</tspan><tspan
         id="tspan3237"
         sodipodi:role="line"
         y="-4.6707444"
         x="504.96988 509.57999 514.70642 519.83282 522.22089 524.77484 526.82178 531.43182 533.47876 538.60516 543.72235 546.28558 548.8396 553.95679 559.08319 564.20966 569.32684 574.45325 576.50018"
         style="font-size:9.22019482px;font-variant:normal;font-weight:normal;writing-mode:lr-tb;fill:#293d9b;fill-opacity:1;fill-rule:nonzero;stroke:none;font-family:Arial;-inkscape-font-specification:Arial">coefficient: double</tspan></text>
</g></svg>