<?xml version="1.0" encoding="UTF-8" standalone="no"?>
<!-- Generator: Adobe Illustrator 12.0.1, SVG Export Plug-In . SVG Version: 6.00 Build 51448)  -->

<svg
   xmlns:dc="http://purl.org/dc/elements/1.1/"
   xmlns:cc="http://creativecommons.org/ns#"
   xmlns:rdf="http://www.w3.org/1999/02/22-rdf-syntax-ns#"
   xmlns:svg="http://www.w3.org/2000/svg"
   xmlns="http://www.w3.org/2000/svg"
   xmlns:xlink="http://www.w3.org/1999/xlink"
   xmlns:sodipodi="http://sodipodi.sourceforge.net/DTD/sodipodi-0.dtd"
   xmlns:inkscape="http://www.inkscape.org/namespaces/inkscape"
   version="1.1"
   id="Layer_1"
   width="456"
   height="172"
   viewBox="0 0 456 172"
   overflow="visible"
   enable-background="new 0 0 456 172"
   xml:space="preserve"
   inkscape:version="0.91 r13725"
   sodipodi:docname="CurveAndBBStyle.svg"><sodipodi:namedview
     pagecolor="#ffffff"
     bordercolor="#666666"
     borderopacity="1"
     objecttolerance="10"
     gridtolerance="10"
     guidetolerance="10"
     inkscape:pageopacity="0"
     inkscape:pageshadow="2"
     inkscape:window-width="1680"
     inkscape:window-height="987"
     id="namedview71"
     showgrid="false"
     inkscape:zoom="1.786375"
     inkscape:cx="159.76515"
     inkscape:cy="100.59578"
     inkscape:window-x="1272"
     inkscape:window-y="-8"
     inkscape:window-maximized="1"
     inkscape:current-layer="Layer_1" /><metadata
     id="metadata75"><rdf:RDF><cc:Work
         rdf:about=""><dc:format>image/svg+xml</dc:format><dc:type
           rdf:resource="http://purl.org/dc/dcmitype/StillImage" /><dc:title></dc:title></cc:Work></rdf:RDF></metadata><defs
     id="defs73" /><text
     y="96.532204"
     x="98.695801"
     font-size="11.9996"
     id="text5"
     style="font-size:11.99960041px;font-family:Times New Roman;fill:#d10000">&lt;element xsi:type=&quot;RenderPoint&quot; x=&quot;100%&quot; y=50%&quot; /&gt;</text>
<text
     y="10.8247"
     x="-130.54691"
     transform="matrix(0,-1,1,0,0,0)"
     font-size="11.9996"
     id="text7"
     style="font-size:11.99960041px;font-family:Times New Roman;fill:#d10000">Style informatio</text>
<text
     y="10.8247"
     x="-50.994598"
     transform="matrix(0,-1,1,0,0,0)"
     font-size="11.9996"
     id="text9"
     style="font-size:11.99960041px;font-family:Times New Roman;fill:#d10000">n</text>
<text
     y="-444.51071"
     x="42.6763"
     transform="matrix(0,1,-1,0,0,0)"
     font-size="11.9996"
     id="text11"
     style="font-size:11.99960041px;font-family:Times New Roman;fill:#00008f">Style informatio</text>
<text
     y="-444.51071"
     x="122.2295"
     transform="matrix(0,1,-1,0,0,0)"
     font-size="11.9996"
     id="text13"
     style="font-size:11.99960041px;font-family:Times New Roman;fill:#00008f">n</text>
<text
     y="-430.34079"
     x="42.6763"
     transform="matrix(0,1,-1,0,0,0)"
     font-size="11.9996"
     id="text15"
     style="font-size:11.99960041px;font-family:Times New Roman;fill:#00008f">for Curve</text>
<g
     id="g17"><defs
       id="defs19"><path
         id="XMLID_1_"
         d="M 0,0 0,172 456,172 456,0 0,0 Z m 73.123,138.106 9.512,0 0,-3.779 -9.512,0 0,0 7.559,1.89 -7.559,1.889 0,0 z m 0,-99.209 9.512,0 0,-3.78 -9.512,0 0,0 7.559,1.89 -7.559,1.89 0,0 z"
         inkscape:connector-curvature="0" /></defs><clipPath
       id="XMLID_5_"><use
         xlink:href="#XMLID_1_"
         id="use23"
         x="0"
         y="0"
         width="100%"
         height="100%" /></clipPath><polyline
       clip-path="url(#XMLID_5_)"
       stroke-miterlimit="10"
       points="    81.689,37.007 39.171,37.007 39.171,136.217 81.689,136.217   "
       id="polyline25"
       style="fill:none;stroke:#d10000;stroke-width:0.47240001;stroke-miterlimit:10" /></g><polygon
     stroke-miterlimit="10"
     points="73.123,35.118 73.123,38.897 73.123,38.897 80.682,37.007 "
     id="polygon27"
     style="clip-rule:evenodd;fill:#d10000;fill-rule:evenodd;stroke:#d10000;stroke-width:0.47240001;stroke-miterlimit:10" /><polygon
     stroke-miterlimit="10"
     points="73.123,134.327 73.123,138.106 73.123,138.106 80.682,136.217 "
     id="polygon29"
     style="clip-rule:evenodd;fill:#d10000;fill-rule:evenodd;stroke:#d10000;stroke-width:0.47240001;stroke-miterlimit:10" /><g
     id="g31"><defs
       id="defs33"><path
         id="XMLID_3_"
         d="M 0,0 0,172 456,172 456,0 0,0 Z m 118.602,148.5 -9.512,0 0,3.779 9.512,0 0,0 -7.559,-1.89 7.559,-1.889 0,0 z M 317.02,20.945 l -9.511,0 0,3.779 9.511,0 0,0 -7.559,-1.89 7.559,-1.889 0,0 z"
         inkscape:connector-curvature="0" /></defs><clipPath
       id="XMLID_6_"><use
         xlink:href="#XMLID_3_"
         id="use37"
         x="0"
         y="0"
         width="100%"
         height="100%" /></clipPath><polyline
       clip-path="url(#XMLID_6_)"
       stroke-miterlimit="10"
       points="    308.453,22.835 419.001,22.835 419.001,150.39 110.035,150.39   "
       id="polyline39"
       style="fill:none;stroke:#00008f;stroke-width:0.47240001;stroke-miterlimit:10" /></g><polygon
     stroke-miterlimit="10"
     points="317.02,24.725 317.02,20.945 317.02,20.945 309.461,22.835 "
     id="polygon41"
     style="clip-rule:evenodd;fill:#00008f;fill-rule:evenodd;stroke:#00008f;stroke-width:0.47240001;stroke-miterlimit:10" /><polygon
     stroke-miterlimit="10"
     points="118.602,152.279 118.602,148.5 118.602,148.5 111.042,150.39 "
     id="polygon43"
     style="clip-rule:evenodd;fill:#00008f;fill-rule:evenodd;stroke:#00008f;stroke-width:0.47240001;stroke-miterlimit:10" /><text
     y="10.936808"
     x="67.516098"
     font-size="11.9996"
     id="text45"
     style="font-size:11.99960041px;font-family:'Times New Roman'">&lt;style id=ReactionGlyphStyle&quot; typeList=&quot;REACTIONGLYPH&quot;&gt;</text>
<text
     y="167.39549"
     x="67.516098"
     font-size="11.9996"
     id="text49"
     style="font-size:11.99960041px;font-family:Times New Roman">&lt;/style&gt;</text>
<text
     y="25.669399"
     x="76.019501"
     font-size="11.9996"
     id="text51"
     style="font-size:11.99960041px;font-family:Times New Roman;fill:#00008f">&lt;g stroke=&quot;#FF0000&quot; stroke−width=&quot;2.0&quot;&gt;</text>
<text
     y="153.2236"
     x="76.019501"
     font-size="11.9996"
     id="text53"
     style="font-size:11.99960041px;font-family:Times New Roman;fill:#00008f">&lt;/g&gt;</text>
<text
     y="39.841301"
     x="84.523399"
     font-size="11.9996"
     id="text55"
     style="font-size:11.99960041px;font-family:Times New Roman;fill:#d10000">&lt;curve stroke−width=&quot;3.0&quot; stroke=&quot;#000000&quot;&gt;</text>
<text
     y="68.186996"
     x="101.5308"
     font-size="11.9996"
     id="text57"
     style="font-size:11.99960041px;font-family:Times New Roman;fill:#d10000">&lt;element xsi:type=&quot;RenderPoint&quot; x=&quot;0%&quot; y=&quot;50%&quot; /&gt;</text>
<text
     y="110.7051"
     x="101.5308"
     font-size="11.9996"
     id="text59"
     style="font-size:11.99960041px;font-family:Times New Roman;fill:#d10000">&lt;element xsi:type=&quot;RenderPoint&quot; x=&quot;50%&quot; y=&quot;100%&quot; /&gt;</text>
<text
     y="124.8779"
     x="93.026901"
     font-size="11.9996"
     id="text61"
     style="font-size:11.99960041px;font-family:Times New Roman;fill:#d10000">&lt;/listOfElementss&gt;</text>
<text
     y="139.0508"
     x="84.523399"
     font-size="11.9996"
     id="text63"
     style="font-size:11.99960041px;font-family:Times New Roman;fill:#d10000">&lt;/curve&gt;</text>
<text
     y="54.014198"
     x="93.026901"
     font-size="11.9996"
     id="text65"
     style="font-size:11.99960041px;font-family:Times New Roman;fill:#d10000">&lt;listOfElements&gt;</text>
<text
     y="82.359901"
     x="101.5308"
     font-size="11.9996"
     id="text67"
     style="font-size:11.99960041px;font-family:Times New Roman;fill:#d10000">&lt;element xsi:type=&quot;RenderPoint&quot; x=&quot;50%&quot; y=&quot;0%&quot;  /&gt;</text>
<text
     y="27.8325"
     x="-130.54691"
     transform="matrix(0,-1,1,0,0,0)"
     font-size="11.9996"
     id="text69"
     style="font-size:11.99960041px;font-family:Times New Roman;fill:#d10000">for BoundingBox</text>
</svg>