<?xml version="1.0" encoding="UTF-8" standalone="no"?>
<!-- Generator: Adobe Illustrator 12.0.1, SVG Export Plug-In . SVG Version: 6.00 Build 51448)  -->

<svg
   xmlns:dc="http://purl.org/dc/elements/1.1/"
   xmlns:cc="http://creativecommons.org/ns#"
   xmlns:rdf="http://www.w3.org/1999/02/22-rdf-syntax-ns#"
   xmlns:svg="http://www.w3.org/2000/svg"
   xmlns="http://www.w3.org/2000/svg"
   xmlns:xlink="http://www.w3.org/1999/xlink"
   xmlns:sodipodi="http://sodipodi.sourceforge.net/DTD/sodipodi-0.dtd"
   xmlns:inkscape="http://www.inkscape.org/namespaces/inkscape"
   version="1.1"
   id="Layer_1"
   width="242.53799pt"
   height="182pt"
   viewBox="0 0 303.1725 227.50001"
   overflow="visible"
   enable-background="new 0 0 373 286.62"
   xml:space="preserve"
   inkscape:version="0.91 r13725"
   sodipodi:docname="HorizontalTextPlacement_Middle.svg"
   style="overflow:visible"><sodipodi:namedview
     pagecolor="#ffffff"
     bordercolor="#666666"
     borderopacity="1"
     objecttolerance="10"
     gridtolerance="10"
     guidetolerance="10"
     inkscape:pageopacity="0"
     inkscape:pageshadow="2"
     inkscape:window-width="1680"
     inkscape:window-height="987"
     id="namedview67"
     showgrid="false"
     inkscape:zoom="1.0919397"
     inkscape:cx="-199.9505"
     inkscape:cy="83.542002"
     inkscape:window-x="1272"
     inkscape:window-y="-8"
     inkscape:window-maximized="1"
     inkscape:current-layer="Layer_1"
     units="pt"
     fit-margin-left="1"
     fit-margin-top="1"
     fit-margin-right="1"
     fit-margin-bottom="1" /><metadata
     id="metadata71"><rdf:RDF><cc:Work
         rdf:about=""><dc:format>image/svg+xml</dc:format><dc:type
           rdf:resource="http://purl.org/dc/dcmitype/StillImage" /><dc:title></dc:title></cc:Work></rdf:RDF></metadata><defs
     id="defs69" /><g
     id="g4166"
     transform="matrix(0.81386621,0,0,0.81431991,-0.35190714,-3.6860052)"><g
       id="g5"><defs
         id="defs7"><rect
           x="0"
           height="279"
           width="373"
           y="4.0209999"
           id="XMLID_1_" /></defs><clipPath
         id="XMLID_7_"><use
           height="100%"
           width="100%"
           y="0"
           x="0"
           id="use11"
           xlink:href="#XMLID_1_" /></clipPath><rect
         style="fill:none;stroke:#0000ff;stroke-width:2.21104956;stroke-miterlimit:10"
         id="rect13"
         height="125.999"
         width="333"
         stroke-miterlimit="10"
         clip-path="url(#XMLID_7_)"
         y="66.121002"
         x="37.299999" /></g><g
       id="g15"><defs
         id="defs17"><path
           inkscape:connector-curvature="0"
           d="m 0,4.021 0,279 373,0 0,-279 -373,0 z m 17.5,168.899 0,11.1 3.6,0 0,-11.1 0,0 -1.8,9 -1.8,-9 0,0 z m 3.6,-87.6 0,-11.1 -3.6,0 0,11.1 0,0 1.8,-9 1.8,9 0,0 z"
           id="XMLID_3_" /></defs><clipPath
         id="XMLID_8_"><use
           height="100%"
           width="100%"
           y="0"
           x="0"
           id="use21"
           xlink:href="#XMLID_3_" /></clipPath><line
         style="fill:none;stroke:#000000;stroke-width:0.55276239;stroke-miterlimit:10"
         id="line23"
         y2="183.12"
         x2="19.299999"
         y1="75.121002"
         x1="19.299999"
         stroke-miterlimit="10"
         clip-path="url(#XMLID_8_)" /></g><polygon
       style="clip-rule:evenodd;fill-rule:evenodd;stroke:#000000;stroke-width:0.55276239;stroke-miterlimit:10"
       id="polygon25"
       points="21.1,85.32 21.1,85.32 19.3,76.32 17.5,85.32 19.3,83.521 "
       stroke-miterlimit="10" /><polygon
       style="clip-rule:evenodd;fill-rule:evenodd;stroke:#000000;stroke-width:0.55276239;stroke-miterlimit:10"
       id="polygon27"
       points="17.5,172.92 17.5,172.92 19.3,181.92 21.1,172.92 19.3,174.721 "
       stroke-miterlimit="10" /><path
       style="fill:none;stroke:#000000;stroke-width:0.55276239;stroke-miterlimit:10"
       inkscape:connector-curvature="0"
       id="path29"
       d="m 37.3,57.121 0,18 m -9,-9 18,0"
       stroke-miterlimit="10" /><g
       id="g31"><defs
         id="defs33"><path
           inkscape:connector-curvature="0"
           d="m 0,4.021 0,279 373,0 0,-279 -373,0 z m 342.1,203.399 11.1,0 0,-3.6 -11.1,0 0,0 9,1.799 -9,1.801 0,0 z m -267.6,-3.599 -11.1,0 0,3.6 11.1,0 0,0 -9,-1.801 9,-1.799 0,0 z"
           id="XMLID_5_" /></defs><clipPath
         id="XMLID_9_"><use
           height="100%"
           width="100%"
           y="0"
           x="0"
           id="use37"
           xlink:href="#XMLID_5_" /></clipPath><line
         style="fill:none;stroke:#000000;stroke-width:0.55276239;stroke-miterlimit:10"
         id="line39"
         y2="205.62"
         x2="352.29999"
         y1="205.62"
         x1="64.300003"
         stroke-miterlimit="10"
         clip-path="url(#XMLID_9_)" /></g><polygon
       style="clip-rule:evenodd;fill-rule:evenodd;stroke:#000000;stroke-width:0.55276239;stroke-miterlimit:10"
       id="polygon41"
       points="74.5,203.821 74.5,203.821 65.5,205.62 74.5,207.42 72.7,205.62 "
       stroke-miterlimit="10" /><polygon
       style="clip-rule:evenodd;fill-rule:evenodd;stroke:#000000;stroke-width:0.55276239;stroke-miterlimit:10"
       id="polygon43"
       points="342.1,207.42 342.1,207.42 351.1,205.62 342.1,203.821 343.9,205.62 "
       stroke-miterlimit="10" /><path
       style="fill:none;stroke:#ff0000;stroke-width:2.21104956;stroke-miterlimit:10;stroke-dasharray:4.42209904"
       inkscape:connector-curvature="0"
       id="path45"
       d="m 64.3,142.621 283.5,0 m -283.5,-45 283.5,0 M 64.3,154.5 l 283.5,0"
       stroke-miterlimit="10" /><line
       style="fill:none;stroke:#000000;stroke-width:0.55276239;stroke-miterlimit:10"
       id="line47"
       y2="52.620998"
       x2="195.03999"
       y1="52.620998"
       x1="194.56"
       stroke-miterlimit="10" /><line
       style="fill:none;stroke:#000000;stroke-width:2.21104956;stroke-miterlimit:10"
       id="line49"
       y2="246.12"
       x2="194.8"
       y1="66.121002"
       x1="194.8"
       stroke-miterlimit="10" /><text
       style="font-size:12px;font-family:'Times New Roman'"
       id="text51"
       font-size="12"
       transform="matrix(0,-1,1,0,0,0)"
       x="-144.8394"
       y="10.3003">height</text>
<text
       style="font-size:12px;font-family:'Times New Roman'"
       id="text53"
       font-size="12"
       x="5.7997999"
       y="57.120098">P(x,y)</text>
<text
       style="font-size:12px;font-family:'Times New Roman'"
       id="text55"
       font-size="12"
       x="208.2998"
       y="223.6196">width</text>
<text
       style="font-style:normal;font-variant:normal;font-weight:bold;font-stretch:normal;font-size:64px;line-height:125%;font-family:'Courier New';-inkscape-font-specification:'Courier New, Bold';text-align:start;writing-mode:lr-tb;text-anchor:start"
       id="text57"
       font-size="64"
       x="73.299797"
       y="142.6196"
       sodipodi:linespacing="125%">Example</text>
<text
       style="font-style:normal;font-variant:normal;font-weight:normal;font-stretch:normal;font-size:24px;line-height:125%;font-family:'Courier New';-inkscape-font-specification:'Courier New, Normal';text-align:start;writing-mode:lr-tb;text-anchor:start"
       id="text59"
       font-size="24"
       x="73.299797"
       y="48.120098"
       sodipodi:linespacing="125%">text−anchor=&quot;middle&quot;</text>
<text
       style="font-style:normal;font-variant:normal;font-weight:normal;font-stretch:normal;font-size:24px;line-height:125%;font-family:'Courier New';-inkscape-font-specification:'Courier New, Normal';text-align:start;writing-mode:lr-tb;text-anchor:start"
       id="text61"
       font-size="24"
       x="73.299797"
       y="21.1201"
       sodipodi:linespacing="125%">x=&quot;50.0%&quot;</text>
<text
       style="font-size:18px;font-family:'Times New Roman'"
       id="text63"
       font-size="18"
       x="118.2998"
       y="264.1196">horizonal center of text is aligned</text>
<text
       style="font-size:18px;font-family:'Times New Roman'"
       id="text65"
       font-size="18"
       x="118.2998"
       y="282.1196">to horizontal center of box</text>
</g></svg>