<?xml version="1.0" encoding="UTF-8" standalone="no"?>
<!-- Generator: Adobe Illustrator 12.0.1, SVG Export Plug-In . SVG Version: 6.00 Build 51448)  -->

<svg
   xmlns:dc="http://purl.org/dc/elements/1.1/"
   xmlns:cc="http://creativecommons.org/ns#"
   xmlns:rdf="http://www.w3.org/1999/02/22-rdf-syntax-ns#"
   xmlns:svg="http://www.w3.org/2000/svg"
   xmlns="http://www.w3.org/2000/svg"
   xmlns:xlink="http://www.w3.org/1999/xlink"
   xmlns:sodipodi="http://sodipodi.sourceforge.net/DTD/sodipodi-0.dtd"
   xmlns:inkscape="http://www.inkscape.org/namespaces/inkscape"
   version="1.1"
   id="Layer_1"
   width="238.37592pt"
   height="49.99902pt"
   viewBox="0 0 297.96989 62.498774"
   overflow="visible"
   enable-background="new 0 0 370 83.568"
   xml:space="preserve"
   inkscape:version="0.91 r13725"
   sodipodi:docname="VerticalTextPlacement1.svg"
   style="overflow:visible"><sodipodi:namedview
     pagecolor="#ffffff"
     bordercolor="#666666"
     borderopacity="1"
     objecttolerance="10"
     gridtolerance="10"
     guidetolerance="10"
     inkscape:pageopacity="0"
     inkscape:pageshadow="2"
     inkscape:window-width="1680"
     inkscape:window-height="987"
     id="namedview65"
     showgrid="false"
     inkscape:zoom="1.1007933"
     inkscape:cx="-87.862223"
     inkscape:cy="-0.023513305"
     inkscape:window-x="1272"
     inkscape:window-y="-8"
     inkscape:window-maximized="1"
     inkscape:current-layer="Layer_1"
     units="pt"
     fit-margin-left="1"
     fit-margin-top="1"
     fit-margin-right="1"
     fit-margin-bottom="1" /><metadata
     id="metadata69"><rdf:RDF><cc:Work
         rdf:about=""><dc:format>image/svg+xml</dc:format><dc:type
           rdf:resource="http://purl.org/dc/dcmitype/StillImage" /><dc:title></dc:title></cc:Work></rdf:RDF></metadata><defs
     id="defs67" /><g
     id="g4166"
     transform="matrix(0.82120392,0,0,0.81897403,0.34739936,-4.8690113)"><text
       style="font-size:12px;font-family:'Times New Roman';fill:#0000ff"
       id="text5"
       font-size="12"
       x="23.3999"
       y="80.568398">Descent</text>
<g
       id="g7"><defs
         id="defs9"><rect
           x="0"
           height="75"
           width="370"
           y="6.4689999"
           id="XMLID_1_" /></defs><clipPath
         id="XMLID_9_"><use
           height="100%"
           width="100%"
           y="0"
           x="0"
           id="use13"
           xlink:href="#XMLID_1_" /></clipPath><path
         style="fill:none;stroke:#ff0000;stroke-width:2.19488573;stroke-miterlimit:10;stroke-dasharray:4.38977162"
         inkscape:connector-curvature="0"
         id="path15"
         d="m 77.4,8.569 283.5,0 m -283.5,56.88 283.5,0"
         stroke-miterlimit="10"
         clip-path="url(#XMLID_9_)" /></g><g
       id="g17"><defs
         id="defs19"><path
           inkscape:connector-curvature="0"
           d="m 0,6.469 0,75 370,0 0,-75 -370,0 z m 64.68,48.9 9.12,0 0,-3.601 -9.12,0 0,0 7.2,1.8 -7.2,1.801 0,0 z"
           id="XMLID_3_" /></defs><clipPath
         id="XMLID_10_"><use
           height="100%"
           width="100%"
           y="0"
           x="0"
           id="use23"
           xlink:href="#XMLID_3_" /></clipPath><line
         style="fill:none;stroke:#000000;stroke-width:0.54872143;stroke-miterlimit:10"
         id="line25"
         y2="53.568001"
         x2="72.900002"
         y1="53.568001"
         x1="45.900002"
         stroke-miterlimit="10"
         clip-path="url(#XMLID_10_)" /></g><polyline
       style="fill:none;stroke:#000000;stroke-width:0.54872143;stroke-miterlimit:10"
       id="polyline27"
       points="64.68,55.369 71.88,53.568    64.68,51.769  "
       stroke-miterlimit="10" /><g
       id="g29"><defs
         id="defs31"><path
           inkscape:connector-curvature="0"
           d="m 0,6.469 0,75 370,0 0,-75 -370,0 z m 71.1,34.44 0,9.06 3.6,0 0,-9.06 0,0 -1.8,7.2 -1.8,-7.2 0,0 z m 3.6,-24.18 0,-9.06 -3.6,0 0,9.06 0,0 1.8,-7.2 1.8,7.2 0,0 z"
           id="XMLID_5_" /></defs><clipPath
         id="XMLID_11_"><use
           height="100%"
           width="100%"
           y="0"
           x="0"
           id="use35"
           xlink:href="#XMLID_5_" /></clipPath><line
         style="fill:none;stroke:#0000ff;stroke-width:0.54872143;stroke-miterlimit:10"
         id="line37"
         y2="49.068001"
         x2="72.900002"
         y1="8.5690002"
         x1="72.900002"
         stroke-miterlimit="10"
         clip-path="url(#XMLID_11_)" /></g><polygon
       style="clip-rule:evenodd;fill:#0000ff;fill-rule:evenodd;stroke:#0000ff;stroke-width:0.54872143;stroke-miterlimit:10"
       id="polygon39"
       points="72.9,9.529 71.1,16.729 74.7,16.729 74.7,16.729 "
       stroke-miterlimit="10" /><polygon
       style="clip-rule:evenodd;fill:#0000ff;fill-rule:evenodd;stroke:#0000ff;stroke-width:0.54872143;stroke-miterlimit:10"
       id="polygon41"
       points="72.9,48.108 74.7,40.909 71.1,40.909 71.1,40.909 "
       stroke-miterlimit="10" /><line
       style="fill:none;stroke:#0000ff;stroke-width:0.54872143;stroke-miterlimit:10"
       id="line43"
       y2="67.068001"
       x2="72.900002"
       y1="55.909"
       x1="72.900002"
       stroke-miterlimit="10" /><g
       id="g45"><defs
         id="defs47"><path
           inkscape:connector-curvature="0"
           d="m 0,6.469 0,75 370,0 0,-75 -370,0 z m 62.52,62.099 7.62,-5.04 -2.04,-3 -7.56,5.04 0,0 7.02,-2.46 -5.04,5.46 0,0 z"
           id="XMLID_7_" /></defs><clipPath
         id="XMLID_12_"><use
           height="100%"
           width="100%"
           y="0"
           x="0"
           id="use51"
           xlink:href="#XMLID_7_" /></clipPath><line
         style="fill:none;stroke:#0000ff;stroke-width:0.54872143;stroke-miterlimit:10"
         id="line53"
         y2="62.568001"
         x2="68.400002"
         y1="71.568001"
         x1="54.900002"
         stroke-miterlimit="10"
         clip-path="url(#XMLID_12_)" /></g><polyline
       style="fill:none;stroke:#0000ff;stroke-width:0.54872143;stroke-miterlimit:10"
       id="polyline55"
       points="62.52,68.568 67.56,63.108    60.54,65.568  "
       stroke-miterlimit="10" /><text
       style="font-style:normal;font-variant:normal;font-weight:bold;font-stretch:normal;font-size:64px;line-height:125%;font-family:'Courier New';-inkscape-font-specification:'Courier New, Bold';text-align:start;writing-mode:lr-tb;text-anchor:start"
       id="text57"
       font-size="64"
       x="90.899902"
       y="53.568401"
       sodipodi:linespacing="125%">Example</text>
<text
       style="font-size:12px;font-family:'Times New Roman'"
       id="text59"
       font-size="12"
       x="0.89990002"
       y="58.068401">Baseline</text>
<text
       style="font-size:12px;font-family:'Times New Roman';fill:#0000ff"
       id="text61"
       font-size="12"
       x="32.399899"
       y="31.0688">Ascent</text>
<line
       style="fill:none;stroke:#ff0000;stroke-width:2.19488573;stroke-miterlimit:10;stroke-dasharray:4.38977162"
       id="line63"
       y2="53.568001"
       x2="360.89999"
       y1="53.568001"
       x1="77.400002"
       stroke-miterlimit="10" /></g></svg>