<?xml version="1.0" encoding="UTF-8" standalone="no"?>
<!-- Generator: Adobe Illustrator 12.0.1, SVG Export Plug-In . SVG Version: 6.00 Build 51448)  -->

<svg
   xmlns:dc="http://purl.org/dc/elements/1.1/"
   xmlns:cc="http://creativecommons.org/ns#"
   xmlns:rdf="http://www.w3.org/1999/02/22-rdf-syntax-ns#"
   xmlns:svg="http://www.w3.org/2000/svg"
   xmlns="http://www.w3.org/2000/svg"
   xmlns:xlink="http://www.w3.org/1999/xlink"
   xmlns:sodipodi="http://sodipodi.sourceforge.net/DTD/sodipodi-0.dtd"
   xmlns:inkscape="http://www.inkscape.org/namespaces/inkscape"
   version="1.1"
   id="Layer_1"
   width="350.12744pt"
   height="121.99998pt"
   viewBox="0 0 437.65931 152.49998"
   overflow="visible"
   enable-background="new 0 0 650.134 241"
   xml:space="preserve"
   inkscape:version="0.91 r13725"
   sodipodi:docname="VerticalTextPlacement3.svg"
   style="overflow:visible"><sodipodi:namedview
     pagecolor="#ffffff"
     bordercolor="#666666"
     borderopacity="1"
     objecttolerance="10"
     gridtolerance="10"
     guidetolerance="10"
     inkscape:pageopacity="0"
     inkscape:pageshadow="2"
     inkscape:window-width="1680"
     inkscape:window-height="987"
     id="namedview57"
     showgrid="false"
     inkscape:zoom="0.62647625"
     inkscape:cx="-66.577687"
     inkscape:cy="97.620105"
     inkscape:window-x="1272"
     inkscape:window-y="-8"
     inkscape:window-maximized="1"
     inkscape:current-layer="Layer_1"
     units="pt"
     fit-margin-left="1"
     fit-margin-top="1"
     fit-margin-right="1"
     fit-margin-bottom="1" /><metadata
     id="metadata61"><rdf:RDF><cc:Work
         rdf:about=""><dc:format>image/svg+xml</dc:format><dc:type
           rdf:resource="http://purl.org/dc/dcmitype/StillImage" /><dc:title></dc:title></cc:Work></rdf:RDF></metadata><defs
     id="defs59" /><g
     id="g4160"
     transform="matrix(0.68895149,0,0,0.68895149,-6.9955569,-7.3905195)"><rect
       style="fill:none;stroke:#0000ff;stroke-width:2.61266565;stroke-miterlimit:10"
       id="rect5"
       height="126"
       width="333"
       stroke-miterlimit="10"
       y="72.599998"
       x="47.299999" /><g
       id="g7"><defs
         id="defs9"><path
           inkscape:connector-curvature="0"
           d="m 0,0 648.96,0 0,241 L 0,241 0,0 Z m 352.1,213.9 11.1,0 0,-3.6 -11.1,0 0,0 9,1.8 -9,1.8 0,0 z m -267.6,-3.6 -11.1,0 0,3.601 11.1,0 0,0 -9,-1.801 9,-1.8 0,0 z"
           id="XMLID_1_" /></defs><clipPath
         id="XMLID_5_"><use
           height="100%"
           width="100%"
           y="0"
           x="0"
           id="use13"
           xlink:href="#XMLID_1_" /></clipPath><line
         style="fill:none;stroke:#000000;stroke-width:0.65316641;stroke-miterlimit:10"
         id="line15"
         y2="212.10001"
         x2="362.29999"
         y1="212.10001"
         x1="74.300003"
         stroke-miterlimit="10"
         clip-path="url(#XMLID_5_)" /></g><polygon
       style="clip-rule:evenodd;fill-rule:evenodd;stroke:#000000;stroke-width:0.65316641;stroke-miterlimit:10"
       id="polygon17"
       points="84.5,213.9 82.7,212.1 84.5,210.3 84.5,210.3 75.5,212.1 "
       stroke-miterlimit="10" /><polygon
       style="clip-rule:evenodd;fill-rule:evenodd;stroke:#000000;stroke-width:0.65316641;stroke-miterlimit:10"
       id="polygon19"
       points="352.1,210.3 353.9,212.1 352.1,213.9 352.1,213.9 361.1,212.1 "
       stroke-miterlimit="10" /><g
       id="g21"><defs
         id="defs23"><path
           inkscape:connector-curvature="0"
           d="m 0,0 648.96,0 0,241 L 0,241 0,0 Z m 27.5,179.4 0,11.1 3.6,0 0,-11.1 0,0 -1.8,9 -1.8,-9 0,0 z m 3.6,-87.6 0,-11.1 -3.6,0 0,11.1 0,0 1.8,-9 1.8,9 0,0 z"
           id="XMLID_3_" /></defs><clipPath
         id="XMLID_6_"><use
           height="100%"
           width="100%"
           y="0"
           x="0"
           id="use27"
           xlink:href="#XMLID_3_" /></clipPath><line
         style="fill:none;stroke:#000000;stroke-width:0.65316641;stroke-miterlimit:10"
         id="line29"
         y2="189.60001"
         x2="29.299999"
         y1="81.599998"
         x1="29.299999"
         stroke-miterlimit="10"
         clip-path="url(#XMLID_6_)" /></g><polygon
       style="clip-rule:evenodd;fill-rule:evenodd;stroke:#000000;stroke-width:0.65316641;stroke-miterlimit:10"
       id="polygon31"
       points="27.5,91.8 29.3,90 31.1,91.8 31.1,91.8 29.3,82.8 "
       stroke-miterlimit="10" /><polygon
       style="clip-rule:evenodd;fill-rule:evenodd;stroke:#000000;stroke-width:0.65316641;stroke-miterlimit:10"
       id="polygon33"
       points="31.1,179.4 29.3,181.2 27.5,179.4 27.5,179.4 29.3,188.4 "
       stroke-miterlimit="10" /><path
       style="fill:none;stroke:#000000;stroke-width:0.65316641;stroke-miterlimit:10"
       inkscape:connector-curvature="0"
       id="path35"
       d="m 47.3,63.6 0,18 m -9,-9 18,0"
       stroke-miterlimit="10" /><path
       style="fill:none;stroke:#ff0000;stroke-width:2.61266565;stroke-miterlimit:10;stroke-dasharray:5.22533162"
       inkscape:connector-curvature="0"
       id="path37"
       d="m 74.3,149.1 283.5,0 m -283.5,-45 283.5,0 m -283.5,56.879 283.5,0"
       stroke-miterlimit="10" /><line
       style="fill:none;stroke:#000000;stroke-width:2.61266565;stroke-miterlimit:10"
       id="line39"
       y2="131.10001"
       x2="407.29999"
       y1="131.10001"
       x1="33.799999"
       stroke-miterlimit="10" /><text
       style="font-size:12px;font-family:'Times New Roman'"
       id="text41"
       font-size="12"
       x="203.8999"
       y="230.09959">width</text>
<text
       style="font-size:12px;font-family:'Times New Roman'"
       id="text43"
       font-size="12"
       transform="matrix(0,-1,1,0,0,0)"
       x="-151.31931"
       y="20.300301">height</text>
<text
       style="font-size:12px;font-family:'Times New Roman'"
       id="text45"
       font-size="12"
       x="15.7998"
       y="63.600101">P(x,y)</text>
<text
       style="font-style:normal;font-variant:normal;font-weight:bold;font-stretch:normal;font-size:64px;line-height:125%;font-family:'Courier New';-inkscape-font-specification:'Courier New, Bold';text-align:start;writing-mode:lr-tb;text-anchor:start"
       id="text47"
       font-size="64"
       x="83.299797"
       y="149.09959"
       sodipodi:linespacing="125%">Example</text>
<text
       style="font-style:normal;font-variant:normal;font-weight:normal;font-stretch:normal;font-size:24px;line-height:125%;font-family:'Courier New';-inkscape-font-specification:'Courier New, Normal';text-align:start;writing-mode:lr-tb;text-anchor:start"
       id="text49"
       font-size="24"
       x="83.299797"
       y="54.600101"
       sodipodi:linespacing="125%">vtext−anchor=&quot;middle&quot;</text>
<text
       style="font-style:normal;font-variant:normal;font-weight:normal;font-stretch:normal;font-size:24px;line-height:125%;font-family:'Courier New';-inkscape-font-specification:'Courier New, Normal';text-align:start;writing-mode:lr-tb;text-anchor:start"
       id="text51"
       font-size="24"
       x="83.299797"
       y="27.6001"
       sodipodi:linespacing="125%">y=&quot;50.0%&quot;</text>
<text
       style="font-size:18px;font-family:'Times New Roman'"
       id="text53"
       font-size="18"
       x="416.2998"
       y="126.5996">vertical center of text is aligned</text>
<text
       style="font-size:18px;font-family:'Times New Roman'"
       id="text55"
       font-size="18"
       x="416.2998"
       y="144.59959">to vertical center of box</text>
</g></svg>