<?xml version="1.0" encoding="UTF-8" standalone="no"?>
<!-- Created with Inkscape (http://www.inkscape.org/) -->

<svg
   xmlns:dc="http://purl.org/dc/elements/1.1/"
   xmlns:cc="http://creativecommons.org/ns#"
   xmlns:rdf="http://www.w3.org/1999/02/22-rdf-syntax-ns#"
   xmlns:svg="http://www.w3.org/2000/svg"
   xmlns="http://www.w3.org/2000/svg"
   xmlns:sodipodi="http://sodipodi.sourceforge.net/DTD/sodipodi-0.dtd"
   xmlns:inkscape="http://www.inkscape.org/namespaces/inkscape"
   id="svg3114"
   version="1.1"
   inkscape:version="0.48.4 r9939"
   width="512.5"
   height="262.5"
   xml:space="preserve"
   sodipodi:docname="sbase-uml-l3v1r2.svg"><metadata
     id="metadata3120"><rdf:RDF><cc:Work
         rdf:about=""><dc:format>image/svg+xml</dc:format><dc:type
           rdf:resource="http://purl.org/dc/dcmitype/StillImage" /><dc:title /></cc:Work></rdf:RDF></metadata><defs
     id="defs3118" /><sodipodi:namedview
     pagecolor="#ffffff"
     bordercolor="#666666"
     borderopacity="1"
     objecttolerance="10"
     gridtolerance="10"
     guidetolerance="10"
     inkscape:pageopacity="0"
     inkscape:pageshadow="2"
     inkscape:window-width="1437"
     inkscape:window-height="875"
     id="namedview3116"
     showgrid="false"
     inkscape:zoom="1.920571"
     inkscape:cx="261.97746"
     inkscape:cy="131.63941"
     inkscape:window-x="0"
     inkscape:window-y="0"
     inkscape:window-maximized="0"
     inkscape:current-layer="g3124" /><g
     id="g3122"
     inkscape:groupmode="layer"
     inkscape:label="ink_ext_XXXXXX"
     transform="matrix(1.25,0,0,-1.25,0,262.5)"><g
       id="g3124"
       transform="scale(0.1,0.1)"><path
         d="m 20,1556.66 1773.33,0 0,523.336 -1773.33,0 0,-523.336 z"
         style="fill:#ffffff;fill-opacity:1;fill-rule:nonzero;stroke:none"
         id="path3128" /><path
         d="m 20,1556.66 1773.33,0 0,523.332 -1773.33,0 0,-523.332 z"
         style="fill:none;stroke:#000000;stroke-opacity:1;stroke-width:5;stroke-linecap:round;stroke-linejoin:round;stroke-miterlimit:10;stroke-dasharray:none"
         id="path3130" /><g
         id="g3132"
         transform="scale(10,10)"
         style="fill:#000000"><text
   transform="matrix(1,0,0,-1,75.3789,195.167)"
   id="text3134"
   style="fill:#000000;-inkscape-font-specification:Arial;font-family:Arial"><tspan
     style="fill:#000000;fill-opacity:1;fill-rule:nonzero;stroke:none;font-family:Arial;font-style:oblique;font-variant:normal;font-weight:bold;font-size:10;writing-mode:lr;-inkscape-font-specification:Arial"
     x="0 6.67 13.89 19.45 25.01"
     y="0"
     sodipodi:role="line"
     id="tspan3136">SBase</tspan></text>

</g><path
         d="m 23.332,1901.67 1769.998,0"
         style="fill:none;stroke:#000000;stroke-opacity:1;stroke-width:5;stroke-linecap:round;stroke-linejoin:round;stroke-miterlimit:10;stroke-dasharray:none"
         id="path3138" /><g
         id="g3140"
         transform="scale(10,10)"><text
   transform="matrix(1,0,0,-1,7.3332,176.167)"
   id="text3142"><tspan
     style="fill:#000000;fill-opacity:1;fill-rule:nonzero;stroke:none;font-family:Helvetica;font-variant:normal;font-weight:normal;font-size:10;writing-mode:lr;-inkscape-font-specification:Helvetica"
     x="0 8.33 13.89 16.67 22.23 24.45 30.01 32.79 35.57 38.35 45.57 51.12511719 54.47 57.25 62.81 67.81 73.37 79.21 82.76 88.32 93.88 96.66 98.88 104.44 110 115.56 117.78 121.33 124.11"
     y="0"
     sodipodi:role="line"
     id="tspan3144">metaid: ID { use=&quot;optional&quot; }</tspan><tspan
     style="fill:#000000;fill-opacity:1;fill-rule:nonzero;stroke:none;font-family:Helvetica;font-variant:normal;font-weight:normal;font-size:10;writing-mode:lr;-inkscape-font-specification:Helvetica"
     x="0 5 10.56 16.12 21.1216 26.6816 30.0116 38.3416 41.1216 43.9016 50.5716 57.2416 65.0216 70.0232 75.5832 78.9132 87.2432 92.79831719 96.1432 98.9232 104.4832 109.4832 115.0432 120.8832 124.4332 129.9932 135.5532 138.3332 140.5532 146.1132 151.6732 157.2332 159.4532 163.0032 165.7832"
     y="12"
     sodipodi:role="line"
     id="tspan3146">sboTerm: SBOTerm { use=&quot;optional&quot; }</tspan></text>

</g><path
         d="m 1480,725 2595,0 0,625 -2595,0 0,-625 z"
         style="fill:#ffffff;fill-opacity:1;fill-rule:nonzero;stroke:none"
         id="path3148" /><path
         d="m 1480,725 2595,0 0,625 -2595,0 0,-625 z"
         style="fill:none;stroke:#000000;stroke-opacity:1;stroke-width:5;stroke-linecap:round;stroke-linejoin:round;stroke-miterlimit:10;stroke-dasharray:none"
         id="path3150" /><g
         id="g3152"
         transform="scale(10,10)"><text
   transform="matrix(1,0,0,-1,263.859,121.333)"
   id="text3154"
   style="-inkscape-font-specification:Arial;font-family:Arial"><tspan
     style="fill:#000000;fill-opacity:1;fill-rule:nonzero;stroke:none;font-family:Arial;font-variant:normal;font-weight:bold;font-size:10;writing-mode:lr;-inkscape-font-specification:Arial"
     x="0 7.22 13.33 16.66 22.22"
     y="0"
     sodipodi:role="line"
     id="tspan3156">Notes</tspan></text>

</g><path
         d="m 1481.66,1171.67 2591.67,0"
         style="fill:none;stroke:#000000;stroke-opacity:1;stroke-width:5;stroke-linecap:round;stroke-linejoin:round;stroke-miterlimit:10;stroke-dasharray:none"
         id="path3158" /><g
         id="g3160"
         transform="scale(10,10)"><text
   transform="matrix(1,0,0,-1,153.25,103.167)"
   id="text3162"><tspan
     style="fill:#000000;fill-opacity:1;fill-rule:nonzero;stroke:none;font-family:Helvetica;font-variant:normal;font-weight:normal;font-size:10;writing-mode:lr;-inkscape-font-specification:Helvetica"
     x="0 5 13.33 15.55 21.11 26.11 28.89 31.67 36.67 39.45 42.78 45 50.56 56.12 61.67511719 65.02 67.8 71.35 76.91 79.69 82.47 88.03 90.81 93.59 96.37 103.59 110.81 117.483125 120.263125 127.483125 133.043125 135.823125 141.383125 144.713125 150.273125 153.053125 158.613125 164.173125 169.733125 175.293125 178.073125 183.073125 188.633125 191.413125 199.743125 201.963125 205.513125 208.293125"
     y="0"
     sodipodi:role="line"
     id="tspan3164">xmlns: string { &quot;http://www.w3.org/1999/xhtml&quot; }</tspan></text>

<text
   transform="matrix(1,0,0,-1,153.25,91.167)"
   id="text3166"><tspan
     style="fill:#000000;fill-opacity:1;fill-rule:nonzero;stroke:none;font-family:Helvetica;font-style:oblique;font-variant:normal;font-size:10;writing-mode:lr;-inkscape-font-specification:Helvetica-Oblique"
     x="0 3.34 5.57332 12.24332 14.46332 22.79332 28.35332 33.35332 36.13332 38.91332 44.47332 50.03332 55.03332 57.81332 65.03332 70.59332 72.81332 75.03332 78.36332 81.14332 86.70332 90.03332 98.36332 103.92332 109.48332 112.26332 117.26332 122.82332 128.38332 131.16332 136.72332 142.28332 145.06332 147.84332 153.40332 158.96332 162.29332 170.62332 172.84332 175.62332 178.40332 183.96332 189.52332 192.30332 194.52332 200.08332 202.86332 209.53332 216.75332 222.86332 231.19332 236.75332 239.53332"
     y="0"
     sodipodi:role="line"
     id="tspan3168">{ Almost any well-formed content permitted in XHTML, </tspan><tspan
     style="fill:#000000;fill-opacity:1;fill-rule:nonzero;stroke:none;font-family:Helvetica;font-style:oblique;font-variant:normal;font-size:10;writing-mode:lr;-inkscape-font-specification:Helvetica-Oblique"
     x="0 5 10.56 16.11511719 18.34 23.9 28.9 31.68 34.46 37.24 42.8 45.58 51.14 53.92 56.7 62.26 69.48 72.26 75.59 81.15 86.15 88.93 92.26 94.48 99.48 102.26 104.48 110.04 115.6 120.6 123.38 126.16 131.16 136.72 142.28 145.06 147.84 153.4 158.4 161.18 163.96 166.73511719"
     y="12"
     sodipodi:role="line"
     id="tspan3170">subject to a few restrictions; see text. }</tspan></text>

</g><path
         d="m 1480,26.668 2595,0 0,523.332 -2595,0 0,-523.332 z"
         style="fill:#ffffff;fill-opacity:1;fill-rule:nonzero;stroke:none"
         id="path3172" /><path
         d="m 1480,26.668 2595,0 0,523.332 -2595,0 0,-523.332 z"
         style="fill:none;stroke:#000000;stroke-opacity:1;stroke-width:5;stroke-linecap:round;stroke-linejoin:round;stroke-miterlimit:10;stroke-dasharray:none"
         id="path3174" /><g
         id="g3176"
         transform="scale(10,10)"><text
   transform="matrix(1,0,0,-1,251.368,41.3328)"
   id="text3178"
   style="-inkscape-font-specification:Arial;font-family:Arial"><tspan
     style="fill:#000000;fill-opacity:1;fill-rule:nonzero;stroke:none;font-family:Arial;font-variant:normal;font-weight:bold;font-size:10;writing-mode:lr;-inkscape-font-specification:Arial"
     x="0 7.22 13.33 19.44 25.55 28.88 34.44 37.77 40.55 46.66"
     y="0"
     sodipodi:role="line"
     id="tspan3180">Annotation</tspan></text>

</g><path
         d="m 1481.66,371.672 2591.67,0"
         style="fill:none;stroke:#000000;stroke-opacity:1;stroke-width:5;stroke-linecap:round;stroke-linejoin:round;stroke-miterlimit:10;stroke-dasharray:none"
         id="path3182" /><g
         id="g3184"
         transform="scale(10,10)"><text
   transform="matrix(1,0,0,-1,153.245,23.1672)"
   id="text3186"><tspan
     style="fill:#000000;fill-opacity:1;fill-rule:nonzero;stroke:none;font-family:Helvetica;font-variant:normal;font-weight:normal;font-size:10;writing-mode:lr;-inkscape-font-specification:Helvetica"
     x="0 3.34488281"
     y="0"
     sodipodi:role="line"
     id="tspan3188">{ </tspan></text>

<text
   transform="matrix(1,0,0,-1,159.36785,23.1672)"
   id="text3190"><tspan
     style="fill:#000000;fill-opacity:1;fill-rule:nonzero;stroke:none;font-family:Helvetica;font-style:oblique;font-variant:normal;font-size:10;writing-mode:lr;-inkscape-font-specification:Helvetica-Oblique"
     x="0 6.67 12.23 17.23 20.01 27.23 32.79 35.01 37.23 40.56 43.34 48.9 52.23 60.56 66.12 71.68 74.46 81.13 89.46 94.653984 97.433984 102.433984 107.993984 113.553984 116.333984 121.893984 127.453984 130.233984 133.013984 135.793984 141.353984 146.913984 152.473984 155.253984 162.473984 164.693984 167.473984 173.033984 175.813984 181.373984 186.933984 191.933984 197.493984 200.273984 203.053984 208.613984 214.173984 217.503984 219.723984 225.283984 230.283984 235.843984 238.063984"
     y="0"
     sodipodi:role="line"
     id="tspan3192">Any well-formed XML content, and with each top-level </tspan><tspan
     style="fill:#000000;fill-opacity:1;fill-rule:nonzero;stroke:none;font-family:Helvetica;font-style:oblique;font-variant:normal;font-size:10;writing-mode:lr;-inkscape-font-specification:Helvetica-Oblique"
     x="-3.33797 2.22203 4.44203 10.00203 18.33203 23.89203 29.45203 32.23203 35.01203 40.57203 42.79203 48.35203 53.35203 58.91203 64.47203 67.25203 69.47203 75.03203 77.81203 83.37203 86.15203 91.71203 97.27203 99.49203 105.05203 110.61203 116.17203 118.95203 125.62203 133.95203 139.145819 141.925819 147.485819 153.045819 161.375819 166.935819 171.935819 177.495819 183.055819 188.055819 193.615819 196.395819 199.175819 204.175819 209.735819 215.295819 218.075819 220.855819 226.415819 231.415819 234.195819 236.975819 239.75093619"
     y="12"
     sodipodi:role="line"
     id="tspan3194">element placed in a unique XML namespace; see text. }</tspan></text>

</g><path
         d="m 155,1472.91 0,-206.25 1325,0"
         style="fill:none;stroke:#000000;stroke-opacity:1;stroke-width:5;stroke-linecap:round;stroke-linejoin:round;stroke-miterlimit:10;stroke-dasharray:none"
         id="path3196" /><path
         d="m 155,1552.91 -30,-40 30,-40 30,40 -30,40 z"
         style="fill:#000000;fill-opacity:1;fill-rule:nonzero;stroke:none"
         id="path3198" /><path
         d="m 155,1552.91 -30,-40 30,-40 30,40 -30,40 z"
         style="fill:none;stroke:#000000;stroke-opacity:1;stroke-width:5;stroke-linecap:butt;stroke-linejoin:miter;stroke-miterlimit:10;stroke-dasharray:none"
         id="path3200" /><g
         id="g3202"
         transform="scale(10,10)"><text
   transform="matrix(1,0,0,-1,22,130.5)"
   id="text3204"><tspan
     style="fill:#000000;fill-opacity:1;fill-rule:nonzero;stroke:none;font-family:Helvetica;font-variant:normal;font-weight:normal;font-size:10;writing-mode:lr;-inkscape-font-specification:Helvetica"
     x="0 5.56 11.12 13.9 19.46"
     y="0"
     sodipodi:role="line"
     id="tspan3206">notes</tspan></text>

</g><path
         d="m 1480,465 -1325,0 0,801.66"
         style="fill:none;stroke:#000000;stroke-opacity:1;stroke-width:5;stroke-linecap:round;stroke-linejoin:round;stroke-miterlimit:10;stroke-dasharray:none"
         id="path3208" /><g
         id="g3210"
         transform="scale(10,10)"><text
   transform="matrix(1,0,0,-1,22,50)"
   id="text3212"><tspan
     style="fill:#000000;fill-opacity:1;fill-rule:nonzero;stroke:none;font-family:Helvetica;font-variant:normal;font-weight:normal;font-size:10;writing-mode:lr;-inkscape-font-specification:Helvetica"
     x="0 5.56 11.12 16.68 22.24 25.02 30.58 33.36 35.58 41.14"
     y="0"
     sodipodi:role="line"
     id="tspan3214">annotation</tspan><tspan
     style="fill:#000000;fill-opacity:1;fill-rule:nonzero;stroke:none;font-family:Helvetica;font-variant:normal;font-weight:normal;font-size:10;writing-mode:lr;-inkscape-font-specification:Helvetica"
     x="101.66 107.22 110 112.78"
     y="-80.5"
     sodipodi:role="line"
     id="tspan3216">0..1</tspan><tspan
     style="fill:#000000;fill-opacity:1;fill-rule:nonzero;stroke:none;font-family:Helvetica;font-variant:normal;font-weight:normal;font-size:10;writing-mode:lr;-inkscape-font-specification:Helvetica"
     x="101.66 107.22 110 112.78"
     y="-1"
     sodipodi:role="line"
     id="tspan3218">0..1</tspan></text>

</g><text
         xml:space="preserve"
         style="font-size:40px;font-style:oblique;font-weight:bold;line-height:124%;letter-spacing:0px;word-spacing:0px;fill:#000000;fill-opacity:1;stroke:none;font-family:Sans;-inkscape-font-specification:Sans Bold Oblique"
         x="139.02116"
         y="-24.393847"
         id="text3029"
         sodipodi:linespacing="124%"
         transform="matrix(8,0,0,-8,0,2100)"><tspan
           sodipodi:role="line"
           id="tspan3031"
           x="139.02116"
           y="-24.393847" /></text>
<text
         xml:space="preserve"
         style="font-size:40px;font-style:normal;font-weight:normal;line-height:125%;letter-spacing:0px;word-spacing:0px;fill:#000000;fill-opacity:1;stroke:none;font-family:Sans"
         x="142.14523"
         y="-16.583668"
         id="text3033"
         sodipodi:linespacing="125%"
         transform="matrix(8,0,0,-8,0,2100)"><tspan
           sodipodi:role="line"
           id="tspan3035"
           x="142.14523"
           y="-16.583668" /></text>
</g></g></svg>